<?xml version="1.0" encoding="UTF-8"?> <svg xmlns="http://www.w3.org/2000/svg" width="159" height="155" viewBox="0 0 264 258" fill="none"> <path d="M20.5333 245.04L22.565 240.767C24.9659 242.725 29.0291 243.971 32.723 243.971C37.525 243.971 39.5565 242.369 39.5565 240.055C39.5565 233.645 21.0874 237.918 21.0874 226.702C21.0874 221.895 25.1506 217.8 33.6464 217.8C37.3403 217.8 41.2188 218.691 43.9891 220.471L42.1422 224.744C39.3719 223.141 36.2321 222.429 33.6464 222.429C28.8445 222.429 26.9975 224.21 26.9975 226.524C26.9975 232.933 45.4667 228.661 45.4667 239.699C45.4667 244.506 41.4035 248.6 32.9077 248.6C28.1057 248.6 23.119 247.176 20.5333 245.04Z" fill="#0A196E"></path> <path d="M68.9333 247.013C67.6227 248.071 65.5631 248.6 63.5035 248.6C58.261 248.6 55.2653 245.955 55.2653 241.016V230.081H51.3333V225.848H55.2653V220.734H60.8823V225.848H67.2482V230.081H60.8823V240.84C60.8823 242.957 62.0057 244.191 64.2525 244.191C65.3759 244.191 66.4993 243.838 67.4355 243.309L68.9333 247.013Z" fill="#0A196E"></path> <path d="M92.4 225.134V230.369C91.8649 230.369 91.5081 230.188 91.1514 230.188C87.0487 230.188 84.5514 232.535 84.5514 237.409V248.6H79.2V225.495H84.373V228.924C85.8 226.397 88.6541 225.134 92.4 225.134Z" fill="#0A196E"></path> <path d="M120.267 234.986V248.421H115.31V245.555C114.071 247.526 111.593 248.6 108.23 248.6C103.097 248.6 99.7333 245.734 99.7333 241.793C99.7333 238.031 102.212 234.986 109.115 234.986H114.956V234.628C114.956 231.403 113.009 229.612 109.292 229.612C106.814 229.612 104.159 230.508 102.389 231.941L100.264 228C102.743 226.029 106.283 225.134 109.823 225.134C116.372 225.134 120.267 228.358 120.267 234.986ZM114.956 241.256V238.569H109.469C105.929 238.569 104.867 240.002 104.867 241.614C104.867 243.585 106.46 244.839 109.115 244.839C111.77 244.839 114.071 243.585 114.956 241.256Z" fill="#0A196E"></path> <path d="M146.667 247.013C145.356 248.071 143.296 248.6 141.237 248.6C135.994 248.6 132.999 245.955 132.999 241.016V230.081H129.067V225.848H132.999V220.734H138.616V225.848H144.982V230.081H138.616V240.84C138.616 242.957 139.739 244.191 141.986 244.191C143.109 244.191 144.233 243.838 145.169 243.309L146.667 247.013Z" fill="#0A196E"></path> <path d="M177.467 238.569H158.243C159.005 241.972 161.86 244.122 166.237 244.122C168.902 244.122 171.186 243.226 172.899 241.614L175.944 244.839C173.66 247.346 170.234 248.6 166.047 248.6C157.863 248.6 152.533 243.585 152.533 236.777C152.533 229.97 157.863 225.134 165.095 225.134C172.137 225.134 177.467 229.791 177.467 236.957C177.467 237.494 177.467 238.031 177.467 238.569ZM158.243 234.986H172.137C171.757 231.762 168.902 229.433 165.285 229.433C161.479 229.433 158.814 231.762 158.243 234.986Z" fill="#0A196E"></path> <path d="M208.267 245.143C208.267 253.615 203.93 257.4 195.8 257.4C191.464 257.4 187.128 256.319 184.598 254.156L186.947 250.01C188.934 251.632 192.367 252.714 195.439 252.714C200.498 252.714 202.846 250.37 202.846 245.683V244.422C200.859 246.585 198.149 247.486 195.077 247.486C188.392 247.486 183.333 242.98 183.333 236.31C183.333 229.64 188.392 225.134 195.077 225.134C198.329 225.134 201.22 226.215 203.027 228.378V225.314H208.267V245.143ZM202.846 236.31C202.846 232.344 199.956 229.821 195.8 229.821C191.644 229.821 188.754 232.524 188.754 236.31C188.754 240.276 191.644 242.98 195.8 242.98C199.956 242.98 202.846 240.276 202.846 236.31Z" fill="#0A196E"></path> <path d="M243.467 225.316L232.39 250.473C230.174 255.76 227.221 257.4 223.344 257.4C220.944 257.4 218.544 256.671 217.067 255.213L219.282 251.202C220.39 252.296 221.867 252.843 223.344 252.843C225.374 252.843 226.482 251.931 227.59 249.562L227.959 248.65L217.621 225.134H223.344L230.728 242.452L238.297 225.134H243.467V225.316Z" fill="#0A196E"></path> <path d="M86.5333 169.4V209H77.55L60.5 187.88V209H49.8667V169.4H58.85L75.9 190.52V169.4H86.5333Z" fill="#0A196E"></path> <path d="M95.3333 189.2C95.3333 177.575 104.753 169.4 117.632 169.4C125.129 169.4 131.089 171.944 134.933 176.666L127.628 182.843C125.129 179.936 122.054 178.301 118.017 178.301C111.289 178.301 106.675 182.661 106.675 189.2C106.675 195.74 111.289 200.099 118.017 200.099C121.861 200.099 124.937 198.465 127.628 195.558L134.933 201.734C131.089 206.457 124.937 209 117.632 209C104.753 209 95.3333 200.826 95.3333 189.2Z" fill="#0A196E"></path> <path d="M139.333 189.2C139.333 177.756 148.422 169.4 160.6 169.4C172.778 169.4 181.867 177.756 181.867 189.2C181.867 200.644 172.778 209 160.6 209C148.422 209 139.333 200.644 139.333 189.2ZM170.961 189.2C170.961 182.661 166.417 178.301 160.6 178.301C154.783 178.301 150.239 182.661 150.239 189.2C150.239 195.74 154.783 200.099 160.6 200.099C166.417 200.099 170.961 195.74 170.961 189.2Z" fill="#0A196E"></path> <path d="M207.264 198.44H201.427V209H190.667V169.4H208.175C218.571 169.4 225.137 175.058 225.137 184.109C225.137 189.955 222.401 194.292 217.659 196.555L225.867 209H214.194L207.264 198.44ZM207.446 178.075H201.427V189.766H207.446C212.006 189.766 214.194 187.692 214.194 183.92C214.194 180.338 211.823 178.075 207.446 178.075Z" fill="#0A196E"></path> <path d="M264 209H233.2V169.4H263.271V178.075H243.953V184.675H260.902V192.972H243.953V200.138H264V209Z" fill="#0A196E"></path> <path d="M27.298 169.4H16.702L0 209L12.5714 204.852L21.9102 180.338L32.8653 209H44L27.298 169.4Z" fill="#0A196E"></path> <path d="M60.1338 133.466L196.129 0L230.267 66.7332L60.1338 133.466Z" fill="#239BF5"></path> <path d="M60.1338 133.466L131.462 0L153.388 42.089L60.1338 133.466Z" fill="#5AEBD2"></path> <path d="M153.388 42.0898L60.1338 133.467L166.71 67.8417L153.388 42.0898Z" fill="#0A196E"></path> <path d="M60.1338 133.468L186.415 106.055L200.848 133.468H60.1338Z" fill="#5AEBD2"></path> </svg> 