<?xml version="1.0" encoding="UTF-8"?> <svg xmlns="http://www.w3.org/2000/svg" width="440" height="128" viewBox="0 0 440 128" fill="none"> <path d="M423.593 0H16.4074C7.38743 0 0 7.204 0 16V112C0 120.796 7.38743 128 16.4074 128H423.593C432.613 128 440 120.796 440 112V16C440 7.204 432.613 0 423.593 0Z" fill="black"></path> <path d="M97.8646 63.3088C97.7694 52.9952 106.524 47.9776 106.925 47.744C101.966 40.6944 94.2812 39.7312 91.5805 39.6544C85.1259 38.992 78.8648 43.4208 75.5768 43.4208C72.2231 43.4208 67.1598 39.7184 61.7027 39.8272C54.6803 39.9328 48.1108 43.8976 44.5077 50.0544C37.0719 62.608 42.6176 81.056 49.7417 91.2032C53.3053 96.1727 57.4695 101.722 62.9201 101.526C68.2525 101.312 70.2444 98.2112 76.6793 98.2112C83.0553 98.2112 84.9257 101.526 90.4845 101.402C96.2074 101.312 99.8105 96.4095 103.249 91.3952C107.368 85.6992 109.022 80.0896 109.087 79.8016C108.953 79.7568 97.9729 75.6704 97.8646 63.3088Z" fill="white"></path> <path d="M87.3638 32.9792C90.2319 29.4816 92.1942 24.7232 91.6495 19.8944C87.4984 20.0736 82.3071 22.6944 79.3176 26.1152C76.6728 29.1296 74.3101 34.0704 74.9205 38.7168C79.5834 39.056 84.3711 36.4224 87.3638 32.9792Z" fill="white"></path> <path d="M175.035 100.813H167.583L163.501 88.3039H149.311L145.423 100.813H138.167L152.225 58.2271H160.908L175.035 100.813ZM162.27 83.0559L158.578 71.9359C158.188 70.7999 157.456 68.1247 156.376 63.9135H156.245C155.815 65.7247 155.123 68.3999 154.171 71.9359L150.545 83.0559H162.27Z" fill="white"></path> <path d="M159.985 33.0289C159.985 36.7953 158.826 39.6305 156.512 41.5345C154.369 43.2913 151.323 44.1713 147.378 44.1713C145.422 44.1713 143.748 44.0881 142.347 43.9217V23.3425C144.175 23.0545 146.144 22.9073 148.271 22.9073C152.029 22.9073 154.861 23.7041 156.772 25.2977C158.911 27.0993 159.985 29.6753 159.985 33.0289ZM156.358 33.1217C156.358 30.6801 155.695 28.8081 154.369 27.5025C153.043 26.2001 151.107 25.5473 148.557 25.5473C147.473 25.5473 146.551 25.6177 145.787 25.7649V41.4097C146.21 41.4737 146.984 41.5025 148.11 41.5025C150.742 41.5025 152.774 40.7889 154.205 39.3617C155.636 37.9345 156.358 35.8545 156.358 33.1217Z" fill="white"></path> <path d="M179.214 36.3184C179.214 38.6384 178.535 40.5392 177.176 42.0304C175.752 43.5632 173.865 44.328 171.508 44.328C169.237 44.328 167.428 43.5952 166.079 42.1232C164.734 40.6544 164.061 38.8016 164.061 36.568C164.061 34.232 164.754 32.3152 166.145 30.8272C167.537 29.3392 169.407 28.5936 171.764 28.5936C174.035 28.5936 175.86 29.3264 177.242 30.7952C178.555 32.2224 179.214 34.0656 179.214 36.3184ZM175.647 36.4272C175.647 35.0352 175.338 33.8416 174.724 32.8464C174.002 31.6432 172.975 31.0416 171.639 31.0416C170.258 31.0416 169.207 31.6432 168.485 32.8464C167.868 33.8416 167.563 35.0544 167.563 36.488C167.563 37.88 167.871 39.0736 168.485 40.0688C169.23 41.272 170.267 41.8736 171.606 41.8736C172.919 41.8736 173.95 41.2624 174.692 40.0368C175.328 39.0224 175.647 37.8192 175.647 36.4272Z" fill="white"></path> <path d="M204.998 28.9008L200.157 43.9856H197.006L195.001 37.4352C194.492 35.8 194.079 34.1744 193.757 32.5616H193.695C193.396 34.2192 192.982 35.8416 192.451 37.4352L190.321 43.9856H187.134L182.582 28.9008H186.116L187.866 36.072C188.289 37.768 188.637 39.384 188.916 40.9136H188.978C189.234 39.6528 189.658 38.0464 190.255 36.104L192.451 28.904H195.254L197.357 35.9504C197.866 37.6688 198.28 39.3232 198.598 40.9168H198.693C198.926 39.3648 199.277 37.7104 199.743 35.9504L201.621 28.904H204.998V28.9008Z" fill="white"></path> <path d="M222.829 43.9857H219.39V35.3457C219.39 32.6832 218.353 31.352 216.272 31.352C215.251 31.352 214.427 31.7168 213.787 32.4496C213.154 33.1825 212.832 34.0464 212.832 35.0352V43.9825H209.393V33.2113C209.393 31.8864 209.35 30.4496 209.268 28.8944H212.291L212.452 31.2529H212.547C212.947 30.5201 213.545 29.9152 214.329 29.432C215.261 28.8688 216.305 28.584 217.447 28.584C218.891 28.584 220.092 29.0384 221.047 29.9504C222.235 31.0672 222.829 32.7345 222.829 34.9489V43.9857Z" fill="white"></path> <path d="M232.314 43.9856H228.878V21.9792H232.314V43.9856Z" fill="white"></path> <path d="M252.565 36.3184C252.565 38.6384 251.885 40.5392 250.527 42.0304C249.102 43.5632 247.212 44.328 244.859 44.328C242.584 44.328 240.776 43.5952 239.43 42.1232C238.084 40.6544 237.412 38.8016 237.412 36.568C237.412 34.232 238.104 32.3152 239.496 30.8272C240.887 29.3392 242.758 28.5936 245.111 28.5936C247.386 28.5936 249.207 29.3264 250.592 30.7952C251.905 32.2224 252.565 34.0656 252.565 36.3184ZM248.994 36.4272C248.994 35.0352 248.685 33.8416 248.072 32.8464C247.353 31.6432 246.322 31.0416 244.99 31.0416C243.605 31.0416 242.555 31.6432 241.836 32.8464C241.219 33.8416 240.913 35.0544 240.913 36.488C240.913 37.88 241.222 39.0736 241.836 40.0688C242.581 41.272 243.618 41.8736 244.957 41.8736C246.27 41.8736 247.297 41.2624 248.039 40.0368C248.679 39.0224 248.994 37.8192 248.994 36.4272Z" fill="white"></path> <path d="M269.211 43.9856H266.123L265.867 42.248H265.772C264.715 43.6336 263.208 44.328 261.252 44.328C259.792 44.328 258.61 43.8704 257.721 42.9616C256.913 42.136 256.51 41.1088 256.51 39.8896C256.51 38.0464 257.297 36.6416 258.883 35.6688C260.465 34.696 262.69 34.2192 265.555 34.2416V33.96C265.555 31.9728 264.485 30.9808 262.342 30.9808C260.816 30.9808 259.47 31.3552 258.308 32.0976L257.609 29.896C259.047 29.0288 260.822 28.5936 262.916 28.5936C266.96 28.5936 268.988 30.6736 268.988 34.8336V40.3888C268.988 41.896 269.064 43.096 269.211 43.9856ZM265.64 38.8016V36.4752C261.846 36.4112 259.949 37.4256 259.949 39.5152C259.949 40.3024 260.166 40.8912 260.609 41.2848C261.052 41.6784 261.617 41.8736 262.289 41.8736C263.044 41.8736 263.75 41.64 264.393 41.176C265.04 40.7088 265.437 40.1168 265.585 39.3904C265.621 39.2272 265.64 39.0288 265.64 38.8016Z" fill="white"></path> <path d="M288.756 43.9856H285.704L285.543 41.5632H285.448C284.473 43.4064 282.812 44.328 280.479 44.328C278.614 44.328 277.062 43.6144 275.831 42.1872C274.601 40.76 273.987 38.9072 273.987 36.632C273.987 34.1904 274.653 32.2128 275.992 30.7024C277.289 29.2944 278.877 28.5904 280.768 28.5904C282.845 28.5904 284.299 29.272 285.126 30.6384H285.192V21.9792H288.635V39.9216C288.635 41.3904 288.674 42.744 288.756 43.9856ZM285.192 37.624V35.1088C285.192 34.6736 285.159 34.3216 285.097 34.0528C284.903 33.2464 284.486 32.568 283.853 32.0208C283.213 31.4736 282.441 31.1984 281.552 31.1984C280.269 31.1984 279.264 31.6944 278.526 32.6896C277.794 33.6848 277.423 34.9552 277.423 36.5072C277.423 37.9984 277.774 39.208 278.48 40.1392C279.225 41.1312 280.229 41.6272 281.486 41.6272C282.615 41.6272 283.518 41.2144 284.204 40.3856C284.867 39.6208 285.192 38.6992 285.192 37.624Z" fill="white"></path> <path d="M318.173 36.3184C318.173 38.6384 317.494 40.5392 316.135 42.0304C314.711 43.5632 312.827 44.328 310.467 44.328C308.199 44.328 306.391 43.5952 305.038 42.1232C303.693 40.6544 303.02 38.8016 303.02 36.568C303.02 34.232 303.712 32.3152 305.104 30.8272C306.496 29.3392 308.366 28.5936 310.726 28.5936C312.994 28.5936 314.822 29.3264 316.201 30.7952C317.513 32.2224 318.173 34.0656 318.173 36.3184ZM314.609 36.4272C314.609 35.0352 314.3 33.8416 313.687 32.8464C312.961 31.6432 311.937 31.0416 310.598 31.0416C309.22 31.0416 308.169 31.6432 307.444 32.8464C306.827 33.8416 306.522 35.0544 306.522 36.488C306.522 37.88 306.83 39.0736 307.444 40.0688C308.189 41.272 309.226 41.8736 310.565 41.8736C311.878 41.8736 312.912 41.2624 313.654 40.0368C314.287 39.0224 314.609 37.8192 314.609 36.4272Z" fill="white"></path> <path d="M336.667 43.9857H333.231V35.3457C333.231 32.6832 332.194 31.352 330.11 31.352C329.089 31.352 328.265 31.7168 327.629 32.4496C326.992 33.1825 326.674 34.0464 326.674 35.0352V43.9825H323.231V33.2113C323.231 31.8864 323.191 30.4496 323.109 28.8944H326.129L326.29 31.2529H326.385C326.788 30.5201 327.386 29.9152 328.167 29.432C329.102 28.8688 330.143 28.584 331.288 28.584C332.729 28.584 333.93 29.0384 334.885 29.9504C336.077 31.0672 336.667 32.7345 336.667 34.9489V43.9857Z" fill="white"></path> <path d="M359.816 31.4128H356.028V38.7408C356.028 40.6032 356.701 41.5344 358.033 41.5344C358.651 41.5344 359.163 41.4832 359.566 41.3776L359.655 43.9216C358.975 44.1712 358.083 44.296 356.983 44.296C355.624 44.296 354.568 43.8928 353.803 43.0864C353.035 42.28 352.654 40.9232 352.654 39.0192V31.4128H350.393V28.9008H352.654V26.136L356.025 25.144V28.8976H359.812V31.4128H359.816Z" fill="white"></path> <path d="M378.025 43.9856H374.582V35.4096C374.582 32.7056 373.545 31.352 371.467 31.352C369.872 31.352 368.782 32.136 368.185 33.704C368.083 34.0336 368.024 34.4368 368.024 34.9104V43.9824H364.588V21.9792H368.024V31.0704H368.09C369.173 29.416 370.725 28.5904 372.737 28.5904C374.162 28.5904 375.34 29.0448 376.275 29.9568C377.44 31.0928 378.025 32.7824 378.025 35.016V43.9856Z" fill="white"></path> <path d="M396.808 35.7296C396.808 36.3312 396.762 36.8368 396.68 37.2496H386.364C386.41 38.7408 386.902 39.8768 387.858 40.664C388.731 41.368 389.856 41.72 391.235 41.72C392.761 41.72 394.152 41.4832 395.406 41.0064L395.944 43.336C394.477 43.9568 392.751 44.2672 390.752 44.2672C388.356 44.2672 386.469 43.5792 385.104 42.2032C383.732 40.8272 383.053 38.9808 383.053 36.664C383.053 34.3888 383.686 32.4944 384.963 30.984C386.295 29.3712 388.097 28.5648 390.372 28.5648C392.597 28.5648 394.287 29.3712 395.429 30.984C396.351 32.264 396.808 33.848 396.808 35.7296ZM393.526 34.8624C393.552 33.8672 393.325 33.0096 392.859 32.2864C392.262 31.3552 391.353 30.888 390.122 30.888C389 30.888 388.084 31.3424 387.385 32.2544C386.814 32.9808 386.476 33.848 386.364 34.8624H393.526Z" fill="white"></path> <path d="M211.187 85.0816C211.187 90.304 209.74 94.432 206.846 97.4624C204.253 100.16 201.034 101.507 197.192 101.507C193.044 101.507 190.064 100.054 188.25 97.1488H188.118V113.325H181.122V80.2144C181.122 76.9312 181.034 73.5616 180.863 70.1056H187.016L187.406 74.9728H187.538C189.871 71.3056 193.411 69.4752 198.163 69.4752C201.878 69.4752 204.979 70.9056 207.459 73.7696C209.947 76.6368 211.187 80.4064 211.187 85.0816ZM204.06 85.3312C204.06 82.3424 203.371 79.8784 201.986 77.9392C200.473 75.9168 198.442 74.9056 195.895 74.9056C194.169 74.9056 192.601 75.4688 191.2 76.5792C189.795 77.6992 188.876 79.1616 188.446 80.9728C188.23 81.8176 188.122 82.5088 188.122 83.0528V88.1728C188.122 90.4064 188.824 92.2912 190.228 93.8304C191.633 95.3696 193.457 96.1376 195.702 96.1376C198.337 96.1376 200.388 95.1456 201.855 93.168C203.325 91.1872 204.06 88.576 204.06 85.3312Z" fill="white"></path> <path d="M247.405 85.0816C247.405 90.304 245.958 94.432 243.06 97.4624C240.471 100.16 237.252 101.507 233.409 101.507C229.261 101.507 226.282 100.054 224.47 97.1488H224.339V113.325H217.343V80.2144C217.343 76.9312 217.254 73.5616 217.084 70.1056H223.237L223.627 74.9728H223.758C226.088 71.3056 229.629 69.4752 234.384 69.4752C238.095 69.4752 241.196 70.9056 243.684 73.7696C246.161 76.6368 247.405 80.4064 247.405 85.0816ZM240.277 85.3312C240.277 82.3424 239.585 79.8784 238.2 77.9392C236.687 75.9168 234.663 74.9056 232.113 74.9056C230.384 74.9056 228.818 75.4688 227.414 76.5792C226.01 77.6992 225.094 79.1616 224.664 80.9728C224.451 81.8176 224.339 82.5088 224.339 83.0528V88.1728C224.339 90.4064 225.041 92.2912 226.439 93.8304C227.844 95.3664 229.668 96.1376 231.919 96.1376C234.554 96.1376 236.605 95.1456 238.072 93.168C239.542 91.1872 240.277 88.576 240.277 85.3312Z" fill="white"></path> <path d="M287.898 88.8704C287.898 92.4928 286.609 95.44 284.02 97.7152C281.175 100.202 277.214 101.443 272.124 101.443C267.425 101.443 263.658 100.56 260.806 98.7904L262.427 93.104C265.499 94.9152 268.869 95.824 272.541 95.824C275.176 95.824 277.227 95.2416 278.7 94.0832C280.167 92.9248 280.899 91.3696 280.899 89.4304C280.899 87.7024 280.295 86.2464 279.084 85.0656C277.88 83.8848 275.868 82.7872 273.059 81.7728C265.414 78.992 261.594 74.9184 261.594 69.5616C261.594 66.0608 262.933 63.1904 265.614 60.9568C268.285 58.72 271.849 57.6032 276.305 57.6032C280.279 57.6032 283.58 58.2784 286.215 59.6256L284.466 65.1872C282.005 63.8816 279.222 63.2288 276.108 63.2288C273.647 63.2288 271.724 63.8208 270.346 64.9984C269.181 66.0512 268.597 67.3344 268.597 68.8544C268.597 70.5376 269.263 71.9296 270.602 73.024C271.766 74.0352 273.883 75.1296 276.955 76.3104C280.712 77.7856 283.472 79.5104 285.247 81.488C287.016 83.4592 287.898 85.9264 287.898 88.8704Z" fill="white"></path> <path d="M311.029 75.2255H303.318V90.1343C303.318 93.9263 304.676 95.8207 307.4 95.8207C308.65 95.8207 309.687 95.7151 310.508 95.5039L310.701 100.685C309.323 101.187 307.508 101.44 305.26 101.44C302.497 101.44 300.338 100.618 298.78 98.9759C297.227 97.3311 296.446 94.5727 296.446 90.6975V75.2191H291.852V70.0991H296.446V64.4767L303.318 62.4543V70.0991H311.029V75.2255Z" fill="white"></path> <path d="M345.823 85.2064C345.823 89.9264 344.438 93.8016 341.675 96.832C338.778 99.952 334.932 101.507 330.137 101.507C325.517 101.507 321.839 100.013 319.095 97.024C316.352 94.0352 314.98 90.2624 314.98 85.7152C314.98 80.9568 316.391 77.0592 319.223 74.0288C322.049 70.9952 325.862 69.4784 330.656 69.4784C335.276 69.4784 338.994 70.9728 341.8 73.9648C344.484 76.8672 345.823 80.6144 345.823 85.2064ZM338.564 85.4272C338.564 82.5952 337.944 80.1664 336.687 78.1408C335.22 75.6896 333.124 74.4672 330.407 74.4672C327.594 74.4672 325.458 75.6928 323.991 78.1408C322.734 80.1696 322.114 82.6368 322.114 85.5552C322.114 88.3872 322.734 90.816 323.991 92.8384C325.504 95.2896 327.617 96.512 330.344 96.512C333.015 96.512 335.112 95.264 336.625 92.7744C337.915 90.7104 338.564 88.256 338.564 85.4272Z" fill="white"></path> <path d="M368.564 76.1056C367.871 75.9808 367.133 75.9168 366.358 75.9168C363.897 75.9168 361.994 76.8224 360.655 78.6368C359.49 80.2368 358.906 82.2592 358.906 84.7008V100.813H351.913L351.979 79.776C351.979 76.2368 351.89 73.0144 351.716 70.1088H357.81L358.066 75.984H358.26C358.998 73.9648 360.163 72.3392 361.758 71.12C363.316 70.0224 365 69.4752 366.815 69.4752C367.461 69.4752 368.045 69.52 368.564 69.6V76.1056Z" fill="white"></path> <path d="M399.853 84.0063C399.853 85.2287 399.771 86.2591 399.597 87.1007H378.608C378.69 90.1343 379.704 92.4543 381.653 94.0543C383.422 95.4847 385.709 96.2015 388.518 96.2015C391.626 96.2015 394.461 95.7183 397.011 94.7487L398.107 99.4847C395.127 100.752 391.609 101.382 387.55 101.382C382.667 101.382 378.835 99.9807 376.045 97.1807C373.263 94.3807 371.868 90.6207 371.868 85.9039C371.868 81.2735 373.164 77.4175 375.76 74.3423C378.477 71.0591 382.149 69.4175 386.769 69.4175C391.308 69.4175 394.743 71.0591 397.076 74.3423C398.924 76.9503 399.853 80.1759 399.853 84.0063ZM393.181 82.2367C393.227 80.2143 392.771 78.4671 391.823 76.9919C390.612 75.0943 388.751 74.1471 386.248 74.1471C383.96 74.1471 382.1 75.0719 380.679 76.9279C379.514 78.4031 378.822 80.1727 378.608 82.2335H393.181V82.2367Z" fill="white"></path> </svg> 