<?xml version="1.0" encoding="UTF-8"?> <svg xmlns="http://www.w3.org/2000/svg" width="645" height="88" viewBox="0 0 645 88" fill="none"> <path d="M92.7496 87.5881H154.674V71.2512H111.519V51.2075H147.276V34.8705H111.519V16.337H154.948V0H92.7496V87.5881ZM229.202 55.1888L188.65 0H160.702L169.47 11.1201V87.8627H188.102V30.3401L230.024 87.5881H247.972V0H229.202V55.1888ZM64.5274 42.5585C72.7475 41.0484 79.5975 33.3604 79.5975 22.5148C79.5975 10.8456 71.1034 0 54.2523 0H0L8.49405 10.8456V87.7254H56.1704C73.0215 87.7254 81.7895 77.1544 81.7895 63.975C81.3785 53.1295 73.9805 43.7941 64.5274 42.5585ZM27.1262 16.4743H50.5533C56.8554 16.4743 60.8284 20.181 60.8284 25.6724C60.8284 31.1638 56.8554 34.8705 50.5533 34.8705H27.1262V16.4743ZM51.3753 71.3885H27.1262V51.2075H51.3753C58.4994 51.2075 62.4724 55.7379 62.4724 61.2293C62.4724 67.5445 58.2254 71.2512 51.3753 71.3885ZM521.699 55.1888H531.426V65.4852C526.357 69.6037 520.055 71.9376 513.479 72.0749C497.861 72.0749 486.901 60.131 486.901 44.0686C486.901 28.0062 497.998 16.0624 513.479 16.0624C521.562 16.0624 529.097 20.3183 533.481 27.1825L548.277 18.9454C541.975 8.92356 530.878 0 513.342 0C488.545 0 467.995 17.1607 467.995 43.7941C467.995 70.4275 488.271 87.5881 513.342 87.5881C527.042 87.8627 540.057 81.9594 549.099 71.8003V39.4009H509.095L521.699 55.1888ZM437.444 55.1888L396.754 0H368.943L377.574 11.1201V87.8627H396.343V30.3401L438.266 87.5881H456.076V0H437.444V55.1888ZM611.024 0H574.993L583.624 11.1201L582.117 15.376L554.168 87.8627H575.267L580.747 73.0359H618.422L623.902 87.8627H645L611.024 0ZM585.542 56.5616L599.242 18.8081L612.942 56.5616H585.542ZM339.351 0H358.12V88H339.351V0ZM324.418 15.1014V0H258.521V16.337H299.895L258.521 72.624V87.5881H325.103V71.2512H282.77L324.418 15.1014Z" fill="#093451"></path> </svg> 