<?xml version="1.0" encoding="UTF-8"?> <svg xmlns="http://www.w3.org/2000/svg" width="302" height="146" viewBox="0 0 302 146" fill="none"> <g clip-path="url(#clip0_133_1391)"> <path d="M279.837 209.653C279.837 209.653 296.859 185.6 299.22 156.382C300.662 138.935 298.405 121.381 292.594 104.862L285.712 91.7949L275.902 80.0419C275.902 80.0419 266.348 60.3136 255.952 46.4801C245.555 32.6466 225.788 20.6929 225.788 20.6929L208.199 15.2179C198.781 9.02318 188.193 4.81257 177.084 2.84439C157.811 -0.80561 146.518 2.84439 146.518 2.84439C146.518 2.84439 120.107 -1.00636 97.9416 10.2721C84.2289 17.4603 72.2836 27.5884 62.9645 39.9284C50.6186 47.661 40.1828 58.0729 32.435 70.3876C19.7693 90.6816 15.157 117.838 15.157 117.838C15.157 117.838 14.2601 131.726 15.7793 132.438C17.2984 133.149 30.861 129.061 30.861 129.061L42.0075 124.992L48.7064 109.899L51.2688 99.3321C51.2688 99.3321 65.655 90.5174 89.3391 87.1959C113.023 83.8744 113.774 88.1449 117.928 82.9801C120.297 80.3167 121.718 76.9492 121.973 73.3989C121.973 73.3989 122.943 87.5244 128.251 88.8931C133.559 90.2619 167.969 88.1266 191.983 96.5034C215.996 104.88 228.589 117.746 228.589 117.746L249.289 138.296C249.289 138.296 243.798 162.222 232.688 182.37C221.579 202.518 211.677 217.045 214.038 218.76C216.399 220.476 228.881 213.376 237.411 205.054C245.94 196.732 259.795 177.935 259.795 177.935C259.795 177.935 274.584 179.395 277.732 191.057C280.88 202.718 277.403 210.383 279.837 209.69" fill="#242525"></path> <path d="M259.923 177.187C255.468 183.932 250.666 190.444 245.537 196.696C239.863 203.065 228.918 213.395 221.743 216.771C214.568 220.147 213.708 216.771 213.708 216.771C213.708 216.771 226.173 196.568 233.274 181.366C240.376 166.164 248.246 144.337 248.539 139.938C248.832 135.54 236.953 125.922 236.953 125.922L216.82 107.49L213.946 105.263C203.456 100.524 192.574 96.7019 181.422 93.8389C162.954 89.0939 134.548 89.1668 128.343 88.2178C122.138 87.2688 122.047 73.8916 122.047 73.8916C120.647 77.7887 118.713 81.4737 116.299 84.8416C113.005 88.9296 97.3741 86.6666 85.6785 87.7981C73.9828 88.9296 51.2688 99.3321 51.2688 99.3321L49.2005 111.322C49.2005 111.322 45.8511 117.892 42.5748 123.367C39.2986 128.842 25.6445 142.238 21.3616 154.885C17.0787 167.532 21.1237 184.085 21.1237 184.085C21.1237 184.085 24.7843 200.948 32.5997 208.905C40.4151 216.862 60.5301 235.404 82.1277 241.992C103.725 248.581 110.68 249.657 110.68 249.657C110.68 249.657 134.2 254.421 153.729 252.285C163.594 252.851 156.401 251.574 156.401 251.574C156.401 251.574 164.162 253.198 184.021 247.686C203.879 242.175 222.237 229.272 222.237 229.272L231.078 234.4C235.401 236.158 240.054 236.96 244.718 236.752C249.382 236.544 253.945 235.331 258.093 233.196C272.479 225.896 280.514 208.65 278.647 193.429C276.78 178.209 259.923 177.187 259.923 177.187Z" fill="#F8C4B1"></path> <path d="M32.8193 135.029C32.8193 135.029 24.528 146.727 22.7343 151.454C21.4077 155.2 20.2835 159.013 19.3666 162.879L18.0488 164.594C14.4925 165.366 10.8825 165.866 7.24999 166.091C4.19338 165.981 1.13678 164.576 1.92381 163.554C2.71084 162.532 20.9407 144.501 20.9407 144.501L36.2603 130.886L32.8193 135.029Z" fill="#242525"></path> <path d="M196.101 133.569L202.379 132.219C204.471 129.875 205.805 126.955 206.204 123.842C207.32 117.892 205.161 109.078 203.861 105.738C203.2 103.885 202.071 102.232 200.585 100.938C200.585 100.938 186.876 94.4959 177.432 92.6709C170.989 91.5253 164.443 91.0543 157.902 91.2657L153.491 99.2409C153.491 99.2409 145.548 111.76 148.275 122.418C151.002 133.076 179.39 134.5 179.39 134.5C179.39 134.5 191.049 135.96 196.119 133.569" fill="white"></path> <path d="M159.513 115.775C158.798 118.374 158.612 121.088 158.964 123.76C159.316 126.431 160.2 129.005 161.564 131.331C162.929 133.657 164.745 135.688 166.907 137.304C169.069 138.92 171.534 140.088 174.155 140.741C179.511 142.019 185.155 141.154 189.88 138.334C194.604 135.513 198.033 130.959 199.432 125.649C200.144 123.049 200.329 120.334 199.976 117.662C199.622 114.991 198.738 112.416 197.375 110.089C196.011 107.763 194.196 105.731 192.035 104.112C189.873 102.494 187.41 101.322 184.789 100.664C179.434 99.3931 173.792 100.263 169.071 103.087C164.351 105.911 160.926 110.465 159.531 115.775" fill="#70593D"></path> <path d="M173.899 141.745C171.168 141.08 168.6 139.875 166.345 138.201C164.091 136.527 162.197 134.418 160.776 131.999C159.317 129.551 158.365 126.836 157.979 124.015C157.592 121.193 157.778 118.323 158.525 115.574C159.997 110.01 163.593 105.239 168.545 102.283C173.497 99.3263 179.413 98.4179 185.027 99.7516C187.756 100.415 190.324 101.618 192.578 103.289C194.832 104.96 196.727 107.065 198.151 109.479C199.604 111.929 200.552 114.644 200.939 117.465C201.325 120.285 201.143 123.155 200.402 125.904C198.93 131.47 195.334 136.241 190.383 139.201C185.431 142.16 179.516 143.073 173.899 141.745V141.745ZM184.533 101.595C179.441 100.408 174.086 101.244 169.601 103.924C165.115 106.605 161.852 110.92 160.501 115.958C159.808 118.472 159.631 121.099 159.98 123.683C160.329 126.267 161.197 128.754 162.533 130.996C163.82 133.178 165.533 135.08 167.57 136.591C169.607 138.102 171.927 139.19 174.393 139.792C179.485 140.973 184.838 140.132 189.32 137.448C193.801 134.764 197.06 130.448 198.407 125.411C199.09 122.917 199.261 120.312 198.912 117.75C198.563 115.188 197.701 112.723 196.375 110.501C195.093 108.318 193.385 106.415 191.35 104.903C189.316 103.392 186.998 102.304 184.533 101.704" fill="#402924"></path> <path d="M198.169 129.171C193.364 123.895 187.305 119.911 180.549 117.585C173.793 115.26 166.558 114.669 159.513 115.867C159.513 115.867 161.874 99.971 181.22 100.5C200.567 101.029 202.031 121.871 198.169 129.171Z" fill="#402924"></path> <path d="M171.428 118.714C170.734 121.03 170.99 123.526 172.139 125.654C173.289 127.782 175.238 129.369 177.56 130.065C179.955 130.545 182.443 130.073 184.494 128.751C186.545 127.428 187.998 125.359 188.542 122.984C189.235 120.666 188.977 118.168 187.824 116.039C186.67 113.91 184.717 112.325 182.392 111.633C179.998 111.162 177.514 111.638 175.465 112.959C173.416 114.281 171.962 116.344 171.41 118.714" fill="black"></path> <path d="M185.485 115.374C185.328 115.881 185.275 116.414 185.328 116.941C185.38 117.469 185.539 117.981 185.793 118.447C186.047 118.912 186.392 119.323 186.807 119.654C187.223 119.985 187.7 120.23 188.212 120.374C189.271 120.588 190.372 120.381 191.281 119.798C192.19 119.216 192.836 118.303 193.081 117.254C193.238 116.747 193.292 116.214 193.241 115.686C193.19 115.158 193.033 114.645 192.781 114.178C192.529 113.711 192.186 113.299 191.772 112.965C191.359 112.631 190.883 112.383 190.372 112.235C189.308 112.022 188.202 112.23 187.29 112.816C186.378 113.402 185.73 114.32 185.485 115.374" fill="white"></path> <path d="M169.104 134.244C169.104 134.244 163.851 132 164.327 128.131C164.803 124.262 167.804 126.196 172.087 129.7C176.37 133.204 183.325 132.42 186.73 130.011C190.134 127.602 192.733 131.142 188.962 134.865C185.192 138.588 176.937 139.354 169.067 134.244" fill="#9D8460"></path> <path d="M105.208 117.473C105.208 117.473 110.241 113.823 109.692 101.832C109.643 98.5103 108.618 95.2754 106.744 92.528C104.871 89.7806 102.23 87.6413 99.1495 86.3748L83.6103 87.7435L71.8048 90.6452C71.8048 90.6452 65.5818 94.8063 64.2457 104.935C62.9095 115.064 64.8314 118.988 69.5169 120.648C74.2025 122.309 97.7402 122.893 98.8018 122.035C99.8634 121.177 101.09 117.819 105.171 117.473" fill="white"></path> <path d="M75.3922 106.395C72.482 116.396 76.893 126.141 85.3307 128.514C93.7684 130.886 103.634 124.973 107.294 114.863C110.955 104.387 106.434 93.7477 97.2643 91.4847C88.0945 89.2217 78.4854 96.0837 75.4837 106.395" fill="#70593D"></path> <path d="M85.5321 129.627L85.0562 129.5C83.1121 128.925 81.3019 127.971 79.7308 126.693C78.1598 125.414 76.8592 123.837 75.9047 122.054C73.336 117.14 72.8164 111.415 74.4587 106.121C77.6618 95.1713 87.9847 88.1268 97.4656 90.4811C99.5383 91.0087 101.477 91.9634 103.157 93.2836C104.838 94.6037 106.222 96.2601 107.221 98.146C108.546 100.76 109.314 103.618 109.478 106.542C109.642 109.466 109.197 112.392 108.173 115.137C104.512 125.43 94.5189 131.799 85.5321 129.573V129.627ZM96.9166 92.4155C88.4789 90.335 79.2724 96.7043 76.3806 106.632C74.8885 111.399 75.3423 116.56 77.6435 120.995C78.4765 122.549 79.611 123.921 80.981 125.034C82.351 126.146 83.9291 126.975 85.6236 127.474C93.6952 129.755 102.92 123.97 106.178 114.571C107.109 112.094 107.517 109.452 107.375 106.811C107.234 104.17 106.545 101.586 105.354 99.2228C104.489 97.5752 103.285 96.1275 101.822 94.9736C100.359 93.8198 98.669 92.9855 96.8617 92.525" fill="#402924"></path> <path d="M105.812 118.039C102.468 113.312 97.7918 109.682 92.3761 107.609C86.9603 105.536 81.0491 105.113 75.3922 106.395C76.3339 102.14 78.7097 98.3359 82.1236 95.6161C85.5374 92.8962 89.7831 91.4252 94.1528 91.4483C110.626 91.1746 109.802 111.304 105.812 118.039Z" fill="#402924"></path> <path d="M84.7085 108.877C83.2808 113.531 85.1295 118.002 88.845 119.079C92.5605 120.156 96.88 117.254 98.4357 112.527C99.9915 107.8 98.1612 103.055 94.2993 102.052C90.4373 101.048 86.1544 104.15 84.7085 108.877Z" fill="black"></path> <path d="M96.4773 105.446C96.2795 105.867 96.1701 106.324 96.1557 106.789C96.1413 107.253 96.2223 107.716 96.3937 108.148C96.5651 108.581 96.8232 108.974 97.1524 109.303C97.4815 109.632 97.8746 109.891 98.3076 110.063C99.2804 110.185 100.264 109.945 101.071 109.39C101.878 108.834 102.451 108.002 102.682 107.052C102.886 106.628 103.001 106.167 103.018 105.697C103.036 105.226 102.956 104.758 102.785 104.32C102.613 103.881 102.353 103.483 102.02 103.15C101.688 102.816 101.29 102.554 100.852 102.38C99.872 102.265 98.884 102.514 98.0769 103.08C97.2698 103.645 96.7002 104.488 96.4773 105.446" fill="white"></path> <path d="M81.8166 122.838C81.8166 122.838 77.8449 120.885 78.4489 117.473C79.0529 114.06 81.3041 115.648 84.4706 118.787C87.637 121.926 93.2926 121.159 96.2943 118.969C99.296 116.779 101.126 119.955 97.6854 123.331C94.2444 126.707 87.6736 127.309 81.8166 122.838Z" fill="#9D8460"></path> <path d="M277.348 85.7725C277.348 85.7725 288.458 100.811 292.466 125.923C295.687 145.998 294.168 173.373 280.148 198.357L280.02 208.285C280.02 208.285 296.895 189.597 299.604 147.549C302.313 105.501 279.379 82.013 277.348 85.7908" fill="#3D3C3D"></path> <path d="M250.772 41.571C250.772 41.571 273.101 73.5998 273.467 101.796C273.834 129.992 266.146 145.249 266.146 145.249C266.146 145.249 269.807 149.155 271.729 146.509C273.651 143.862 284.541 121.214 278.062 89.2218C271.582 57.2295 250.772 41.571 250.772 41.571Z" fill="#3D3C3D"></path> <path d="M275.554 99.971C275.554 99.971 268.453 81.7209 235.837 68.5079L233.238 54.3459C247.659 58.8321 260.647 67.0128 270.905 78.0709L275.554 99.971Z" fill="#3D3C3D"></path> <path d="M203.184 13.6301C203.184 13.6301 221.487 38.4136 208.547 96.3209C208.547 96.3209 214.422 101.924 216.179 87.7434C217.936 73.5631 219.126 62.0109 217.552 44.6186C215.593 23.0289 207.522 13.9951 203.166 13.7031" fill="#3D3C3D"></path> <path d="M214.971 61.646C214.971 61.646 183.655 44.7282 138.611 44.4727L141.082 33.5227C165.816 32.1457 190.526 36.6429 213.177 46.6445C213.177 46.6445 217.076 56.5725 215.008 61.6095" fill="#3D3C3D"></path> <path d="M135.957 12.3709C135.957 12.3709 126.311 21.1674 120.216 40.3116C114.121 59.4559 110.314 74.7311 110.314 74.7311C110.314 74.7311 112.145 17.6816 142.18 2.58887L146.481 2.99037L135.957 12.3709Z" fill="#3D3C3D"></path> <path d="M84.2142 44.1078C84.2142 44.1078 96.8433 39.892 116.867 42.2828L122.559 29.5078C122.559 29.5078 97.6669 28.4675 84.1227 44.2355" fill="#3D3C3D"></path> <path d="M103.158 135.011C103.158 135.011 100.193 135.175 99.2593 127.091C98.3258 119.006 102.06 117.035 110.351 122.546C118.642 128.058 120.07 130.631 117.837 133.223C115.604 135.814 110.406 136.289 103.194 135.048" fill="#F2A2A8"></path> <path d="M112.73 118.878C112.73 118.878 116.995 120.064 116.867 122.528C116.739 124.992 108.118 121.269 108.997 119.444C109.875 117.619 112.657 118.969 112.657 118.969" fill="#FDE7D9"></path> <path d="M215.3 213.121C215.3 213.121 208.583 213.687 209.206 210.73C209.828 207.774 227.692 173.281 233.237 156.364C226.836 142.883 217.448 131.026 205.783 121.689C206.234 117.656 206.148 113.581 205.527 109.571C205.197 107.618 202.433 100.263 202.433 100.263C211.234 103.896 219.297 109.097 226.227 115.611C236.825 125.923 249.491 136.508 248.374 139.336C247.258 142.165 246.544 155.214 236.111 174.76C225.678 194.305 215.246 213.085 215.246 213.085" fill="#F2A2A8"></path> <path d="M154.9 96.613L158.726 91.0285L151.697 89.751C151.697 89.751 138.043 88.948 129.569 89.167C121.095 89.386 121.534 75.0415 121.534 75.0415C120.122 78.4976 118.336 81.7899 116.208 84.86C113.883 87.7435 103.396 87.5428 101.364 87.4698C104.146 89.1488 105.391 91.1198 107.422 99.6608C110.801 100.17 114.255 99.7082 117.379 98.3285C118.318 96.9243 118.989 95.3588 119.356 93.7113L120.472 96.613C121.607 99.9163 124.902 100.446 131.582 100.537C134.401 100.537 143.205 101.084 152.503 100.975C153.088 99.9163 153.491 99.2775 153.491 99.2775L154.9 96.613Z" fill="#F2A2A8"></path> <path d="M69.2607 92.0684C67.6097 93.9285 66.3633 96.1096 65.6001 98.4741C64.6117 102.015 63.5684 106.011 63.5684 106.011C57.3713 107.301 51.9331 110.972 48.4318 116.231C42.8128 124.955 46.8212 115.848 46.8212 115.848L50.1706 105.665L52.0009 98.9486C52.0009 98.9486 61.4087 93.4736 69.2973 92.0684" fill="#F2A2A8"></path> <path d="M285.987 197.499C285.987 197.499 276.835 182.351 277.805 171.146C278.775 159.94 284.321 137.219 279.416 122.966C279.416 122.966 275.225 149.958 269.276 147.129C264.444 144.848 257.16 136.818 247.66 127.437C238.161 118.057 232.597 111.395 232.139 107.818C231.682 104.241 238.619 81.9764 235.05 62.3942C231.48 42.8119 223.189 26.6789 211.256 17.4262C211.256 17.4262 217.442 30.4019 218.138 54.3642C218.833 78.3264 216.197 92.1234 213.031 95.6457C209.865 99.1679 195.973 90.5357 174.595 86.9952C153.217 83.4547 140.533 83.3452 138.227 81.8122C135.92 80.2792 133.12 59.9122 140.826 36.3514C148.531 12.7907 155.669 1.9502 155.669 1.9502L147.982 2.71669C147.982 2.71669 134.31 8.19169 123.914 31.2962C113.517 54.4007 111.266 73.2712 109.472 77.049C107.679 80.8267 93.8416 78.436 74.0012 83.546C54.1607 88.656 52.0375 90.0429 52.0375 90.0429C52.0375 90.0429 58.828 35.0192 99.9183 10.2904C99.9183 10.2904 86.9597 14.9259 78.3573 23.0654C72.5138 28.6568 66.9724 34.5538 61.7564 40.7314C61.7564 40.7314 50.1157 46.7722 37.4866 76.246C24.8575 105.72 22.2768 118.422 22.4781 123.696C22.6795 128.97 24.1437 130.868 24.1437 130.868L39.1888 125.521L43.9476 121.159C43.9476 121.159 47.9743 113.129 48.0841 112.855C48.1939 112.582 51.2688 99.3322 51.2688 99.3322C62.9668 92.6739 75.9368 88.5392 89.3391 87.196C110.113 85.6082 114.286 87.9625 117.013 83.546C118.93 80.2917 120.588 76.8929 121.973 73.3807C121.973 73.3807 120.82 88.4917 128.251 89.021C135.682 89.5502 163.027 89.021 183.417 94.2405C203.806 99.46 211.951 104.88 211.951 104.88L215.795 105.92L249.289 138.296L246.416 149.848C246.416 149.848 260.729 164.047 251.779 188.337L259.868 176.219C262.956 176.731 265.91 177.856 268.554 179.527C271.198 181.198 273.479 183.381 275.261 185.947C281.283 194.67 277.476 212.884 277.476 212.884L285.987 197.499Z" fill="#211921"></path> <path d="M2.4729 165.671C2.4729 165.671 18.122 159.448 23.1553 150.487C28.1887 141.526 18.0488 164.631 18.0488 164.631C18.0488 164.631 3.40635 166.693 2.4729 165.671" fill="#211921"></path> <path d="M2.93047 167.35C8.22005 168.536 18.6345 166.091 19.9157 165.78L19.1836 162.787C14.5712 163.882 6.37144 165.196 3.31483 164.247C4.86231 162.497 6.51897 160.845 8.27495 159.302C18.5811 149.83 28.0654 139.506 36.6264 128.441L34.1737 126.616C25.7271 137.552 16.3651 147.754 6.18841 157.112C1.46623 161.528 -0.290862 163.171 0.0385925 165.087C0.134187 165.506 0.335743 165.894 0.624079 166.213C0.912416 166.533 1.27794 166.773 1.68586 166.912C2.09841 167.093 2.52747 167.233 2.96708 167.332" fill="black"></path> <path d="M275.719 217.373C276.579 216.461 297.17 194.634 300.904 155.232C304.802 113.987 287.543 88.2727 277.586 80.1332C275.609 75.005 255.11 24.635 209.352 13.9222C206.424 11.9512 180.177 -4.93003 146.444 1.42097C142.125 0.617974 97.0263 -6.44478 61.8662 37.775C59.1207 39.5817 32.7461 57.4667 21.9839 88.4735C14.0221 111.268 11.2034 126.798 14.0404 132.456C14.2552 132.943 14.5698 133.379 14.9638 133.737C15.3578 134.096 15.8225 134.368 16.3283 134.536C19.6045 135.504 35.1804 129.372 41.7329 126.671L40.5432 123.824C30.7876 127.82 19.092 131.927 17.2068 131.562C17.0275 131.432 16.888 131.255 16.8041 131.051C16.1818 129.791 13.5828 121.926 24.9124 89.4955C35.8942 57.923 63.605 40.4212 63.8795 40.2205L64.2639 39.8737C99.8267 -5.03953 145.786 4.39572 146.243 4.48697H146.554H146.865C181.22 -2.11953 207.632 16.386 207.888 16.5685L208.144 16.751H208.455C254.963 27.4455 274.73 80.9362 274.913 81.4837L275.078 81.8852L275.408 82.159C284.852 89.6415 301.709 114.443 297.902 154.83C294.241 193.155 273.76 214.909 273.559 215.055L275.719 217.373Z" fill="black"></path> <path d="M141.942 252.778C121.782 251.142 101.895 247.079 82.7134 240.678C63.6966 234.273 46.1074 223.104 34.0823 207.117C28.0565 199.185 23.8797 190.014 21.8559 180.271C20.8867 175.468 20.5911 170.555 20.9773 165.671C21.4098 160.778 22.6015 155.982 24.5098 151.454C26.4838 146.913 28.997 142.624 31.9957 138.679C34.9608 134.646 38.3469 130.996 41.6231 126.981C43.3369 124.984 44.8625 122.833 46.1806 120.557C47.4482 118.265 48.5374 115.879 49.4385 113.421C51.208 108.527 52.3996 103.443 52.9893 98.2737L49.8046 98.8029C49.2717 103.435 48.1651 107.984 46.51 112.344C45.6699 114.651 44.6542 116.89 43.4717 119.042C42.2487 121.151 40.8334 123.142 39.2437 124.992C36.0224 128.842 32.5631 132.638 29.5065 136.799C26.3526 140.933 23.7101 145.431 21.6362 150.195C19.5902 155.022 18.3179 160.14 17.8658 165.361C17.4462 170.561 17.7542 175.794 18.7809 180.91C20.9102 191.098 25.2867 200.686 31.5931 208.978C37.8085 217.243 45.4279 224.359 54.1058 230.002C62.7443 235.59 72.0307 240.113 81.7617 243.471C91.3505 247.086 101.286 249.709 111.413 251.3C121.511 252.958 131.767 253.454 141.979 252.778" fill="#E38080"></path> <path d="M214.166 219.381C218.302 220.311 229.357 215.913 244.164 199.488C255.446 186.853 264.283 172.244 270.228 156.4L268.269 155.743C262.419 171.316 253.731 185.677 242.645 198.101C229.174 213.03 219.254 217.264 215.52 217.428C215.108 217.479 214.69 217.416 214.312 217.245C214.514 216.716 216.618 213.121 219.034 208.978C228.186 193.265 247.313 160.579 250.04 137.803L247.99 137.566C245.318 159.867 226.356 192.316 217.259 207.883C213.598 214.033 212.409 216.205 212.299 217.008C212.253 217.438 212.35 217.871 212.575 218.24C212.8 218.609 213.14 218.895 213.543 219.052C213.748 219.15 213.963 219.223 214.184 219.271" fill="black"></path> <path d="M267.885 157.075C268.654 157.254 269.462 157.144 270.155 156.765C273.632 154.94 276.652 146.435 279.306 130.722C282.565 112.738 281.308 94.2295 275.646 76.8481L273.724 77.5964C279.286 94.62 280.544 112.75 277.384 130.375C273.998 149.812 270.832 154.1 269.24 154.94C269.059 155.034 268.858 155.084 268.654 155.084C268.45 155.084 268.249 155.034 268.068 154.94C265.725 153.845 262.577 150.578 257.086 144.629C253.792 141.106 249.765 136.726 244.274 131.324C237.209 124.207 230.346 118.239 225.312 113.896C221.084 110.246 217.094 106.76 216.838 105.793L214.788 105.628C214.55 107.216 216.801 109.278 223.94 115.447C228.936 119.79 235.782 125.703 242.773 132.766C248.118 138.241 252.218 142.53 255.586 146.034C261.351 152.166 264.536 155.56 267.245 156.801C267.468 156.918 267.709 156.998 267.958 157.039" fill="black"></path> <path d="M222.201 69.2015C221.286 76.392 220.627 83.5277 219.272 90.5175C218.595 93.985 217.735 97.5255 216.747 100.902C216.498 101.726 216.205 102.536 215.868 103.329C215.664 103.949 215.298 104.504 214.806 104.935C214.635 104.996 214.447 104.996 214.276 104.935C213.983 104.807 213.598 104.606 213.196 104.387L210.798 103.128C197.759 96.5572 183.643 92.3725 169.122 90.773C161.947 89.8605 154.73 89.1974 147.47 88.7837C143.809 88.5647 140.148 88.437 136.616 88.3275C134.786 88.3275 132.955 88.3275 131.253 88.1267C130.375 88.1267 129.423 87.999 128.672 87.853C127.961 87.8105 127.274 87.584 126.677 87.196C125.61 86.0194 124.855 84.5952 124.481 83.0532C123.965 81.3882 123.58 79.6858 123.328 77.9615C122.857 74.4659 122.661 70.939 122.742 67.413C122.917 60.2576 123.719 53.1312 125.14 46.1152C122.466 52.9006 120.879 60.063 120.436 67.34C120.216 70.9978 120.388 74.6685 120.948 78.29C121.236 80.1462 121.671 81.9769 122.248 83.765C122.524 84.6822 122.879 85.5737 123.31 86.4295C123.762 87.4273 124.431 88.3125 125.268 89.021C126.166 89.6463 127.214 90.024 128.306 90.116C129.276 90.262 130.137 90.3167 131.107 90.3715C132.937 90.481 134.767 90.5175 136.598 90.5722C140.258 90.5722 143.809 90.773 147.396 90.9555C154.589 91.3205 161.746 91.9957 168.902 92.89C183.17 94.4382 197.043 98.5238 209.865 104.953L212.262 106.212C212.701 106.457 213.153 106.676 213.617 106.869C213.95 107.009 214.308 107.08 214.669 107.08C215.03 107.08 215.388 107.009 215.722 106.869C216.729 106.245 217.476 105.28 217.826 104.15C218.197 103.288 218.515 102.405 218.778 101.504C219.803 97.9635 220.608 94.496 221.304 90.8825C222.58 83.7291 222.9 76.4387 222.256 69.2015" fill="black"></path> <path d="M206.716 15.4002C208.989 17.404 210.978 19.7063 212.628 22.2439C214.297 24.812 215.707 27.5385 216.838 30.3834C217.351 31.8252 217.973 33.2487 218.357 34.7452C218.841 36.2142 219.25 37.7065 219.583 39.2164C219.968 40.7312 220.169 42.2642 220.517 43.7972C220.865 45.3302 220.956 46.8997 221.231 48.4692C221.359 46.8997 221.524 45.3119 221.505 43.7059C221.508 42.1136 221.41 40.5227 221.212 38.9427C220.851 35.7367 220.12 32.583 219.034 29.5439C217.871 26.5185 216.367 23.6347 214.55 20.9482C212.763 18.1652 210.524 15.6982 207.924 13.6482L206.716 15.4002Z" fill="black"></path> <path d="M153.967 0.891602C152.274 0.994475 150.624 1.46803 149.135 2.2786C147.724 3.01295 146.398 3.90041 145.182 4.92485C142.792 6.91829 140.686 9.22683 138.922 11.7869C138.025 13.0279 137.201 14.3236 136.396 15.6376C135.591 16.9516 134.914 18.3204 134.255 19.6891C133.596 21.0579 132.973 22.4631 132.424 23.8684L130.832 28.1389C132.333 25.4744 133.779 22.8464 135.353 20.2914C136.927 17.7364 138.629 15.2726 140.441 12.9914C142.24 10.6637 144.29 8.54008 146.554 6.6586C147.692 5.74217 148.918 4.94128 150.215 4.26785C151.396 3.63688 152.678 3.21688 154.004 3.02685L153.967 0.891602Z" fill="black"></path> <path d="M120.473 70.3513C120.038 73.0926 119.39 75.7957 118.532 78.4361C118.106 79.6954 117.573 80.9165 116.94 82.0861C116.467 83.1852 115.635 84.0922 114.579 84.6593C113.352 85.1066 112.06 85.3471 110.754 85.3711C109.381 85.3711 107.99 85.4806 106.581 85.4806C103.762 85.4806 100.907 85.4806 98.0696 85.4806C92.3407 85.5867 86.6324 86.1974 81.0112 87.3056C75.4291 88.5386 69.928 90.111 64.5385 92.0141C59.1286 93.8805 53.8721 96.1625 48.8162 98.8396C46.3087 100.208 43.8378 101.687 41.495 103.311L38.0357 105.756C37.029 106.486 35.6563 106.979 35.3086 106.742C34.9608 106.505 34.4666 105.428 34.4849 104.169C34.4712 102.878 34.5754 101.589 34.7961 100.318C35.2656 97.5751 35.8765 94.8583 36.6264 92.1783C37.9991 86.7033 39.7013 81.3743 41.1655 75.8811C38.5325 80.9283 36.3225 86.1839 34.5581 91.5943C33.6033 94.3265 32.8569 97.1267 32.3252 99.9711C32.0568 101.44 31.9281 102.931 31.9408 104.424C31.9356 105.246 32.0528 106.064 32.2886 106.851C32.4216 107.375 32.6695 107.863 33.0145 108.279C33.3595 108.696 33.793 109.031 34.2836 109.26C35.2682 109.592 36.343 109.533 37.2853 109.096C38.0354 108.789 38.7477 108.397 39.4084 107.928L42.8494 105.446C45.145 103.858 47.5215 102.39 49.9693 101.048C54.8957 98.398 60.0243 96.1401 65.3072 94.2953C70.5897 92.4074 75.9804 90.8351 81.4505 89.5868C86.943 88.4851 92.5232 87.8744 98.1246 87.7618C100.925 87.6706 103.744 87.7618 106.599 87.6706C108.008 87.6706 109.454 87.6706 110.9 87.5246C112.416 87.4598 113.912 87.1517 115.329 86.6121C116.139 86.2765 116.845 85.7353 117.379 85.0426C117.868 84.4439 118.291 83.7955 118.642 83.1081C119.308 81.7929 119.865 80.4257 120.308 79.0201C121.136 76.261 121.748 73.442 122.138 70.5886L120.473 70.3513Z" fill="black"></path> <path d="M67.5767 31.9167C65.6 34.271 63.788 36.7347 62.0858 39.2167C60.3836 41.6987 58.6998 44.3268 57.0891 46.9183C55.4784 49.5098 54.0508 52.2472 52.6598 54.9847C51.2665 57.7174 50.0439 60.5332 48.9991 63.4163C50.5915 60.8065 52.129 58.1968 53.7762 55.6418C55.4235 53.0868 57.0525 50.5318 58.7547 48.0315C60.4569 45.5313 62.1956 43.0492 63.9161 40.549L69.1874 33.249L67.5767 31.9167Z" fill="black"></path> <path d="M101.492 134.135C100.16 130.992 99.4636 127.618 99.4423 124.207C99.5493 122.695 100.201 121.273 101.278 120.203C102.354 119.133 103.783 118.487 105.299 118.385C106.928 118.247 108.569 118.389 110.15 118.805C111.813 119.217 113.441 119.76 115.018 120.429C118.221 121.761 121.351 123.313 124.646 124.773C122.114 122.189 119.147 120.07 115.878 118.513C112.559 116.715 108.818 115.833 105.043 115.958C102.98 116.108 101.049 117.023 99.6293 118.523C98.2098 120.023 97.4052 121.999 97.3741 124.061C97.3551 127.83 98.8361 131.453 101.492 134.135" fill="#E38080"></path> <path d="M107.624 106.048C107.061 102.541 106.211 99.0864 105.08 95.7186C104.068 92.4982 102.284 89.5727 99.8816 87.1959L100.467 86.1921C102.247 87.0041 103.744 88.3254 104.769 89.9881C105.787 91.5853 106.523 93.3445 106.947 95.1894C107.425 96.9792 107.714 98.8143 107.807 100.664C107.924 102.461 107.863 104.264 107.624 106.048V106.048Z" fill="black"></path> <path d="M70.5967 91.576C69.7731 92.963 68.9129 94.4048 68.1624 95.8465C66.549 98.7473 65.3595 101.863 64.63 105.099C64.2715 106.768 64.0088 108.456 63.8429 110.155C63.5069 108.442 63.3718 106.697 63.4403 104.953C63.5174 103.189 63.7874 101.439 64.2456 99.7338C64.7061 98.0103 65.3761 96.3495 66.2406 94.788C67.0735 93.2063 68.2045 91.7997 69.5718 90.6453L70.5967 91.576Z" fill="black"></path> <path d="M205.71 122.929C205.805 120.83 205.762 118.727 205.582 116.633C205.395 114.574 205.058 112.53 204.575 110.519C204.071 108.549 203.366 106.635 202.47 104.807C201.562 103.015 200.444 101.336 199.139 99.8067L200.402 98.584C201.989 100.131 203.295 101.94 204.264 103.931C205.185 105.923 205.837 108.028 206.204 110.191C206.557 112.313 206.692 114.466 206.607 116.615C206.54 118.746 206.239 120.864 205.71 122.929Z" fill="black"></path> <path d="M160.245 91.0284C158.305 93.7476 156.237 96.5034 154.297 99.1861C152.37 102.003 150.651 104.955 149.153 108.019C149.498 106.322 149.982 104.655 150.599 103.037C151.2 101.401 151.916 99.8094 152.741 98.2736C153.519 96.7092 154.4 95.1973 155.376 93.7476C156.366 92.2979 157.494 90.9472 158.744 89.7144L160.245 91.0284Z" fill="black"></path> </g> <defs> <clipPath id="clip0_133_1391"> <rect width="302" height="146" fill="white"></rect> </clipPath> </defs> </svg> 