<?xml version="1.0" encoding="UTF-8"?> <svg xmlns="http://www.w3.org/2000/svg" width="110" height="126" viewBox="0 0 127 126" fill="none"> <path d="M23.79 110.05C28 115.78 35.79 119.98 41.39 118.44L78.87 108.1C87.79 105.64 89.47 96.63 89.03 90.2L23.79 110.05Z" stroke="white" stroke-width="9.3" stroke-linecap="round" stroke-linejoin="round"></path> <path d="M39 119C33.87 119 27.44 115.45 23.57 110.18L23.33 109.86L23.71 109.74L89.3 89.74V90.1C89.54 93.63 89.5 105.38 78.92 108.3L41.45 118.64C40.6535 118.871 39.8292 118.992 39 119V119ZM24.28 110.17C28.72 115.96 36.28 119.51 41.33 118.17L78.8 107.82C88.62 105.11 88.97 94.38 88.8 90.58L24.28 110.17Z" stroke="white" stroke-width="9.3" stroke-linecap="round" stroke-linejoin="round"></path> <path d="M86.33 80.43L88.46 86.43C88.9174 87.7486 89.0937 89.1483 88.9775 90.5391C88.8614 91.93 88.4554 93.2811 87.7857 94.5056C87.116 95.73 86.1975 96.8008 85.0891 97.6489C83.9806 98.497 82.707 99.1037 81.35 99.43L33.79 112.56C32.4577 112.939 31.0627 113.046 29.6882 112.874C28.3137 112.703 26.9879 112.256 25.79 111.56C24.5873 110.861 23.5522 109.907 22.7575 108.765C21.9628 107.623 21.4278 106.321 21.19 104.95L20 98.73L86.33 80.43Z" stroke="white" stroke-width="9.3" stroke-linecap="round" stroke-linejoin="round"></path> <path d="M53.18 101.68C52.4678 101.684 51.7582 101.594 51.07 101.41C50.3662 101.28 49.7102 100.964 49.1702 100.494C48.6302 100.025 48.2261 99.419 48 98.74C47.32 96.27 49.74 93.51 53.51 92.47C57.28 91.43 60.78 92.55 61.46 95.02C62.14 97.5 59.72 100.25 55.95 101.3C55.0471 101.546 54.1159 101.674 53.18 101.68V101.68ZM56.3 94.16C55.5457 94.1659 54.7956 94.2736 54.07 94.48C51.29 95.25 49.7 97.05 50.01 98.18C50.1558 98.503 50.3807 98.7842 50.6638 98.9974C50.947 99.2106 51.2792 99.3491 51.63 99.4C52.8725 99.6873 54.1684 99.646 55.39 99.28C58.17 98.52 59.76 96.72 59.45 95.58C59.22 94.77 58 94.16 56.3 94.16Z" stroke="white" stroke-width="9.3" stroke-linecap="round" stroke-linejoin="round"></path> <path d="M57.16 7.18C58.1768 7.45045 59.1174 7.95216 59.9084 8.64601C60.6994 9.33986 61.3194 10.2071 61.72 11.18L62.87 14.42L7.44 29.72L6.82001 26.34C6.14001 22.61 9.33001 18.61 13.95 17.34L51.09 7.09C53.0794 6.53222 55.188 6.56348 57.16 7.18V7.18Z" stroke="white" stroke-width="9.3" stroke-linecap="round" stroke-linejoin="round"></path> <path d="M62.87 14.46L86.33 80.43L20.04 98.73L7.44 29.76L62.87 14.46Z" stroke="white" stroke-width="9.3" stroke-linecap="round" stroke-linejoin="round"></path> <path d="M63.44 13.78C71.44 35.78 79.44 57.99 87.23 80.11C87.2728 80.2268 87.292 80.351 87.2865 80.4753C87.281 80.5996 87.2508 80.7215 87.1978 80.8341C87.1448 80.9466 87.0699 81.0475 86.9776 81.1309C86.8853 81.2144 86.7773 81.2786 86.66 81.32C86.66 81.39 20.29 99.5 20.27 99.56C20.1549 99.5911 20.0348 99.5981 19.9169 99.5808C19.799 99.5635 19.6859 99.5222 19.5846 99.4594C19.4833 99.3965 19.3961 99.3136 19.3282 99.2156C19.2603 99.1177 19.2133 99.0069 19.19 98.89L6.69 29.89C6.65584 29.7024 6.69344 29.5089 6.79532 29.3477C6.8972 29.1866 7.0559 29.0696 7.23999 29.02C25.97 23.87 44.76 18.8 63.44 13.77V13.78ZM62.3 15.14C44 20.31 25.86 25.45 7.64001 30.5L8.19 29.63L20.88 98.63L19.81 97.96L86.08 79.57L85.44 80.8C77.62 58.89 70 37.08 62.3 15.14Z" stroke="white" stroke-width="9.3" stroke-linecap="round" stroke-linejoin="round"></path> <path d="M48.2 18.28L14.78 69.96L18.81 92.02L64.8 19.88L62.87 14.46L48.2 18.28Z" stroke="white" stroke-width="9.3" stroke-linecap="round" stroke-linejoin="round"></path> <path d="M48.2 18.28L14.78 69.96L18.81 92.02L64.8 19.88L62.87 14.46L48.2 18.28Z" stroke="white" stroke-width="9.3" stroke-linecap="round" stroke-linejoin="round"></path> <path d="M66.97 24.18L20.23 95.05L21.07 98.45L30.45 95.86L69.85 34.36L66.97 24.18Z" stroke="white" stroke-width="9.3" stroke-linecap="round" stroke-linejoin="round"></path> <path d="M66.97 24.18L20.23 95.05L21.07 98.45L30.45 95.86L69.85 34.36L66.97 24.18Z" stroke="white" stroke-width="9.3" stroke-linecap="round" stroke-linejoin="round"></path> <path d="M30.83 114C28.755 114.008 26.72 113.429 24.96 112.33C23.6999 111.542 22.6202 110.497 21.7914 109.263C20.9626 108.029 20.4033 106.635 20.15 105.17C20.1257 105.035 20.1283 104.896 20.1576 104.762C20.1869 104.627 20.2424 104.5 20.3209 104.387C20.3993 104.275 20.4993 104.178 20.6149 104.104C20.7306 104.03 20.8597 103.979 20.995 103.955C21.1303 103.931 21.269 103.933 21.4033 103.963C21.5375 103.992 21.6647 104.047 21.7775 104.126C21.8903 104.204 21.9866 104.304 22.0608 104.42C22.135 104.536 22.1857 104.665 22.21 104.8C22.4125 105.977 22.8609 107.099 23.526 108.091C24.1911 109.084 25.0579 109.925 26.07 110.56C27.1702 111.24 28.4014 111.681 29.6834 111.853C30.9653 112.026 32.2693 111.926 33.51 111.56L81.07 98.44C82.3313 98.1132 83.5108 97.5274 84.5335 96.72C85.5561 95.9125 86.3995 94.9011 87.01 93.75C87.5712 92.6802 87.9028 91.505 87.9837 90.2996C88.0647 89.0942 87.8931 87.8853 87.48 86.75C87.4281 86.6218 87.4034 86.4842 87.4074 86.346C87.4114 86.2077 87.444 86.0718 87.5032 85.9468C87.5625 85.8218 87.6469 85.7105 87.7514 85.6198C87.8558 85.5291 87.9779 85.4611 88.11 85.42C88.3714 85.3294 88.6579 85.3445 88.9082 85.4622C89.1586 85.58 89.3531 85.7909 89.45 86.05C89.9559 87.4507 90.1648 88.9413 90.0632 90.4271C89.9616 91.9129 89.5518 93.3612 88.86 94.68C88.1212 96.0876 87.0965 97.3254 85.8514 98.3138C84.6064 99.3023 83.1685 100.02 81.63 100.42L34.07 113.55C33.0144 113.841 31.925 113.992 30.83 114V114Z" stroke="white" stroke-width="9.3" stroke-linecap="round" stroke-linejoin="round"></path> <path d="M22.35 110.89C26.44 116.34 33.66 121.41 40.82 120.26C42.7316 119.863 44.6209 119.366 46.48 118.77L54.48 116.54L72.96 111.44C75.4 110.77 77.96 110.22 80.29 109.38C83.3586 108.316 85.9886 106.266 87.77 103.55C89.4778 100.706 90.5364 97.5204 90.87 94.22C91.1818 92.7078 91.2761 91.1588 91.15 89.62C90.9055 88.3683 90.5232 87.1475 90.01 85.98C89.8843 85.5701 89.6084 85.2228 89.2375 85.0076C88.8667 84.7925 88.4282 84.7255 88.01 84.82C87.596 84.9393 87.2441 85.2141 87.0279 85.5868C86.8117 85.9595 86.748 86.4014 86.85 86.82C87.2217 87.7201 87.5389 88.6418 87.8 89.58C87.9829 90.684 87.966 91.812 87.75 92.91C87.5259 95.4761 86.8664 97.9853 85.8 100.33C84.6233 102.864 82.5604 104.881 80 106C77.7688 106.813 75.4874 107.481 73.17 108L42.17 116.56C39.5831 117.341 36.8073 117.218 34.3 116.21C30.6864 114.782 27.5374 112.384 25.2 109.28C23.94 107.58 21.05 109.28 22.33 110.95L22.35 110.89Z" stroke="white" stroke-width="9.3" stroke-linecap="round" stroke-linejoin="round"></path> <path d="M7.43999 30.81C7.21279 30.8058 6.99293 30.7287 6.81289 30.59C6.63284 30.4514 6.50212 30.2586 6.43999 30.04C6.39773 29.9081 6.38335 29.7688 6.39775 29.631C6.41216 29.4932 6.45504 29.3599 6.52367 29.2396C6.5923 29.1192 6.68521 29.0144 6.79647 28.9319C6.90773 28.8493 7.03493 28.7908 7.17 28.76L62.6 13.46C62.8652 13.3857 63.1491 13.4199 63.3891 13.5549C63.6292 13.6899 63.8057 13.9148 63.88 14.18C63.9543 14.4452 63.9201 14.7291 63.7851 14.9691C63.6501 15.2092 63.4252 15.3857 63.16 15.46L7.73 30.76C7.63633 30.7909 7.53859 30.8077 7.43999 30.81V30.81Z" stroke="white" stroke-width="9.3" stroke-linecap="round" stroke-linejoin="round"></path> <path d="M20 99.78C19.8654 99.7984 19.7285 99.7901 19.5971 99.7556C19.4657 99.721 19.3424 99.661 19.2342 99.5788C19.126 99.4966 19.0351 99.3939 18.9666 99.2766C18.8981 99.1593 18.8534 99.0296 18.835 98.895C18.8166 98.7604 18.8249 98.6235 18.8594 98.4921C18.894 98.3607 18.954 98.2374 19.0362 98.1292C19.1184 98.021 19.2211 97.9301 19.3384 97.8616C19.4557 97.7931 19.5854 97.7484 19.72 97.73L86.02 79.43C86.1513 79.3939 86.2885 79.384 86.4236 79.4009C86.5588 79.4178 86.6893 79.4611 86.8076 79.5284C86.926 79.5958 87.03 79.6857 87.1136 79.7932C87.1973 79.9007 87.2589 80.0237 87.295 80.155C87.3311 80.2863 87.341 80.4235 87.3241 80.5586C87.3072 80.6938 87.2639 80.8243 87.1966 80.9427C87.1292 81.061 87.0393 81.165 86.9318 81.2486C86.8243 81.3323 86.7013 81.3939 86.57 81.43L20.27 99.73C20.1833 99.7614 20.0921 99.7783 20 99.78V99.78Z" stroke="white" stroke-width="9.3" stroke-linecap="round" stroke-linejoin="round"></path> <path d="M90.06 86L85.42 73L75.48 45L66.22 19L63.73 12C63.59 11.62 63.47 11.24 63.32 10.86C62.6767 9.30345 61.6166 7.95441 60.2564 6.96116C58.8962 5.96791 57.2885 5.36891 55.61 5.23C52.39 4.82 49.28 5.97 46.22 6.81L32.68 10.55L18.78 14.39C16.06 15.14 12.97 15.68 10.5 17.1C7.45 18.84 4.82999 22.17 5.07999 25.84C5.13678 26.4722 5.23365 27.1001 5.36999 27.72L6.60998 34.53L11.46 61L16.84 90.5C17.75 95.5 18.47 100.5 19.57 105.41C20.0679 107.576 21.0991 109.584 22.57 111.25C24.02 112.83 26.36 110.48 24.92 108.9C23.5753 107.155 22.7163 105.085 22.43 102.9L21.01 95.13L16.08 68.13L10.88 39.69L9.10998 29.99C8.86998 28.67 8.55 27.34 8.38 25.99C8.01 22.99 10.67 20.43 13.25 19.38C14.0962 19.069 14.9613 18.8118 15.84 18.61L26.78 15.61L50.9 8.9C54.16 8 58.75 8.16 60.18 11.9C60.81 13.51 61.34 15.16 61.92 16.79L70.25 40.2L80.31 68.48L86.56 86L86.86 86.84C87.57 88.84 90.78 87.98 90.06 85.96V86Z" stroke="white" stroke-width="9.3" stroke-linecap="round" stroke-linejoin="round"></path> <path d="M109.91 64.49C109.569 66.2983 108.662 67.9514 107.32 69.21C105.68 70.5387 103.887 71.6666 101.98 72.57C100.478 73.4738 98.723 73.8635 96.98 73.68V73.68C96.5839 75.2223 96.6712 76.849 97.23 78.34C98.08 80.16 99.49 82.19 101.45 82.78C103.346 83.2789 105.361 83.0319 107.08 82.09C107.95 81.67 108.91 81.25 109.86 80.76C110.83 80.2887 111.742 79.7083 112.58 79.03C114.048 77.7568 115.043 76.026 115.406 74.1172C115.769 72.2084 115.478 70.233 114.58 68.51C113.593 66.6357 111.931 65.206 109.93 64.51L109.91 64.49Z" stroke="white" stroke-width="9.3" stroke-linecap="round" stroke-linejoin="round"></path> <path d="M94.71 58.66C95.6944 59.3823 96.6085 60.1959 97.44 61.09C100.98 64.86 98.01 69.76 93.21 71.28C93.5658 71.851 94.0307 72.3463 94.5781 72.7375C95.1255 73.1287 95.7445 73.4082 96.4 73.56C96.607 73.6144 96.8175 73.6545 97.03 73.68C98.773 73.8635 100.528 73.4738 102.03 72.57C103.937 71.6666 105.73 70.5386 107.37 69.21C108.712 67.9514 109.619 66.2983 109.96 64.49C110.337 62.4512 109.934 60.3451 108.83 58.59C108.26 57.7001 107.523 56.9292 106.66 56.32C105.494 55.4452 104.111 54.9058 102.66 54.76H102.54C99.93 54.73 96.89 56.48 94.71 58.66Z" stroke="white" stroke-width="9.3" stroke-linecap="round" stroke-linejoin="round"></path> <path d="M102.51 54.75H102.63C104.081 54.8958 105.464 55.4352 106.63 56.31C110.679 53.326 114.256 49.7492 117.24 45.7C118.98 43.22 121.12 38.7 119.02 35.7C116.28 31.84 111.02 30.85 106.25 35.97C102.66 39.83 95.25 49.31 95.25 49.31C95.25 49.31 96.67 39.17 96.44 34.06C96.27 31 95.21 26 91.8 25C87.36 23.67 82.68 26.23 82.07 33.35C81.4859 40.3338 81.319 47.3463 81.57 54.35L81.62 54.65C83.7754 54.2754 85.9904 54.4508 88.06 55.16C90.4337 55.9781 92.6743 57.1405 94.71 58.61C96.89 56.48 99.93 54.73 102.51 54.75Z" stroke="white" stroke-width="9.3" stroke-linecap="round" stroke-linejoin="round"></path> <path d="M93.21 71.28C98.01 69.76 100.98 64.86 97.44 61.09C96.6085 60.1959 95.6944 59.3823 94.71 58.66C92.6743 57.1905 90.4337 56.0281 88.06 55.21C85.9905 54.5008 83.7754 54.3254 81.62 54.7C79.6771 55.0189 77.829 55.7645 76.2088 56.8833C74.5886 58.002 73.2366 59.4661 72.25 61.17C69 66.7 69.72 74.05 71.74 78.58C73.1031 81.4934 75.0485 84.0967 77.4563 86.2293C79.8642 88.362 82.6833 89.9787 85.74 90.98C101.03 95.89 107.05 87.32 108.15 85.3C108.63 84.42 109.71 81.3 109.9 80.77C108.9 81.26 107.99 81.68 107.12 82.1C105.401 83.042 103.386 83.2889 101.49 82.79C99.49 82.2 98.12 80.17 97.27 78.35C96.7111 76.859 96.6239 75.2323 97.02 73.69V73.69C96.8075 73.6645 96.597 73.6244 96.39 73.57C95.7356 73.4158 95.1179 73.1342 94.5722 72.7413C94.0266 72.3484 93.5637 71.8518 93.21 71.28V71.28Z" stroke="white" stroke-width="9.3" stroke-linecap="round" stroke-linejoin="round"></path> <path d="M95.87 59.84C96.8282 58.8822 97.9113 58.0581 99.09 57.39C99.6366 57.0758 100.217 56.8242 100.82 56.64C101.11 56.55 101.41 56.48 101.7 56.42C102.19 56.32 101.47 56.42 101.95 56.42H102.38H102.79C103.09 56.42 102.74 56.42 102.91 56.42C103.158 56.4781 103.401 56.5516 103.64 56.64L103.91 56.75C104.08 56.82 103.65 56.63 103.91 56.75L104.66 57.09L106.66 58.01C107.042 58.2195 107.49 58.2752 107.912 58.1655C108.334 58.0558 108.698 57.7892 108.93 57.42C109.15 57.0385 109.212 56.5858 109.101 56.1593C108.991 55.7329 108.718 55.3668 108.34 55.14C106.43 54.23 104.34 52.98 102.18 53.05C98.86 53.16 95.78 55.24 93.49 57.49C91.97 58.99 94.32 61.34 95.84 59.84H95.87Z" stroke="white" stroke-width="9.3" stroke-linecap="round" stroke-linejoin="round"></path> <path d="M95.87 59.84C96.8282 58.8822 97.9113 58.0581 99.09 57.39C99.6366 57.0758 100.217 56.8242 100.82 56.64C101.11 56.55 101.41 56.48 101.7 56.42C102.19 56.32 101.47 56.42 101.95 56.42H102.38H102.79C103.09 56.42 102.74 56.42 102.91 56.42C103.158 56.4781 103.401 56.5516 103.64 56.64L103.91 56.75C104.08 56.82 103.65 56.63 103.91 56.75L104.66 57.09L106.66 58.01C107.042 58.2195 107.49 58.2752 107.912 58.1655C108.334 58.0558 108.698 57.7892 108.93 57.42C109.15 57.0385 109.212 56.5858 109.101 56.1593C108.991 55.7329 108.718 55.3668 108.34 55.14C106.43 54.23 104.34 52.98 102.18 53.05C98.86 53.16 95.78 55.24 93.49 57.49C91.97 58.99 94.32 61.34 95.84 59.84H95.87Z" stroke="white" stroke-width="9.3" stroke-linecap="round" stroke-linejoin="round"></path> <path d="M95.87 59.84C96.8282 58.8822 97.9113 58.0581 99.09 57.39C99.6366 57.0758 100.217 56.8242 100.82 56.64C101.11 56.55 101.41 56.48 101.7 56.42C102.19 56.32 101.47 56.42 101.95 56.42H102.38H102.79C103.09 56.42 102.74 56.42 102.91 56.42C103.158 56.4781 103.401 56.5516 103.64 56.64L103.91 56.75C104.08 56.82 103.65 56.63 103.91 56.75L104.66 57.09L106.66 58.01C107.042 58.2195 107.49 58.2752 107.912 58.1655C108.334 58.0558 108.698 57.7892 108.93 57.42C109.15 57.0385 109.212 56.5858 109.101 56.1593C108.991 55.7329 108.718 55.3668 108.34 55.14C106.43 54.23 104.34 52.98 102.18 53.05C98.86 53.16 95.78 55.24 93.49 57.49C91.97 58.99 94.32 61.34 95.84 59.84H95.87Z" stroke="white" stroke-width="9.3" stroke-linecap="round" stroke-linejoin="round"></path> <path d="M108.3 64.05C108.035 65.4906 107.338 66.8163 106.3 67.85C105.061 68.95 103.67 69.866 102.17 70.57C100.833 71.4618 99.2839 71.9828 97.68 72.08C97.0745 72.0718 96.4798 71.9186 95.9456 71.6333C95.4115 71.3479 94.9535 70.9387 94.61 70.44C94.3797 70.0691 94.0163 69.8004 93.5942 69.6888C93.1722 69.5773 92.7235 69.6314 92.34 69.84C91.9634 70.0651 91.6897 70.4286 91.5776 70.8528C91.4655 71.277 91.5238 71.7282 91.74 72.11C92.2768 72.9358 92.9769 73.643 93.7972 74.1882C94.6176 74.7334 95.5407 75.1049 96.51 75.28C98.8182 75.555 101.152 75.0404 103.13 73.82C105.045 72.9074 106.836 71.7548 108.46 70.39C109.994 68.9189 111.041 67.0136 111.46 64.93C111.552 64.5119 111.484 64.0746 111.269 63.7042C111.054 63.3339 110.709 63.0577 110.3 62.93C109.874 62.8159 109.421 62.8736 109.038 63.0906C108.654 63.3075 108.371 63.6665 108.25 64.09L108.3 64.05Z" stroke="white" stroke-width="9.3" stroke-linecap="round" stroke-linejoin="round"></path> <path d="M95.43 73.25C94.9145 74.9043 94.8876 76.6721 95.3523 78.3414C95.8171 80.0106 96.7538 81.5101 98.05 82.66C99.0098 83.5267 100.161 84.1538 101.41 84.49C103.663 84.9307 105.998 84.5773 108.02 83.49L110.75 82.18C111.128 81.9532 111.401 81.5871 111.511 81.1607C111.622 80.7342 111.56 80.2815 111.34 79.9C111.11 79.5289 110.746 79.2607 110.323 79.1508C109.9 79.041 109.452 79.098 109.07 79.31C107.25 80.18 105.31 81.4 103.24 81.37C102.841 81.3689 102.443 81.3117 102.06 81.2L101.75 81.1C101.51 81.03 101.56 80.99 101.75 81.1C101.36 80.86 100.94 80.66 100.56 80.41C100.18 80.16 100.75 80.58 100.56 80.41L100.28 80.16C100.051 79.9594 99.8341 79.7457 99.63 79.52L99.37 79.2C99.55 79.43 99.37 79.2 99.3 79.09C99.1291 78.8338 98.9754 78.5666 98.84 78.29C98.84 78.29 98.68 77.97 98.76 78.15C98.84 78.33 98.76 78.03 98.71 78C98.66 77.97 98.59 77.66 98.54 77.49C98.4905 77.3122 98.4504 77.132 98.42 76.95C98.42 76.87 98.42 76.79 98.42 76.71C98.42 76.89 98.42 76.77 98.42 76.71C98.3477 75.8506 98.4393 74.9852 98.69 74.16C98.7934 73.74 98.7288 73.2963 98.51 72.9232C98.2911 72.5501 97.9353 72.2772 97.5183 72.1625C97.1013 72.0478 96.6559 72.1005 96.2771 72.3092C95.8983 72.5179 95.6159 72.8662 95.49 73.28L95.43 73.25Z" stroke="white" stroke-width="9.3" stroke-linecap="round" stroke-linejoin="round"></path> <path d="M110.75 82.21C111.479 81.9047 112.171 81.5154 112.81 81.05C113.71 80.365 114.523 79.5725 115.23 78.69C116.181 77.4007 116.818 75.9067 117.09 74.3275C117.361 72.7483 117.26 71.1274 116.793 69.5944C116.327 68.0614 115.509 66.6586 114.404 65.498C113.299 64.3374 111.938 63.4511 110.43 62.91C108.38 62.26 107.51 65.47 109.55 66.11L109.8 66.2C109.91 66.2 110.16 66.38 109.75 66.2L110.07 66.35C110.632 66.6177 111.16 66.9535 111.64 67.35C112.987 68.5519 113.803 70.2381 113.91 72.04C114.052 73.7736 113.538 75.4973 112.47 76.87C112.13 77.2662 111.759 77.6341 111.36 77.97L110.78 78.45C110.7 78.53 110.33 78.77 110.72 78.52C110.187 78.8284 109.636 79.1055 109.07 79.35C108.693 79.5751 108.42 79.9386 108.308 80.3628C108.195 80.787 108.254 81.2382 108.47 81.62C108.699 81.9954 109.064 82.2676 109.489 82.3795C109.914 82.4913 110.366 82.4342 110.75 82.22V82.21Z" stroke="white" stroke-width="9.3" stroke-linecap="round" stroke-linejoin="round"></path> <path d="M105.77 57.75L105.99 57.93L106.41 58.31C106.675 58.5631 106.922 58.8337 107.15 59.12C106.9 58.8 107.24 59.25 107.28 59.32C107.32 59.39 107.43 59.56 107.5 59.68C107.57 59.8 107.69 60.02 107.77 60.19C107.85 60.36 107.86 60.37 107.9 60.45C107.82 60.28 107.82 60.27 107.9 60.45C108.034 60.8022 108.144 61.163 108.23 61.53C108.23 61.66 108.29 61.8 108.32 61.93C108.326 62.0233 108.326 62.1167 108.32 62.21C108.32 61.99 108.32 61.98 108.32 62.21C108.34 62.5764 108.34 62.9436 108.32 63.31C108.32 63.49 108.32 63.67 108.32 63.86C108.32 64.05 108.32 64.04 108.32 63.86C108.32 63.95 108.32 64.04 108.27 64.13C108.153 64.5557 108.21 65.0103 108.429 65.3938C108.647 65.7773 109.009 66.0583 109.435 66.175C109.861 66.2917 110.315 66.2345 110.699 66.016C111.082 65.7976 111.363 65.4357 111.48 65.01C111.841 63.1721 111.678 61.2699 111.01 59.52C110.277 57.6832 109.027 56.0989 107.41 54.96C107.029 54.7412 106.577 54.6814 106.152 54.7937C105.727 54.9061 105.363 55.1814 105.14 55.56C104.931 55.9435 104.877 56.3922 104.989 56.8143C105.1 57.2363 105.369 57.5997 105.74 57.83L105.77 57.75Z" stroke="white" stroke-width="9.3" stroke-linecap="round" stroke-linejoin="round"></path> <path d="M79.68 66.94C82.68 71.26 88.41 74.94 93.75 72.77C95.2376 72.1765 96.5165 71.1563 97.4257 69.8378C98.335 68.5193 98.834 66.9614 98.86 65.36C98.94 61.71 96.56 58.9 93.96 56.61C92.2117 55.1332 90.1632 54.0544 87.9564 53.4483C85.7496 52.8422 83.4373 52.7233 81.18 53.1C80.766 53.2193 80.4141 53.4941 80.1979 53.8668C79.9818 54.2395 79.918 54.6814 80.02 55.1C80.1436 55.5113 80.4191 55.8601 80.7906 56.0755C81.1621 56.291 81.6016 56.3569 82.02 56.26C85.2596 55.7996 88.5502 56.633 91.18 58.58C92.2093 59.447 93.1658 60.3968 94.04 61.42C94.7792 62.2698 95.2675 63.3085 95.45 64.42C95.6268 65.4346 95.4711 66.4791 95.0062 67.3981C94.5413 68.317 93.7921 69.0613 92.87 69.52C90.68 70.62 88.04 69.91 86.03 68.59C85.0403 67.9317 84.1395 67.1486 83.35 66.26C83.08 65.96 82.83 65.64 82.56 65.33C82.29 65.02 82.81 65.67 82.56 65.33C82.5278 65.2977 82.5008 65.2606 82.48 65.22C82.2498 64.8489 81.8857 64.5807 81.463 64.4708C81.0404 64.361 80.5917 64.418 80.21 64.63C79.8314 64.8533 79.5561 65.2168 79.4437 65.6418C79.3314 66.0667 79.3911 66.5188 79.61 66.9L79.68 66.94Z" stroke="white" stroke-width="9.3" stroke-linecap="round" stroke-linejoin="round"></path> <path d="M81.18 53.1C73.59 54.47 68.95 61.1 68.41 68.54C68.1748 71.9579 68.7105 75.3849 69.9775 78.5679C71.2445 81.751 73.2104 84.6087 75.73 86.93C83.47 94.08 97.28 97.31 106.05 90.25C107.329 89.228 108.431 88.0015 109.31 86.62C110.262 84.8817 111.01 83.0396 111.54 81.13C112.23 79.13 109.02 78.24 108.33 80.25C107.902 81.7429 107.343 83.1951 106.66 84.59C106.442 84.9587 106.205 85.3159 105.95 85.66C105.77 85.91 106.1 85.48 105.89 85.73C105.809 85.8411 105.722 85.9479 105.63 86.05C105.41 86.31 105.18 86.55 104.95 86.79C102.201 89.3945 98.5469 90.8287 94.76 90.79C83.97 90.95 72.94 83.56 71.76 72.29C71.2864 68.7432 71.948 65.1376 73.65 61.99C74.5453 60.4842 75.7595 59.1928 77.2072 58.2063C78.6549 57.2199 80.3011 56.5624 82.03 56.28C84.13 55.9 83.24 52.7 81.15 53.08L81.18 53.1Z" stroke="white" stroke-width="9.3" stroke-linecap="round" stroke-linejoin="round"></path> <path d="M83.23 54.4C82.985 50.2203 82.985 46.0297 83.23 41.85C83.31 39.57 83.43 37.2933 83.59 35.02C83.5797 32.8909 84.0949 30.7923 85.09 28.91C86.68 26.34 90.95 25.11 92.98 27.91C95.17 30.91 94.86 35.31 94.64 38.81C94.5 41.11 94.27 43.4 94.01 45.68C93.91 46.54 93.81 47.39 93.7 48.24C93.7 48.38 93.57 49.24 93.64 48.65V48.92C93.555 49.272 93.5826 49.6418 93.719 49.9773C93.8553 50.3128 94.0935 50.5971 94.4 50.79C94.7157 50.9723 95.0825 51.0455 95.444 50.9986C95.8055 50.9516 96.1414 50.7869 96.4 50.53C99.61 46.44 102.85 42.35 106.29 38.45C108.47 35.96 111.6 33.02 115.17 34.6C115.907 34.9002 116.563 35.37 117.084 35.9712C117.605 36.5724 117.977 37.288 118.17 38.06C118.46 39.88 117.59 41.84 116.72 43.39C114.17 47.93 109.89 51.8 105.72 54.9C104.03 56.16 105.72 59.05 107.39 57.76C111.94 54.5336 115.882 50.5247 119.03 45.92C121.47 42.09 122.77 37.09 119.23 33.51C117.711 32.004 115.705 31.0882 113.572 30.927C111.439 30.7657 109.318 31.3695 107.59 32.63C104.34 34.83 101.88 38.39 99.42 41.4C97.5867 43.64 95.7766 45.9 93.99 48.18L96.77 49.8C97.25 46.37 97.64 42.92 97.88 39.46C98.18 35.13 98.38 30.15 95.88 26.36C93.38 22.57 88.13 22.02 84.6 24.6C80.29 27.75 80.28 33.39 80.02 38.22C79.6102 43.6071 79.55 49.0151 79.84 54.41C80.01 56.53 83.33 56.55 83.17 54.41L83.23 54.4Z" stroke="white" stroke-width="9.3" stroke-linecap="round" stroke-linejoin="round"></path> <path d="M23.79 110.05C28 115.78 35.79 119.98 41.39 118.44L78.87 108.1C87.79 105.64 89.47 96.63 89.03 90.2L23.79 110.05Z" fill="#FF004F"></path> <path d="M39 119C33.87 119 27.44 115.45 23.57 110.18L23.33 109.86L23.71 109.74L89.3 89.74V90.1C89.54 93.63 89.5 105.38 78.92 108.3L41.45 118.64C40.6535 118.871 39.8292 118.992 39 119V119ZM24.28 110.17C28.72 115.96 36.28 119.51 41.33 118.17L78.8 107.82C88.62 105.11 88.97 94.38 88.8 90.58L24.28 110.17Z" fill="#720043"></path> <path d="M86.33 80.43L88.46 86.43C88.9174 87.7486 89.0937 89.1483 88.9775 90.5391C88.8614 91.93 88.4554 93.2811 87.7857 94.5056C87.116 95.73 86.1975 96.8008 85.0891 97.6489C83.9806 98.497 82.707 99.1037 81.35 99.43L33.79 112.56C32.4577 112.939 31.0627 113.046 29.6882 112.874C28.3137 112.703 26.9879 112.256 25.79 111.56C24.5873 110.861 23.5522 109.907 22.7575 108.765C21.9628 107.623 21.4278 106.321 21.19 104.95L20 98.73L86.33 80.43Z" fill="#FF8000"></path> <path d="M53.18 101.68C52.4678 101.684 51.7582 101.594 51.07 101.41C50.3662 101.28 49.7102 100.964 49.1702 100.494C48.6302 100.025 48.2261 99.419 48 98.74C47.32 96.27 49.74 93.51 53.51 92.47C57.28 91.43 60.78 92.55 61.46 95.02C62.14 97.5 59.72 100.25 55.95 101.3C55.0471 101.546 54.1159 101.674 53.18 101.68V101.68ZM56.3 94.16C55.5457 94.1659 54.7956 94.2736 54.07 94.48C51.29 95.25 49.7 97.05 50.01 98.18C50.1558 98.503 50.3807 98.7842 50.6638 98.9974C50.947 99.2106 51.2792 99.3491 51.63 99.4C52.8725 99.6873 54.1684 99.646 55.39 99.28C58.17 98.52 59.76 96.72 59.45 95.58C59.22 94.77 58 94.16 56.3 94.16Z" fill="#FF4A00"></path> <path d="M57.16 7.18C58.1768 7.45045 59.1174 7.95216 59.9084 8.64601C60.6994 9.33986 61.3194 10.2071 61.72 11.18L62.87 14.42L7.44 29.72L6.82001 26.34C6.14001 22.61 9.33001 18.61 13.95 17.34L51.09 7.09C53.0794 6.53222 55.188 6.56348 57.16 7.18V7.18Z" fill="#FF8000"></path> <path d="M62.87 14.46L86.33 80.43L20.04 98.73L7.44 29.76L62.87 14.46Z" fill="#DCCD00"></path> <path d="M63.44 13.78C71.44 35.78 79.44 57.99 87.23 80.11C87.2728 80.2268 87.292 80.351 87.2865 80.4753C87.281 80.5996 87.2508 80.7215 87.1978 80.8341C87.1448 80.9466 87.0699 81.0475 86.9776 81.1309C86.8853 81.2144 86.7773 81.2786 86.66 81.32C86.66 81.39 20.29 99.5 20.27 99.56C20.1549 99.5911 20.0348 99.5981 19.9169 99.5808C19.799 99.5635 19.6859 99.5222 19.5846 99.4594C19.4833 99.3965 19.3961 99.3136 19.3282 99.2156C19.2603 99.1177 19.2133 99.0069 19.19 98.89L6.69 29.89C6.65584 29.7024 6.69344 29.5089 6.79532 29.3477C6.8972 29.1866 7.0559 29.0696 7.23999 29.02C25.97 23.87 44.76 18.8 63.44 13.77V13.78ZM62.3 15.14C44 20.31 25.86 25.45 7.64001 30.5L8.19 29.63L20.88 98.63L19.81 97.96L86.08 79.57L85.44 80.8C77.62 58.89 70 37.08 62.3 15.14Z" fill="black"></path> <path d="M48.2 18.28L14.78 69.96L18.81 92.02L64.8 19.88L62.87 14.46L48.2 18.28Z" fill="white"></path> <path d="M66.97 24.18L20.23 95.05L21.07 98.45L30.45 95.86L69.85 34.36L66.97 24.18Z" fill="white"></path> <path d="M30.83 114C28.755 114.008 26.72 113.429 24.96 112.33C23.6999 111.542 22.6202 110.497 21.7914 109.263C20.9626 108.029 20.4033 106.635 20.15 105.17C20.1257 105.035 20.1283 104.896 20.1576 104.762C20.1869 104.627 20.2424 104.5 20.3209 104.387C20.3993 104.275 20.4993 104.178 20.6149 104.104C20.7306 104.03 20.8597 103.979 20.995 103.955C21.1303 103.931 21.269 103.933 21.4033 103.963C21.5375 103.992 21.6647 104.047 21.7775 104.126C21.8903 104.204 21.9866 104.304 22.0608 104.42C22.135 104.536 22.1857 104.665 22.21 104.8C22.4125 105.977 22.8609 107.099 23.526 108.091C24.1911 109.084 25.0579 109.925 26.07 110.56C27.1702 111.24 28.4014 111.681 29.6834 111.853C30.9653 112.026 32.2693 111.926 33.51 111.56L81.07 98.44C82.3313 98.1132 83.5108 97.5274 84.5335 96.72C85.5561 95.9125 86.3995 94.9011 87.01 93.75C87.5712 92.6802 87.9028 91.505 87.9837 90.2996C88.0647 89.0942 87.8931 87.8853 87.48 86.75C87.4281 86.6218 87.4034 86.4842 87.4074 86.346C87.4114 86.2077 87.444 86.0718 87.5032 85.9468C87.5625 85.8218 87.6469 85.7105 87.7514 85.6198C87.8558 85.5291 87.9779 85.4611 88.11 85.42C88.3714 85.3294 88.6579 85.3445 88.9082 85.4622C89.1586 85.58 89.3531 85.7909 89.45 86.05C89.9559 87.4507 90.1648 88.9413 90.0632 90.4271C89.9616 91.9129 89.5518 93.3612 88.86 94.68C88.1212 96.0876 87.0965 97.3254 85.8514 98.3138C84.6064 99.3023 83.1685 100.02 81.63 100.42L34.07 113.55C33.0144 113.841 31.925 113.992 30.83 114V114Z" fill="#FF4A00"></path> <path d="M22.35 110.89C26.44 116.34 33.66 121.41 40.82 120.26C42.7316 119.863 44.6209 119.366 46.48 118.77L54.48 116.54L72.96 111.44C75.4 110.77 77.96 110.22 80.29 109.38C83.3586 108.316 85.9886 106.266 87.77 103.55C89.4778 100.706 90.5364 97.5204 90.87 94.22C91.1818 92.7078 91.2761 91.1588 91.15 89.62C90.9055 88.3683 90.5232 87.1475 90.01 85.98C89.8843 85.5701 89.6084 85.2228 89.2375 85.0076C88.8667 84.7925 88.4282 84.7255 88.01 84.82C87.596 84.9393 87.2441 85.2141 87.0279 85.5868C86.8117 85.9595 86.748 86.4014 86.85 86.82C87.2217 87.7201 87.5389 88.6418 87.8 89.58C87.9829 90.684 87.966 91.812 87.75 92.91C87.5259 95.4761 86.8664 97.9853 85.8 100.33C84.6233 102.864 82.5604 104.881 80 106C77.7688 106.813 75.4874 107.481 73.17 108L42.17 116.56C39.5831 117.341 36.8073 117.218 34.3 116.21C30.6864 114.782 27.5374 112.384 25.2 109.28C23.94 107.58 21.05 109.28 22.33 110.95L22.35 110.89Z" fill="black"></path> <path d="M7.43999 30.81C7.21279 30.8058 6.99293 30.7287 6.81289 30.59C6.63284 30.4514 6.50212 30.2586 6.43999 30.04C6.39773 29.9081 6.38335 29.7688 6.39775 29.631C6.41216 29.4932 6.45504 29.3599 6.52367 29.2396C6.5923 29.1192 6.68521 29.0144 6.79647 28.9319C6.90773 28.8493 7.03493 28.7908 7.17 28.76L62.6 13.46C62.8652 13.3857 63.1491 13.4199 63.3891 13.5549C63.6292 13.6899 63.8057 13.9148 63.88 14.18C63.9543 14.4452 63.9201 14.7291 63.7851 14.9691C63.6501 15.2092 63.4252 15.3857 63.16 15.46L7.73 30.76C7.63633 30.7909 7.53859 30.8077 7.43999 30.81V30.81Z" fill="#FF4A00"></path> <path d="M20 99.78C19.8654 99.7984 19.7285 99.7901 19.5971 99.7556C19.4657 99.721 19.3424 99.661 19.2342 99.5788C19.126 99.4966 19.0351 99.3939 18.9666 99.2766C18.8981 99.1593 18.8534 99.0296 18.835 98.895C18.8166 98.7604 18.8249 98.6235 18.8594 98.4921C18.894 98.3607 18.954 98.2374 19.0362 98.1292C19.1184 98.021 19.2211 97.9301 19.3384 97.8616C19.4557 97.7931 19.5854 97.7484 19.72 97.73L86.02 79.43C86.1513 79.3939 86.2885 79.384 86.4236 79.4009C86.5588 79.4178 86.6893 79.4611 86.8076 79.5284C86.926 79.5958 87.03 79.6857 87.1136 79.7932C87.1973 79.9007 87.2589 80.0237 87.295 80.155C87.3311 80.2863 87.341 80.4235 87.3241 80.5586C87.3072 80.6938 87.2639 80.8243 87.1966 80.9427C87.1292 81.061 87.0393 81.165 86.9318 81.2486C86.8243 81.3323 86.7013 81.3939 86.57 81.43L20.27 99.73C20.1833 99.7614 20.0921 99.7783 20 99.78V99.78Z" fill="#FF4A00"></path> <path d="M90.06 86L85.42 73L75.48 45L66.22 19L63.73 12C63.59 11.62 63.47 11.24 63.32 10.86C62.6767 9.30345 61.6166 7.95441 60.2564 6.96116C58.8962 5.96791 57.2885 5.36891 55.61 5.23C52.39 4.82 49.28 5.97 46.22 6.81L32.68 10.55L18.78 14.39C16.06 15.14 12.97 15.68 10.5 17.1C7.45 18.84 4.82999 22.17 5.07999 25.84C5.13678 26.4722 5.23365 27.1001 5.36999 27.72L6.60998 34.53L11.46 61L16.84 90.5C17.75 95.5 18.47 100.5 19.57 105.41C20.0679 107.576 21.0991 109.584 22.57 111.25C24.02 112.83 26.36 110.48 24.92 108.9C23.5753 107.155 22.7163 105.085 22.43 102.9L21.01 95.13L16.08 68.13L10.88 39.69L9.10998 29.99C8.86998 28.67 8.55 27.34 8.38 25.99C8.01 22.99 10.67 20.43 13.25 19.38C14.0962 19.069 14.9613 18.8118 15.84 18.61L26.78 15.61L50.9 8.9C54.16 8 58.75 8.16 60.18 11.9C60.81 13.51 61.34 15.16 61.92 16.79L70.25 40.2L80.31 68.48L86.56 86L86.86 86.84C87.57 88.84 90.78 87.98 90.06 85.96V86Z" fill="black"></path> <path d="M109.91 64.49C109.569 66.2983 108.662 67.9514 107.32 69.21C105.68 70.5387 103.887 71.6666 101.98 72.57C100.478 73.4738 98.723 73.8635 96.98 73.68V73.68C96.5839 75.2223 96.6712 76.849 97.23 78.34C98.08 80.16 99.49 82.19 101.45 82.78C103.346 83.2789 105.361 83.0319 107.08 82.09C107.95 81.67 108.91 81.25 109.86 80.76C110.83 80.2887 111.742 79.7083 112.58 79.03C114.048 77.7568 115.043 76.026 115.406 74.1172C115.769 72.2084 115.478 70.233 114.58 68.51C113.593 66.6357 111.931 65.206 109.93 64.51L109.91 64.49Z" fill="#DCCD00"></path> <path d="M94.71 58.66C95.6944 59.3823 96.6085 60.1959 97.44 61.09C100.98 64.86 98.01 69.76 93.21 71.28C93.5658 71.851 94.0307 72.3463 94.5781 72.7375C95.1255 73.1287 95.7445 73.4082 96.4 73.56C96.607 73.6144 96.8175 73.6545 97.03 73.68C98.773 73.8635 100.528 73.4738 102.03 72.57C103.937 71.6666 105.73 70.5386 107.37 69.21C108.712 67.9514 109.619 66.2983 109.96 64.49C110.337 62.4512 109.934 60.3451 108.83 58.59C108.26 57.7001 107.523 56.9292 106.66 56.32C105.494 55.4452 104.111 54.9058 102.66 54.76H102.54C99.93 54.73 96.89 56.48 94.71 58.66Z" fill="#DCCD00"></path> <path d="M102.51 54.75H102.63C104.081 54.8958 105.464 55.4352 106.63 56.31C110.679 53.326 114.256 49.7492 117.24 45.7C118.98 43.22 121.12 38.7 119.02 35.7C116.28 31.84 111.02 30.85 106.25 35.97C102.66 39.83 95.25 49.31 95.25 49.31C95.25 49.31 96.67 39.17 96.44 34.06C96.27 31 95.21 26 91.8 25C87.36 23.67 82.68 26.23 82.07 33.35C81.4859 40.3338 81.319 47.3463 81.57 54.35L81.62 54.65C83.7754 54.2754 85.9904 54.4508 88.06 55.16C90.4337 55.9781 92.6743 57.1405 94.71 58.61C96.89 56.48 99.93 54.73 102.51 54.75Z" fill="#DCCD00"></path> <path d="M93.21 71.28C98.01 69.76 100.98 64.86 97.44 61.09C96.6085 60.1959 95.6944 59.3823 94.71 58.66C92.6743 57.1905 90.4337 56.0281 88.06 55.21C85.9905 54.5008 83.7754 54.3254 81.62 54.7C79.6771 55.0189 77.829 55.7645 76.2088 56.8833C74.5886 58.002 73.2366 59.4661 72.25 61.17C69 66.7 69.72 74.05 71.74 78.58C73.1031 81.4934 75.0485 84.0967 77.4563 86.2293C79.8642 88.362 82.6833 89.9787 85.74 90.98C101.03 95.89 107.05 87.32 108.15 85.3C108.63 84.42 109.71 81.3 109.9 80.77C108.9 81.26 107.99 81.68 107.12 82.1C105.401 83.042 103.386 83.2889 101.49 82.79C99.49 82.2 98.12 80.17 97.27 78.35C96.7111 76.859 96.6239 75.2323 97.02 73.69V73.69C96.8075 73.6645 96.597 73.6244 96.39 73.57C95.7356 73.4158 95.1179 73.1342 94.5722 72.7413C94.0266 72.3484 93.5637 71.8518 93.21 71.28V71.28Z" fill="#DCCD00"></path> <path d="M95.87 59.84C96.8282 58.8822 97.9113 58.0581 99.09 57.39C99.6366 57.0758 100.217 56.8242 100.82 56.64C101.11 56.55 101.41 56.48 101.7 56.42C102.19 56.32 101.47 56.42 101.95 56.42H102.38H102.79C103.09 56.42 102.74 56.42 102.91 56.42C103.158 56.4781 103.401 56.5516 103.64 56.64L103.91 56.75C104.08 56.82 103.65 56.63 103.91 56.75L104.66 57.09L106.66 58.01C107.042 58.2195 107.49 58.2752 107.912 58.1655C108.334 58.0558 108.698 57.7892 108.93 57.42C109.15 57.0385 109.212 56.5858 109.101 56.1593C108.991 55.7329 108.718 55.3668 108.34 55.14C106.43 54.23 104.34 52.98 102.18 53.05C98.86 53.16 95.78 55.24 93.49 57.49C91.97 58.99 94.32 61.34 95.84 59.84H95.87Z" fill="#FF004F"></path> <path d="M108.3 64.05C108.035 65.4906 107.338 66.8163 106.3 67.85C105.061 68.95 103.67 69.866 102.17 70.57C100.833 71.4618 99.2839 71.9828 97.68 72.08C97.0745 72.0718 96.4798 71.9186 95.9456 71.6333C95.4115 71.3479 94.9535 70.9387 94.61 70.44C94.3797 70.0691 94.0163 69.8004 93.5942 69.6888C93.1722 69.5773 92.7235 69.6314 92.34 69.84C91.9634 70.0651 91.6897 70.4286 91.5776 70.8528C91.4655 71.277 91.5238 71.7282 91.74 72.11C92.2768 72.9358 92.9769 73.643 93.7972 74.1882C94.6176 74.7334 95.5407 75.1049 96.51 75.28C98.8182 75.555 101.152 75.0404 103.13 73.82C105.045 72.9074 106.836 71.7548 108.46 70.39C109.994 68.9189 111.041 67.0136 111.46 64.93C111.552 64.5119 111.484 64.0746 111.269 63.7042C111.054 63.3339 110.709 63.0577 110.3 62.93C109.874 62.8159 109.421 62.8736 109.038 63.0906C108.654 63.3075 108.371 63.6665 108.25 64.09L108.3 64.05Z" fill="#FF004F"></path> <path d="M95.43 73.25C94.9145 74.9043 94.8876 76.6721 95.3523 78.3414C95.8171 80.0106 96.7538 81.5101 98.05 82.66C99.0098 83.5267 100.161 84.1538 101.41 84.49C103.663 84.9307 105.998 84.5773 108.02 83.49L110.75 82.18C111.128 81.9532 111.401 81.5871 111.511 81.1607C111.622 80.7342 111.56 80.2815 111.34 79.9C111.11 79.5289 110.746 79.2607 110.323 79.1508C109.9 79.041 109.452 79.098 109.07 79.31C107.25 80.18 105.31 81.4 103.24 81.37C102.841 81.3689 102.443 81.3117 102.06 81.2L101.75 81.1C101.51 81.03 101.56 80.99 101.75 81.1C101.36 80.86 100.94 80.66 100.56 80.41C100.18 80.16 100.75 80.58 100.56 80.41L100.28 80.16C100.051 79.9594 99.8341 79.7457 99.63 79.52L99.37 79.2C99.55 79.43 99.37 79.2 99.3 79.09C99.1291 78.8338 98.9754 78.5666 98.84 78.29C98.84 78.29 98.68 77.97 98.76 78.15C98.84 78.33 98.76 78.03 98.71 78C98.66 77.97 98.59 77.66 98.54 77.49C98.4905 77.3122 98.4504 77.132 98.42 76.95C98.42 76.87 98.42 76.79 98.42 76.71C98.42 76.89 98.42 76.77 98.42 76.71C98.3477 75.8506 98.4393 74.9852 98.69 74.16C98.7934 73.74 98.7288 73.2963 98.51 72.9232C98.2911 72.5501 97.9353 72.2772 97.5183 72.1625C97.1013 72.0478 96.6559 72.1005 96.2771 72.3092C95.8983 72.5179 95.6159 72.8662 95.49 73.28L95.43 73.25Z" fill="#FF004F"></path> <path d="M110.75 82.21C111.479 81.9047 112.171 81.5154 112.81 81.05C113.71 80.365 114.523 79.5725 115.23 78.69C116.181 77.4007 116.818 75.9067 117.09 74.3275C117.361 72.7483 117.26 71.1274 116.793 69.5944C116.327 68.0614 115.509 66.6586 114.404 65.498C113.299 64.3374 111.938 63.4511 110.43 62.91C108.38 62.26 107.51 65.47 109.55 66.11L109.8 66.2C109.91 66.2 110.16 66.38 109.75 66.2L110.07 66.35C110.632 66.6177 111.16 66.9535 111.64 67.35C112.987 68.5519 113.803 70.2381 113.91 72.04C114.052 73.7736 113.538 75.4973 112.47 76.87C112.13 77.2662 111.759 77.6341 111.36 77.97L110.78 78.45C110.7 78.53 110.33 78.77 110.72 78.52C110.187 78.8284 109.636 79.1055 109.07 79.35C108.693 79.5751 108.42 79.9386 108.308 80.3628C108.195 80.787 108.254 81.2382 108.47 81.62C108.699 81.9954 109.064 82.2676 109.489 82.3795C109.914 82.4913 110.366 82.4342 110.75 82.22V82.21Z" fill="black"></path> <path d="M105.77 57.75L105.99 57.93L106.41 58.31C106.675 58.5631 106.922 58.8337 107.15 59.12C106.9 58.8 107.24 59.25 107.28 59.32C107.32 59.39 107.43 59.56 107.5 59.68C107.57 59.8 107.69 60.02 107.77 60.19C107.85 60.36 107.86 60.37 107.9 60.45C107.82 60.28 107.82 60.27 107.9 60.45C108.034 60.8022 108.144 61.163 108.23 61.53C108.23 61.66 108.29 61.8 108.32 61.93C108.326 62.0233 108.326 62.1167 108.32 62.21C108.32 61.99 108.32 61.98 108.32 62.21C108.34 62.5764 108.34 62.9436 108.32 63.31C108.32 63.49 108.32 63.67 108.32 63.86C108.32 64.05 108.32 64.04 108.32 63.86C108.32 63.95 108.32 64.04 108.27 64.13C108.153 64.5557 108.21 65.0103 108.429 65.3938C108.647 65.7773 109.009 66.0583 109.435 66.175C109.861 66.2917 110.315 66.2345 110.699 66.016C111.082 65.7976 111.363 65.4357 111.48 65.01C111.841 63.1721 111.678 61.2699 111.01 59.52C110.277 57.6832 109.027 56.0989 107.41 54.96C107.029 54.7412 106.577 54.6814 106.152 54.7937C105.727 54.9061 105.363 55.1814 105.14 55.56C104.931 55.9435 104.877 56.3922 104.989 56.8143C105.1 57.2363 105.369 57.5997 105.74 57.83L105.77 57.75Z" fill="black"></path> <path d="M79.68 66.94C82.68 71.26 88.41 74.94 93.75 72.77C95.2376 72.1765 96.5165 71.1563 97.4257 69.8378C98.335 68.5193 98.834 66.9614 98.86 65.36C98.94 61.71 96.56 58.9 93.96 56.61C92.2117 55.1332 90.1632 54.0544 87.9564 53.4483C85.7496 52.8422 83.4373 52.7233 81.18 53.1C80.766 53.2193 80.4141 53.4941 80.1979 53.8668C79.9818 54.2395 79.918 54.6814 80.02 55.1C80.1436 55.5113 80.4191 55.8601 80.7906 56.0755C81.1621 56.291 81.6016 56.3569 82.02 56.26C85.2596 55.7996 88.5502 56.633 91.18 58.58C92.2093 59.447 93.1658 60.3968 94.04 61.42C94.7792 62.2698 95.2675 63.3085 95.45 64.42C95.6268 65.4346 95.4711 66.4791 95.0062 67.3981C94.5413 68.317 93.7921 69.0613 92.87 69.52C90.68 70.62 88.04 69.91 86.03 68.59C85.0403 67.9317 84.1395 67.1486 83.35 66.26C83.08 65.96 82.83 65.64 82.56 65.33C82.29 65.02 82.81 65.67 82.56 65.33C82.5278 65.2977 82.5008 65.2606 82.48 65.22C82.2498 64.8489 81.8857 64.5807 81.463 64.4708C81.0404 64.361 80.5917 64.418 80.21 64.63C79.8314 64.8533 79.5561 65.2168 79.4437 65.6418C79.3314 66.0667 79.3911 66.5188 79.61 66.9L79.68 66.94Z" fill="#FF004F"></path> <path d="M81.18 53.1C73.59 54.47 68.95 61.1 68.41 68.54C68.1748 71.9579 68.7105 75.3849 69.9775 78.5679C71.2445 81.751 73.2104 84.6087 75.73 86.93C83.47 94.08 97.28 97.31 106.05 90.25C107.329 89.228 108.431 88.0015 109.31 86.62C110.262 84.8817 111.01 83.0396 111.54 81.13C112.23 79.13 109.02 78.24 108.33 80.25C107.902 81.7429 107.343 83.1951 106.66 84.59C106.442 84.9587 106.205 85.3159 105.95 85.66C105.77 85.91 106.1 85.48 105.89 85.73C105.809 85.8411 105.722 85.9479 105.63 86.05C105.41 86.31 105.18 86.55 104.95 86.79C102.201 89.3945 98.5469 90.8287 94.76 90.79C83.97 90.95 72.94 83.56 71.76 72.29C71.2864 68.7432 71.948 65.1376 73.65 61.99C74.5453 60.4842 75.7595 59.1928 77.2072 58.2063C78.6549 57.2199 80.3011 56.5624 82.03 56.28C84.13 55.9 83.24 52.7 81.15 53.08L81.18 53.1Z" fill="black"></path> <path d="M83.23 54.4C82.985 50.2203 82.985 46.0297 83.23 41.85C83.31 39.57 83.43 37.2933 83.59 35.02C83.5797 32.8909 84.0949 30.7923 85.09 28.91C86.68 26.34 90.95 25.11 92.98 27.91C95.17 30.91 94.86 35.31 94.64 38.81C94.5 41.11 94.27 43.4 94.01 45.68C93.91 46.54 93.81 47.39 93.7 48.24C93.7 48.38 93.57 49.24 93.64 48.65V48.92C93.555 49.272 93.5826 49.6418 93.719 49.9773C93.8553 50.3128 94.0935 50.5971 94.4 50.79C94.7157 50.9723 95.0825 51.0455 95.444 50.9986C95.8055 50.9516 96.1414 50.7869 96.4 50.53C99.61 46.44 102.85 42.35 106.29 38.45C108.47 35.96 111.6 33.02 115.17 34.6C115.907 34.9002 116.563 35.37 117.084 35.9712C117.605 36.5724 117.977 37.288 118.17 38.06C118.46 39.88 117.59 41.84 116.72 43.39C114.17 47.93 109.89 51.8 105.72 54.9C104.03 56.16 105.72 59.05 107.39 57.76C111.94 54.5336 115.882 50.5247 119.03 45.92C121.47 42.09 122.77 37.09 119.23 33.51C117.711 32.004 115.705 31.0882 113.572 30.927C111.439 30.7657 109.318 31.3695 107.59 32.63C104.34 34.83 101.88 38.39 99.42 41.4C97.5867 43.64 95.7766 45.9 93.99 48.18L96.77 49.8C97.25 46.37 97.64 42.92 97.88 39.46C98.18 35.13 98.38 30.15 95.88 26.36C93.38 22.57 88.13 22.02 84.6 24.6C80.29 27.75 80.28 33.39 80.02 38.22C79.6102 43.6071 79.55 49.0151 79.84 54.41C80.01 56.53 83.33 56.55 83.17 54.41L83.23 54.4Z" fill="black"></path> </svg> 