<?xml version="1.0" encoding="UTF-8"?> <svg xmlns="http://www.w3.org/2000/svg" width="24" height="24" viewBox="0 0 80 80" fill="none"> <path fill-rule="evenodd" clip-rule="evenodd" d="M29.1416 38.8576C29.1416 36.3453 30.9493 34.2861 33.239 34.2861C35.5287 34.2861 37.3766 36.3453 37.3364 38.8576C37.3364 41.3698 35.5287 43.429 33.239 43.429C30.9895 43.429 29.1416 41.3698 29.1416 38.8576ZM43.8037 38.8576C43.8037 36.3453 45.6114 34.2861 47.9011 34.2861C50.1909 34.2861 51.9985 36.3453 51.9985 38.8576C51.9985 41.3698 50.1909 43.429 47.9011 43.429C45.6516 43.429 43.8037 41.3698 43.8037 38.8576Z" fill="#0F1729"></path> <path fill-rule="evenodd" clip-rule="evenodd" d="M12.3004 0H66.5567C71.1321 0 74.8571 3.68 74.8571 8.24V80L66.1518 72.4L61.2526 67.92L56.0699 63.16L58.2158 70.56H12.3004C7.72506 70.56 4 66.88 4 62.32V8.24C4 3.68 7.72506 0 12.3004 0ZM48.2553 48.999C49.47 50.519 50.9276 52.239 50.9276 52.239C59.8758 51.959 63.3175 46.159 63.3175 46.159C63.3175 33.279 57.4869 22.839 57.4869 22.839C51.6564 18.519 46.1093 18.639 46.1093 18.639L45.5425 19.279C52.4257 21.359 55.6244 24.359 55.6244 24.359C51.4135 22.079 47.2835 20.959 43.437 20.519C40.5217 20.199 37.7279 20.279 35.258 20.599C35.046 20.599 34.8647 20.6295 34.6605 20.6638C34.6308 20.6688 34.6006 20.6739 34.5697 20.679C33.1526 20.799 29.7109 21.319 25.3785 23.199C23.8804 23.879 22.9896 24.359 22.9896 24.359C22.9896 24.359 26.3503 21.199 33.6385 19.119L33.2336 18.639C33.2336 18.639 27.6865 18.519 21.8559 22.839C21.8559 22.839 16.0254 33.279 16.0254 46.159C16.0254 46.159 19.4265 51.959 28.3748 52.239C28.3748 52.239 29.8729 50.439 31.0876 48.919C25.9454 47.399 24.0019 44.199 24.0019 44.199C24.0019 44.199 24.4068 44.479 25.1356 44.879C25.1761 44.919 25.2166 44.959 25.2976 44.999C25.3583 45.039 25.419 45.069 25.4797 45.099C25.5405 45.129 25.6012 45.159 25.662 45.199C26.6742 45.759 27.6865 46.199 28.6177 46.559C30.2778 47.199 32.2618 47.839 34.5697 48.279C37.6065 48.839 41.1696 49.039 45.0566 48.319C46.9596 47.999 48.9031 47.439 50.9276 46.599C52.3447 46.079 53.9238 45.319 55.5839 44.239C55.5839 44.239 53.5594 47.519 48.2553 48.999Z" fill="#0F1729"></path> </svg> 