<?xml version="1.0" encoding="UTF-8"?> <svg xmlns="http://www.w3.org/2000/svg" width="100" height="32" viewBox="0 0 160 32" fill="none"> <path d="M78.4627 0.390656L0.0566461 0L0 11.4495L9.0316 11.4955L8.98626 20.716L18.7714 20.762L18.7204 31.2579L63.8841 31.5968L63.9351 21.2905L72.4001 21.2158L72.4511 10.8578L79.9755 10.8923L80.0265 0.402148L78.4627 0.390656Z" fill="black"></path> <path d="M26.1949 5.1908L20.1096 5.16064L20.0799 11.3306L26.1651 11.3607L26.1949 5.1908Z" fill="white"></path> <path d="M32.2495 11.3953L26.1643 11.3651L26.1346 17.535L32.2198 17.5652L32.2495 11.3953Z" fill="white"></path> <path d="M158.43 0.7947L80.0244 0.404053L79.9734 11.0206L89.005 11.0665L88.9597 21.1143L98.7448 21.166L98.6939 31.6562L143.852 32.0009L143.903 21.6888L152.373 21.6141L152.419 11.2561L159.949 11.2963L160 0.800442L158.43 0.7947Z" fill="black"></path> <path d="M106.17 5.5929L100.085 5.56274L100.055 11.7327L106.14 11.7628L106.17 5.5929Z" fill="white"></path> <path d="M112.229 11.7935L106.144 11.7633L106.114 17.9332L112.199 17.9634L112.229 11.7935Z" fill="white"></path> </svg> 