<?xml version="1.0" encoding="UTF-8"?> <svg xmlns="http://www.w3.org/2000/svg" width="370" height="156" viewBox="0 0 370 156" fill="none"> <g clip-path="url(#clip0_133_708)"> <path d="M101.567 61.1321C101.305 61.0157 94.8553 125.937 94.8553 125.937V138.589C94.8553 138.589 85.2168 137.701 81.344 149.028C77.4712 160.355 85.5663 182.893 104.799 184.378C104.799 184.378 114.423 206.669 161.582 210.586C208.74 214.502 234.976 196.594 246.027 187.13L252.506 181.423L256.743 173.706C256.743 173.706 263.44 179.836 274.403 170.678C285.367 161.52 287.609 143.306 284.799 136.274C284.011 134.241 282.762 132.419 281.15 130.951C279.538 129.483 277.607 128.409 275.51 127.815L262.639 103.85L247.919 45.6117C247.919 45.6117 203.586 36.5994 202.785 36.5994C201.984 36.5994 101.567 61.1321 101.567 61.1321Z" fill="#F9CCBB"></path> <path d="M84.9403 60.1423C79.026 55.7753 72.1649 52.8651 64.9144 51.6483C57.6639 50.4314 50.2286 50.9422 43.2127 53.1392C18.7672 60.5646 14.0936 95.6821 14.0936 95.6821C14.0936 95.6821 12.0554 113.838 12.0554 123.578C12.0554 133.318 11.0071 161.069 10.978 161.506C10.9489 161.942 9.95877 174.26 7.3963 180.433C5.90525 184.018 4.18869 187.505 2.25684 190.872C2.25684 190.872 10.8615 196.026 25.3191 193.435C39.7767 190.843 53.8412 178.205 60.9025 160.224C67.9639 142.243 70.6428 129.562 72.4482 125.995C74.666 122.396 77.1789 118.987 79.961 115.803L82.3632 112.629C78.6889 110.087 75.629 106.756 73.4072 102.879C71.1855 99.0021 69.8579 94.6779 69.5217 90.2223C68.5608 75.1241 76.8452 64.2336 84.9403 60.1423Z" fill="#314392"></path> <path d="M90.371 59.7198C90.371 59.7198 83.6736 77.1912 83.528 92.1147C83.3824 107.038 87.8231 127.189 87.8231 127.189L96.1221 153.92C96.1221 153.92 95.5834 167.213 92.2347 173.27C88.886 179.326 84.9549 186.271 84.9549 186.271C87.6723 186.479 90.3854 185.816 92.7006 184.378C95.3343 182.869 97.7782 181.051 99.9804 178.962L101.786 176.342C101.786 176.342 100.432 163.777 100.33 155.551C100.228 147.324 99.5872 135.488 99.5872 135.488V101.811C99.5872 101.811 102.761 80.5836 106.561 72.4303C110.361 64.2769 111.322 62.457 111.322 62.457C111.322 62.457 126.304 72.7797 142.596 76.1575C151.771 78.1763 161.161 79.0469 170.55 78.7491L160.067 64.0876L155.19 54.2454L153.559 49.0914C153.559 49.0914 173.346 64.6409 183.654 70.3337C191.463 74.4661 199.487 78.1792 207.692 81.4572C207.692 81.4572 210.138 82.6219 209.686 72.7215C209.515 67.3663 208.818 62.041 207.604 56.8225C207.604 56.8225 220.97 66.7666 228.293 74.8908C232.812 79.9311 237.064 85.204 241.033 90.6879C241.033 90.6879 244.207 83.117 244.207 82.3016C244.207 81.4863 245.372 76.0701 245.372 76.0701L253.263 87.8197L257.092 113.765L260.426 139.04L261.416 154.954C261.416 154.954 265.58 161.913 272.35 164.534C279.121 167.155 282.134 165.145 282.134 165.145C282.134 165.145 275.874 158.637 272.35 154.036C268.827 149.436 264.255 135.488 264.255 135.488L266.847 131.12L270.545 128.688L274.36 127.232L275.452 111.464C275.452 111.464 274.316 76.5215 267.502 61.598C267.502 61.598 264.94 40.676 252.331 29.7854C239.723 18.8949 228.191 21.8068 228.191 21.8068C228.191 21.8068 215.743 3.86949 196.554 1.33613C177.364 -1.19723 173.826 8.48486 173.826 8.48486C173.826 8.48486 164.77 0.491689 148.114 2.32619C131.458 4.16069 130.293 15.7209 130.293 15.7209C130.293 15.7209 117.641 13.5079 108.017 20.2198C98.3933 26.9318 98.7428 41.7388 98.7428 41.7388L98.932 45.4515L98.8447 46.1795C98.8447 46.1795 91.9435 57.07 90.371 59.7198Z" fill="#314392"></path> <path d="M89.0897 60.6082C89.0897 60.6082 76.8889 62.3844 72.5792 74.2213C68.2696 86.0582 69.1723 99.7441 75.1854 106.354C81.1984 112.964 84.9403 112.498 84.9403 112.498C83.5338 103.612 83.1916 94.589 83.9211 85.6214C84.5541 77.0951 86.2915 68.6871 89.0897 60.6082V60.6082Z" fill="#93569A"></path> <path d="M267.633 62.4135C267.633 62.4135 270.021 71.1492 272.627 81.4574C274.338 89.0431 275.424 96.7564 275.874 104.52C281.441 100.695 285.547 95.095 287.521 88.6352C291.059 77.57 283.852 64.2335 280.14 59.1376C277.764 56.0215 274.419 53.7834 270.632 52.7751L265.944 52.3092L267.633 62.4135Z" fill="#93569A"></path> <path d="M280.3 101.695C284.632 103.938 288.471 107.026 291.589 110.777C294.707 114.528 297.042 118.866 298.456 123.534C303.129 139.346 312.928 161.564 324.532 171.683C331.421 177.735 340.129 181.321 349.283 181.874H357.072L364.512 180.113L369.302 178.191C369.302 178.191 361.338 168.611 358.383 147.703C355.427 126.796 356.65 102.059 352.559 84.2383C348.468 66.4174 341.232 50.9844 326.628 44.6801C312.025 38.3758 302.474 40.851 296.141 42.205C289.807 43.559 280.373 50.4166 280.373 50.4166L275.539 54.1584C275.539 54.1584 286.255 62.996 288.133 76.7984C290.011 90.6008 280.3 101.695 280.3 101.695Z" fill="#314392"></path> <path d="M111.701 93.7454C111.701 93.7454 120.116 87.5284 126.551 86.0579C130.132 85.2151 133.773 84.6601 137.442 84.3981L143.921 83.8886C143.921 83.8886 141.184 78.1667 132.827 77.4533C124.469 76.7399 118.893 82.3161 116.724 84.1943C114.554 86.0725 110.638 93.6143 111.701 93.7454Z" fill="#484568"></path> <path d="M198.082 77.861L193.365 78.7491L192.404 76.4342L192.681 75.5897L198.082 77.861Z" fill="#484568"></path> <path d="M211.666 68.5286L209.73 67.7278V76.5363C209.73 76.5363 210.647 76.5363 212.118 76.5363C213.588 76.5363 221.028 77.4536 221.028 77.4536L228.628 79.026C226.706 76.3526 224.283 74.078 221.494 72.3286C218.368 70.7031 215.072 69.4287 211.666 68.5286V68.5286Z" fill="#484568"></path> <path d="M189.667 123.578C189.667 123.578 190.249 132.095 194.588 136.929C197.458 140.01 200.855 142.555 204.62 144.442L211.361 141.006L219.048 138.589L227.303 136.056L238.223 135.095H237.786C239.207 133.115 240.316 130.93 241.077 128.616C242.484 124.34 242.804 119.782 242.008 115.352C240.086 104.272 230.958 97.4001 223.94 96.5847C216.922 95.7694 206.469 94.4736 198.708 101.229C190.948 107.985 189.667 117.07 189.667 123.578Z" fill="white"></path> <path d="M145.464 104.287C145.464 104.287 157.592 109.004 161.028 120.71C164.464 132.416 162.004 140.496 156.18 147.572C156.18 147.572 150.094 145.112 137.791 145.767C131.59 145.951 125.424 146.765 119.388 148.198C119.388 148.198 109.954 141.501 111.628 124.03C113.302 106.558 130.963 100.501 145.464 104.287Z" fill="white"></path> <path d="M138.942 110.591C138.942 110.591 130.628 111.668 126.231 118.482C124.389 121.327 123.305 124.596 123.084 127.978C122.862 131.36 123.509 134.742 124.964 137.803C125.962 139.911 127.245 141.87 128.779 143.627L132.914 146.029L141.722 145.447L149.235 146.029C150.012 145.558 150.825 145.149 151.667 144.806C153.574 143.961 160.126 135.735 158.524 126.374C156.923 117.012 150.837 110.795 138.942 110.591Z" fill="#784945"></path> <path d="M214.112 140.089C214.112 140.089 213.603 141.544 208.463 139.477C203.324 137.41 196.088 127.829 198.563 117.74C201.038 107.65 208.754 102.176 218.014 102.904C227.274 103.631 232.122 111.858 233.52 115.876C234.367 119.08 234.59 122.416 234.175 125.704L232.923 130.508L231.788 133.056L230.186 135.4L229.312 135.881L214.112 140.089Z" fill="#784945"></path> <path d="M107.842 188.877C107.842 188.877 132.186 205.563 181.019 202.811C224.319 200.365 252.826 170.256 254.238 149.028C255.651 127.8 250.642 97.429 250.642 97.429L245.736 89.9163C245.736 89.9163 244.513 94.6481 237.728 96.9485C237.728 96.9485 231.191 83.3645 222.557 77.7591L228.017 78.2104L224.61 73.6824L218.073 70.3628L210.05 68.0479L207.604 57.2593L221.174 68.0479L234.598 82.4618L240.844 89.9163L245.925 76.0993L253.205 87.8634C253.205 87.8634 255.039 99.3509 256.655 111.159C258.271 122.966 260.79 143.364 261.183 151.387C261.576 159.409 255.942 171.086 247.439 180.418C238.936 189.751 222.528 203.422 192.491 208.605C162.455 213.789 145.901 211.401 128.022 203.146C110.143 194.89 107.842 188.877 107.842 188.877Z" fill="#F4B0AF"></path> <path d="M266.701 131.6C268.158 132.135 269.393 133.143 270.209 134.463C271.024 135.783 271.373 137.338 271.2 138.88L274.767 136.536L275.932 136.201L279.033 136.012L280.941 136.754C280.941 136.754 272.962 139.593 273.253 153.687C273.253 153.687 267.007 144.223 266.949 144.049C266.891 143.874 263.935 135.488 263.935 135.488L266.701 131.6Z" fill="#F4B0AF"></path> <path d="M89.4682 139.608C88.627 141.141 88.2154 142.873 88.2769 144.621C88.3384 146.369 88.8707 148.067 89.8176 149.538L87.2843 153.207C89.5651 153.946 91.5406 155.413 92.908 157.383C94.2754 159.353 94.9595 161.716 94.8553 164.112C94.8553 164.112 97.4323 154.968 96.5296 153.673C95.627 152.377 91.5502 140.438 91.5502 140.438C91.5502 140.438 89.9924 138.443 89.4682 139.608Z" fill="#F4B0AF"></path> <path d="M99.7327 104.287C99.7327 104.287 103.722 84.5149 115.748 72.4305C119.728 74.8614 124.089 76.6039 128.648 77.5846L132.827 77.4536L135.666 77.934L138.577 79.026L142.538 81.9379L143.906 83.6996C143.906 83.6996 161.378 89.0138 186.493 82.5494C186.493 82.5494 178.063 77.1041 174.467 69.7807C174.467 69.7807 182.838 76.3616 192.637 77.9631L192.186 74.7891L173.928 64.4373L153.88 48.4219C153.88 48.4219 154.782 53.6924 160.781 64.2335C166.779 74.7746 171.453 78.793 171.453 78.793C171.453 78.793 153.778 79.0842 138.505 74.9639C128.927 72.2843 119.822 68.1392 111.511 62.6756C111.511 62.6756 99.9074 83.7141 99.7327 104.287Z" fill="#F4B0AF"></path> <path d="M195.84 78.7492L211.142 85.5776C211.142 85.5776 213.923 80.4672 214.054 76.8419L209.788 76.3032L207.662 81.3262L198.141 78.1814L195.84 78.7492Z" fill="#F4B0AF"></path> <path d="M168.381 147.397C168.992 148.696 170.004 149.764 171.267 150.445C172.53 151.126 173.978 151.385 175.399 151.183C180.829 150.819 181.907 148.183 178.441 146.349C174.976 144.514 166.459 144.544 168.381 147.397Z" fill="#F4B0AF"></path> <path d="M172.574 140.627C172.574 140.627 170.856 140.627 171.322 141.821C171.788 143.015 177.553 142.418 175.69 140.831C173.826 139.244 172.574 140.627 172.574 140.627Z" fill="#FFEED8"></path> <path d="M101.96 42.4815C101.96 42.4815 111.861 72.9837 164.726 76.3323C164.726 76.3323 154.913 62.3115 153.516 49.0915L155.918 49.9942C155.918 49.9942 185.343 67.8005 206.236 76.8565C206.236 76.8565 208.376 62.7192 201.285 42.4815L206.862 55.7161C206.862 55.7161 228.701 66.7376 239.97 81.4719C239.97 81.4719 244.935 77.6718 244.833 59.6326L245.983 70.8434C245.983 70.8434 257.966 85.1409 260.543 92.6827C260.543 92.6827 271.389 70.3775 264.241 47.7375C264.241 47.7375 267.022 63.5637 258.286 76.3032C258.286 76.3032 261.198 46.8493 235.398 36.5849C235.398 36.5849 243.595 53.2992 237.786 69.5768C237.786 69.5768 238.31 47.6064 225.338 35.6968C225.338 35.6968 232.617 53.3137 232.617 63.3598C232.617 63.3598 220.606 30.2369 186.915 21.9817C186.915 21.9817 200.019 39.2784 199.247 57.8563C199.247 57.8563 193.554 41.4041 180.611 36.5703C180.611 36.5703 189.216 46.3397 192.258 57.2157C192.258 57.2157 158.99 49.7176 142.61 34.7649C142.61 34.7649 142.989 53.4739 153.894 64.874C153.894 64.874 127.949 53.6777 126.1 38.4631C126.1 38.4631 122.344 58.6425 149.759 68.0043C149.701 68.048 114.802 62.7192 101.96 42.4815Z" fill="#193383"></path> <path d="M82.3342 57.3615C82.3342 57.3615 73.118 55.8182 65.2122 64.4229C65.2122 64.4229 42.0479 69.3585 36.9375 82.928C36.9375 82.928 48.8181 78.1525 57.5538 81.472C57.5538 81.472 44.6395 88.8829 44.756 109.805C44.756 109.805 48.7598 100.487 60.8734 95.6967L55.4718 105.248C55.4718 105.248 57.117 102.059 65.8818 101.084C65.8818 101.084 54.773 111.668 55.9232 136.23C55.9232 136.23 57.2044 126.781 63.3049 120.215C61.1386 128.129 59.9072 136.27 59.6358 144.471C59.2282 157.793 56.2726 166.136 52.5308 172.891C48.789 179.647 61.2665 163.02 62.111 156.701C62.9554 150.382 66.4788 131.6 69.9003 123.869C72.1937 118.895 75.0203 114.184 78.3303 109.819C78.3303 109.819 70.4245 103.573 69.4927 93.8039C68.5608 84.0345 72.4046 72.9839 72.4046 72.9839L77.8498 66.2428L84.0812 60.6083L82.3342 57.3615Z" fill="#193383"></path> <path d="M279.193 52.3091L282.921 54.7842C282.921 54.7842 303.828 35.4637 327.589 50.8968C327.589 50.8968 305.75 47.4317 290.972 61.0885C290.972 61.0885 320.717 50.8968 337.388 78.7055C337.388 78.7055 318.46 73.5806 305.575 78.1668C305.575 78.1668 326.599 88.0818 326.818 118.933C326.818 118.933 321.372 98.5501 301.542 87.383C301.542 87.383 312.651 94.0949 316.801 115.774C320.95 137.453 318.111 156.424 325.74 170.154C316.798 159.793 310.326 147.536 306.813 134.308C300.829 112.076 292.879 104.752 282.513 98.9869C286.033 93.7866 288.048 87.7155 288.337 81.4427C288.788 71.1055 282.688 62.3843 282.688 62.3843L276.311 54.1436L279.193 52.3091Z" fill="#193383"></path> <path d="M337.461 52.2655C337.461 52.2655 351.248 82.4329 349.691 113.809C348.133 145.184 348.904 150.906 348.904 150.906C343.994 144.602 340.516 137.303 338.713 129.518C338.713 129.518 336.383 164.592 368.181 176.895C368.181 176.895 357.494 169.441 354.757 146.83C352.02 124.219 359.096 75.619 337.461 52.2655Z" fill="#193383"></path> <path d="M270.327 53.2992C270.327 53.2992 267.837 56.0073 279.688 62.4135C279.688 62.4135 274.651 62.8358 275.466 66.8542C276.281 70.8726 282.134 75.4297 282.134 75.4297C282.134 75.4297 277.039 72.9401 277.199 78.2106C277.359 83.4811 280.941 89.2176 280.941 89.2176C280.941 89.2176 275.917 84.1946 274.986 98.1863L270.108 70.0718L266.614 60.1422L265.944 52.3092L270.327 53.2992Z" fill="#81408E"></path> <path d="M123.494 124.801C123.494 124.801 148.449 118.73 158.641 128.339C158.641 128.339 159.98 115.993 144.926 111.305C129.871 106.616 123.494 124.801 123.494 124.801Z" fill="#482A26"></path> <path d="M198.563 117.74C198.563 117.74 220.824 108.582 234.379 118.482C234.379 118.482 231.467 104.418 217.607 102.903C203.746 101.389 198.563 117.74 198.563 117.74Z" fill="#482A26"></path> <path d="M151.506 136.944C149.861 135.619 147.561 138.196 145.537 139.346C142.13 141.268 136.801 139.491 135.112 137.089C133.423 134.687 128.066 135.983 130.191 140.918C130.783 142.174 131.727 143.23 132.909 143.959C134.09 144.688 135.457 145.058 136.845 145.024L139.029 144.849L144.853 145.228L146.673 145.519H146.76C147.903 145.022 148.952 144.333 149.861 143.481C151.929 141.457 153.341 138.429 151.506 136.944Z" fill="#B97F7A"></path> <path d="M227.522 126.606C225.556 125.805 224.115 128.936 222.498 130.625C219.776 133.435 214.229 133.245 211.855 131.455C209.482 129.664 204.794 132.43 208.259 136.536C211.317 140.147 216.456 139.229 216.456 139.229L217.912 137.773L219.135 138.065L223.678 136.463L225.512 136.23C226.466 135.4 227.273 134.416 227.9 133.318C229.24 130.799 229.72 127.494 227.522 126.606Z" fill="#B97F7A"></path> <path d="M87.43 60.608C87.43 60.608 87.43 66.5774 80.6016 70.3774C80.6016 70.3774 84.0085 82.1269 75.4038 83.6994C75.4038 83.6994 80.951 93.993 76.2919 100.385C77.577 101.717 78.5261 103.337 79.0603 105.109C79.5946 106.881 79.6986 108.756 79.364 110.576L84.0522 112.484L83.7027 101.52L84.9403 79.681L87.43 67.3927L90.6913 59.2831L87.43 60.608Z" fill="#81408E"></path> <path d="M80.98 57.2594C80.98 57.2594 53.9139 50.198 34.8847 65.4418C15.8554 80.6857 14.4139 120.215 13.4676 135.328C12.6032 121.461 12.915 107.545 14.3994 93.731C16.8745 73.4932 26.4256 59.5889 42.6595 53.2992C58.8933 47.0095 80.98 57.2594 80.98 57.2594Z" fill="#537AB8"></path> <path d="M27.8233 68.8927C25.5031 78.2408 25.2002 87.9759 26.9349 97.4502C28.6696 106.924 32.402 115.921 37.8839 123.84C37.8839 123.84 11.9243 113.649 17.1512 87.4415L27.8233 68.8927Z" fill="#537AB8"></path> <path d="M295.34 42.4524C295.34 42.4524 321.401 40.0646 335.742 57.3613C350.084 74.658 354.67 118.06 354.67 118.06C354.67 118.06 356.665 73.3623 340.11 55.454C323.556 37.5458 302.692 39.3367 295.34 42.4524Z" fill="#537AB8"></path> <path d="M337.388 55.3811C337.388 55.3811 345.075 80.3507 332.321 110.707C332.321 110.707 344.58 106.572 347.521 77.4533L337.388 55.3811Z" fill="#537AB8"></path> <path d="M104.872 23.5397C104.872 23.5397 89.2062 57.1431 146.192 76.8566C146.192 76.8566 110.303 68.7615 101.96 52.9062C93.6177 37.0509 104.872 23.5397 104.872 23.5397Z" fill="#537AB8"></path> <path d="M106.255 50.2272C106.255 50.2272 131.196 23.6269 180.509 20.3656C180.509 20.3656 136.714 11.7027 100.854 40.4723L106.255 50.2272Z" fill="#537AB8"></path> <path d="M129.449 16.4637L134.981 19.1135C134.981 19.1135 142.669 -0.483597 171.73 7.88812C170.608 6.1701 164.202 3.88426 164.202 3.88426C157.119 2.02283 149.69 1.90793 142.552 3.5494C139.538 4.24799 136.804 5.84081 134.71 8.11922C132.617 10.3976 131.26 13.2554 130.817 16.3181L129.449 16.4637Z" fill="#537AB8"></path> <path d="M173.826 8.60142L177.655 11.6589C177.655 11.6589 196 -5.1282 221.334 14.7455C221.334 14.7455 210.298 2.20979 192.623 1.04503C178.063 0.928549 173.797 7.88799 173.797 7.88799" fill="#537AB8"></path> <path d="M111.526 62.6319C111.526 62.6319 95.5105 61.4381 87.1533 69.8098L85.6974 77.3953C85.6974 77.3953 94.5641 71.688 104.785 74.2213L111.526 62.6319Z" fill="#193383"></path> <path d="M84.4016 80.9478C84.4016 80.9478 86.8039 84.5003 97.0101 86.7716L85.9012 86.5677C85.9012 86.5677 87.3572 101.724 99.1213 109.863V120.783C99.1213 120.783 86.0177 114.799 83.5571 93.8184L84.4016 80.9478Z" fill="#193383"></path> <path d="M254.559 93.7456L256.641 116.837C256.641 116.837 270.166 111.639 273.209 92.7118C273.209 92.7118 272.918 115.046 266.556 124.452C266.556 124.452 274.316 120.87 274.709 108.582C275.102 96.2935 272.379 79.6811 272.379 79.6811L268.303 65.1216L265.886 87.4122L261.154 101.258L253.161 88.6352L254.559 93.7456Z" fill="#193383"></path> <path d="M115.122 114.624C115.122 114.624 119.344 109.892 133.904 112.44C133.904 112.44 140.645 109.674 145.464 111.304C150.283 112.935 155.874 119.429 155.874 119.429L157.709 122.34L162.601 125.005C162.601 125.005 157.418 110.445 152.031 107.082C146.644 103.719 125.387 99.977 115.122 114.624Z" fill="#E3D4E7"></path> <path d="M192.2 113.299C192.2 113.503 196.772 111.435 200.936 111.581C200.936 111.581 209.133 100.283 217.956 102.845C223.178 104.378 227.833 107.416 231.336 111.581L233.331 113.299L242.067 115.381C242.067 115.381 241.12 104.185 228.643 98.6667C216.165 93.1486 197.485 95.4636 192.2 113.299Z" fill="#E3D4E7"></path> <path d="M180.174 142.68C178.597 141.63 176.788 140.98 174.904 140.788C174.033 140.734 173.16 140.838 172.327 141.093C171.494 141.311 170.719 141.709 170.055 142.258C169.462 142.848 169.036 143.584 168.821 144.393C168.606 145.201 168.61 146.052 168.832 146.859C169.081 147.747 169.521 148.57 170.123 149.269C170.724 149.968 171.471 150.527 172.312 150.906C171.287 150.746 170.322 150.323 169.51 149.677C168.698 149.031 168.068 148.185 167.682 147.223C167.273 146.184 167.193 145.044 167.453 143.958C167.714 142.872 168.302 141.892 169.138 141.152C169.958 140.441 170.921 139.914 171.963 139.608C173.003 139.332 174.097 139.332 175.137 139.608C177.09 140.093 178.849 141.165 180.174 142.68V142.68Z" fill="#E3807F"></path> <path d="M109.007 98.696L109.706 95.522C110.885 90.0622 116.986 78.3127 128.561 76.8713C140.412 75.4153 144.765 83.7143 144.809 83.8016L145.362 84.9227L144.11 84.8499C120.815 83.656 111.089 96.0025 110.987 96.119L109.007 98.696ZM131.429 78.138C130.552 78.1415 129.677 78.1999 128.808 78.3127C119.941 79.4338 114.35 87.427 112.123 92.8722C116.127 89.2615 125.707 82.8116 142.843 83.292C141.482 81.5938 139.738 80.2416 137.754 79.3458C135.771 78.4501 133.603 78.0362 131.429 78.138Z" fill="#312D4B"></path> <path d="M193.249 79.55L192.957 79.2442C192.534 78.7279 192.226 78.1266 192.055 77.481C191.885 76.8355 191.855 76.1607 191.967 75.5024L193.423 75.6772C193.307 76.4521 193.445 77.2439 193.816 77.9339C195.083 77.6427 196.379 77.3806 197.645 77.1622L197.893 78.6182C196.437 78.8511 195.068 79.1423 193.656 79.4772L193.249 79.55Z" fill="#312D4B"></path> <path d="M230.929 80.6422L228.992 80.0016C222.999 78.2679 216.783 77.4289 210.545 77.5119H210.05V76.0559C215.89 75.9963 221.714 76.6615 227.39 78.036C223.62 73.3333 217.126 69.9264 209.584 68.7616L209.803 67.3057C218.626 68.6597 226.095 72.9984 229.793 78.9533L230.929 80.6422Z" fill="#312D4B"></path> <path d="M199.985 111.825C198.65 114.171 197.8 116.762 197.485 119.443C196.224 129.27 201.869 138.471 210.45 141.46L212.248 140.483C203.577 138.253 197.692 129.233 198.927 119.632C199.216 117.143 200.003 114.738 201.241 112.559C202.479 110.381 204.143 108.473 206.134 106.951C209.002 104.759 212.511 103.567 216.121 103.559C216.95 103.564 217.777 103.627 218.597 103.748C228.162 105.204 234.86 114.74 233.549 124.932C233.266 127.421 232.483 129.827 231.247 132.006C230.437 133.434 229.444 134.744 228.296 135.906L230.16 136.034C231.046 135.019 231.83 133.916 232.499 132.739C233.833 130.393 234.68 127.802 234.991 125.121C236.403 114.114 229.152 103.879 218.815 102.307C216.438 101.948 214.013 102.071 211.684 102.669C209.355 103.267 207.171 104.327 205.26 105.786C203.115 107.425 201.321 109.479 199.985 111.825Z" fill="#4A2B27"></path> <path d="M216.568 131.261C221.163 131.067 224.72 126.93 224.513 122.021C224.305 117.112 220.412 113.291 215.816 113.485C211.221 113.679 207.664 117.816 207.871 122.724C208.079 127.633 211.972 131.455 216.568 131.261Z" fill="black"></path> <path d="M210.657 119.021C213.637 118.894 215.944 116.213 215.809 113.031C215.674 109.85 213.148 107.373 210.168 107.5C207.187 107.626 204.88 110.308 205.015 113.489C205.15 116.671 207.676 119.147 210.657 119.021Z" fill="white"></path> <path d="M192.317 133.493C190.091 129.884 188.782 125.786 188.502 121.555C188.174 117.213 188.919 112.858 190.671 108.873C192.46 104.84 195.203 101.302 198.665 98.5651C202.185 95.8748 206.326 94.1125 210.705 93.4401C215.041 92.7828 219.466 93.0457 223.692 94.2117C227.977 95.2785 231.961 97.3103 235.34 100.152C236.997 101.62 238.442 103.311 239.635 105.175C240.794 107.027 241.677 109.038 242.256 111.144C243.368 115.26 243.398 119.593 242.343 123.724C242.208 119.693 241.37 115.717 239.868 111.974C238.395 108.418 236.046 105.293 233.04 102.889C230.014 100.538 226.549 98.8159 222.848 97.8225C219.131 96.7807 215.236 96.5375 211.419 97.1091C207.639 97.6875 204.058 99.1847 200.992 101.469C197.925 103.754 195.467 106.756 193.831 110.213C192.131 113.723 191.194 117.554 191.079 121.453C190.898 125.505 191.315 129.562 192.317 133.493Z" fill="black"></path> <path d="M181.019 105.786C182.134 105.873 183.234 106.098 184.294 106.456C185.393 106.814 186.444 107.303 187.425 107.912C188.454 108.523 189.395 109.273 190.22 110.14C191.086 111.041 191.813 112.066 192.375 113.183L188.91 114.508C188.683 113.596 188.345 112.716 187.905 111.887C187.439 111.016 186.856 110.212 186.173 109.499C184.716 107.934 182.964 106.673 181.019 105.786Z" fill="black"></path> <path d="M196.597 86.7571C197.661 87.2984 198.642 87.9898 199.509 88.81C200.373 89.6513 201.131 90.5949 201.766 91.62C202.42 92.6808 202.911 93.8343 203.222 95.0415C203.559 96.2735 203.702 97.5508 203.644 98.8269L199.946 98.5066C200.067 97.5411 200.102 96.5664 200.048 95.5947C200.005 94.5823 199.834 93.5793 199.538 92.61C199.246 91.6058 198.861 90.631 198.388 89.6981C197.869 88.6723 197.27 87.689 196.597 86.7571V86.7571Z" fill="black"></path> <path d="M222.455 81.4574C223.208 82.4928 223.82 83.6238 224.275 84.8206C224.733 86.0514 225.046 87.3317 225.207 88.6352C225.389 89.9685 225.389 91.3204 225.207 92.6537C225.032 94.0234 224.664 95.3615 224.115 96.6284L220.781 95.0123C221.288 94.0408 221.712 93.0276 222.047 91.9839C222.393 90.9042 222.627 89.7918 222.746 88.6643C222.876 87.4897 222.91 86.3065 222.848 85.1264C222.808 83.8953 222.677 82.6689 222.455 81.4574V81.4574Z" fill="black"></path> <path d="M241.819 94.3862C242.226 95.9125 242.261 97.5142 241.922 99.0568C241.582 100.6 240.878 102.038 239.868 103.253C239.157 104.112 238.311 104.85 237.364 105.437L235.602 102.176C236.322 101.848 237.01 101.453 237.655 100.996C238.324 100.51 238.926 99.9369 239.446 99.2928C240.57 97.8406 241.379 96.1693 241.819 94.3862V94.3862Z" fill="black"></path> <path d="M250.147 108.611C249.93 109.52 249.582 110.393 249.113 111.202C248.647 112.056 248.069 112.845 247.395 113.546C246.673 114.273 245.849 114.89 244.949 115.381C244.003 115.889 242.98 116.238 241.921 116.415L241.717 112.702C242.446 112.759 243.179 112.73 243.901 112.615C244.678 112.477 245.429 112.222 246.129 111.858C246.882 111.474 247.594 111.016 248.254 110.489C248.935 109.915 249.568 109.287 250.147 108.611V108.611Z" fill="black"></path> <path d="M194.224 96.0895C193.761 96.6104 193.338 97.1652 192.957 97.7493C192.593 98.3039 192.267 98.8827 191.982 99.4818C191.712 100.07 191.473 100.673 191.268 101.287C190.988 101.959 190.621 102.59 190.176 103.165C189.824 102.458 189.721 101.653 189.885 100.88C190.055 100.143 190.345 99.4393 190.744 98.7975C191.504 97.4737 192.754 96.5012 194.224 96.0895Z" fill="#E3807F"></path> <path d="M239.169 135.08C235.981 135.531 232.85 136.085 229.735 136.682C226.619 137.278 223.532 137.977 220.475 138.822C217.418 139.639 214.406 140.611 211.448 141.734C208.536 142.855 205.624 144.282 202.712 145.708C205.288 143.777 208.054 142.114 210.967 140.744C213.871 139.315 216.897 138.15 220.009 137.264C223.101 136.327 226.267 135.65 229.473 135.24C232.688 134.82 235.941 134.766 239.169 135.08V135.08Z" fill="#E3807F"></path> <path d="M124.807 119.469C123.513 121.783 122.7 124.335 122.416 126.971C121.442 134.759 124.889 142.132 130.7 146.194L132.419 145.571C126.516 141.964 122.896 134.777 123.814 127.145C124.077 124.701 124.829 122.335 126.028 120.188C127.226 118.042 128.845 116.159 130.788 114.653C133.617 112.456 137.093 111.258 140.674 111.246C141.449 111.247 142.223 111.305 142.989 111.421C152.38 112.775 159.034 122.049 157.825 132.096C157.563 134.54 156.81 136.906 155.612 139.052C154.413 141.199 152.794 143.082 150.851 144.588C150.262 145.045 149.644 145.461 149 145.831L151 146.333C151.276 146.143 151.547 145.944 151.812 145.738C153.895 144.108 155.629 142.076 156.909 139.762C158.19 137.448 158.992 134.901 159.267 132.27C160.621 121.453 153.443 111.436 143.251 109.98C140.91 109.642 138.525 109.78 136.238 110.385C133.952 110.991 131.811 112.051 129.944 113.503C127.847 115.126 126.1 117.155 124.807 119.469Z" fill="#4A2B27"></path> <path d="M142.364 137.776C146.773 137.555 150.155 133.555 149.919 128.84C149.683 124.126 145.917 120.484 141.508 120.705C137.099 120.926 133.716 124.927 133.953 129.641C134.189 134.355 137.955 137.998 142.364 137.776Z" fill="black"></path> <path d="M136.369 126.186C139.293 126.04 141.535 123.388 141.379 120.264C141.222 117.14 138.725 114.727 135.802 114.873C132.879 115.02 130.636 117.671 130.793 120.795C130.949 123.919 133.446 126.333 136.369 126.186Z" fill="white"></path> <path d="M162.28 133.216C162.092 129.296 161.342 125.422 160.053 121.714C158.81 118.15 156.825 114.89 154.229 112.149C151.628 109.489 148.459 107.453 144.959 106.192C141.46 104.931 137.72 104.479 134.02 104.869C130.331 105.198 126.777 106.422 123.669 108.436C120.585 110.477 118.027 113.215 116.2 116.429C114.31 119.695 113.088 123.302 112.603 127.043C112.072 130.93 112.28 134.881 113.215 138.691C111.116 135.124 110.034 131.05 110.085 126.912C110.056 122.674 111.055 118.493 112.996 114.726C114.992 110.905 117.947 107.669 121.572 105.335C125.197 103.004 129.334 101.59 133.627 101.215C137.879 100.808 142.168 101.36 146.178 102.831C150.196 104.328 153.789 106.782 156.646 109.979C159.442 113.166 161.398 116.999 162.339 121.132C163.31 125.104 163.29 129.254 162.28 133.216Z" fill="black"></path> <path d="M164.726 104.287C163.191 105.657 161.943 107.32 161.057 109.179C160.625 110.038 160.316 110.955 160.14 111.901C159.984 112.79 159.935 113.694 159.995 114.595L156.282 114.376C156.483 113.175 156.866 112.012 157.418 110.926C157.937 109.874 158.593 108.895 159.369 108.014C160.116 107.177 160.961 106.434 161.887 105.801C162.768 105.181 163.722 104.673 164.726 104.287V104.287Z" fill="black"></path> <path d="M144.809 91.1686C144.481 92.206 144.232 93.2671 144.066 94.3425C143.903 95.3628 143.84 96.3966 143.877 97.4292C143.886 98.4124 144.018 99.3906 144.27 100.341C144.509 101.25 144.826 102.136 145.217 102.991L141.781 104.447C141.356 103.273 141.116 102.04 141.067 100.792C141.028 99.5812 141.161 98.3705 141.46 97.1962C142.018 94.9241 143.175 92.8428 144.809 91.1686V91.1686Z" fill="black"></path> <path d="M119.344 93.7456C119.498 94.9308 119.736 96.1034 120.058 97.2544C120.348 98.3607 120.728 99.4416 121.193 100.487C121.629 101.511 122.171 102.487 122.81 103.399C123.422 104.258 124.104 105.067 124.848 105.815L122.14 108.349C121.264 107.337 120.538 106.204 119.985 104.986C119.44 103.794 119.053 102.536 118.835 101.244C118.613 99.9901 118.535 98.7151 118.602 97.4437C118.679 96.1829 118.929 94.9386 119.344 93.7456V93.7456Z" fill="black"></path> <path d="M105.222 111.377C106.155 112.893 107.395 114.197 108.862 115.206C109.523 115.649 110.244 115.997 111.002 116.24C111.726 116.477 112.473 116.643 113.229 116.735L112.516 120.375C111.481 120.097 110.498 119.655 109.604 119.065C108.31 118.231 107.236 117.096 106.475 115.758C105.715 114.419 105.29 112.916 105.236 111.377H105.222Z" fill="black"></path> <path d="M101.567 126.883C102.3 127.339 103.07 127.733 103.868 128.062C104.631 128.35 105.421 128.56 106.226 128.688C106.978 128.812 107.746 128.812 108.498 128.688C109.196 128.584 109.88 128.398 110.536 128.135L111.439 131.731C110.402 131.87 109.35 131.841 108.323 131.644C107.346 131.453 106.403 131.114 105.527 130.639C104.698 130.181 103.934 129.613 103.256 128.951C102.597 128.346 102.028 127.65 101.567 126.883Z" fill="black"></path> <path d="M149.701 99.118C151.179 99.0645 152.619 99.5865 153.719 100.574C154.302 101.046 154.795 101.618 155.175 102.263C155.539 102.935 155.667 103.708 155.539 104.461C154.942 104.062 154.411 103.57 153.967 103.005C153.588 102.496 153.21 102.001 152.788 101.549C152.339 101.074 151.852 100.635 151.332 100.239C150.817 99.8254 150.272 99.4506 149.701 99.118V99.118Z" fill="#E3807F"></path> <path d="M119.388 148.198C122.279 146.991 125.298 146.117 128.386 145.592C131.472 145.044 134.599 144.757 137.733 144.733C140.871 144.653 144.009 144.857 147.109 145.344C150.201 145.778 153.24 146.524 156.18 147.572C153.108 147.091 150.065 146.596 146.978 146.422C143.916 146.211 140.844 146.167 137.777 146.291C134.705 146.393 131.647 146.655 128.59 146.989C125.532 147.324 122.475 147.776 119.388 148.198Z" fill="#E3807F"></path> <path d="M12.4484 148.97L10.9924 148.824C15.768 104.359 25.1006 89.8435 38.6555 80.8603C54.0595 70.6686 71.5308 78.1231 71.7056 78.1959L71.1232 79.5208C70.9485 79.448 54.1905 72.2411 39.4708 82.0687C26.2799 90.8336 17.1802 105.073 12.4484 148.97Z" fill="#122D67"></path> <path d="M72.5939 101.549C69.8234 102.903 67.4172 104.9 65.5762 107.373C63.6499 109.85 62.0996 112.597 60.9753 115.527C58.8486 121.497 57.5028 127.717 56.9714 134.032C56.3017 140.38 55.9523 146.786 54.9622 153.163C54.037 159.552 52.1573 165.765 49.386 171.595C51.3669 165.532 52.7517 159.291 53.5208 152.959C54.3507 146.655 54.642 140.263 55.3699 133.857C55.9508 127.394 57.36 121.033 59.5631 114.93C60.7515 111.872 62.3852 109.007 64.4113 106.427C66.4246 103.74 69.0771 101.598 72.1279 100.195L72.5939 101.549Z" fill="#122D67"></path> <path d="M55.4718 58.0602C57.5143 57.6526 59.6171 57.6526 61.6596 58.0602C63.7186 58.4633 65.7093 59.1595 67.5708 60.1276C69.4258 61.1271 71.1517 62.3494 72.7102 63.7675C73.5256 64.4372 74.1662 65.2234 74.9233 66.0097C75.6804 66.7959 76.2336 67.6549 76.8888 68.4848L75.6949 69.3146C75.098 68.5139 74.5156 67.684 73.8895 66.8978C73.2635 66.1116 72.6084 65.3399 71.8658 64.6556C70.4411 63.2309 68.8528 61.9798 67.134 60.9284C65.3826 59.9094 63.4952 59.1447 61.5285 58.6571C59.5541 58.1379 57.5096 57.9364 55.4718 58.0602Z" fill="#122D67"></path> <path d="M16.4086 195.429C11.2006 195.519 6.03352 194.496 1.25219 192.43L0 191.818L0.902683 190.741C0.902683 190.668 7.78941 182.486 9.53656 164.883C10.6756 152.571 11.1616 140.207 10.9925 127.844C10.9925 112.993 10.9925 100.181 14.6324 85.8105C21.1987 60.1712 41.9024 45.9028 66.1294 50.3144C73.6385 51.8646 80.6675 55.1894 86.6291 60.011L85.2897 61.729C79.6075 57.1209 72.9016 53.9453 65.7363 52.4692C42.6157 48.2761 22.9604 61.8746 16.6998 86.3492C13.0891 100.428 13.1036 113.139 13.1181 127.844C13.2934 140.275 12.8074 152.707 11.6622 165.087C10.2062 179.792 5.41618 188.077 3.40697 190.974C13.7197 194.505 25.0111 193.809 34.8119 189.037C53.3607 180.462 61.7033 157.283 66.8428 138.079C68.3369 132.275 70.5373 126.677 73.3946 121.409C75.567 117.382 78.6909 113.948 82.4943 111.406L83.6008 113.299C80.1474 115.656 77.3031 118.8 75.3019 122.471C72.53 127.582 70.398 133.015 68.9539 138.647C63.6252 158.346 55.035 182.107 35.6708 191.061C29.6449 193.903 23.0709 195.394 16.4086 195.429V195.429Z" fill="#122D67"></path> <path d="M84.154 113.823C81.1486 113.058 78.3971 111.517 76.1753 109.353C71.0795 104.33 65.3139 91.5325 70.3515 76.8566C76.1753 60.1422 89.6865 58.5844 90.2689 58.5261L90.4873 60.6955C89.9632 60.6955 77.6895 62.2242 72.4189 77.57C67.7016 91.285 73.0013 103.166 77.704 107.796C79.6254 109.664 81.998 111.003 84.5907 111.683L84.154 113.823Z" fill="#6F3482"></path> <path d="M83.3824 81.7921C77.7479 70.6832 80.4705 63.4325 80.587 63.1414L81.9556 63.6655C81.9556 63.6655 79.364 70.6541 84.6782 81.1369L83.3824 81.7921Z" fill="#6F3482"></path> <path d="M82.7709 91.5473C70.8321 84.2676 71.8075 74.5563 71.8512 74.1487L73.3072 74.3089C73.3072 74.6728 72.4336 83.4668 83.4988 90.3243L82.7709 91.5473Z" fill="#6F3482"></path> <path d="M83.0475 103.69C69.6237 101.87 68.7792 91.0811 68.7646 90.9647L70.2206 90.8773C70.2206 91.2704 71.0214 100.589 83.2368 102.248L83.0475 103.69Z" fill="#6F3482"></path> <path d="M356.301 136.347C349.196 92.3333 339.382 78.6911 325.828 70.96C309.535 61.6419 288.162 71.9063 287.973 72.0082L287.332 70.6979C287.551 70.596 309.608 59.9966 326.643 69.6933C340.562 77.6428 350.637 91.5326 357.829 136.114L356.301 136.347Z" fill="#122D67"></path> <path d="M287.813 89.2175C291.18 90.284 294.363 91.8655 297.247 93.9057C300.145 95.9151 302.706 98.3723 304.833 101.185C306.952 104.014 308.581 107.179 309.652 110.547C310.668 113.867 311.499 117.24 312.142 120.652C313.437 127.465 314.093 134.323 315.243 141.035C315.84 144.398 316.495 147.747 317.412 151.052C318.329 154.357 319.421 157.589 320.615 160.821C318.956 157.787 317.549 154.622 316.407 151.358C315.331 148.06 314.456 144.7 313.787 141.297C312.447 134.498 311.792 127.64 310.569 120.914C309.962 117.562 309.17 114.247 308.196 110.984C307.187 107.777 305.641 104.764 303.624 102.074C299.52 96.6948 293.872 92.6971 287.434 90.6152L287.813 89.2175Z" fill="#122D67"></path> <path d="M311.108 49.0914C308.456 49.0986 305.816 49.4311 303.246 50.0814C300.691 50.7064 298.207 51.5944 295.835 52.7313C293.478 53.8689 291.251 55.2603 289.196 56.8807C288.158 57.6735 287.162 58.519 286.211 59.4141C285.25 60.3022 284.377 61.2777 283.459 62.2095L282.367 61.234C283.328 60.2876 284.231 59.2685 285.279 58.3221C286.286 57.4168 287.341 56.5663 288.439 55.7742C290.619 54.175 292.968 52.8178 295.442 51.7267C297.902 50.6262 300.489 49.834 303.144 49.368C305.771 48.8882 308.454 48.795 311.108 49.0914V49.0914Z" fill="#122D67"></path> <path d="M352.53 182.995C346.607 182.962 340.746 181.795 335.262 179.559C315.447 171.639 305.619 148.373 299.256 128.994C297.583 123.43 295.169 118.117 292.079 113.197C286.371 104.738 279.703 103.078 279.63 103.005L280.125 100.865C280.431 100.938 287.667 102.685 293.884 111.916C297.088 117.003 299.595 122.498 301.338 128.252C307.541 147.179 317.106 169.892 336.077 177.477C346.114 181.738 357.431 181.837 367.54 177.754C365.386 174.973 360.159 166.936 357.931 152.333C356.151 140.031 355.024 127.643 354.553 115.221C353.796 100.53 353.097 87.8344 348.73 73.9738C341.188 49.8778 320.804 37.3129 298.019 42.7145C291.714 44.1704 281.523 50.2854 276.179 55.7161L274.622 54.1874C280.169 48.5237 290.855 42.1758 297.48 40.5888C321.445 34.9106 342.877 48.0578 350.782 73.3186C355.15 87.4559 355.878 100.268 356.606 115.104C357.078 127.503 358.216 139.867 360.013 152.144C362.692 169.615 369.914 177.434 369.986 177.521L370.962 178.526L369.739 179.225C364.381 181.822 358.483 183.114 352.53 182.995V182.995Z" fill="#122D67"></path> <path d="M275.772 105.772L274.913 103.762C275.393 103.559 286.691 98.5501 287.23 82.3453C287.711 67.7858 279.164 58.0309 273.311 54.988C271.079 53.7916 268.559 53.2373 266.032 53.3865L265.755 51.2171C268.71 51.0101 271.664 51.6463 274.272 53.0516C280.62 56.3566 289.88 66.8977 289.37 82.4181C288.832 100.064 276.296 105.553 275.772 105.772Z" fill="#6F3482"></path> <path d="M283.634 98.5358L282.178 98.4338C282.225 95.0593 281.337 91.7375 279.613 88.8364C277.889 85.9352 275.395 83.5677 272.409 81.9962L273.122 80.7295C276.324 82.466 278.993 85.0401 280.844 88.1765C282.696 91.313 283.66 94.8937 283.634 98.5358V98.5358Z" fill="#6F3482"></path> <path d="M287.347 85.6651C287.347 85.1555 285.658 73.173 270.239 71.5569L270.399 70.101C286.997 71.8335 288.773 85.3448 288.788 85.4758L287.347 85.6651Z" fill="#6F3482"></path> <path d="M285.468 69.0673C285.265 68.7033 280.271 60.1569 267.997 62.1661L267.764 60.7101C281.057 58.5262 286.692 68.2374 286.692 68.3393L285.468 69.0673Z" fill="#6F3482"></path> <path d="M87.1533 153.673C87.1112 152.747 87.3013 151.826 87.7065 150.994C88.1419 150.111 88.8118 149.366 89.6429 148.839C90.0928 148.567 90.5921 148.387 91.112 148.31C91.6318 148.232 92.1618 148.259 92.6714 148.388C93.1762 148.481 93.666 148.643 94.1273 148.868C94.5495 149.101 94.9427 149.363 95.3358 149.625L94.5059 150.819L93.4575 150.266C93.1127 150.118 92.7574 149.997 92.3947 149.902C91.7219 149.719 91.0067 149.776 90.3709 150.062C89.7048 150.413 89.1273 150.911 88.6821 151.518C88.1354 152.209 87.6252 152.928 87.1533 153.673Z" fill="#E3807F"></path> <path d="M281.203 136.929C279.902 136.528 278.526 136.436 277.183 136.661C275.841 136.886 274.57 137.421 273.471 138.225C272.384 139.021 271.405 139.956 270.56 141.006L269.322 142.665C268.943 143.248 268.565 143.845 268.157 144.412L266.861 143.728C267.167 143.058 267.531 142.403 267.866 141.734C268.201 141.064 268.681 140.481 269.118 139.855C270.063 138.634 271.216 137.589 272.525 136.769C273.861 135.931 275.404 135.483 276.98 135.473C278.511 135.469 279.999 135.982 281.203 136.929V136.929Z" fill="#E3807F"></path> <path d="M88.7694 179.093C81.6061 172.483 78.8689 161.855 79.3348 154.255C80.1792 140.278 90.6913 137.584 90.7932 137.555L91.3028 139.681L91.0553 138.618L91.3173 139.681C90.9388 139.768 82.2613 142.069 81.5187 154.386C81.0819 161.476 83.6153 171.362 90.2544 177.492L88.7694 179.093Z" fill="#E3807F"></path> <path d="M178.107 12.0957C174.375 9.40278 170.301 7.21906 165.993 5.60219C161.776 3.91119 157.273 3.05097 152.729 3.06882C148.216 3.07926 143.775 4.20456 139.801 6.34472C137.857 7.42691 136.117 8.84112 134.661 10.5233C133.236 12.1617 132.161 14.0742 131.502 16.1433V16.1433L131.181 17.1916L130.133 16.9295C126.106 15.9033 121.897 15.8137 117.83 16.6674C113.768 17.5035 110.048 19.531 107.144 22.4912C104.27 25.5044 102.207 29.1958 101.145 33.2216C100.056 37.2508 99.7346 41.4492 100.199 45.5972V45.5972L100.271 46.0922L99.9657 46.4562C94.0502 53.676 89.7774 62.0971 87.4445 71.1345C85.132 80.2024 84.2188 89.5704 84.7364 98.9141C85.2087 108.294 86.5836 117.607 88.8422 126.723C91.0983 135.853 93.9335 144.83 97.3304 153.6V153.789V153.978C97.346 160.108 96.2152 166.187 93.9962 171.901C92.9256 174.748 91.6457 177.512 90.1671 180.171C88.6726 182.845 86.9532 185.388 85.0276 187.771L84.1686 185.951C85.9935 185.853 87.801 185.545 89.5556 185.034C91.3218 184.552 93.0123 183.827 94.5787 182.879C96.12 181.954 97.4614 180.732 98.5243 179.283C99.5971 177.836 100.351 176.179 100.737 174.42L102.383 174.769C102.007 176.782 101.218 178.696 100.068 180.389C98.8996 182.055 97.4155 183.475 95.6998 184.568C93.9945 185.645 92.1469 186.478 90.2108 187.043C88.2916 187.644 86.3069 188.011 84.2996 188.135L81.8099 188.295L83.4406 186.329C85.2817 184.048 86.9232 181.612 88.3471 179.05C89.7981 176.537 91.0587 173.918 92.1181 171.217C94.191 165.739 95.2182 159.922 95.1465 154.066V154.444C91.7791 145.56 88.9446 136.483 86.6583 127.262C84.3571 118.013 82.9577 108.564 82.4797 99.0452C81.9722 89.4768 82.9346 79.8871 85.3334 70.6104C87.7447 61.2732 92.1616 52.5735 98.2767 45.1167L98.0438 45.9757C97.5482 41.5272 97.9089 37.0249 99.1067 32.712C100.279 28.3563 102.544 24.3721 105.688 21.1372C108.87 17.9219 112.916 15.6969 117.335 14.731C121.74 13.7774 126.301 13.8222 130.686 14.862L129.318 15.6482C130.975 10.9299 134.327 6.99627 138.723 4.61213C142.992 2.2775 147.776 1.04635 152.642 1.0305C157.455 1.01354 162.224 1.94358 166.677 3.76768C168.906 4.63925 171.011 5.79936 172.938 7.2183C174.899 8.57109 176.642 10.2159 178.107 12.0957V12.0957Z" fill="#122D67"></path> <path d="M173.812 212.871C159.436 212.898 145.16 210.491 131.589 205.752C99.689 194.599 99.6891 174.201 99.7036 162.073V160.879C99.7036 151.256 99.3251 142.52 98.9757 134.075C97.84 106.296 96.9518 84.3546 110.303 62.8502L112.152 64.0004C99.1649 84.937 100.039 106.572 101.16 133.973C101.509 142.447 101.858 151.212 101.888 160.865V162.059C101.888 174.405 101.887 193.071 132.302 203.714C168.992 216.54 204.62 209.799 225.716 199.2C249.754 187.116 261.081 171.391 260.339 151.154L262.159 152.318C262.945 173.546 251.588 188.717 226.692 201.195C213.603 207.732 194.894 212.871 173.812 212.871Z" fill="#E3807F"></path> <path d="M172.865 8.07735C174.729 5.34136 177.357 3.21462 180.422 1.96236C183.374 0.754563 186.522 0.0934772 189.711 0.0113646C192.837 -0.0610068 195.962 0.21245 199.029 0.826716C199.803 0.944288 200.567 1.11947 201.315 1.35084L203.586 1.97691C205.042 2.53017 206.498 3.08343 207.954 3.75317C213.533 6.53347 218.607 10.2294 222.965 14.6874C227.375 19.0189 230.9 24.1665 233.345 29.8438C229.747 24.9657 225.79 20.3619 221.509 16.0705C217.271 11.8407 212.392 8.30765 207.051 5.60224C205.711 4.96162 204.314 4.46659 202.931 3.94245L200.805 3.36006C200.102 3.13209 199.381 2.96168 198.65 2.85049C195.735 2.27969 192.767 2.02584 189.798 2.09339C186.878 2.17445 183.996 2.78619 181.295 3.89875C179.987 4.47526 178.75 5.20337 177.612 6.06813C176.514 6.90387 175.564 7.91766 174.802 9.06739L172.865 8.07735Z" fill="#122D67"></path> <path d="M261.008 104.753L260.018 102.423C255.731 93.3421 250.67 84.6471 244.891 76.4345L246.696 75.1969C252.034 82.8785 256.817 90.9309 261.008 99.2929C272.496 70.7999 265.857 43.9667 253.03 31.926C239.81 19.4776 228.745 22.8991 228.279 23.0592L227.594 20.9772C228.104 20.8171 240.319 16.9442 254.544 30.339C268.259 43.2679 275.262 72.183 262.071 102.438L261.008 104.753Z" fill="#122D67"></path> <path d="M100.213 45.7573C100.302 46.5284 100.483 47.2862 100.752 48.0141C101.018 48.8068 101.349 49.5762 101.742 50.3145C102.527 51.8119 103.453 53.2307 104.508 54.5513C106.696 57.2209 109.221 59.5947 112.021 61.6127C113.375 62.6901 114.933 63.5636 116.389 64.5246C117.845 65.4855 119.388 66.3008 120.931 67.1016C124.021 68.7293 127.211 70.1591 130.482 71.3821C137.051 73.7989 143.853 75.5262 150.778 76.5362C157.698 77.6082 164.701 78.0516 171.7 77.8611L170.987 79.7247C168.751 77.3933 166.665 74.923 164.741 72.3285C162.799 69.7654 161.001 67.097 159.354 64.3353C157.682 61.5908 156.17 58.7518 154.826 55.8325C153.478 52.9025 152.297 49.8984 151.288 46.8348V46.8348L149.352 41.4914L153.108 45.8593C156.792 49.9828 160.874 53.733 165.294 57.0555C169.73 60.4212 174.363 63.5182 179.169 66.3299C183.989 69.169 188.866 71.8771 193.875 74.3523C196.364 75.6044 198.898 76.7837 201.446 77.8902C202.712 78.4289 204.008 78.953 205.289 79.4335C205.93 79.6665 206.57 79.8994 207.211 80.0741L207.662 80.2052H207.895H207.997C207.837 80.1829 207.675 80.2248 207.546 80.3217L207.633 80.1906C207.889 79.6713 208.066 79.1168 208.158 78.5454C208.274 77.9193 208.361 77.2641 208.42 76.5944C208.529 75.2433 208.558 73.8869 208.507 72.5323C208.396 69.7865 208.09 67.052 207.59 64.3499C206.546 58.938 204.931 53.6523 202.77 48.5819C198.452 38.3149 192.557 28.785 185.299 20.3364C194.06 27.6657 200.893 37.0282 205.202 47.6064C207.382 52.8833 209.007 58.3727 210.05 63.9859C210.57 66.8084 210.886 69.6645 210.997 72.5323C211.038 73.9893 210.999 75.4475 210.88 76.9002C210.82 77.643 210.718 78.3819 210.574 79.1132C210.436 79.9308 210.171 80.7218 209.788 81.4573C209.645 81.7244 209.458 81.9655 209.235 82.1707C209.078 82.3155 208.901 82.438 208.711 82.5347C208.439 82.646 208.144 82.6909 207.852 82.6657C207.765 82.6796 207.676 82.6796 207.59 82.6657H207.444L207.167 82.5929L206.614 82.4473C205.886 82.2289 205.158 81.9814 204.532 81.7485C203.193 81.2389 201.882 80.7002 200.572 80.1324C197.98 79.0113 195.418 77.7883 192.899 76.5362C187.847 74.0174 182.911 71.2656 178.063 68.3828C173.184 65.516 168.487 62.3506 163.998 58.9046C159.443 55.4536 155.248 51.5513 151.477 47.257L153.37 46.2378C155.327 52.1996 157.965 57.9157 161.232 63.2724C162.802 65.956 164.518 68.5515 166.372 71.0472C168.232 73.556 170.25 75.9438 172.414 78.1959L174.147 79.9868L171.7 80.0741C164.554 80.2732 157.405 79.82 150.342 78.7201C143.278 77.7143 136.339 75.9722 129.638 73.5223C126.281 72.2788 123.008 70.8198 119.839 69.1545C118.252 68.3392 116.724 67.3928 115.166 66.5046C113.608 65.6165 112.123 64.5828 110.711 63.4617C107.761 61.338 105.104 58.8367 102.805 56.0218C101.651 54.5864 100.641 53.0404 99.791 51.4064C99.3629 50.5741 98.9932 49.713 98.6845 48.8294C98.3452 47.89 98.125 46.9117 98.0293 45.9175L100.213 45.7573Z" fill="#122D67"></path> <path d="M207.502 55.3814C213.984 60.3519 220.168 65.6997 226.022 71.3968C228.934 74.2359 231.846 77.2207 234.466 80.2782C237.172 83.3793 239.608 86.7062 241.746 90.2223H239.897C241.778 86.527 243.099 82.5718 243.814 78.4873C244.539 74.3556 244.807 70.1566 244.614 65.9661C244.349 61.7559 243.696 57.579 242.664 53.4886C241.602 49.3579 240.229 45.3133 238.558 41.3896C240.937 45.0176 242.85 48.9309 244.25 53.0373C245.711 57.1604 246.583 61.4687 246.842 65.8351C247.083 70.2192 246.814 74.6165 246.041 78.9387C245.296 83.3014 243.851 87.5149 241.761 91.4162L240.858 93.0468L239.897 91.4016C237.826 87.9892 235.474 84.7555 232.865 81.7341C230.259 78.6766 227.478 75.7501 224.61 72.9984C221.741 70.2466 218.699 67.4949 215.641 64.8742C212.584 62.2534 209.41 59.7055 206.206 57.3032L207.502 55.3814Z" fill="#122D67"></path> <path d="M275.685 127.917L273.428 127.684C275.525 108.737 274.103 89.5653 269.235 71.1347C268.449 68.3229 267.521 65.5531 266.454 62.8358L268.565 61.9768C268.565 62.137 270.021 65.704 271.477 70.5232C276.405 89.2316 277.831 108.69 275.685 127.917V127.917Z" fill="#122D67"></path> <path d="M281.392 163.675L279.514 162.554C287.478 149.043 284.959 133.93 280.576 130.901C276.194 127.873 272.642 128.892 270.909 129.766C266.759 131.877 265.173 136.973 265.085 137.046L263.92 134.672C264.366 133.184 265.124 131.808 266.143 130.636C267.162 129.463 268.42 128.521 269.832 127.873C272.001 126.781 276.412 125.485 281.727 129.154C287.318 132.954 289.647 149.538 281.392 163.675Z" fill="#E3807F"></path> <path d="M254.267 87.1646C255.588 92.7486 256.599 98.4015 257.296 104.097C257.66 107.009 257.805 109.848 258.038 112.644C258.271 115.439 258.621 118.264 258.999 121.074C259.771 126.694 260.674 132.328 261.387 138.006C262.186 143.688 262.585 149.42 262.581 155.158V154.823C263.36 156.569 264.484 158.139 265.886 159.438C267.327 160.77 268.987 161.843 270.792 162.612C274.486 164.095 278.472 164.703 282.44 164.388L281.829 166.339C278.903 163.933 276.295 161.164 274.068 158.099C269.608 152.068 266.31 145.259 264.343 138.021C263.355 134.442 262.716 130.775 262.435 127.072C263.291 130.64 264.356 134.155 265.624 137.599C266.897 141.009 268.415 144.323 270.166 147.514C271.872 150.692 273.819 153.734 275.99 156.613C277.068 158.069 278.203 159.453 279.412 160.807C280.582 162.146 281.822 163.424 283.124 164.636L285.25 166.572H282.498C278.184 166.873 273.858 166.171 269.861 164.519C267.86 163.629 266.02 162.414 264.415 160.923C262.755 159.419 261.434 157.577 260.543 155.522L260.47 155.376V155.172C260.428 149.52 260 143.877 259.189 138.283C258.475 132.649 257.572 127.043 256.801 121.365C256.408 118.54 256.073 115.687 255.825 112.833C255.578 109.979 255.447 107.155 255.083 104.359C254.412 98.7494 253.44 93.1796 252.171 87.6741L254.267 87.1646Z" fill="#122D67"></path> <path d="M84.8383 87.3977C85.084 89.5521 85.5725 91.6718 86.2942 93.7165C87.6772 97.8872 89.8579 101.749 92.7149 105.088C94.1627 106.78 95.7451 108.353 97.4468 109.79C96.5295 109.15 95.5541 108.567 94.666 107.883C93.7796 107.179 92.9293 106.43 92.118 105.641C90.4666 104.056 89.0012 102.287 87.7502 100.37C86.5213 98.4341 85.5198 96.3626 84.7655 94.197C83.9862 92.0222 83.5205 89.7475 83.3823 87.4414L84.8383 87.3977Z" fill="#122D67"></path> <path d="M84.8384 74.4687C86.068 73.1557 87.5548 72.11 89.2062 71.3967C90.7674 70.668 92.3898 70.0784 94.0546 69.635C95.6933 69.1922 97.3557 68.8422 99.0339 68.5867C100.723 68.3246 102.397 68.1644 104.086 68.048C102.426 68.3974 100.796 68.7759 99.165 69.1836C97.5343 69.5913 95.9327 70.0863 94.3748 70.6396C92.8203 71.1966 91.3072 71.8632 89.8469 72.6343C88.4317 73.3239 87.1344 74.233 86.0031 75.3277L84.8384 74.4687Z" fill="#122D67"></path> <path d="M272.656 77.0748C272.943 80.0458 272.894 83.0397 272.511 85.9998C272.174 88.9603 271.57 91.8842 270.705 94.7355C269.86 97.5658 268.784 100.322 267.488 102.976C266.22 105.643 264.583 108.118 262.625 110.329C263.804 107.621 265.158 105.087 266.294 102.423C267.473 99.7943 268.447 97.0781 269.206 94.2987C269.966 91.5229 270.526 88.6959 270.88 85.8396C271.245 83.0065 271.357 80.1463 271.215 77.2932L272.656 77.0748Z" fill="#122D67"></path> <path d="M270.327 118.06C271.072 116.234 271.699 114.361 272.205 112.454C272.7 110.547 273.137 108.64 273.442 106.631C273.723 104.7 273.903 102.756 273.981 100.807C274.054 98.8559 274.054 96.9049 273.981 94.983H275.437C275.515 96.988 275.476 98.9957 275.321 100.996C275.159 102.995 274.887 104.983 274.505 106.951C274.125 108.927 273.605 110.873 272.947 112.775C272.299 114.639 271.418 116.415 270.327 118.06V118.06Z" fill="#122D67"></path> </g> <defs> <clipPath id="clip0_133_708"> <rect width="370" height="156" fill="white"></rect> </clipPath> </defs> </svg> 