<?xml version="1.0" encoding="UTF-8"?> <svg xmlns="http://www.w3.org/2000/svg" width="440" height="128" viewBox="0 0 440 128" fill="none"> <path d="M423.593 128H16.4073C7.38737 128 -6.10352e-05 120.796 -6.10352e-05 112V16C-6.10352e-05 7.20402 7.38737 1.62131e-05 16.4073 1.62131e-05H423.593C432.612 1.62131e-05 440 7.20402 440 16V112C440 120.796 432.612 128 423.593 128Z" fill="black"></path> <path d="M222.584 69.6081C214.876 69.6081 208.58 75.3281 208.58 83.2201C208.58 91.0481 214.876 96.8281 222.584 96.8281C230.307 96.8281 236.604 91.0481 236.604 83.2201C236.604 75.3281 230.307 69.6081 222.584 69.6081ZM222.584 91.4681C218.355 91.4681 214.716 88.0641 214.716 83.2201C214.716 78.3121 218.355 74.9681 222.584 74.9681C226.813 74.9681 230.467 78.3121 230.467 83.2201C230.467 88.0641 226.813 91.4681 222.584 91.4681ZM192.029 69.6081C184.305 69.6081 178.025 75.3281 178.025 83.2201C178.025 91.0481 184.305 96.8281 192.029 96.8281C199.749 96.8281 206.033 91.0481 206.033 83.2201C206.033 75.3281 199.749 69.6081 192.029 69.6081ZM192.029 91.4681C187.796 91.4681 184.145 88.0641 184.145 83.2201C184.145 78.3121 187.796 74.9681 192.029 74.9681C196.258 74.9681 199.896 78.3121 199.896 83.2201C199.896 88.0641 196.258 91.4681 192.029 91.4681ZM155.67 73.7801V79.5641H169.834C169.419 82.7961 168.312 85.1721 166.614 86.8281C164.546 88.8281 161.327 91.0481 155.67 91.0481C146.954 91.0481 140.128 84.1881 140.128 75.6881C140.128 67.1881 146.954 60.3281 155.67 60.3281C160.383 60.3281 163.812 62.1241 166.343 64.4521L170.523 60.3761C166.983 57.0801 162.274 54.5481 155.67 54.5481C143.717 54.5481 133.672 64.0321 133.672 75.6881C133.672 87.3441 143.717 96.8281 155.67 96.8281C162.131 96.8281 166.983 94.7641 170.798 90.8921C174.707 87.0801 175.925 81.7201 175.925 77.3921C175.925 76.0481 175.81 74.8121 175.605 73.7801H155.67ZM304.346 78.2641C303.193 75.2201 299.637 69.6081 292.393 69.6081C285.215 69.6081 279.238 75.1241 279.238 83.2201C279.238 90.8441 285.153 96.8281 293.082 96.8281C299.493 96.8281 303.193 93.0161 304.715 90.7961L299.957 87.7041C298.369 89.9681 296.208 91.4681 293.082 91.4681C289.977 91.4681 287.75 90.0801 286.322 87.3441L304.99 79.8121L304.346 78.2641ZM285.313 82.7961C285.153 77.5481 289.493 74.8601 292.602 74.8601C295.039 74.8601 297.106 76.0481 297.795 77.7481L285.313 82.7961ZM270.14 96.0001H276.277V56.0001H270.14V96.0001ZM260.091 72.6401H259.886C258.508 71.0481 255.878 69.6081 252.548 69.6081C245.558 69.6081 239.167 75.5921 239.167 83.2641C239.167 90.8921 245.558 96.8281 252.548 96.8281C255.878 96.8281 258.508 95.3761 259.886 93.7361H260.091V95.6881C260.091 100.892 257.24 103.688 252.642 103.688C248.893 103.688 246.567 101.048 245.607 98.8281L240.271 101C241.809 104.608 245.882 109.048 252.642 109.048C259.837 109.048 265.907 104.92 265.907 94.8761V70.4361H260.091V72.6401ZM253.073 91.4681C248.844 91.4681 245.304 88.0161 245.304 83.2641C245.304 78.4681 248.844 74.9681 253.073 74.9681C257.24 74.9681 260.526 78.4681 260.526 83.2641C260.526 88.0161 257.24 91.4681 253.073 91.4681ZM333.075 56.0001H318.399V96.0001H324.519V80.8441H333.075C339.872 80.8441 346.537 76.0481 346.537 68.4201C346.537 60.7961 339.855 56.0001 333.075 56.0001ZM333.235 75.2801H324.519V61.5641H333.235C337.805 61.5641 340.413 65.2641 340.413 68.4201C340.413 71.5161 337.805 75.2801 333.235 75.2801ZM371.066 69.5321C366.645 69.5321 362.046 71.4361 360.156 75.6561L365.586 77.8761C366.755 75.6561 368.905 74.9361 371.177 74.9361C374.352 74.9361 377.572 76.7961 377.621 80.0801V80.5001C376.514 79.8761 374.143 78.9521 371.226 78.9521C365.377 78.9521 359.417 82.0921 359.417 87.9521C359.417 93.3121 364.208 96.7641 369.594 96.7641C373.712 96.7641 375.985 94.9521 377.412 92.8441H377.621V95.9361H383.532V80.5921C383.532 73.5001 378.101 69.5321 371.066 69.5321ZM370.328 91.4521C368.326 91.4521 365.537 90.4841 365.537 88.0641C365.537 84.9681 369.016 83.7801 372.026 83.7801C374.721 83.7801 375.985 84.3601 377.621 85.1241C377.141 88.8281 373.872 91.4521 370.328 91.4521ZM405.067 70.4081L398.032 87.7481H397.823L390.55 70.4081H383.95L394.878 94.6401L388.643 108.124H395.038L411.876 70.4081H405.067ZM349.901 96.0001H356.037V56.0001H349.901V96.0001Z" fill="white"></path> <path d="M155.413 32.78C155.413 35.452 154.593 37.592 152.979 39.188C151.123 41.08 148.706 42.0319 145.744 42.0319C142.913 42.0319 140.496 41.064 138.513 39.156C136.526 37.22 135.534 34.844 135.534 32C135.534 29.156 136.526 26.78 138.513 24.86C140.496 22.936 142.913 21.968 145.744 21.968C147.153 21.968 148.497 22.252 149.779 22.78C151.058 23.312 152.098 24.032 152.852 24.92L151.14 26.608C149.824 25.092 148.034 24.344 145.744 24.344C143.679 24.344 141.889 25.048 140.369 26.468C138.865 27.892 138.111 29.736 138.111 32C138.111 34.264 138.865 36.1239 140.369 37.5479C141.889 38.9519 143.679 39.6719 145.744 39.6719C147.936 39.6719 149.779 38.9519 151.234 37.5319C152.193 36.592 152.737 35.296 152.881 33.64H145.744V31.328H155.265C155.38 31.828 155.413 32.312 155.413 32.78Z" fill="white"></path> <path d="M170.518 24.7639H161.574V30.8439H169.637V33.1559H161.574V39.2359H170.518V41.5919H159.043V22.4079H170.518V24.7639Z" fill="white"></path> <path d="M181.178 41.5919H178.646V24.7639H173.161V22.4079H186.668V24.7639H181.178V41.5919Z" fill="white"></path> <path d="M196.443 41.5919V22.4079H198.971V41.5919H196.443Z" fill="white"></path> <path d="M210.176 41.5919H207.665V24.7639H202.159V22.4079H215.683V24.7639H210.176V41.5919Z" fill="white"></path> <path d="M241.256 39.124C239.318 41.064 236.917 42.0319 234.053 42.0319C231.173 42.0319 228.772 41.064 226.834 39.124C224.901 37.188 223.938 34.812 223.938 32C223.938 29.188 224.901 26.812 226.834 24.876C228.772 22.936 231.173 21.968 234.053 21.968C236.901 21.968 239.301 22.936 241.239 24.892C243.189 26.844 244.152 29.204 244.152 32C244.152 34.812 243.189 37.188 241.256 39.124ZM228.707 37.516C230.165 38.952 231.939 39.6719 234.053 39.6719C236.151 39.6719 237.941 38.952 239.383 37.516C240.838 36.08 241.575 34.236 241.575 32C241.575 29.764 240.838 27.92 239.383 26.484C237.941 25.048 236.151 24.328 234.053 24.328C231.939 24.328 230.165 25.048 228.707 26.484C227.252 27.92 226.515 29.764 226.515 32C226.515 34.236 227.252 36.08 228.707 37.516Z" fill="white"></path> <path d="M247.704 41.5919V22.4079H250.777L260.331 37.3279H260.442L260.331 33.6399V22.4079H262.859V41.5919H260.22L250.216 25.9359H250.105L250.216 29.6399V41.5919H247.704Z" fill="white"></path> <path d="M155.413 32.78C155.413 35.452 154.593 37.592 152.979 39.188C151.123 41.08 148.706 42.0319 145.744 42.0319C142.913 42.0319 140.496 41.064 138.513 39.156C136.526 37.22 135.534 34.844 135.534 32C135.534 29.156 136.526 26.78 138.513 24.86C140.496 22.936 142.913 21.968 145.744 21.968C147.153 21.968 148.497 22.252 149.779 22.78C151.058 23.312 152.098 24.032 152.852 24.92L151.14 26.608C149.824 25.092 148.034 24.344 145.744 24.344C143.679 24.344 141.889 25.048 140.369 26.468C138.865 27.892 138.111 29.736 138.111 32C138.111 34.264 138.865 36.1239 140.369 37.5479C141.889 38.9519 143.679 39.6719 145.744 39.6719C147.936 39.6719 149.779 38.9519 151.234 37.5319C152.193 36.592 152.737 35.296 152.881 33.64H145.744V31.328H155.265C155.38 31.828 155.413 32.312 155.413 32.78Z" stroke="white" stroke-width="0.16" stroke-miterlimit="10"></path> <path d="M170.518 24.7639H161.574V30.8439H169.637V33.1559H161.574V39.2359H170.518V41.5919H159.043V22.4079H170.518V24.7639Z" stroke="white" stroke-width="0.16" stroke-miterlimit="10"></path> <path d="M181.178 41.5919H178.646V24.7639H173.161V22.4079H186.668V24.7639H181.178V41.5919Z" stroke="white" stroke-width="0.16" stroke-miterlimit="10"></path> <path d="M196.443 41.5919V22.4079H198.971V41.5919H196.443Z" stroke="white" stroke-width="0.16" stroke-miterlimit="10"></path> <path d="M210.176 41.5919H207.665V24.7639H202.159V22.4079H215.683V24.7639H210.176V41.5919Z" stroke="white" stroke-width="0.16" stroke-miterlimit="10"></path> <path d="M241.256 39.124C239.318 41.064 236.917 42.0319 234.053 42.0319C231.173 42.0319 228.772 41.064 226.834 39.124C224.901 37.188 223.938 34.812 223.938 32C223.938 29.188 224.901 26.812 226.834 24.876C228.772 22.936 231.173 21.968 234.053 21.968C236.901 21.968 239.301 22.936 241.239 24.892C243.189 26.844 244.152 29.204 244.152 32C244.152 34.812 243.189 37.188 241.256 39.124ZM228.707 37.516C230.165 38.952 231.939 39.6719 234.053 39.6719C236.151 39.6719 237.941 38.952 239.383 37.516C240.838 36.08 241.575 34.236 241.575 32C241.575 29.764 240.838 27.92 239.383 26.484C237.941 25.048 236.151 24.328 234.053 24.328C231.939 24.328 230.165 25.048 228.707 26.484C227.252 27.92 226.515 29.764 226.515 32C226.515 34.236 227.252 36.08 228.707 37.516Z" stroke="white" stroke-width="0.16" stroke-miterlimit="10"></path> <path d="M247.704 41.5919V22.4079H250.777L260.331 37.3279H260.442L260.331 33.6399V22.4079H262.859V41.5919H260.22L250.216 25.9359H250.105L250.216 29.6399V41.5919H247.704Z" stroke="white" stroke-width="0.16" stroke-miterlimit="10"></path> <path d="M223.315 69.6081C215.617 69.6081 209.328 75.3281 209.328 83.2201C209.328 91.0481 215.617 96.8281 223.315 96.8281C231.03 96.8281 237.318 91.0481 237.318 83.2201C237.318 75.3281 231.03 69.6081 223.315 69.6081ZM223.315 91.4681C219.091 91.4681 215.457 88.0641 215.457 83.2201C215.457 78.3121 219.091 74.9681 223.315 74.9681C227.539 74.9681 231.189 78.3121 231.189 83.2201C231.189 88.0641 227.539 91.4681 223.315 91.4681V91.4681ZM192.797 69.6081C185.083 69.6081 178.81 75.3281 178.81 83.2201C178.81 91.0481 185.083 96.8281 192.797 96.8281C200.507 96.8281 206.784 91.0481 206.784 83.2201C206.784 75.3281 200.507 69.6081 192.797 69.6081ZM192.797 91.4681C188.569 91.4681 184.923 88.0641 184.923 83.2201C184.923 78.3121 188.569 74.9681 192.797 74.9681C197.021 74.9681 200.655 78.3121 200.655 83.2201C200.655 88.0641 197.021 91.4681 192.797 91.4681ZM156.482 73.7801V79.5641H170.629C170.215 82.7961 169.109 85.1721 167.413 86.8281C165.348 88.8281 162.132 91.0481 156.482 91.0481C147.776 91.0481 140.959 84.1881 140.959 75.6881C140.959 67.1881 147.776 60.3281 156.482 60.3281C161.189 60.3281 164.614 62.1241 167.142 64.4521L171.317 60.3761C167.781 57.0801 163.078 54.5481 156.482 54.5481C144.543 54.5481 134.51 64.0321 134.51 75.6881C134.51 87.3441 144.543 96.8281 156.482 96.8281C162.935 96.8281 167.781 94.7641 171.591 90.8921C175.496 87.0801 176.713 81.7201 176.713 77.3921C176.713 76.0481 176.598 74.8121 176.393 73.7801H156.482ZM304.979 78.2641C303.828 75.2201 300.276 69.6081 293.041 69.6081C285.871 69.6081 279.902 75.1241 279.902 83.2201C279.902 90.8441 285.81 96.8281 293.729 96.8281C300.132 96.8281 303.828 93.0161 305.348 90.7961L300.595 87.7041C299.01 89.9681 296.851 91.4681 293.729 91.4681C290.627 91.4681 288.403 90.0801 286.977 87.3441L305.622 79.8121L304.979 78.2641V78.2641ZM285.969 82.7961C285.81 77.5481 290.144 74.8601 293.25 74.8601C295.683 74.8601 297.748 76.0481 298.436 77.7481L285.969 82.7961V82.7961ZM270.815 96.0001H276.944V56.0001H270.815V96.0001ZM260.777 72.6401H260.572C259.196 71.0481 256.57 69.6081 253.243 69.6081C246.262 69.6081 239.879 75.5921 239.879 83.2641C239.879 90.8921 246.262 96.8281 253.243 96.8281C256.57 96.8281 259.196 95.3761 260.572 93.7361H260.777V95.6881C260.777 100.892 257.93 103.688 253.337 103.688C249.593 103.688 247.27 101.048 246.311 98.8281L240.981 101C242.517 104.608 246.586 109.048 253.337 109.048C260.523 109.048 266.587 104.92 266.587 94.8761V70.4361H260.777V72.6401V72.6401ZM253.767 91.4681C249.544 91.4681 246.008 88.0161 246.008 83.2641C246.008 78.4681 249.544 74.9681 253.767 74.9681C257.93 74.9681 261.212 78.4681 261.212 83.2641C261.212 88.0161 257.93 91.4681 253.767 91.4681V91.4681ZM333.674 56.0001H319.015V96.0001H325.128V80.8441H333.674C340.462 80.8441 347.12 76.0481 347.12 68.4201C347.12 60.7961 340.446 56.0001 333.674 56.0001V56.0001ZM333.834 75.2801H325.128V61.5641H333.834C338.398 61.5641 341.003 65.2641 341.003 68.4201C341.003 71.5161 338.398 75.2801 333.834 75.2801ZM371.62 69.5321C367.203 69.5321 362.61 71.4361 360.722 75.6561L366.146 77.8761C367.314 75.6561 369.461 74.9361 371.73 74.9361C374.901 74.9361 378.117 76.7961 378.166 80.0801V80.5001C377.06 79.8761 374.692 78.9521 371.779 78.9521C365.937 78.9521 359.984 82.0921 359.984 87.9521C359.984 93.3121 364.77 96.7641 370.149 96.7641C374.262 96.7641 376.532 94.9521 377.958 92.8441H378.166V95.9361H384.07V80.5921C384.07 73.5001 378.646 69.5321 371.62 69.5321ZM370.882 91.4521C368.883 91.4521 366.097 90.4841 366.097 88.0641C366.097 84.9681 369.571 83.7801 372.578 83.7801C375.27 83.7801 376.532 84.3601 378.166 85.1241C377.687 88.8281 374.422 91.4521 370.882 91.4521V91.4521ZM405.579 70.4081L398.553 87.7481H398.344L391.08 70.4081H384.488L395.402 94.6401L389.175 108.124H395.562L412.38 70.4081H405.579V70.4081ZM350.479 96.0001H356.608V56.0001H350.479V96.0001Z" fill="white"></path> <path d="M155.413 32.78C155.413 35.452 154.593 37.592 152.979 39.188C151.123 41.08 148.706 42.0319 145.744 42.0319C142.913 42.0319 140.496 41.064 138.513 39.156C136.526 37.22 135.534 34.844 135.534 32C135.534 29.156 136.526 26.78 138.513 24.86C140.496 22.936 142.913 21.968 145.744 21.968C147.153 21.968 148.497 22.252 149.779 22.78C151.058 23.312 152.098 24.032 152.852 24.92L151.14 26.608C149.824 25.092 148.034 24.344 145.744 24.344C143.679 24.344 141.889 25.048 140.369 26.468C138.865 27.892 138.111 29.736 138.111 32C138.111 34.264 138.865 36.1239 140.369 37.5479C141.889 38.9519 143.679 39.6719 145.744 39.6719C147.936 39.6719 149.779 38.9519 151.234 37.5319C152.193 36.592 152.737 35.296 152.881 33.64H145.744V31.328H155.265C155.38 31.828 155.413 32.312 155.413 32.78Z" fill="white"></path> <path d="M170.518 24.7639H161.574V30.8439H169.637V33.1559H161.574V39.2359H170.518V41.5919H159.043V22.4079H170.518V24.7639Z" fill="white"></path> <path d="M181.178 41.5919H178.646V24.7639H173.161V22.4079H186.668V24.7639H181.178V41.5919Z" fill="white"></path> <path d="M196.443 41.5919V22.4079H198.971V41.5919H196.443Z" fill="white"></path> <path d="M210.176 41.5919H207.665V24.7639H202.159V22.4079H215.683V24.7639H210.176V41.5919Z" fill="white"></path> <path d="M241.256 39.124C239.318 41.064 236.917 42.0319 234.053 42.0319C231.173 42.0319 228.772 41.064 226.834 39.124C224.901 37.188 223.938 34.812 223.938 32C223.938 29.188 224.901 26.812 226.834 24.876C228.772 22.936 231.173 21.968 234.053 21.968C236.901 21.968 239.301 22.936 241.239 24.892C243.189 26.844 244.152 29.204 244.152 32C244.152 34.812 243.189 37.188 241.256 39.124ZM228.707 37.516C230.165 38.952 231.939 39.6719 234.053 39.6719C236.151 39.6719 237.941 38.952 239.383 37.516C240.838 36.08 241.575 34.236 241.575 32C241.575 29.764 240.838 27.92 239.383 26.484C237.941 25.048 236.151 24.328 234.053 24.328C231.939 24.328 230.165 25.048 228.707 26.484C227.252 27.92 226.515 29.764 226.515 32C226.515 34.236 227.252 36.08 228.707 37.516Z" fill="white"></path> <path d="M247.704 41.5919V22.4079H250.777L260.331 37.3279H260.442L260.331 33.6399V22.4079H262.859V41.5919H260.22L250.216 25.9359H250.105L250.216 29.6399V41.5919H247.704Z" fill="white"></path> <path d="M155.413 32.78C155.413 35.452 154.593 37.592 152.979 39.188C151.123 41.08 148.706 42.0319 145.744 42.0319C142.913 42.0319 140.496 41.064 138.513 39.156C136.526 37.22 135.534 34.844 135.534 32C135.534 29.156 136.526 26.78 138.513 24.86C140.496 22.936 142.913 21.968 145.744 21.968C147.153 21.968 148.497 22.252 149.779 22.78C151.058 23.312 152.098 24.032 152.852 24.92L151.14 26.608C149.824 25.092 148.034 24.344 145.744 24.344C143.679 24.344 141.889 25.048 140.369 26.468C138.865 27.892 138.111 29.736 138.111 32C138.111 34.264 138.865 36.1239 140.369 37.5479C141.889 38.9519 143.679 39.6719 145.744 39.6719C147.936 39.6719 149.779 38.9519 151.234 37.5319C152.193 36.592 152.737 35.296 152.881 33.64H145.744V31.328H155.265C155.38 31.828 155.413 32.312 155.413 32.78Z" stroke="white" stroke-width="0.16" stroke-miterlimit="10"></path> <path d="M170.518 24.7639H161.574V30.8439H169.637V33.1559H161.574V39.2359H170.518V41.5919H159.043V22.4079H170.518V24.7639Z" stroke="white" stroke-width="0.16" stroke-miterlimit="10"></path> <path d="M181.178 41.5919H178.646V24.7639H173.161V22.4079H186.668V24.7639H181.178V41.5919Z" stroke="white" stroke-width="0.16" stroke-miterlimit="10"></path> <path d="M196.443 41.5919V22.4079H198.971V41.5919H196.443Z" stroke="white" stroke-width="0.16" stroke-miterlimit="10"></path> <path d="M210.176 41.5919H207.665V24.7639H202.159V22.4079H215.683V24.7639H210.176V41.5919Z" stroke="white" stroke-width="0.16" stroke-miterlimit="10"></path> <path d="M241.256 39.124C239.318 41.064 236.917 42.0319 234.053 42.0319C231.173 42.0319 228.772 41.064 226.834 39.124C224.901 37.188 223.938 34.812 223.938 32C223.938 29.188 224.901 26.812 226.834 24.876C228.772 22.936 231.173 21.968 234.053 21.968C236.901 21.968 239.301 22.936 241.239 24.892C243.189 26.844 244.152 29.204 244.152 32C244.152 34.812 243.189 37.188 241.256 39.124ZM228.707 37.516C230.165 38.952 231.939 39.6719 234.053 39.6719C236.151 39.6719 237.941 38.952 239.383 37.516C240.838 36.08 241.575 34.236 241.575 32C241.575 29.764 240.838 27.92 239.383 26.484C237.941 25.048 236.151 24.328 234.053 24.328C231.939 24.328 230.165 25.048 228.707 26.484C227.252 27.92 226.515 29.764 226.515 32C226.515 34.236 227.252 36.08 228.707 37.516Z" stroke="white" stroke-width="0.16" stroke-miterlimit="10"></path> <path d="M247.704 41.5919V22.4079H250.777L260.331 37.3279H260.442L260.331 33.6399V22.4079H262.859V41.5919H260.22L250.216 25.9359H250.105L250.216 29.6399V41.5919H247.704Z" stroke="white" stroke-width="0.16" stroke-miterlimit="10"></path> <path d="M33.2421 24.1239C32.2782 25.1079 31.7203 26.6399 31.7203 28.6239V99.3919C31.7203 101.376 32.2782 102.908 33.2421 103.892L33.48 104.108L74.1458 64.4679V63.5319L33.48 23.8919L33.2421 24.1239Z" fill="url(#paint0_linear_7_149)"></path> <path d="M87.6861 77.6879L74.1459 64.4679V63.5319L87.7025 50.3119L88.006 50.4839L104.061 59.3919C108.642 61.9199 108.642 66.0799 104.061 68.6239L88.006 77.5159L87.6861 77.6879Z" fill="url(#paint1_linear_7_149)"></path> <path d="M88.0061 77.516L74.146 64L33.2423 103.892C34.7641 105.452 37.2457 105.64 40.0678 104.08L88.0061 77.516Z" fill="url(#paint2_linear_7_149)"></path> <path d="M88.0061 50.484L40.0678 23.92C37.2457 22.376 34.7641 22.564 33.2423 24.124L74.146 64L88.0061 50.484Z" fill="url(#paint3_linear_7_149)"></path> <defs> <linearGradient id="paint0_linear_7_149" x1="70.5352" y1="100.129" x2="16.8484" y2="45.0752" gradientUnits="userSpaceOnUse"> <stop stop-color="#00A0FF"></stop> <stop offset="0.0066" stop-color="#00A1FF"></stop> <stop offset="0.2601" stop-color="#00BEFF"></stop> <stop offset="0.5122" stop-color="#00D2FF"></stop> <stop offset="0.7604" stop-color="#00DFFF"></stop> <stop offset="1" stop-color="#00E3FF"></stop> </linearGradient> <linearGradient id="paint1_linear_7_149" x1="110.027" y1="63.9954" x2="30.6252" y2="63.9954" gradientUnits="userSpaceOnUse"> <stop stop-color="#FFE000"></stop> <stop offset="0.4087" stop-color="#FFBD00"></stop> <stop offset="0.7754" stop-color="#FFA500"></stop> <stop offset="1" stop-color="#FF9C00"></stop> </linearGradient> <linearGradient id="paint2_linear_7_149" x1="80.4694" y1="56.6525" x2="7.66584" y2="-18.0048" gradientUnits="userSpaceOnUse"> <stop stop-color="#FF3A44"></stop> <stop offset="1" stop-color="#C31162"></stop> </linearGradient> <linearGradient id="paint3_linear_7_149" x1="22.946" y1="127.436" x2="55.4561" y2="94.0986" gradientUnits="userSpaceOnUse"> <stop stop-color="#32A071"></stop> <stop offset="0.0685" stop-color="#2DA771"></stop> <stop offset="0.4762" stop-color="#15CF74"></stop> <stop offset="0.8009" stop-color="#06E775"></stop> <stop offset="1" stop-color="#00F076"></stop> </linearGradient> </defs> </svg> 