<?xml version="1.0" encoding="UTF-8"?> <svg xmlns="http://www.w3.org/2000/svg" width="240" height="128" viewBox="0 0 240 128" fill="none"> <path d="M223.593 128H16.4074C7.38743 128 0 120.796 0 112V16C0 7.204 7.38743 9.54265e-07 16.4074 9.54265e-07H223.593C232.613 9.54265e-07 240 7.204 240 16V112C240 120.796 232.613 128 223.593 128Z" fill="black"></path> <path d="M41 93.5385H57.4103V34.4615H41V93.5385Z" fill="#F5C518"></path> <path d="M92.438 34.4615L88.7653 62.0586L86.4833 47.0483C85.8217 42.2403 85.1871 38.0447 84.5795 34.4615H63.9744V93.5385H77.8956L77.9496 54.5274L83.8098 93.5385H93.7208L99.2839 53.6674L99.3244 93.5385H113.205V34.4615H92.438Z" fill="#F5C518"></path> <path d="M119.769 93.5385V34.4615H145.384C151.176 34.4615 155.872 39.1219 155.872 44.8873V83.1127C155.872 88.8707 151.184 93.5385 145.384 93.5385H119.769ZM138.911 45.0938C138.26 44.742 137.015 44.5726 135.204 44.5726V83.3362C137.595 83.3362 139.067 82.9062 139.619 82.0071C140.17 81.1211 140.453 78.7236 140.453 74.7886V51.8823C140.453 49.2112 140.354 47.5043 140.17 46.7486C139.986 45.9929 139.576 45.4456 138.911 45.0938Z" fill="#F5C518"></path> <path d="M186.821 49.2533H187.87C193.762 49.2533 198.538 53.8672 198.538 59.5524V83.2394C198.538 88.9274 193.764 93.5385 187.87 93.5385H186.821C183.216 93.5385 180.029 91.811 178.097 89.1677L177.152 92.7796H162.436V34.4615H178.138V53.4335C180.167 50.9051 183.294 49.2533 186.821 49.2533ZM183.459 78.061V64.0626C183.459 61.7496 183.311 60.2317 183.001 59.533C182.692 58.8343 181.457 58.3857 180.591 58.3857C179.725 58.3857 178.389 58.7503 178.129 59.3647V64.0626V78.5092V83.0604C178.426 83.7351 179.7 84.1105 180.591 84.1105C181.482 84.1105 182.779 83.7471 183.051 83.0604C183.323 82.3738 183.459 80.6993 183.459 78.061Z" fill="#F5C518"></path> </svg> 