<?xml version="1.0" encoding="UTF-8"?> <svg xmlns="http://www.w3.org/2000/svg" width="1057" height="152" viewBox="0 0 1057 152" fill="none"> <g clip-path="url(#clip0_5_54)"> <path d="M255.953 63.6633L254.135 72.6493H253.68C251.407 67.6232 245.042 60.6172 230.949 60.6172C208.218 60.6172 185.032 78.2845 179.879 106.156C175.485 130.525 187.153 152 214.128 152C223.978 152 235.343 148.192 241.254 139.816H241.708L240.041 148.954H265.197L280.957 63.6633H255.953V63.6633ZM247.77 106.156C246.103 114.533 238.223 128.088 222.462 128.088C207.005 128.088 203.823 114.381 205.187 106.461C207.005 96.7134 215.643 84.529 230.343 84.529C244.739 84.6813 249.588 96.1042 247.77 106.156Z" fill="black"></path> <path d="M295.202 63.6633H318.843L317.176 72.6493H317.63C320.661 68.537 326.571 60.6172 341.119 60.6172L336.422 86.509C324.45 86.6613 315.812 89.0981 313.539 102.196L304.901 148.954H279.442L295.202 63.6633Z" fill="black"></path> <path d="M358.243 30.3086H383.702L371.731 94.5811H372.185L401.584 63.6633H431.438L392.643 101.13L414.92 148.954H386.127L369.761 107.832H369.306L361.88 148.954H336.27L358.243 30.3086Z" fill="black"></path> <path d="M472.202 60.6172C446.44 60.6172 423.558 82.8537 419.315 106.613C414.617 131.896 431.589 151.848 455.988 151.848C464.625 151.848 473.566 149.258 481.446 144.08C489.478 139.206 496.904 131.896 502.662 122.301H476.749C472.506 126.717 467.656 130.22 459.776 130.22C449.926 130.22 442.5 124.281 442.955 114.076H506.602C507.36 112.096 507.815 110.573 508.421 107.375C513.27 81.3306 498.116 60.6172 472.202 60.6172ZM446.44 96.8657C448.41 91.8396 455.381 82.2444 468.565 82.2444C481.75 82.2444 484.932 91.8396 484.932 96.8657H446.44Z" fill="black"></path> <path d="M146.237 30.3086L101.381 97.9318H101.078V30.3086H79.4076L0 148.954H30.7629L75.316 81.3306H75.7706V148.954H97.5925L142.146 81.3306H142.6V148.954H168.059V30.3086H146.237Z" fill="black"></path> <path d="M572.826 63.6633H556.762L561.46 38.3807H539.184L537.365 48.1282C535.395 59.2465 528.424 62.5972 519.18 63.6633H519.029L515.24 83.006H527.818L515.695 148.954H541.002L553.125 83.006H569.34L572.826 63.6633Z" fill="black"></path> <path d="M965.621 116.665C957.286 136.008 937.434 151.848 914.551 151.848C888.789 151.848 872.877 131.439 877.424 106.004C882.121 81.026 905.156 60.6172 930.615 60.6172C953.043 60.6172 968.5 75.6954 968.955 96.5611H943.193C941.526 90.6212 937.737 84.5291 926.978 84.5291C915.006 83.9198 905.156 93.8196 902.883 106.156C900.609 118.645 906.974 127.936 919.098 127.936C929.554 127.936 935.919 121.844 939.556 116.513H965.621V116.665ZM755.281 0L705.879 30.3086H719.821L675.116 97.9319H674.662V30.3086H652.84L608.135 97.9319H607.68V30.3086H582.221V148.954H604.346L649.051 81.3307H649.506V148.954H671.328L750.432 30.3086H763.01L755.281 0ZM803.472 148.954H778.316L779.983 139.816H779.528C773.618 148.192 762.252 152 752.402 152C725.428 152 713.759 130.677 718.154 106.156C723.155 78.2846 746.492 60.6172 769.223 60.6172C783.165 60.6172 789.681 67.4709 791.954 72.6493H792.409L794.228 63.6633H819.383L803.472 148.954ZM760.737 128.24C776.497 128.24 784.377 114.533 786.044 106.309C787.863 96.1042 783.014 84.6814 768.617 84.6814C754.069 84.6814 745.28 96.8657 743.461 106.613C742.097 114.533 745.28 128.24 760.737 128.24ZM882.728 63.6633H866.816L871.514 38.3808H849.237L847.419 48.1283C845.449 59.2465 838.478 62.5972 829.234 63.6633H828.931L825.293 83.006H837.871L825.748 148.954H851.055L863.179 83.006H879.394L882.728 63.6633ZM989.564 30.3086H1014.87L1007.14 72.6493H1007.6C1013.05 64.7295 1020.33 60.6172 1031.54 60.6172C1039.57 60.6172 1048.82 63.6633 1053.06 70.2124C1058.52 78.5892 1057.91 86.0521 1055.03 101.283L1046.39 148.954H1021.08L1029.57 102.501C1030.33 98.3888 1032.75 84.5291 1019.27 84.5291C1005.02 84.5291 1002.6 97.3226 1001.84 101.587L993.201 148.802H967.894L989.564 30.3086Z" fill="#4DB74D"></path> </g> <defs> <clipPath id="clip0_5_54"> <rect width="1057" height="152" fill="white"></rect> </clipPath> </defs> </svg> 