<?xml version="1.0" encoding="UTF-8"?> <svg xmlns="http://www.w3.org/2000/svg" width="24" height="24" viewBox="0 0 80 80" fill="none"> <path d="M45.1247 40.1476C45.1247 52.3795 35.0232 62.2959 22.562 62.2959C10.1007 62.2959 0 52.3825 0 40.1476C0 27.9127 10.1015 18 22.562 18C35.0224 18 45.1247 27.9157 45.1247 40.1476ZM69.8763 40.1476C69.8763 51.6625 64.8251 60.9963 58.5949 60.9963C52.3647 60.9963 47.3135 51.6595 47.3135 40.1476C47.3135 28.6357 52.3647 19.2989 58.5949 19.2989C64.8251 19.2989 69.8763 28.6357 69.8763 40.1476ZM80 40.1476C80 50.4644 78.2233 58.8272 76.0322 58.8272C73.841 58.8272 72.0644 50.4614 72.0644 40.1476C72.0644 29.8338 73.841 21.4681 76.0329 21.4681C78.2249 21.4681 80 29.8316 80 40.1476Z" fill="#0F1729"></path> </svg> 