<?xml version="1.0" encoding="UTF-8"?> <svg xmlns="http://www.w3.org/2000/svg" width="310" height="248" viewBox="0 0 310 248" fill="none"> <g clip-path="url(#clip0_133_827)"> <path d="M280.663 125.348C283.91 121.844 286.535 117.813 288.427 113.427C291.142 111.776 304.904 102.284 298.924 78.4426C300.575 72.4593 300.666 66.1532 299.19 60.1246C295.204 44.5401 281.499 36.8522 280.91 36.5295L279.638 35.8271L279.506 37.2698C277.911 55.2271 269.692 62.0608 263.086 64.6424C259.523 65.9924 255.696 66.4992 251.905 66.123C260.428 58.8907 265.06 51.5446 265.629 44.2553C266.065 39.7187 264.701 35.1926 261.833 31.651L261.093 30.8348L260.39 31.708C243.648 52.9493 216.94 38.0671 215.079 36.9851C197.407 17.7749 170.129 -5.44056 133.132 2.58898C83.7782 13.314 68.4784 55.0943 65.4222 65.3637C63.0227 60.9389 59.6989 57.0823 55.6768 54.0558C51.6546 51.0294 47.0282 48.904 42.1119 47.824L40.6502 47.5013L46.6107 73.8109C42.1308 72.3682 29.6784 70.1663 16.2389 83.8526C1.20483 99.1903 5.41892 127.645 6.57685 133.928C4.67876 138.543 3.33432 143.366 2.5716 148.298C1.64849 154.878 1.54008 161.547 2.24887 168.153L2.55259 171.418L4.242 168.571C5.79508 166.055 7.58099 163.691 9.5761 161.51C11.0841 159.872 12.6945 158.331 14.3976 156.897C14.986 161.813 17.3398 174.493 26.3755 178.366C27.3246 179.903 33.2661 189.49 37.7649 195.64C32.6776 195.64 20.0544 197.272 14.2647 215.363C10.2974 227.853 13.6004 241.938 22.3323 249.759C26.1765 253.3 31.2092 255.271 36.4362 255.282C39.2456 255.282 44.0291 253.005 46.8195 251.885C47.1992 257.94 46.6107 266.52 49.4201 273.43C57.6015 293.646 96.3255 334.8 121.23 334.8C121.648 334.8 122.066 334.8 122.483 334.8C147.407 333.376 198.28 284.553 201.184 268.058C201.733 264.854 202.094 261.622 202.266 258.377C205.095 260.461 208.529 261.561 212.042 261.509C215.778 261.449 219.442 260.471 222.71 258.661C230.74 254.314 239.073 243.76 235.998 228.29C231.651 205.852 215.497 204.543 210.808 204.637L211.15 202.739C226.336 190.192 226.735 183.282 226.184 180.872C233.885 177.062 240.851 171.921 246.761 165.686H248.071C248.887 165.686 249.722 165.686 250.538 165.686C282.695 165.686 303.974 134.915 306.935 117.053L307.618 112.991L305.227 116.35C305.227 116.35 298.981 124.949 280.663 125.348Z" fill="#FCD8B7"></path> <path d="M200.102 231.194V230.852C200.102 230.852 199.381 223.658 198.925 198.791C198.679 185.94 198.128 171.589 197.654 160.674L196.856 159.763L197.16 159.516C197.16 159.516 197.331 159.744 197.635 160.086C197.217 150.595 196.856 143.704 196.818 143.153C193.25 140.192 191.237 138.123 191.124 138.047C189.073 137.079 187.042 136.149 185.068 134.915C180.188 132.243 175.687 128.93 171.686 125.063C168.075 121.264 164.672 117.271 161.492 113.104C156.745 114.287 151.917 115.112 147.047 115.572C142.141 116.006 137.2 115.783 132.354 114.908C127.514 114.034 122.863 112.649 117.966 111.814C113.147 110.966 108.26 110.572 103.368 110.637C100.919 110.637 98.4706 110.77 96.0219 110.921C93.5808 111.05 91.1479 111.304 88.7326 111.681C83.8927 112.409 79.1576 113.716 74.6287 115.572C70.2953 117.346 66.2764 119.807 62.7268 122.861C57.0321 132.352 54.906 155.131 53.6342 172.045V172.178C53.5203 173.544 53.4254 174.911 53.3305 176.202C52.8369 183.035 52.4383 188.426 51.9068 191.388C50.0086 201.562 47.6548 233.415 47.6358 233.737V234.003C44.8125 247.007 45.8213 260.551 50.5401 272.993C58.6266 292.962 96.8002 333.642 121.268 333.642H122.483C133.379 332.996 150.957 322.746 169.484 306.212C186.169 291.311 198.792 275.518 200.14 267.83C202.76 252.986 200.52 233.908 200.14 231.194H200.102ZM138.846 140.97C138.936 140.139 139.192 139.333 139.6 138.603C140.007 137.872 140.558 137.231 141.219 136.718C143.595 135.374 146.404 135.02 149.04 135.731C163.561 138.142 172.464 148.696 172.217 154.904C172.235 155.296 172.156 155.686 171.987 156.04C171.818 156.394 171.565 156.702 171.249 156.935C170.806 157.191 170.299 157.316 169.787 157.295C167.699 157.295 164.396 155.853 160.467 154.125C157.334 152.678 154.121 151.41 150.843 150.329C140.896 147.292 138.106 145.697 138.846 140.97ZM144.218 187.269C147.498 184.558 151.567 182.98 155.816 182.77C156.871 182.675 157.932 182.675 158.986 182.77L160.562 183.016L162.081 183.472C164.09 184.151 165.925 185.266 167.453 186.737C170.448 189.733 172.5 193.541 173.356 197.69C172.362 193.611 170.26 189.886 167.282 186.927C165.766 185.494 163.951 184.418 161.967 183.776L160.486 183.339L158.948 183.13C157.913 183.036 156.871 183.036 155.835 183.13C151.676 183.311 147.683 184.821 144.446 187.439C141.226 190.145 138.87 193.735 137.669 197.766C138.723 193.677 141.009 190.012 144.218 187.269ZM120.889 235.655C121.467 236.179 121.995 236.758 122.464 237.382C122.932 238.003 123.333 238.671 123.66 239.375C122.788 238.119 121.775 236.967 120.642 235.939C120.052 235.432 119.417 234.981 118.744 234.592C118.092 234.196 117.389 233.889 116.656 233.68C118.237 233.886 119.715 234.576 120.889 235.655ZM111.625 208.168C112.861 205.578 113.711 202.822 114.15 199.987C115.289 194.292 115.839 188.597 116.732 182.903C116.276 188.632 115.528 194.334 114.492 199.987C114.043 202.853 113.187 205.64 111.948 208.263C110.444 210.744 108.668 213.048 106.652 215.135C104.649 217.194 102.82 219.416 101.185 221.778C100.419 222.964 99.9564 224.32 99.8373 225.727C99.8871 227.15 100.236 228.547 100.862 229.827C102.082 232.426 103.564 234.894 105.285 237.192C106.994 239.508 108.892 241.672 110.562 244.045C106.499 239.911 103.11 235.165 100.521 229.979C99.884 228.647 99.5225 227.201 99.4577 225.727C99.5725 224.249 100.063 222.824 100.881 221.589C102.527 219.212 104.368 216.977 106.386 214.907C108.382 212.866 110.14 210.606 111.625 208.168ZM99.6285 236.528C99.2455 236.655 98.913 236.901 98.6794 237.23C98.4197 237.535 98.2142 237.881 98.0719 238.255C97.7524 239.014 97.486 239.794 97.2747 240.59C97.2386 239.739 97.3875 238.891 97.7113 238.103C97.8955 237.699 98.153 237.332 98.4706 237.021C98.7786 236.714 99.1934 236.537 99.6285 236.528ZM88.2391 140.838C94.6741 137.8 98.3187 138.598 100.236 139.794C101.273 140.503 102.117 141.459 102.694 142.576C103.27 143.692 103.561 144.934 103.539 146.191C103.539 150.974 100.217 152.474 88.353 156.973C84.2986 158.519 80.3428 160.313 76.508 162.345C73.205 164.053 71.1549 165.116 68.915 165.116H68.6113C68.3091 165.113 68.0185 164.999 67.7945 164.797C67.5706 164.594 67.429 164.316 67.3964 164.015C66.6561 160.37 74.7426 147.14 88.1821 140.838H88.2391ZM74.1921 186.016C77.4857 183.316 81.5563 181.739 85.8093 181.517C86.8673 181.46 87.9283 181.498 88.9794 181.631L90.536 181.859L92.0735 182.314C94.0763 183.008 95.9078 184.121 97.4456 185.579C100.441 188.575 102.493 192.383 103.349 196.532C102.355 192.453 100.253 188.728 97.2747 185.769C95.7543 184.343 93.9401 183.268 91.9596 182.618L90.479 182.181L88.9415 181.972C87.9059 181.878 86.8639 181.878 85.8283 181.972C81.6686 182.153 77.6765 183.663 74.4389 186.281C71.2164 188.985 68.8597 192.576 67.6622 196.608C68.6826 192.497 70.9424 188.799 74.1352 186.016H74.1921ZM132.753 299.018C131.709 299.341 130.703 299.758 129.64 300.005C127.516 300.56 125.34 300.891 123.148 300.992C118.737 301.227 114.361 300.093 110.619 297.746C112.499 298.838 114.544 299.614 116.675 300.043C118.796 300.488 120.962 300.679 123.129 300.612C125.298 300.534 127.454 300.235 129.564 299.72C130.627 299.511 131.652 299.132 132.696 298.847L135.771 297.746L132.753 299.018ZM172.445 241.71C169.796 250.509 166.026 258.93 161.226 266.767C154.089 278.156 141.788 291.994 123.717 292.222H123.148C105.38 292.222 94.1806 280.947 87.8784 271.455C83.6777 264.953 80.4782 257.857 78.3873 250.404C75.3827 249.277 72.5218 247.799 69.8641 246C73.8985 248.317 78.1848 250.163 82.6393 251.505C87.0801 252.895 91.6344 253.892 96.2497 254.485C105.484 255.686 114.832 255.731 124.078 254.618C133.324 253.509 142.456 251.603 151.374 248.923C160.277 246.196 169.006 242.932 177.513 239.147L177.665 239.508C175.824 240.286 174.115 241.008 172.388 241.71C170.661 242.412 172.445 241.71 172.445 241.71ZM179.905 247.519C179.959 245.916 179.76 244.314 179.317 242.773C178.857 241.25 178.073 239.845 177.02 238.654C175.981 237.447 174.75 236.42 173.375 235.617C172.002 234.797 170.528 234.159 168.99 233.718C172.202 234.347 175.121 236.006 177.304 238.445C178.407 239.678 179.2 241.155 179.62 242.754C180.001 244.313 180.078 245.93 179.848 247.519H179.905Z" fill="#FCD8B7"></path> <path d="M43.042 211.964C43.042 210.996 43.1369 210.066 43.1749 209.136C40.7573 208.95 38.335 209.429 36.1704 210.522C33.938 211.636 31.9901 213.247 30.4757 215.229C28.9501 217.207 27.7164 219.393 26.8121 221.721C26.4134 222.917 25.9768 224.094 25.6162 225.29L24.724 228.935L25.5782 225.271C25.9199 224.075 26.3375 222.879 26.7172 221.702C27.6046 219.349 28.8187 217.131 30.3238 215.116C31.8348 213.09 33.7808 211.43 36.0185 210.256C38.2179 209.119 40.6848 208.601 43.1559 208.756C43.3267 204.39 43.2698 200.67 42.0739 199.645C41.1967 198.795 40.3904 197.874 39.6631 196.892C38.5242 196.703 22.1045 194.482 15.3278 215.704C11.5313 227.758 14.6633 241.406 23.0725 248.885C26.0838 251.621 29.8492 253.387 33.8784 253.952C37.9075 254.518 42.0135 253.857 45.6616 252.055C45.3641 245.913 45.8876 239.759 47.2181 233.756C42.1688 231.364 42.6244 221.038 43.042 211.964Z" fill="#FCD8B7"></path> <path d="M207.277 217.223C209.513 217.051 211.76 217.35 213.873 218.102C215.985 218.855 217.916 220.042 219.54 221.589C221.122 223.256 222.406 225.182 223.337 227.283C223.83 228.308 224.153 229.409 224.551 230.472L225.387 233.775L224.513 230.472C224.096 229.428 223.754 228.346 223.242 227.34C222.3 225.296 221.016 223.428 219.445 221.816C217.815 220.298 215.879 219.146 213.768 218.436C211.657 217.725 209.418 217.473 207.202 217.697C205.455 223.696 203.234 228.764 200.501 230.985C201.522 239.435 201.903 247.951 201.64 256.459C206.594 261.3 214.643 261.793 222.141 257.75C229.639 253.707 237.82 243.475 234.935 228.631C232.391 215.476 225.671 210.028 220.47 207.75C217.151 206.273 213.523 205.622 209.897 205.852C209.195 209.668 208.303 213.597 207.277 217.223Z" fill="#FCD8B7"></path> <path d="M150.957 149.968C154.248 151.046 157.474 152.314 160.619 153.765C165.346 155.853 169.427 157.561 171.04 156.612C171.313 156.42 171.531 156.159 171.671 155.855C171.811 155.552 171.868 155.217 171.838 154.885C172.065 148.962 163.068 138.446 149.059 136.092C148.074 135.925 147.077 135.836 146.078 135.826C144.475 135.733 142.884 136.159 141.542 137.041C140.917 137.516 140.397 138.116 140.014 138.802C139.632 139.488 139.396 140.246 139.321 141.027C138.561 145.222 140.65 146.817 150.957 149.968Z" fill="#4F392E"></path> <path d="M68.6303 164.736C70.8512 164.736 72.9203 163.768 76.3181 162.022C80.1625 159.973 84.1313 158.166 88.2011 156.612C99.8183 152.189 103.178 150.727 103.102 146.209C103.127 145.016 102.855 143.835 102.312 142.771C101.769 141.708 100.971 140.796 99.9891 140.116C98.7982 139.422 97.4376 139.074 96.0598 139.11C93.3654 139.234 90.7299 139.94 88.334 141.179C75.0463 147.424 67.0358 160.37 67.7571 163.958C67.7806 164.173 67.8828 164.371 68.0441 164.515C68.2054 164.659 68.4142 164.738 68.6303 164.736V164.736Z" fill="#4F392E"></path> <path d="M42.3586 199.36C43.9531 200.765 43.7063 205.966 43.4216 211.984C43.0419 220.431 42.5484 230.966 47.218 233.377C47.4648 230.207 49.6857 200.936 51.4701 191.255C52.0016 188.407 52.4002 183.016 52.8938 176.183C52.9887 174.987 53.0646 173.715 53.1785 172.386C50.9766 173.677 41.7891 178.821 33.1141 178.821C31.1783 178.839 29.2533 178.531 27.4194 177.91C29.1658 180.701 38.9227 196.361 42.3586 199.36Z" fill="#4F392E"></path> <path d="M233.758 59.0424C238.201 63.045 243.704 65.6813 249.608 66.6354C258.91 59.1753 263.921 51.6393 264.49 44.1982C264.879 40.0638 263.723 35.932 261.244 32.6C252.038 44.1033 239.87 44.9575 231.252 43.6477C225.749 42.7454 220.421 40.9906 215.459 38.4465C218.762 42.0532 221.761 45.5649 224.437 48.678C227.348 52.3047 230.459 55.7649 233.758 59.0424V59.0424Z" fill="#4F392E"></path> <path d="M290.743 94.6914C290.743 95.2609 290.743 95.8303 290.838 96.3998C290.835 99.193 290.594 101.981 290.117 104.733C289.611 107.327 288.868 109.869 287.896 112.326C290.799 110.499 293.251 108.039 295.071 105.132C298.108 100.367 301.032 91.9959 297.937 79.1259C296.305 84.6351 293.882 89.8783 290.743 94.6914Z" fill="#4F392E"></path> <path d="M53.2545 171.969C54.5073 155.454 56.5005 133.491 61.9294 123.507C58.3522 126.644 55.513 130.533 53.6151 134.896C55.3728 130.298 58.227 126.2 61.9294 122.956C62.0623 122.823 62.2142 122.728 62.366 122.595C62.5179 122.463 62.366 122.595 62.366 122.595C65.9413 119.504 69.9924 117.011 74.3628 115.211C78.9244 113.351 83.6907 112.038 88.5617 111.301C90.9893 110.918 93.4349 110.658 95.8889 110.523C98.3376 110.371 100.786 110.2 103.254 110.238C108.172 110.171 113.085 110.572 117.927 111.434C122.768 112.269 127.419 113.655 132.297 114.509C137.117 115.384 142.034 115.608 146.914 115.173C151.702 114.716 156.448 113.898 161.112 112.725L160.771 112.307C159.48 110.694 158.151 109.08 156.822 107.504C154.071 105.776 151.112 104.405 148.014 103.423C144.913 102.415 141.74 101.641 138.523 101.107C135.3 100.592 132.048 100.275 128.785 100.158C127.172 100.158 125.539 100.158 123.907 100.158L119.009 100.386L123.907 100.12C125.539 100.12 127.172 100.12 128.804 100.12C132.065 100.206 135.317 100.491 138.542 100.975C141.757 101.485 144.929 102.234 148.033 103.214C150.852 104.087 153.564 105.272 156.12 106.745C154.092 104.347 151.918 102.078 149.609 99.9495C145.585 96.1025 140.791 93.1524 135.543 91.2935C132.9 90.444 130.167 89.9026 127.4 89.68C124.624 89.509 121.838 89.6235 119.085 90.0217C113.584 90.853 108.221 92.4238 103.14 94.6914C108.216 92.3944 113.58 90.7979 119.085 89.9458C121.837 89.5412 124.623 89.4204 127.4 89.5851C130.181 89.7746 132.928 90.3037 135.581 91.1606C140.865 92.9965 145.698 95.934 149.761 99.7786C152.261 102.083 154.613 104.543 156.803 107.144L156.974 107.258C158.341 108.852 159.67 110.466 160.998 112.079C164.384 116.484 167.995 120.71 171.818 124.74C175.8 128.584 180.267 131.889 185.106 134.573C194.788 140.056 205.412 143.674 216.427 145.241C227.455 146.748 238.677 145.881 249.342 142.698C250.679 142.325 251.992 141.868 253.272 141.331L257.068 139.85C259.574 138.674 262.042 137.383 264.509 136.054C266.977 134.725 269.198 133.074 271.495 131.536C272.596 130.682 273.716 129.885 274.779 128.993C275.842 128.1 276.886 127.094 277.854 126.183C281.836 122.316 284.999 117.687 287.155 112.573C288.28 110.049 289.138 107.415 289.718 104.714C290.188 101.987 290.423 99.2242 290.42 96.4567C290.354 90.9112 289.478 85.4051 287.82 80.1129C286.249 75.0921 284.103 70.2701 281.423 65.7432C281.697 68.1678 281.659 70.6176 281.309 73.0325C281.129 74.3895 280.863 75.7337 280.512 77.0567C280.151 78.3496 279.707 79.6177 279.183 80.8532C277.047 85.9084 273.75 90.3891 269.559 93.9321C267.477 95.6951 265.262 97.2944 262.934 98.7156L259.289 100.614C258.682 100.918 258.093 101.24 257.391 101.525L255.493 102.284C250.501 104.534 245.145 105.865 239.68 106.214C228.712 106.573 217.856 103.907 208.303 98.5068C203.496 95.9372 198.912 92.972 194.597 89.642C190.266 86.3443 186.215 82.6936 182.487 78.7272C190.096 86.5114 198.861 93.0744 208.473 98.1841C217.965 103.214 228.785 106.517 239.661 105.777C245.081 105.431 250.394 104.107 255.341 101.867L257.239 101.126C257.847 100.842 258.454 100.519 259.137 100.215L262.744 98.317C265.063 96.9131 267.265 95.3262 269.331 93.5714C273.469 90.0626 276.721 85.6271 278.822 80.6254C279.349 79.3908 279.793 78.1225 280.151 76.8289C280.494 75.5243 280.754 74.1992 280.929 72.8616C281.274 70.3424 281.274 67.7879 280.929 65.2687C276.912 72.4646 270.709 78.1955 263.219 81.6315C259.374 83.295 255.256 84.2346 251.07 84.4029C246.893 84.645 242.704 84.3129 238.617 83.4158C234.536 82.3588 230.738 80.4144 227.494 77.7211C224.191 75.1775 221.173 72.3111 218.116 69.4828C212.042 63.788 205.949 58.0933 199.666 52.7023C196.533 49.9499 193.344 47.2923 190.174 44.6158C187.005 41.9326 183.663 39.4596 180.171 37.2127C173.165 32.7316 165.469 29.4351 157.392 27.4558C141.078 23.6359 123.963 25.2421 108.645 32.0305C116.212 28.5047 124.328 26.3025 132.639 25.5196C140.947 24.6586 149.341 25.2041 157.468 27.1331C165.583 29.1249 173.316 32.4337 180.361 36.928C183.86 39.1877 187.208 41.6734 190.383 44.3691C193.572 47.0266 196.78 49.7031 199.874 52.4556C206.176 57.9035 212.27 63.5602 218.344 69.236C221.4 72.0643 224.419 74.9307 227.703 77.4554C230.89 80.2126 234.661 82.2115 238.731 83.3019C246.87 85.1974 255.395 84.5345 263.143 81.4037C270.721 77.9155 276.967 72.0688 280.948 64.7372L281.1 64.4714L281.252 64.7182C284.132 69.4846 286.42 74.5841 288.067 79.9041C289.516 84.4668 290.396 89.1913 290.686 93.97C298.279 81.9542 300.709 70.6217 298.051 60.3143C294.483 46.3432 282.505 38.7123 280.606 37.5354C278.879 55.8534 270.356 62.8959 263.522 65.5724C254.031 69.3689 241.712 66.6544 233.53 59.1943C230.178 55.9039 227.009 52.4312 224.039 48.792C206.575 28.4428 177.323 -5.91528 133.379 3.68981C111.048 8.30021 91.4069 21.4627 78.6529 40.3638C72.8674 48.7444 68.5594 58.0537 65.9157 67.8882V67.8882C66.1815 68.4008 66.4662 68.8753 66.7129 69.3878C67.776 71.6088 68.4784 73.488 69.0099 74.8548C69.191 75.3967 69.4001 75.9289 69.6363 76.4493C69.864 75.3863 70.0919 74.3043 70.3766 73.2602C73.4784 62.4666 79.3177 52.6581 87.3278 44.7867C83.5036 48.8437 80.1245 53.2982 77.2482 58.0743C74.4219 62.8762 72.2332 68.0258 70.7373 73.3931C69.2819 78.7721 68.642 84.3389 68.839 89.9078C68.9343 92.6885 69.258 95.4565 69.8071 98.1841C70.2868 100.776 71.0049 103.318 71.9521 105.777C72.9323 102.621 74.1637 99.5488 75.6347 96.5896C78.7603 90.12 83.3869 84.4912 89.129 80.1722C94.8712 75.8532 101.562 72.9693 108.645 71.7606C115.669 70.2991 122.919 70.2991 129.943 71.7606C136.874 73.5384 143.345 76.7741 148.926 81.2518C154.491 85.7296 159.632 90.7115 164.282 96.134C168.99 101.468 173.489 106.992 178.348 112.193C183.208 117.394 188.485 122.349 194.996 125.329C188.447 122.406 183.132 117.432 178.215 112.326C173.299 107.22 168.724 101.658 164.017 96.3618C159.364 90.9777 154.237 86.0224 148.698 81.5556C143.127 77.0629 136.652 73.8255 129.716 72.0644C122.749 70.6026 115.555 70.6026 108.588 72.0644C101.556 73.2624 94.9126 76.1282 89.2155 80.4217C83.5184 84.7152 78.933 90.3113 75.8435 96.7415C72.6244 103.093 70.5794 109.974 69.8071 117.053H69.4275C69.8205 113.369 70.5707 109.733 71.6674 106.195C70.6945 103.613 69.9761 100.943 69.5224 98.2221C68.9732 95.4753 68.6494 92.6883 68.5542 89.8888C68.4014 85.5611 68.7453 81.2301 69.5793 76.9808C69.2085 76.3879 68.9151 75.7499 68.7061 75.0826C68.1936 73.7158 67.4723 71.8366 66.4282 69.6536C61.1321 58.4919 52.9887 51.5824 42.2447 49.0957L48.2051 75.709L47.8255 75.5192C47.6926 75.5192 33.209 68.1919 17.055 84.6497C2.64741 99.3231 6.59576 127.341 7.69674 133.624C8.22824 132.314 8.81668 131.024 9.46208 129.828C10.7509 127.422 12.2033 125.107 13.8091 122.899V122.899C15.2501 118.98 17.1624 115.252 19.5038 111.794C22.9949 106.581 27.4386 102.073 32.6016 98.5068C34.3479 97.3855 36.1681 96.3834 38.0496 95.5076C41.8158 93.7477 45.8089 92.521 49.9136 91.863C45.8155 92.5775 41.8358 93.8551 38.0875 95.6595C36.2215 96.5559 34.4145 97.5703 32.6776 98.6966C30.9854 99.8667 29.3628 101.134 27.8181 102.493C24.7351 105.3 22.0239 108.489 19.7506 111.984C17.6324 115.036 15.8623 118.315 14.4735 121.76C16.5171 119.022 18.8112 116.48 21.3261 114.167C26.1157 109.658 31.7379 106.124 37.8787 103.765C31.8767 106.379 26.3579 109.986 21.5539 114.433C16.7428 118.858 12.7295 124.079 9.68992 129.866C8.96859 131.27 8.32319 132.713 7.79168 134.175C7.79168 134.573 7.92452 134.82 7.92452 134.839H7.56385C5.83541 139.211 4.60643 143.764 3.90026 148.412C3.0117 154.7 2.87151 161.072 3.48265 167.394C4.03313 166.521 4.62163 165.648 5.24805 164.812C6.73488 160.085 8.73352 155.534 11.2085 151.24C13.6558 146.937 16.5577 142.908 19.8644 139.224C21.5096 137.373 23.2588 135.618 25.1036 133.966C26.0337 133.169 27.0018 132.428 27.9699 131.65C28.4634 131.27 28.938 130.853 29.4316 130.492L30.9882 129.486C35.0839 126.719 39.5094 124.474 44.1619 122.804C39.5169 124.496 35.1035 126.767 31.0261 129.562L29.5075 130.587C28.995 130.948 28.5394 131.346 28.0459 131.745C27.0967 132.523 26.1477 133.283 25.1796 134.08C23.4142 135.788 21.5919 137.459 19.9973 139.338C16.7352 143.038 13.8721 147.072 11.4553 151.373C9.2182 155.345 7.38054 159.529 5.96933 163.863C6.84252 162.743 7.75368 161.661 8.7028 160.598C10.7661 158.357 13.0139 156.294 15.4226 154.429C17.8485 152.591 20.4489 150.995 23.1864 149.664C25.904 148.274 28.8157 147.301 31.8234 146.779C28.9087 147.594 26.0748 148.674 23.3572 150.006C20.6388 151.324 18.0573 152.907 15.6504 154.733C15.577 154.812 15.4941 154.882 15.4036 154.941C15.4036 156.137 16.7893 173.278 27.1537 177.379C37.0815 181.403 51.2423 173.184 53.2545 171.969Z" fill="#4F392E"></path> <path d="M197.995 160.522C201.45 164.319 215.079 177.606 235.049 174.323C239.019 171.532 242.7 168.352 246.039 164.831C224.172 163.066 206.176 150.746 197.179 143.419C197.274 145.128 197.596 151.639 197.995 160.522Z" fill="#4F392E"></path> <path d="M278.329 126.506C277.36 127.512 276.26 128.404 275.234 129.315C274.209 130.226 273.033 131.024 271.932 131.897C269.616 133.434 267.262 134.915 264.908 136.415C262.554 137.914 259.973 138.977 257.448 140.211L253.538 141.692C252.261 142.243 250.948 142.706 249.608 143.077C238.888 146.276 227.607 147.15 216.522 145.64C208.08 144.409 199.851 142.007 192.073 138.503C196.306 142.584 219.066 163.275 248.185 164.698C266.541 165.591 279.98 156.422 288.048 148.563C297.14 139.699 303.879 127.967 305.796 117.774C303.898 119.805 296.191 126.848 278.329 126.506Z" fill="#4F392E"></path> <path d="M212.782 185.028C212.687 186.054 212.042 193.229 210.637 201.714C226.886 188.237 225.368 181.612 225.007 180.606C221.084 182.47 216.99 183.952 212.782 185.028V185.028Z" fill="#4F392E"></path> <path d="M198.014 161.13C198.489 171.988 199.02 186.129 199.267 198.81C199.666 220.62 200.273 228.764 200.406 230.472C208.72 223.202 212.099 188.218 212.384 185.161C208.458 186.201 204.427 186.787 200.368 186.908H200.254V186.547C212.523 185.96 224.373 181.898 234.422 174.835C232.537 175.12 230.634 175.266 228.728 175.272C212.612 175.234 201.507 164.926 198.014 161.13Z" fill="#4F392E"></path> <path d="M74.4009 172.519C70.2881 175.48 67.1076 179.555 65.2343 184.263C63.3609 188.972 62.8729 194.118 63.8277 199.095C66.7509 216.425 82.9809 218.76 90.7067 217.014C103.577 214.072 110.202 196.361 102.001 180.131C93.8008 163.901 79.3932 169.121 74.4009 172.519Z" fill="white"></path> <path d="M148.508 170.355C144.606 173.557 141.589 177.705 139.745 182.404C137.901 187.102 137.291 192.195 137.973 197.196C139.871 213.578 154.564 218.077 164.358 216.027C179.373 212.952 184.138 199.911 180.778 184.63C177.418 169.349 160.467 162.06 148.508 170.355Z" fill="white"></path> <path d="M90.1883 212.009C99.256 211.026 105.729 202.134 104.646 192.15C103.563 182.165 95.3343 174.868 86.2667 175.851C77.1991 176.835 70.7262 185.726 71.8091 195.711C72.892 205.696 81.1207 212.993 90.1883 212.009Z" fill="#4F392E"></path> <path d="M162.679 211.485C171.746 210.502 178.219 201.61 177.136 191.625C176.053 181.64 167.825 174.343 158.757 175.327C149.689 176.31 143.217 185.202 144.3 195.187C145.383 205.171 153.611 212.469 162.679 211.485Z" fill="#4F392E"></path> <path d="M80.3994 131.328C93.1224 134.797 106.032 137.541 119.066 139.547C125.805 140.648 132.354 141.559 138.808 143.078C138.705 142.379 138.705 141.669 138.808 140.971C138.898 140.139 139.154 139.334 139.562 138.603C139.969 137.872 140.52 137.232 141.181 136.719C143.557 135.374 146.366 135.02 149.002 135.731C163.523 138.142 172.426 148.696 172.179 154.904C172.166 155.214 172.109 155.521 172.008 155.815C179.812 159.324 187.818 162.367 195.983 164.926L197.881 165.458C197.881 163.787 197.729 162.155 197.673 160.617L196.875 159.706L197.179 159.459C197.179 159.459 197.35 159.687 197.654 160.029C197.236 150.538 196.875 143.647 196.837 143.097C193.269 140.135 191.256 138.066 191.143 137.99C189.092 137.022 187.061 136.092 185.087 134.858C180.203 132.205 175.696 128.911 171.686 125.063C168.075 121.264 164.672 117.272 161.492 113.104C156.745 114.287 151.917 115.112 147.047 115.572C142.141 116.007 137.2 115.783 132.354 114.908C127.514 114.035 122.863 112.649 117.966 111.814C113.147 110.967 108.26 110.573 103.368 110.637C100.919 110.637 98.4706 110.77 96.0219 110.922C93.5808 111.05 91.1478 111.304 88.7326 111.681C83.8926 112.409 79.1575 113.716 74.6287 115.572C70.2953 117.346 66.2764 119.808 62.7268 122.861C62.4231 123.355 62.1193 123.924 61.8346 124.494C67.764 127.421 73.987 129.712 80.3994 131.328V131.328Z" fill="#F7BCB1"></path> <path d="M21.535 204.144C20.51 207.94 20.1113 211.984 23.2244 214.11C24.9708 215.306 27.6284 215.344 29.9063 215.742C30.0581 215.533 30.191 215.325 30.3618 215.116C31.8728 213.09 33.8188 211.43 36.0566 210.256C38.2559 209.119 40.7229 208.601 43.1939 208.757C43.3648 204.391 43.3078 200.67 42.1119 199.645C41.2348 198.795 40.4285 197.874 39.7012 196.893C36.3098 196.506 32.8754 196.966 29.7053 198.231C26.5351 199.497 23.728 201.528 21.535 204.144V204.144Z" fill="#F7BCB1"></path> <path d="M43.1749 209.136C40.7573 208.95 38.335 209.43 36.1704 210.522C33.938 211.636 31.9901 213.247 30.4756 215.23C30.3321 215.405 30.199 215.589 30.077 215.78C30.5546 215.851 31.0248 215.966 31.4817 216.122C36.2702 217.952 40.3387 221.281 43.08 225.613C42.7268 221.089 42.7268 216.545 43.08 212.022C43.099 210.997 43.1369 210.066 43.1749 209.136Z" fill="#F7BCB1"></path> <path d="M208.227 233.358C210.514 230.284 213.306 227.621 216.484 225.48C217.9 224.516 219.556 223.964 221.268 223.886C220.688 223.12 220.053 222.396 219.369 221.722C217.739 220.204 215.803 219.051 213.692 218.341C211.581 217.63 209.342 217.379 207.126 217.602C205.379 223.601 203.158 228.669 200.425 230.89C200.539 231.744 201.336 238.255 201.583 246.513C203.099 241.808 205.341 237.37 208.227 233.358Z" fill="#F7BCB1"></path> <path d="M219.483 221.589C220.172 222.306 220.807 223.074 221.381 223.886L223.716 223.753C229.297 223.449 231.081 220.602 230.835 217.147C228.485 212.941 224.835 209.611 220.432 207.656C217.113 206.178 213.485 205.527 209.859 205.757C209.138 209.554 208.246 213.54 207.221 217.147C209.462 216.985 211.712 217.297 213.825 218.062C215.938 218.827 217.866 220.029 219.483 221.589V221.589Z" fill="#F7BCB1"></path> <path d="M95.6991 240.59C101.394 250.556 121.952 245.222 121.629 239.375C121.306 233.529 103.235 220.943 99.4577 225.803C95.6802 230.662 95.6991 240.59 95.6991 240.59Z" fill="#F7BCB1"></path> <path d="M201.621 246.551C201.621 246.551 208.17 261.129 223.28 256.991C223.28 256.991 216.864 262.363 209.574 260.351C202.285 258.339 200.823 258.092 200.823 258.092L201.621 246.551Z" fill="#F7BCB1"></path> <path d="M20.7947 247.519C25.2238 248.841 29.9351 248.892 34.3919 247.667C38.8488 246.442 42.872 243.99 46.0033 240.59L46.8196 251.866C42.5669 253.932 37.7769 254.623 33.1136 253.844C28.4504 253.065 24.1451 250.855 20.7947 247.519Z" fill="#F7BCB1"></path> <path d="M110.562 214.812C105.19 221.816 103.919 226.448 112.461 217.337C121.003 208.225 115.934 207.826 110.562 214.812Z" fill="#FFF4E0"></path> <path d="M44.124 52.076C46.2614 51.9699 48.3939 52.3665 50.3502 53.234C52.2866 54.0411 54.1112 55.0938 55.7792 56.3661C59.058 58.9341 61.7938 62.128 63.8277 65.7623C65.808 69.3019 67.169 73.1538 67.852 77.1518C68.1452 79.138 68.2974 81.1425 68.3076 83.1502C68.2219 85.218 67.9294 87.272 67.4344 89.2815C66.0936 87.7646 64.8809 86.1392 63.8087 84.422C62.6888 82.8465 61.7397 81.233 60.8286 79.6574C58.9303 76.5633 57.2788 73.4312 55.5515 70.451C53.8241 67.4708 52.2105 64.4336 50.4072 61.4533C48.4819 58.2175 46.3845 55.0872 44.124 52.076V52.076Z" fill="#674D49"></path> <path d="M76.394 70.8876C78.296 66.1939 80.7972 61.7659 83.8352 57.7139C86.8504 53.5278 90.3412 49.7058 94.2375 46.3244C102.189 39.4417 111.725 34.6411 121.99 32.3534C127.136 31.1545 132.404 30.5557 137.688 30.5691H139.586L141.485 30.7019L145.452 31.0057C148.091 31.2524 150.71 31.8978 153.349 32.3344C163.68 34.9883 173.325 39.8232 181.632 46.5143C189.47 53.0396 196.823 60.126 203.633 67.7176C210.467 74.9119 217.148 81.8974 225.178 86.4532C229.147 88.7971 233.552 90.3084 238.124 90.8951C242.69 91.4038 247.312 90.8383 251.62 89.2436C256.172 87.6423 260.445 85.3363 264.282 82.4099C268.304 79.4718 272.11 76.2491 275.671 72.7669C274.209 74.798 272.767 76.8671 271.172 78.8223C269.568 80.7875 267.85 82.6573 266.028 84.4221C262.385 88.1403 258.144 91.2203 253.481 93.5336C248.595 95.9437 243.21 97.1664 237.763 97.1023C232.294 96.8799 226.932 95.5088 222.027 93.0781C217.245 90.7751 212.779 87.8658 208.739 84.4221C204.715 81.1002 201.146 77.5505 197.483 74.0387C190.711 66.9627 183.55 60.2705 176.033 53.9933C168.748 48.0817 160.359 43.6806 151.355 41.0473C142.219 38.7418 132.716 38.2644 123.394 39.6426C104.697 42.3951 87.5557 54.297 76.394 70.8876Z" fill="#674D49"></path> <path d="M152.608 64.8892C155.739 66.2375 158.733 67.8839 161.549 69.8056C164.415 71.7038 167.149 73.6021 169.92 75.5003C175.368 79.5246 180.721 83.6627 185.922 87.9527C188.504 90.1167 191.105 92.2618 193.629 94.4827L197.426 97.8046C198.679 98.9056 199.875 99.8737 201.108 100.918C205.96 104.894 211.315 108.213 217.035 110.789C225.589 114.674 235.007 116.266 244.363 115.407C253.719 114.549 262.69 111.269 270.394 105.891C275.892 102.24 280.54 97.4493 284.023 91.8441C282.191 98.5876 278.556 104.704 273.507 109.536C268.405 114.518 262.331 118.395 255.664 120.925C252.303 122.247 248.809 123.202 245.242 123.773C241.657 124.38 238.018 124.609 234.384 124.456C227.099 124.16 219.94 122.465 213.295 119.464C206.76 116.505 200.722 112.555 195.395 107.751C194.123 106.555 192.775 105.322 191.598 104.145L188.048 100.595L181.006 93.4387L166.997 78.9931L159.898 71.9126C158.721 70.6978 157.544 69.5209 156.329 68.344C155.17 67.1083 153.926 65.9539 152.608 64.8892V64.8892Z" fill="#674D49"></path> <path d="M106.139 20.2807C109.975 17.0276 114.266 14.3543 118.877 12.346C123.521 10.2742 128.387 8.73933 133.379 7.77127C143.537 5.77585 154.014 6.08723 164.036 8.68242C174.007 11.2655 183.33 15.9011 191.408 22.2928C199.349 28.4608 206.054 36.0733 211.169 44.73C203.535 38.8127 195.534 33.3855 187.213 28.481C179.216 23.8044 170.62 20.2347 161.663 17.8699C152.732 15.5672 143.5 14.6517 134.29 15.1554C124.725 15.6463 115.264 17.3689 106.139 20.2807V20.2807Z" fill="#674D49"></path> <path d="M85.4108 94.103C87.4851 90.3617 90.3558 87.1217 93.8199 84.6118C97.3172 81.9853 101.197 79.9111 105.323 78.4615C113.729 75.5089 122.763 74.8215 131.519 76.4684C140.255 78.3609 148.269 82.7072 154.621 88.9967C160.819 94.9395 165.393 102.37 167.908 110.58C162.473 104.657 156.421 99.3306 149.856 94.6914C143.772 90.3476 136.878 87.2687 129.583 85.6368C122.2 84.2913 114.639 84.2463 107.241 85.504C99.429 86.7625 91.9821 89.6959 85.4108 94.103V94.103Z" fill="#674D49"></path> <path d="M3.08409 160.124C2.93122 153.701 3.98729 147.307 6.19723 141.274C8.33801 135.186 11.3357 129.433 15.0999 124.19C18.9128 118.899 23.6065 114.301 28.9761 110.599C34.3235 106.877 40.4901 104.5 46.9524 103.67C42.2068 108.112 37.7269 111.871 33.7976 116.294C29.8629 120.568 26.1804 125.068 22.7688 129.771C19.371 134.498 16.106 139.376 12.917 144.425C9.72791 149.475 6.59583 154.714 3.08409 160.124Z" fill="#674D49"></path> <path d="M6.88062 109.46C7.04934 104.252 8.34455 99.1424 10.6771 94.4829C12.9229 89.6718 16.1192 85.3649 20.0734 81.8217C24.2174 78.0052 29.4182 75.5305 34.9935 74.7222C37.7733 74.4021 40.5886 74.6147 43.2888 75.3487L45.1871 76.013C45.8135 76.2788 46.4209 76.5825 47.0853 76.8862C48.2577 77.5022 49.3536 78.254 50.3503 79.1262C47.9039 79.2669 45.4691 79.5649 43.061 80.0183C40.9263 80.4368 38.84 81.0729 36.8348 81.9166C33.0148 83.6838 29.4927 86.0341 26.3945 88.8831C23.0429 91.907 19.8736 95.127 16.9033 98.5261C13.7143 102.057 10.6771 105.701 6.88062 109.46Z" fill="#674D49"></path> <path d="M21.6678 143.894C22.566 141.113 23.9974 138.534 25.8819 136.301C27.5617 134.209 29.5081 132.345 31.6715 130.758C33.8228 129.191 36.1716 127.914 38.657 126.962C41.3876 125.882 44.3011 125.341 47.2371 125.367C46.3323 128.145 44.9016 130.723 43.023 132.96C41.3398 135.023 39.386 136.849 37.2144 138.389C35.0586 139.949 32.7108 141.225 30.2289 142.185C27.5098 143.294 24.6042 143.874 21.6678 143.894V143.894Z" fill="#674D49"></path> <path d="M220.015 39.6425C224.248 40.3069 230.246 44.6728 233.625 44.6728C236.508 44.7972 239.392 44.4575 242.167 43.6667C245.252 42.6475 248.227 41.3249 251.051 39.7184C252.607 38.8832 254.069 37.8202 255.816 36.928C257.488 35.7994 259.246 34.803 261.074 33.9478C260.724 36.0301 260.145 38.0673 259.346 40.0221C258.393 41.9068 257.248 43.6879 255.929 45.3372C253.048 48.8804 249.205 51.5169 244.863 52.9301C240.399 54.2396 235.628 54.0394 231.29 52.3607C227.076 50.6333 221.97 43.5718 220.015 39.6425Z" fill="#674D49"></path> <path d="M273.336 132.429C272.862 132.751 280.929 134.498 288.997 132.429C297.064 130.359 305.037 120.906 305.037 120.906C301.398 122.553 297.574 123.758 293.647 124.494C288.857 125.525 283.997 126.204 279.107 126.525L273.336 132.429Z" fill="#674D49"></path> <path d="M237.213 62.1938C240.844 65.5716 245.179 68.103 249.905 69.6063C254.631 71.1095 259.632 71.5471 264.547 70.8877C281.176 68.5149 287.554 43.0596 287.554 43.0596L281.385 38.1621C281.385 38.1621 281.385 50.178 273.184 58.5682C264.984 66.9584 245.527 66.9394 237.213 62.1938Z" fill="#674D49"></path> <path d="M75.445 150.31C70.6614 155.492 67.8521 161.699 67.8521 162.781C67.8521 163.863 75.1982 152.531 82.7912 147.595C90.3841 142.66 103.14 144.349 102.59 143.248C102.039 142.147 101.223 138.294 96.1358 139.091C91.0486 139.889 84.7084 140.249 75.445 150.31Z" fill="#674D49"></path> <path d="M139.757 139.11C137.385 142.015 148.185 137.212 156.101 141.236C161.841 144.457 167.127 148.428 171.819 153.043C171.819 153.043 171.135 148.355 164.89 143.078C158.645 137.801 145.452 132.182 139.757 139.11Z" fill="#674D49"></path> <path d="M68.8581 85.8647C69.5984 84.9725 75.9195 62.915 108.987 52.0381C142.054 41.1612 164.188 64.8891 164.188 64.8891C164.188 64.8891 136.986 51.2788 114.036 59.5171C114.036 59.5171 140.46 54.0882 166.333 85.8647C192.206 117.641 204.544 128.328 225.425 131.65C225.425 131.65 194.673 134.498 175.52 109.46C156.367 84.422 137.859 65.9142 113.656 71.1343C89.454 76.3545 85.3727 81.6696 80.6841 89.2435C77.9025 93.5566 76.4138 98.5759 76.3941 103.708C76.3941 103.708 107.335 83.5678 132.088 90.2876C156.841 97.0073 163.713 115.8 163.713 115.8L160.163 112.668C160.163 112.668 156.367 115.117 148.28 115.401C140.194 115.686 120.908 110.94 112.214 110.561C103.52 110.181 85.069 110.694 73.0531 115.838C61.0373 120.982 61.0563 125.329 61.0563 125.329L53.3115 165.021L52.0397 196.437L48.471 233.282C48.471 233.282 47.5029 235.75 44.9023 231.384C42.3017 227.018 43.1559 207.807 43.4407 203.271C43.7254 198.734 42.4346 199.892 38.5242 194.558C34.6139 189.224 28.6913 179.752 28.6913 179.752C28.6913 179.752 26.2047 180.701 20.491 169.786C14.7773 158.871 15.4417 154.942 15.4417 154.942L24.8379 148.905C24.8379 148.905 42.3017 143.059 49.8947 132.22C57.4876 121.381 64.1315 112.611 64.1315 112.611L34.5189 125.367C34.5189 125.367 46.5348 106.688 62.6888 97.0643C62.6888 97.0643 44.9023 77.968 15.2328 117.11V119.596L7.24126 130.283L6.44397 119.482C6.44397 119.482 28.1029 80.0181 56.2348 85.542L47.9015 75.5003C47.9015 75.5003 42.9471 52.3797 43.1939 53.5946C43.4407 54.8095 69.0858 94.8623 69.0858 94.8623L68.8581 85.8647Z" fill="#4D2422"></path> <path d="M67.3395 162.857C69.5035 164.756 75.5968 159.649 87.3089 154.429C99.021 149.209 103.292 145.564 103.292 145.564C103.292 145.564 104.488 147.69 101.83 149.949C99.173 152.208 89.6627 156.479 87.3089 157.295C84.9551 158.112 73.4138 163.351 72.2939 163.958C71.1082 164.467 69.8745 164.855 68.6113 165.116L67.3395 162.857Z" fill="#4D2422"></path> <path d="M139.226 141.027C139.359 143.818 149.628 146.722 158.493 149.835C167.358 152.948 172.027 154.904 172.027 154.904C172.027 154.904 173.565 156.802 171.249 156.935C167.156 156.399 163.173 155.227 159.442 153.461C156.955 152.189 146.154 149.266 143.933 147.937C141.712 146.608 138.675 145.906 138.732 144.463C138.815 143.308 138.98 142.16 139.226 141.027V141.027Z" fill="#4D2422"></path> <path d="M68.991 74.8549C68.991 74.8549 75.6917 56.0434 87.309 44.7299C98.9262 33.4164 122.502 23.8492 152.608 26.7346C182.714 29.6199 209.556 61.795 209.556 61.795C209.556 61.795 231.404 80.7774 232.999 81.5177C240.911 84.3082 249.401 85.0462 257.676 83.6627C268.951 81.4418 279.961 66.5786 279.961 66.5786C279.961 66.5786 270.47 81.4608 244.464 75.4813C218.458 69.5019 197.426 16.3132 138.163 19.3884C78.8997 22.4635 65.5172 65.3447 65.5172 65.3447V67.6796L68.991 74.8549Z" fill="#4D2422"></path> <path d="M286.32 75.5003C286.32 75.5003 295.394 59.8399 290.648 46.3813C290.648 46.3813 300.139 58.5301 299.475 66.5976C299.093 71.2595 298.324 75.8818 297.178 80.4168C299.033 83.3558 299.854 86.8292 299.513 90.2876C298.462 95.385 296.976 100.383 295.071 105.227C293.97 108.568 287.896 112.421 287.896 112.421C289.861 105.212 290.788 97.7588 290.648 90.2876C290.193 79.2019 286.32 75.5003 286.32 75.5003Z" fill="#4D2422"></path> <path d="M169.92 122.633C169.92 122.633 201.184 144.501 246.04 134.934C290.895 125.367 289.187 82.5996 289.187 82.5996C289.187 82.5996 294.653 107.599 281.385 124.513C268.116 141.426 244.388 152.986 244.388 152.986C244.388 152.986 279.563 159.137 298.507 135.39C298.507 135.39 282.524 167.394 244.312 164.679C244.312 164.679 240.952 172.102 225.102 180.321C225.102 180.321 226.64 186.585 218.629 194.121C210.618 201.657 211.226 202.644 211.226 202.644C211.226 202.644 207.05 227.018 200.406 230.396L197.179 142.926L192.471 139.129C192.471 139.129 178.367 132.239 169.92 122.633Z" fill="#4D2422"></path> <path d="M230.531 56.3282C237.063 58.6112 244.177 58.6112 250.709 56.3282C262.099 52.5318 263.997 38.1621 263.997 38.1621C263.997 38.1621 266.806 44.5022 262.232 52.5697C259.423 57.517 255.977 62.0738 251.981 66.1232C251.981 66.1232 240.895 68.8566 230.531 56.3282Z" fill="#4D2422"></path> <path d="M71.7054 193.95C71.7054 193.95 84.4616 182.561 104.241 190.97C104.241 190.97 103.254 180.473 93.2885 176.79C83.3227 173.108 72.142 179.922 71.7054 193.95Z" fill="#4D2422"></path> <path d="M144.256 194.653C149.298 191.957 154.888 190.447 160.602 190.236C166.315 190.025 172.002 191.121 177.228 193.438C177.228 193.438 176.279 179.106 165.364 176.107C154.45 173.108 144.085 180.967 144.256 194.653Z" fill="#4D2422"></path> <path d="M149.248 206.232C149.248 206.232 147.635 200.955 151.147 199.284C153.933 198.149 157.054 198.149 159.841 199.284C162.149 199.529 164.482 199.401 166.75 198.905C166.75 198.905 173.982 196.76 173.888 205.757C172.444 207.752 170.509 209.339 168.27 210.364C166.031 211.388 163.565 211.816 161.112 211.604C151.944 211.319 149.248 206.232 149.248 206.232Z" fill="#AB7044"></path> <path d="M78.7289 208.016C78.7289 208.016 75.8246 200.651 85.4487 200.139L92.7949 200.556C94.5178 199.566 96.5198 199.172 98.4896 199.436C99.5238 199.596 100.47 200.112 101.163 200.895C101.857 201.679 102.254 202.681 102.286 203.726C102.286 203.726 100.388 210.351 90.8967 211.623C81.4055 212.895 78.7289 208.016 78.7289 208.016Z" fill="#AB7044"></path> <path d="M121.192 335.768C95.0157 335.768 54.6402 293.266 48.49 273.657C42.9661 256.08 45.4528 234.402 45.5666 233.491L49.3631 233.927C49.3631 234.155 46.8575 255.738 52.1535 272.537C58.6265 293.133 99.6094 333.281 122.388 331.952C146.154 330.566 195.926 288.52 198.451 267.64C199.817 256.421 198.451 231.213 198.451 230.966L202.247 230.757C202.247 231.801 203.633 256.554 202.247 268.114C199.514 290.647 148.185 334.268 122.654 335.73C122.104 335.768 121.648 335.768 121.192 335.768Z" fill="#A95F56"></path> <path d="M36.4361 256.213C30.9867 256.223 25.7311 254.191 21.7057 250.518C12.5562 242.374 9.21537 228.138 13.3725 215.116C20.9655 191.483 39.9478 194.861 40.1376 194.918L39.4163 198.715C38.7709 198.601 23.4711 196 16.9792 216.35C13.3345 227.739 16.3148 240.704 24.2304 247.746C26.9999 250.303 30.4879 251.948 34.2225 252.457C37.9572 252.966 41.7582 252.316 45.1111 250.594L46.6676 254.049C43.4488 255.486 39.9614 256.224 36.4361 256.213V256.213Z" fill="#A95F56"></path> <path d="M212.042 262.401C207.642 262.496 203.383 260.844 200.197 257.807L202.855 255.093C207.259 259.383 214.529 259.781 221.362 256.099C228.538 252.207 235.979 242.811 233.283 228.821C228.709 205.226 210.751 207.428 209.973 207.523L209.46 203.726C209.688 203.726 231.765 200.974 237.004 228.043C240.098 243.988 231.48 254.903 223.166 259.402C219.763 261.307 215.941 262.337 212.042 262.401V262.401Z" fill="#A95F56"></path> <path d="M206.689 215.552C209.19 215.417 211.691 215.833 214.013 216.771C216.336 217.709 218.423 219.146 220.129 220.981C221.682 222.765 222.91 224.808 223.754 227.018C224.191 228.081 224.457 229.22 224.798 230.302L225.425 233.68L224.343 230.453C223.849 229.428 223.469 228.384 222.9 227.416C221.841 225.505 220.461 223.79 218.819 222.348C217.187 221.014 215.282 220.054 213.238 219.539C211.299 219.025 209.271 218.941 207.297 219.292L206.689 215.552Z" fill="#A95F56"></path> <path d="M43.061 210.826C42.0353 210.672 40.9924 210.672 39.9668 210.826C38.856 210.967 37.7701 211.26 36.7398 211.699C34.5978 212.624 32.6954 214.027 31.178 215.799C29.583 217.645 28.2599 219.71 27.2487 221.93C26.7931 223.069 26.2805 224.208 25.8629 225.385L24.762 228.973L25.4074 225.176C25.6731 223.942 26.0338 222.728 26.3565 221.494C27.1323 219.039 28.2506 216.707 29.6784 214.565C31.1635 212.318 33.1441 210.441 35.468 209.079C36.6562 208.384 37.9334 207.854 39.2645 207.504C40.6784 207.113 42.1473 206.959 43.6115 207.048L43.061 210.826Z" fill="#A95F56"></path> <path d="M110.562 244.121C108.119 242.47 105.985 240.401 104.26 238.008C102.458 235.641 100.899 233.097 99.6095 230.416C98.8909 228.959 98.4836 227.369 98.4136 225.746C98.5223 224.081 99.0584 222.473 99.9701 221.076C101.653 218.621 103.559 216.327 105.665 214.224C107.624 212.234 109.361 210.038 110.847 207.675C112.06 205.177 112.904 202.517 113.353 199.778C114.625 194.197 114.947 188.388 116.789 182.865C117.053 188.671 116.581 194.488 115.384 200.177C114.974 203.155 114.116 206.054 112.84 208.776C111.319 211.331 109.531 213.717 107.506 215.894C103.824 220.165 98.8313 224.379 101.811 229.466C102.98 232.011 104.398 234.434 106.045 236.699C107.879 238.957 109.399 241.454 110.562 244.121V244.121Z" fill="#A95F56"></path> <path d="M116.732 233.68C117.561 233.454 118.441 233.508 119.237 233.832C120.025 234.11 120.753 234.535 121.382 235.085C122.668 236.166 123.485 237.704 123.66 239.375C122.993 238.942 122.358 238.459 121.762 237.932L120.129 236.509C119.066 235.56 118.06 234.705 116.732 233.68Z" fill="#A95F56"></path> <path d="M99.6285 236.528C99.4003 236.868 99.2215 237.239 99.097 237.629C99.0021 237.971 98.8693 238.236 98.7554 238.559C98.6037 238.895 98.4259 239.219 98.2238 239.527C97.9686 239.932 97.6479 240.291 97.2747 240.59C96.9877 240.186 96.8136 239.713 96.7702 239.219C96.7269 238.725 96.8158 238.229 97.0279 237.781C97.2421 237.304 97.5921 236.901 98.034 236.623C98.2629 236.456 98.5347 236.359 98.8173 236.342C99.1 236.325 99.3814 236.39 99.6285 236.528V236.528Z" fill="#A95F56"></path> <path d="M68.896 165.875H68.5732C68.108 165.854 67.6645 165.672 67.3184 165.361C66.9722 165.049 66.7448 164.627 66.675 164.167C65.8208 159.896 74.3818 146.494 87.8973 140.154C94.636 136.965 98.5465 137.857 100.635 139.148C101.778 139.928 102.71 140.98 103.346 142.209C103.982 143.439 104.303 144.807 104.279 146.191C104.279 151.449 100.597 153.138 88.6376 157.675C84.6142 159.215 80.69 161.003 76.8875 163.028C73.5466 164.717 71.4206 165.875 68.896 165.875ZM96.0977 139.869C93.5296 139.972 91.0125 140.619 88.7135 141.768V141.768C77.0773 147.235 69.5603 158.093 68.6302 162.648C68.4214 163.635 68.6302 163.901 68.6302 163.901C70.7752 164.034 72.7684 162.971 76.0523 161.282C79.9144 159.223 83.9022 157.41 87.9922 155.853C99.9322 151.316 102.476 149.987 102.419 146.153C102.445 145.088 102.208 144.033 101.727 143.083C101.247 142.132 100.539 141.315 99.6664 140.705C98.5802 140.093 97.3424 139.804 96.0977 139.869V139.869Z" fill="#3B1915"></path> <path d="M169.787 158.055C167.529 158.055 164.283 156.631 160.163 154.809C157.072 153.368 153.904 152.101 150.672 151.012C141.086 148.089 137.271 146.342 138.144 140.819C138.239 139.888 138.525 138.987 138.982 138.171C139.439 137.355 140.058 136.641 140.801 136.073C143.339 134.602 146.354 134.193 149.191 134.934V134.934C164.112 137.421 173.261 148.412 173.014 154.885C173.039 155.404 172.93 155.922 172.697 156.387C172.465 156.852 172.116 157.25 171.686 157.542C171.116 157.894 170.457 158.072 169.787 158.055ZM145.984 136.586C144.54 136.506 143.107 136.877 141.883 137.649C141.345 138.07 140.899 138.598 140.573 139.199C140.247 139.799 140.046 140.46 139.985 141.141C139.435 144.653 140.763 146.058 151.185 149.247C154.505 150.313 157.757 151.581 160.923 153.043C165.061 154.941 169.351 156.745 170.642 155.948C170.737 155.948 171.04 155.701 171.078 154.828C171.306 149.133 162.555 139.091 148.85 136.813C147.902 136.661 146.944 136.585 145.984 136.586V136.586Z" fill="#3B1915"></path> <path d="M5.89343 135.333C5.58971 133.909 -1.41479 100.481 15.5555 83.1692C28.1408 70.3371 39.72 70.9825 45.3198 72.4061L39.3973 46.2484L42.3206 46.8938C53.8809 49.4754 62.5938 56.7836 68.2505 68.6666C69.3325 70.9255 70.1488 72.9377 70.5854 74.2474C70.7604 74.7642 70.9632 75.2711 71.1928 75.766C70.9702 75.4469 70.6495 75.2093 70.2794 75.0894C69.9093 74.9694 69.5101 74.9737 69.1427 75.1016L70.3576 78.7083C68.4593 79.3537 67.757 77.5314 67.0357 75.5952C66.5231 74.2474 65.8398 72.4251 64.8147 70.2801C60.202 60.5801 53.4253 54.24 44.4466 51.2977L50.6729 78.8032L47.0472 76.905C46.4967 76.6392 33.4558 70.2611 18.2699 85.7318C2.74233 101.563 9.51903 134.099 9.59496 134.422L5.89343 135.333Z" fill="#3B1915"></path> <path d="M37.9547 103.803C35.3541 106.081 32.7725 107.979 30.2288 109.877C27.6514 111.714 25.1974 113.718 22.8827 115.876C18.2995 120.252 14.5102 125.39 11.6831 131.062C8.90452 136.703 7.0461 142.753 6.1782 148.981C5.27938 155.269 5.13279 161.641 5.74159 167.963L1.18583 166.824C2.87427 164.093 4.84676 161.548 7.07038 159.232C9.24725 156.928 11.6159 154.813 14.1508 152.91C16.7126 151.027 19.4529 149.4 22.3322 148.051C23.7429 147.199 25.3171 146.654 26.9524 146.451C28.5877 146.249 30.2475 146.393 31.8234 146.874C29.6207 148.976 27.0459 150.65 24.2305 151.809C21.6454 153.105 19.197 154.656 16.9222 156.441C14.6587 158.255 12.5506 160.255 10.6201 162.421C8.72005 164.55 7.01135 166.843 5.51381 169.273L1.71733 175.651L1.01499 168.305C0.293739 161.584 0.408494 154.8 1.35666 148.108C2.40262 141.367 4.53754 134.84 7.67783 128.784C10.8801 122.787 15.1074 117.397 20.1682 112.858C22.6739 110.584 25.4021 108.568 28.3117 106.84C31.2558 105.113 34.5524 104.075 37.9547 103.803V103.803Z" fill="#3B1915"></path> <path d="M292.186 95.6405L288.978 93.6094C296.457 81.8403 298.962 70.8305 296.438 60.8648C294.067 52.6716 288.971 45.533 281.992 40.6296C280.094 54.1261 273.792 63.5223 264.13 67.2049C254.069 71.1343 241.009 68.3628 232.353 60.5041C229.001 57.1599 225.833 53.6367 222.862 49.9499C205.626 29.7527 176.773 -4.09292 133.835 5.26539C79.4501 17.1863 67.6241 67.7554 67.6241 68.2679L63.8276 67.4517C63.9415 66.9202 76.2421 13.9783 132.905 1.65874C178.045 -8.17413 208.986 28.1012 225.614 47.5771C228.515 51.1463 231.608 54.5555 234.878 57.7897C242.471 64.7182 253.86 67.2808 262.706 63.7691C269.065 61.2824 276.962 54.6576 278.518 37.1938L278.784 34.2895L281.328 35.6942C281.935 36.0169 295.982 43.9135 300.063 59.8967C303.006 70.9255 300.253 82.9413 292.186 95.6405Z" fill="#3B1915"></path> <path d="M250.842 68.2869L248.469 65.3257C257.391 58.1883 262.212 51.0509 262.782 44.1224C263.066 41.1114 262.445 38.0841 260.998 35.4284C242.395 55.9674 213.864 39.5666 213.542 39.3957L215.44 36.1308C216.56 36.7762 243.135 52 259.612 31.1194L260.998 29.373L262.497 31.0245C265.517 34.7609 266.961 39.5279 266.521 44.3122C265.952 52.3607 260.656 60.5231 250.842 68.2869Z" fill="#3B1915"></path> <path d="M108.664 32.2963C112.229 30.0806 116.055 28.3145 120.053 27.0382C124.083 25.7016 128.235 24.7669 132.449 24.2478C140.931 23.1951 149.533 23.6709 157.847 25.6525C166.166 27.6617 174.098 31.0219 181.329 35.5993C184.916 37.9006 188.346 40.4372 191.598 43.1922C194.806 45.8497 198.014 48.5263 201.089 51.2597C207.429 56.7077 213.599 62.3644 219.673 68.0212C225.747 73.6779 231.689 79.5814 239.111 81.176C240.079 81.3468 241.009 81.5746 241.958 81.6885L244.901 82.0112L247.919 82.1251C248.925 82.1251 249.817 82.1251 250.842 82.1251C254.708 81.9424 258.509 81.0614 262.061 79.5245C265.571 77.9087 268.781 75.7069 271.552 73.0135C274.346 70.3517 276.709 67.2714 278.556 63.883L280.701 59.8587L283.036 63.6552C286.084 68.5938 288.489 73.9011 290.193 79.4486C291.973 84.9732 292.932 90.7293 293.04 96.5327C293.053 99.4792 292.799 102.421 292.281 105.322C291.792 108.177 291.017 110.975 289.965 113.674C287.647 119.122 284.273 124.058 280.037 128.195C279.012 129.239 277.873 130.094 276.791 131.138C275.709 132.182 274.494 132.922 273.355 133.814C270.963 135.409 268.534 136.927 266.123 138.465C263.712 140.002 261.017 141.103 258.416 142.261L254.373 143.799C253.046 144.343 251.69 144.812 250.311 145.204C239.231 148.467 227.582 149.328 216.142 147.728C204.788 146.081 193.842 142.321 183.872 136.642C178.834 133.837 174.193 130.37 170.072 126.335C166.226 122.208 162.602 117.88 159.214 113.37C155.954 108.988 152.362 104.863 148.47 101.032C144.686 97.26 140.162 94.3129 135.182 92.3756C132.654 91.4776 130.029 90.8788 127.362 90.5912C124.66 90.3255 121.939 90.3255 119.237 90.5912C113.77 91.2779 108.412 92.6557 103.292 94.6914C108.279 92.1178 113.611 90.2766 119.123 89.2245C121.923 88.6769 124.775 88.4413 127.627 88.5221C130.514 88.65 133.375 89.1215 136.15 89.9268C141.705 91.6723 146.82 94.592 151.147 98.4879C155.261 102.316 159.069 106.461 162.536 110.883C165.914 115.199 169.506 119.342 173.299 123.298C177.192 127.001 181.543 130.19 186.245 132.789C195.705 138.103 206.078 141.593 216.826 143.078C227.53 144.503 238.415 143.63 248.754 140.515C250.047 140.148 251.315 139.698 252.55 139.167L256.347 137.724C258.777 136.567 261.15 135.295 263.541 134.099C265.933 132.903 268.097 131.195 270.318 129.714C271.362 128.898 272.463 128.119 273.469 127.265C274.475 126.411 275.481 125.557 276.392 124.589C282.084 119.145 285.927 112.055 287.383 104.315C287.823 101.738 288.046 99.1284 288.048 96.5137C287.658 85.8009 284.521 75.3681 278.936 66.2178L283.397 65.9331C281.255 69.8572 278.499 73.4138 275.234 76.4683C271.995 79.53 268.259 82.0203 264.187 83.8335C260.077 85.5841 255.685 86.5746 251.222 86.7568C250.121 86.7568 248.982 86.8707 247.9 86.7568L244.692 86.586L241.427 86.2253C240.326 86.0734 239.225 85.8077 238.143 85.5989C233.778 84.4904 229.714 82.4289 226.241 79.5625C222.805 76.9049 219.787 74.0006 216.75 71.1533C210.694 65.4585 204.639 59.7638 198.413 54.3349C195.319 51.5824 192.149 48.9249 188.922 46.2484C185.827 43.6005 182.561 41.1592 179.146 38.9402C172.323 34.544 164.827 31.2931 156.955 29.3161C149.043 27.4604 140.895 26.8203 132.791 27.4179C124.576 28.0252 116.47 29.6643 108.664 32.2963V32.2963Z" fill="#3B1915"></path> <path d="M282.011 64.6993C282.428 67.4996 282.428 70.3462 282.011 73.1465C281.83 74.5408 281.564 75.9228 281.214 77.2847C280.85 78.6409 280.4 79.9724 279.866 81.271C277.735 86.4611 274.389 91.0636 270.109 94.6915C267.992 96.5027 265.732 98.1405 263.351 99.589L259.555 101.487C258.947 101.81 258.34 102.133 257.657 102.436L255.758 103.196C250.673 105.487 245.211 106.825 239.642 107.144C228.519 107.478 217.52 104.725 207.866 99.1903C203.04 96.5799 198.464 93.5298 194.199 90.0788C189.915 86.6601 185.962 82.8469 182.392 78.6894C190.274 86.1248 199.132 92.4534 208.72 97.5009C218.211 102.417 228.86 105.625 239.51 104.904C244.818 104.551 250.023 103.266 254.885 101.108L256.784 100.386L258.549 99.4751L262.099 97.5768C264.371 96.2109 266.524 94.6552 268.534 92.9261C272.571 89.5178 275.767 85.224 277.873 80.3788C278.392 79.1431 278.829 77.8749 279.183 76.5823C279.523 75.3335 279.789 74.0659 279.98 72.7858C280.359 70.1991 280.359 67.5708 279.98 64.9841L282.011 64.6993Z" fill="#3B1915"></path> <path d="M250.633 166.824C249.798 166.824 248.944 166.824 248.09 166.824C215.136 165.23 190.915 140.363 189.89 139.319L192.623 136.68C192.87 136.927 216.864 161.509 248.279 163.047C276.867 164.433 296.874 140.097 302.759 122.52C298.374 125.367 290.648 128.518 278.272 128.214V124.418C297.975 124.797 304.391 116.085 304.467 115.99L309.232 109.27L307.96 117.47C304.505 138.047 282.277 166.824 250.633 166.824Z" fill="#3B1915"></path> <path d="M288.389 114.528L286.7 111.13C287.326 110.807 302.227 102.911 296.191 78.8601L299.873 77.9299C306.688 105.056 288.579 114.433 288.389 114.528Z" fill="#3B1915"></path> <path d="M200.501 188.597H200.197V184.801C200.444 184.801 224.343 185.048 244.825 163.616L247.558 166.236C227.076 187.838 203.633 188.597 200.501 188.597Z" fill="#3B1915"></path> <path d="M211.529 203.669L209.138 200.746C225.614 187.212 223.431 181.27 223.412 181.213L226.772 179.448C227.513 180.796 230.322 188.256 211.529 203.669Z" fill="#3B1915"></path> <path d="M33.2091 180.606C30.8628 180.633 28.5321 180.221 26.3375 179.391C14.4355 174.664 13.3156 155.796 13.2776 154.998L17.0741 154.79C17.0741 154.96 18.0991 172.045 27.7422 175.86C37.3852 179.675 52.4193 170.469 52.5901 170.374L54.6402 173.582C54.0897 173.924 43.4596 180.606 33.2091 180.606Z" fill="#3B1915"></path> <path d="M49.1353 236.509L46.6676 235.408C40.3844 232.617 40.9729 221.608 41.3525 211.889C41.5234 207.921 41.8081 201.923 40.9539 200.917C37.1574 197.519 26.6032 180.53 25.4263 178.613L28.6533 176.714C31.7854 181.821 40.5363 195.697 43.4785 198.164C45.5856 200.063 45.5096 204.239 45.13 212.154C44.8832 217.735 44.5415 224.835 45.9083 228.935C46.6486 219.596 48.376 199.057 49.8566 190.97C50.3692 188.199 50.7678 182.58 51.2423 176.088C52.5901 157.599 54.4504 132.296 60.9993 121.665L64.2263 123.564C58.1329 133.472 56.2347 159.232 55.0388 176.316C54.5263 183.206 54.1277 188.654 53.5772 191.615C51.6789 201.695 49.3631 233.472 49.3441 233.794L49.1353 236.509Z" fill="#3B1915"></path> <path d="M198.716 234.459L198.375 231.023C198.375 230.738 197.634 223.772 197.179 198.753C196.723 173.734 195.091 143.419 195.072 143.115L198.868 142.907C198.868 143.21 200.501 173.791 200.975 198.677C201.241 212.705 201.564 221.057 201.83 225.67C206.974 216.179 209.935 193.741 210.694 184.687L214.491 185.01C214.13 189.072 210.827 224.873 201.431 232.238L198.716 234.459Z" fill="#3B1915"></path> <path d="M3.55859 164.433C5.21471 159.616 7.39162 154.995 10.0506 150.652C12.6617 146.359 15.7225 142.356 19.1811 138.712C20.8986 136.89 22.7175 135.166 24.629 133.548C25.5972 132.77 26.5273 132.03 27.6093 131.29C28.1218 130.91 28.5963 130.511 29.1089 130.17L30.7034 129.182C34.8991 126.53 39.4069 124.407 44.1239 122.861C39.5506 124.686 35.2212 127.071 31.2349 129.961L29.7353 131.024C29.2608 131.403 28.8052 131.821 28.3496 132.22C27.4194 133.017 26.4514 133.795 25.5782 134.611C23.823 136.303 22.1627 138.09 20.6048 139.964C17.488 143.697 14.7773 147.75 12.5183 152.056C10.2832 156.283 8.50768 160.738 7.22218 165.344L3.55859 164.433Z" fill="#3B1915"></path> <path d="M12.1007 122.292C15.3049 114.304 20.4296 107.23 27.0208 101.696C28.6535 100.331 30.3649 99.0637 32.1461 97.8996C33.9821 96.8251 35.8841 95.8678 37.8408 95.0332C41.6908 93.4033 45.7468 92.311 49.8946 91.7872C45.8432 92.6125 41.9267 93.9989 38.2584 95.9064C36.4349 96.8372 34.6837 97.9032 33.0193 99.0954C24.9069 105.212 18.8916 113.695 15.8023 123.374L12.1007 122.292Z" fill="#3B1915"></path> <path d="M67.8519 116.958C68.5338 109.577 70.5806 102.387 73.8883 95.7544C77.1422 89.0326 81.9431 83.1778 87.8973 78.6703C93.9137 74.1942 100.885 71.1729 108.265 69.8435C111.89 69.1558 115.568 68.7874 119.256 68.7425C123.007 68.7222 126.747 69.1427 130.399 69.9954C137.606 71.8834 144.325 75.2947 150.103 79.9991C155.72 84.5625 160.894 89.6471 165.554 95.185C170.243 100.614 174.628 106.214 179.241 111.567C183.853 116.92 188.732 122.026 195.034 125.5C188.238 123.089 182.506 118.287 177.38 113.313C172.255 108.34 167.585 102.854 162.802 97.6527C158.182 92.3872 153.1 87.5464 147.616 83.1881C142.257 78.9253 136.041 75.8691 129.393 74.2284C126.09 73.501 122.713 73.1697 119.332 73.2413C115.906 73.322 112.491 73.6711 109.12 74.2854C102.415 75.4782 96.0755 78.1998 90.5928 82.239C79.7729 90.3635 73.3758 103.86 71.6105 117.299L67.8519 116.958Z" fill="#3B1915"></path> <path d="M70.2628 106.992C69.0719 104.303 68.1868 101.488 67.6242 98.6017C66.9898 95.7637 66.6275 92.8716 66.5422 89.9648C66.2829 84.1536 66.9689 78.339 68.5733 72.7477C70.1869 67.2122 72.6387 61.9564 75.8435 57.1632C79.0185 52.4421 82.9127 48.2468 87.3848 44.7297C84.1192 49.1981 81.1636 53.8851 78.539 58.7577C77.2642 61.1576 76.1296 63.6295 75.1412 66.1608L73.7555 69.9573L72.6355 73.7538C71.3515 78.9674 70.7895 84.3325 70.9651 89.699C71.0504 92.3741 71.3359 95.0391 71.8193 97.6716C72.2355 100.252 72.8705 102.792 73.7175 105.265L70.2628 106.992Z" fill="#3B1915"></path> <path d="M161.967 114.661C157.136 116.003 152.203 116.943 147.217 117.47C142.155 118 137.044 117.822 132.031 116.939C127.02 116.047 122.35 114.661 117.643 113.864C112.95 113.038 108.189 112.657 103.425 112.725C101.033 112.725 98.6224 112.725 96.2307 112.953C93.8389 113.18 91.4661 113.351 89.1123 113.655C84.4208 114.338 79.8226 115.555 75.407 117.281C71.0366 118.985 66.9866 121.417 63.4291 124.475C59.7751 127.564 56.4999 131.075 53.6721 134.934C53.938 132.371 54.7748 129.9 56.1209 127.702C57.4115 125.467 59.0304 123.439 60.9234 121.684C64.7128 118.22 69.0652 115.428 73.7935 113.427C78.4744 111.433 83.3837 110.024 88.4099 109.232C90.8966 108.852 93.4213 108.511 95.908 108.378C98.3947 108.245 100.9 108.017 103.501 108.036C108.547 107.97 113.588 108.389 118.554 109.289C123.546 110.143 128.292 111.567 132.943 112.402C137.579 113.259 142.306 113.521 147.009 113.18C151.791 112.761 156.541 112.025 161.226 110.978L161.967 114.661Z" fill="#3B1915"></path> <path d="M155.911 108.89C154.717 108.001 153.447 107.22 152.115 106.555C150.701 105.846 149.25 105.212 147.768 104.657C144.775 103.522 141.696 102.627 138.561 101.981C135.393 101.316 132.184 100.859 128.956 100.614C127.324 100.462 125.71 100.443 124.078 100.348H119.18L124.059 99.8737C125.691 99.8737 127.343 99.6649 128.975 99.6649C132.278 99.6023 135.581 99.7481 138.865 100.101C142.174 100.481 145.449 101.115 148.66 102C150.287 102.448 151.89 102.98 153.462 103.594C155.112 104.211 156.701 104.98 158.208 105.891L155.911 108.89Z" fill="#3B1915"></path> <path d="M228.766 175.993C208.796 175.993 196.363 160.389 196.23 160.219L197.729 159.061C197.862 159.232 212.365 177.379 234.992 173.563L235.314 175.461C233.15 175.821 230.96 175.998 228.766 175.993V175.993Z" fill="#3B1915"></path> <path d="M63.8276 188.711C64.5127 183.036 66.9705 177.722 70.8511 173.525C72.8891 171.388 75.4075 169.767 78.1973 168.799L79.2413 168.4L80.3233 168.153C81.0447 168.02 81.766 167.811 82.5063 167.717C83.9678 167.543 85.4426 167.511 86.9102 167.622C89.8977 167.75 92.8066 168.617 95.3763 170.146C97.9282 171.699 100.044 173.874 101.527 176.467C102.964 178.942 103.965 181.645 104.488 184.459C105.057 187.185 105.223 189.98 104.981 192.754C104.192 187.473 102.247 182.43 99.2867 177.986C97.8532 175.94 95.9814 174.239 93.8075 173.008C91.6336 171.776 89.2125 171.045 86.7204 170.868C84.2108 170.585 81.6698 170.862 79.2803 171.68C76.8907 172.497 74.7121 173.834 72.9012 175.594C68.986 179.278 65.8938 183.748 63.8276 188.711V188.711Z" fill="#060906"></path> <path d="M137.973 189.603C137.746 186.629 138.094 183.639 138.998 180.796C139.851 177.837 141.312 175.089 143.288 172.728C145.298 170.265 147.832 168.282 150.705 166.923C153.578 165.563 156.719 164.862 159.897 164.869C163.066 164.849 166.2 165.518 169.085 166.829C171.969 168.14 174.534 170.062 176.602 172.462C180.396 177.299 182.123 183.441 181.405 189.546C180.438 184.007 177.946 178.847 174.21 174.645C172.349 172.743 170.121 171.239 167.661 170.222C165.194 169.255 162.567 168.759 159.916 168.761C157.234 168.708 154.569 169.201 152.082 170.209C149.596 171.218 147.34 172.72 145.452 174.626C141.52 178.76 138.916 183.977 137.973 189.603V189.603Z" fill="#060906"></path> <path d="M88.8655 185.199C87.089 185.003 85.2948 185.351 83.7203 186.197C82.1459 187.043 80.8653 188.347 80.0478 189.936C79.2304 191.525 78.9147 193.325 79.1426 195.098C79.3704 196.871 80.131 198.533 81.3237 199.864C82.5165 201.195 84.0852 202.132 85.8224 202.552C87.5596 202.973 89.3834 202.855 91.0526 202.217C92.7217 201.578 94.1577 200.447 95.1704 198.975C96.1832 197.502 96.725 195.757 96.7242 193.969C96.8382 191.766 96.0757 189.607 94.6033 187.964C93.1309 186.321 91.0681 185.327 88.8655 185.199V185.199Z" fill="#060906"></path> <path d="M81.1776 179.676C80.0535 179.731 78.9593 180.057 77.9879 180.626C77.0164 181.194 76.1963 181.988 75.5968 182.941C73.3569 186.149 73.5656 190.344 76.0523 192.318C76.8809 193.016 77.9298 193.4 79.0136 193.4C80.137 193.341 81.2299 193.014 82.2008 192.446C83.1718 191.878 83.9926 191.085 84.5944 190.135C86.8154 186.927 86.6066 182.732 84.1389 180.758C83.3084 180.097 82.2764 179.742 81.2156 179.751L81.1776 179.676Z" fill="white"></path> <path d="M88.5047 213.085C78.8617 213.085 70.87 204.505 70.6802 193.969C70.6068 191.373 71.0488 188.788 71.9807 186.364C72.9125 183.94 74.3158 181.725 76.1092 179.846C77.6243 178.272 79.4397 177.017 81.4482 176.156C83.4566 175.296 85.6173 174.846 87.8024 174.835C97.4264 174.835 105.437 183.415 105.627 193.95C105.696 196.546 105.252 199.13 104.321 201.553C103.389 203.977 101.988 206.192 100.198 208.073C98.6827 209.648 96.8673 210.903 94.8589 211.763C92.8505 212.624 90.6898 213.073 88.5047 213.085ZM87.8024 176.733C85.8684 176.743 83.9562 177.142 82.1791 177.905C80.402 178.668 78.7962 179.78 77.4569 181.175C75.8429 182.879 74.5811 184.884 73.7439 187.076C72.9067 189.269 72.5106 191.605 72.5785 193.95C72.7493 203.442 79.9057 211.186 88.5047 211.186C90.4387 211.176 92.3508 210.778 94.1279 210.015C95.905 209.252 97.5109 208.14 98.8501 206.744C100.464 205.041 101.726 203.036 102.563 200.843C103.4 198.651 103.796 196.315 103.729 193.969C103.691 184.478 96.4773 176.733 87.8783 176.733H87.8024Z" fill="#3B1915"></path> <path d="M161.34 184.687C159.569 184.499 157.782 184.852 156.216 185.7C154.649 186.548 153.377 187.852 152.567 189.438C151.756 191.024 151.446 192.819 151.676 194.585C151.907 196.351 152.667 198.006 153.858 199.331C155.048 200.656 156.612 201.589 158.344 202.007C160.075 202.425 161.893 202.308 163.556 201.672C165.22 201.036 166.652 199.91 167.662 198.443C168.673 196.977 169.216 195.238 169.218 193.457C169.277 192.363 169.12 191.269 168.756 190.237C168.392 189.204 167.828 188.254 167.096 187.439C166.364 186.625 165.48 185.963 164.492 185.49C163.504 185.018 162.433 184.745 161.34 184.687V184.687Z" fill="#060906"></path> <path d="M153.652 179.144C152.529 179.203 151.436 179.53 150.465 180.098C149.494 180.666 148.673 181.459 148.071 182.409C145.85 185.617 146.059 189.812 148.527 191.786C149.357 192.446 150.389 192.802 151.45 192.792C152.567 192.745 153.657 192.43 154.628 191.876C155.599 191.321 156.423 190.542 157.031 189.603C159.252 186.395 159.062 182.2 156.575 180.226C155.747 179.563 154.714 179.207 153.652 179.22V179.144Z" fill="white"></path> <path d="M161.055 212.553C151.431 212.553 143.44 203.992 143.231 193.457C143.16 190.858 143.603 188.271 144.535 185.844C145.467 183.418 146.868 181.199 148.66 179.315C150.178 177.741 151.997 176.487 154.009 175.63C156.021 174.772 158.185 174.328 160.372 174.323C169.996 174.323 177.988 182.884 178.177 193.419C178.257 196.016 177.818 198.602 176.886 201.027C175.954 203.452 174.547 205.667 172.749 207.542C171.236 209.12 169.421 210.377 167.412 211.238C165.403 212.099 163.241 212.546 161.055 212.553V212.553ZM160.372 176.316C158.44 176.324 156.529 176.72 154.752 177.48C152.975 178.24 151.368 179.348 150.027 180.739C148.406 182.438 147.138 184.442 146.297 186.635C145.457 188.828 145.06 191.166 145.129 193.514V193.514C145.319 203.005 152.456 210.75 161.055 210.75C162.989 210.74 164.902 210.341 166.679 209.578C168.456 208.815 170.061 207.703 171.401 206.308C173.015 204.608 174.277 202.606 175.115 200.417C175.952 198.228 176.348 195.895 176.279 193.552C176.108 183.909 168.971 176.316 160.372 176.316Z" fill="#3B1915"></path> <g style="mix-blend-mode:multiply"> <g style="mix-blend-mode:multiply"> <path d="M103.994 217.925L103.292 197.785L118.288 179.334L135.866 194.918L132.24 227.188L159.917 213.502L187.593 227.188L182.505 196.532L204.696 174.55L174.419 168.039L159.917 142.014L146.629 168.039L118.269 178.745L91.5799 167.356L76.6408 142.014L62.6128 170.564L31.8613 174.55L50.7678 197.785L48.9644 227.188L76.6408 213.502L99.7423 224.929" fill="#E8C276"></path> </g> </g> <g style="mix-blend-mode:multiply"> <g style="mix-blend-mode:multiply"> <path d="M103.994 217.925L103.292 197.785L118.288 179.334L135.866 194.918L132.24 227.188L159.917 213.502L187.593 227.188L182.505 196.532L204.696 174.55L174.419 168.039L159.917 142.014L146.629 168.039L118.269 178.745L91.5799 167.356L76.6408 142.014L62.6128 170.564L31.8613 174.55L50.7678 197.785L48.9644 227.188L76.6408 213.502L99.7423 224.929" fill="#E8C276"></path> </g> </g> <g style="mix-blend-mode:lighten" opacity="0.41"> <g style="mix-blend-mode:lighten" opacity="0.41"> <path d="M103.994 217.925L103.292 197.785L118.288 179.334L135.866 194.918L132.24 227.188L159.917 213.502L187.593 227.188L182.505 196.532L204.696 174.55L174.419 168.039L159.917 142.014L146.629 168.039L118.269 178.745L91.5799 167.356L76.6408 142.014L62.6128 170.564L31.8613 174.55L50.7678 197.785L48.9644 227.188L76.6408 213.502L99.7423 224.929" fill="#E8C276"></path> </g> </g> <g style="mix-blend-mode:soft-light"> <g style="mix-blend-mode:soft-light"> <path d="M48.9645 227.169L49.6858 226.809C53.9948 219.463 58.4746 212.23 62.9734 205.15C71.4068 191.66 80.8759 178.846 91.2952 166.824L83.6073 153.821C72.7759 163.386 62.7274 173.803 53.5582 184.971C51.3183 187.648 49.1353 190.362 46.9713 193.096L50.7678 197.766L48.9645 227.169Z" fill="white"></path> </g> </g> <g style="mix-blend-mode:soft-light"> <g style="mix-blend-mode:soft-light"> <path d="M79.9058 215.116L80.2285 214.318C86.132 199.55 92.7189 184.801 101.679 171.646L92.1874 167.641C81.8976 180.272 72.546 193.64 64.2074 207.637C60.8285 213.122 57.6774 218.741 54.6023 224.398L76.6408 213.502L79.9058 215.116Z" fill="white"></path> </g> </g> <g style="mix-blend-mode:soft-light"> <g style="mix-blend-mode:soft-light"> <path d="M152.589 206.687C157.126 196.76 162.08 186.984 166.997 177.246C169.009 173.316 170.964 169.311 172.957 165.325L166.181 153.157C158.588 165.097 151.583 177.378 143.288 188.825C140.687 192.413 137.992 195.962 135.353 199.531L132.164 227.169L146.762 219.956C148.66 215.539 150.603 211.117 152.589 206.687Z" fill="white"></path> </g> </g> <g style="mix-blend-mode:soft-light"> <g style="mix-blend-mode:soft-light"> <path d="M170.907 218.931C172.293 213.654 173.736 208.396 175.292 203.176C177.912 194.444 180.284 185.712 182.657 176.904C183.246 174.778 183.853 172.5 184.556 170.203L174.438 168.02V167.83C172.919 170.868 171.401 173.905 169.958 176.923C165.345 186.509 160.733 196.114 156.386 205.833C154.62 209.8 152.893 213.806 151.241 217.849L160.03 213.502L170.907 218.931Z" fill="white"></path> </g> </g> <path d="M190.061 230.51L159.917 215.628L129.981 230.415L133.778 195.678L118.497 182.01L105.209 198.373L105.893 217.792L102.096 217.925L101.375 197.044L115.574 179.562L90.2701 168.761L76.7926 145.982L63.8277 172.31L35.449 175.993L52.704 197.196L51.0715 224.056L76.6408 211.414L100.578 223.259L98.9071 226.657L76.6408 215.666L46.8764 230.358L48.7747 198.449L28.2357 173.089L61.36 168.723L76.5459 137.933L92.9656 165.761L118.383 176.619L145.338 166.426L159.898 137.952L175.71 166.312L208.568 173.392L184.537 197.196L190.061 230.51ZM121.42 179.581L137.878 194.14L134.518 223.942L159.917 211.376L185.106 223.772L180.474 195.811L200.862 175.594L173.185 169.634L159.898 145.982L147.901 169.482L121.42 179.581Z" fill="#C56D36"></path> <path d="M110.562 244.121C108.119 242.47 105.985 240.401 104.26 238.008C102.458 235.641 100.899 233.097 99.6095 230.415C98.8909 228.959 98.4836 227.368 98.4136 225.746C98.5223 224.081 99.0584 222.473 99.9701 221.076C101.653 218.621 103.559 216.327 105.665 214.223C107.624 212.234 109.361 210.038 110.847 207.674C112.06 205.177 112.904 202.517 113.353 199.778C114.625 194.197 114.947 188.388 116.789 182.865C117.053 188.671 116.581 194.488 115.384 200.176C114.974 203.154 114.116 206.054 112.84 208.775C111.319 211.331 109.531 213.717 107.506 215.894C103.824 220.165 98.8313 224.379 101.811 229.466C102.98 232.011 104.398 234.434 106.045 236.699C107.879 238.957 109.399 241.454 110.562 244.121V244.121Z" fill="#A95F56"></path> </g> <defs> <clipPath id="clip0_133_827"> <rect width="310" height="248" fill="white"></rect> </clipPath> </defs> </svg> 