<?xml version="1.0" encoding="UTF-8"?> <svg xmlns="http://www.w3.org/2000/svg" width="356" height="156" viewBox="0 0 356 156" fill="none"> <g clip-path="url(#clip0_133_947)"> <path d="M282.444 48.4459L290.035 59.546C293.973 55.9442 298.671 53.2735 303.78 51.7312C308.889 50.189 314.28 49.8147 319.553 50.6361C338.095 53.1249 343.172 78.4363 338.319 90.4573C336.76 94.1944 334.418 97.5541 331.451 100.31C328.485 103.066 324.962 105.155 321.121 106.436C319.926 106.734 312.684 107.655 312.684 107.655C323.586 126.438 333.15 145.965 341.305 166.093C355.367 200.513 356.238 220.225 351.41 244.167C344.7 274.859 331.941 303.905 313.878 329.609C293.171 359.251 241.553 379.386 198.994 387.649C156.435 395.911 117.908 386.155 86.5735 373.238C55.2391 360.321 35.1792 328.24 24.3528 308.703C13.5264 289.165 6.50782 258.379 3.47144 234.038C0.760149 211.213 6.1511 188.161 18.7031 168.905C30.0771 151.633 53.6711 132.568 58.2257 128.387C62.7803 124.206 73.9054 114.848 73.9054 114.848C70.8573 110.937 68.6568 106.435 67.4442 101.627C66.2316 96.8192 66.0333 91.8117 66.8619 86.9232C69.3508 69.3769 91.7502 65.0712 91.7502 65.0712L94.2391 50.5614L88.5397 53.4235C87.9835 48.5698 89.0513 43.6686 91.5761 39.4861C95.7324 33.3387 102.626 24.802 102.626 24.802L93.3182 27.2908C93.3182 27.2908 101.009 7.20597 128.66 4.04516C156.311 0.884343 166.365 12.2334 166.365 12.2334C179.727 8.01824 193.932 7.22243 207.68 9.91876C213.228 6.19715 219.491 3.67492 226.07 2.51349C232.648 1.35206 239.397 1.57705 245.883 3.17405C268.98 8.30104 275.749 24.1798 275.749 24.1798L266.665 23.5077C267.387 23.6571 282.444 48.4459 282.444 48.4459Z" fill="#F9C9B5"></path> <path d="M231.772 79.9546C239.861 79.3075 249.393 78.1626 249.393 78.1626C249.762 74.6646 249.251 71.1299 247.909 67.879C246.566 64.6281 244.432 61.7639 241.702 59.5461C232.369 52.3285 224.629 56.1613 220.074 58.675C215.52 61.1887 209.472 74.1058 211.388 81.0745L231.772 79.9546Z" fill="white"></path> <path d="M142.946 77.2666C142.572 77.2666 126.843 76.9929 126.843 76.9929L120.621 75.9227C120.621 75.9227 122.388 58.7746 133.065 54.5934C143.742 50.4122 149.84 55.7133 152.08 66.5148L142.946 77.2666Z" fill="white"></path> <path d="M243.096 43.1945C226.147 34.9565 211.463 34.4587 205.34 27.6393C199.218 20.8199 200.363 12.5819 213.778 6.55892C227.192 0.535953 245.336 1.15816 255.938 6.55892C262.24 9.71728 268.016 13.831 273.062 18.7542L275.824 24.3541L267.188 23.7817C267.188 23.7817 273.037 32.169 275.724 36.8231C278.288 42.0841 280.532 47.4947 282.444 53.0254L276.272 52.1543L274.754 70.3975C274.754 70.3975 260.617 52.9756 254.52 48.9686C250.957 46.5931 247.121 44.6545 243.096 43.1945Z" fill="#5B4340"></path> <path d="M129.506 41.6515C138.217 38.6649 160.218 37.9431 166.39 33.4632C172.562 28.9833 172.538 19.4262 169.352 13.3286C166.166 7.23094 148.595 -1.40526 126.395 4.89148C104.194 11.1882 98.7438 19.3018 96.8025 21.6164C95.4683 23.5991 94.616 25.8661 94.3137 28.2367L101.954 25.9221C101.954 25.9221 93.3431 34.6579 91.1529 40.6062C89.8253 44.3397 88.9886 48.23 88.6641 52.1793L95.6079 51.0842C95.6079 51.0842 90.6303 58.9239 91.9493 65.1211C93.2684 71.3183 94.8612 77.5653 94.8612 77.5653C94.8612 77.5653 104.269 50.2877 129.506 41.6515Z" fill="#5B4340"></path> <path d="M221.045 73.9564C220.642 72.4963 220.531 70.971 220.718 69.4678C220.905 67.9647 221.387 66.5132 222.135 65.1963C222.884 63.8794 223.884 62.723 225.08 61.7933C226.276 60.8636 227.643 60.1787 229.104 59.778C230.565 59.3772 232.09 59.2683 233.593 59.4577C235.096 59.647 236.547 60.1308 237.863 60.8813C239.178 61.6319 240.333 62.6344 241.261 63.8317C242.189 65.0289 242.872 66.3974 243.27 67.8588C243.65 69.3272 243.688 70.863 243.383 72.3486C243.079 73.8343 242.438 75.2307 241.511 76.4312C240.585 77.6317 239.396 78.6046 238.036 79.2756C236.676 79.9466 235.18 80.298 233.664 80.3029C227.267 80.3029 222.713 80.1038 221.045 73.9564Z" fill="#62362B"></path> <path d="M129.655 72.5626C128.013 66.5894 132.891 61.5122 138.864 59.8945C142.348 58.9239 143.667 60.2678 146.33 62.2588C148.036 64.0883 149.394 66.2137 150.337 68.5307C149.74 68.705 143.145 77.3163 142.074 77.2167C140.531 77.0674 137.097 77.4656 136.3 77.2167C131.995 76.8185 130.9 77.0674 129.655 72.5626Z" fill="#62362B"></path> <path d="M337.672 66.8632C340.583 78.934 327.119 101.707 301.36 88.8644L312.46 107.108C312.46 107.108 321.867 110.243 332.993 98.6455C344.118 87.0475 337.672 66.8632 337.672 66.8632Z" fill="#F5AFA6"></path> <path d="M311.414 64.5732C319.802 61.5368 331.997 70.2229 331.997 70.2229C331.997 70.2229 311.663 64.6977 301.882 79.7551C301.932 79.7551 295.312 70.4469 311.414 64.5732Z" fill="#F5AFA6"></path> <path d="M94.3635 76.047C94.3635 76.047 77.8377 72.0897 72.2378 94.4394C72.2378 94.4394 80.4759 81.6966 93.7413 82.4682" fill="#F5AFA6"></path> <path d="M91.2277 89.2626C91.2277 89.2626 80.3764 99.865 74.2787 101.956C68.1811 104.046 67.0861 99.5912 67.0861 99.5912L71.6655 112.284C75.0201 111.47 78.0856 109.748 80.5257 107.307C84.3974 101.478 87.9694 95.4552 91.2277 89.2626V89.2626Z" fill="#F5AFA6"></path> <path d="M218.78 132.991C218.78 132.991 231 119.377 220.099 112.907C209.198 106.436 188.441 117.66 181.647 120.174C174.852 122.688 125.225 96.7291 127.44 114.947L130.228 125.127C130.228 125.127 104.02 118.556 103.448 121.518C102.875 124.48 113.727 151.931 154.892 152.18C196.057 152.429 215.246 136.725 218.78 132.991Z" fill="#F5AFA6"></path> <path d="M282.444 52.9754L286.924 64.872L282.619 63.752L277.641 88.6403C277.641 88.6403 268.009 64.0009 232.668 50.4866C197.326 36.9723 200.313 18.8535 200.313 18.8535C201.444 22.243 203.369 25.3128 205.928 27.8066C208.486 30.3005 211.605 32.1461 215.022 33.1892C227.118 37.2709 242.25 41.9498 254.047 49.6403C262.043 55.2723 269.013 62.2342 274.654 70.223L276.646 51.1088L282.444 52.9754Z" fill="#F5AFA6"></path> <path d="M172.737 24.1544C174.017 27.8857 173.974 31.9439 172.614 35.647C171.254 39.35 168.661 42.472 165.27 44.4882C153 52.0791 136.176 42.9949 118.854 58.3261C107.913 68.3976 98.9999 80.4698 92.5965 93.8914C92.5965 93.8914 90.1077 78.4109 102.801 62.7313C111.137 52.8915 121.784 45.2724 133.787 40.5558C140.57 38.7015 147.561 37.7147 154.593 37.619C165.046 37.6937 172.687 32.0191 172.737 24.1544Z" fill="#F5AFA6"></path> <path d="M283.316 51.6567C273.604 35.1546 257.744 23.1786 239.213 18.3562C207.804 10.0435 198.894 18.8041 202.578 23.6822C206.261 28.5603 216.341 22.5374 238.093 30.1781C259.846 37.8188 275.749 58.3516 275.749 58.3516L276.869 51.0843L284.336 55.2904L283.316 51.6567Z" fill="#4D352C"></path> <path d="M170.547 17.6338C154.418 14.9912 137.877 16.7097 122.637 22.6115C96.9021 32.4175 89.0374 48.6447 89.0374 48.6447L88.6641 53.6223L97.5243 48.8189L92.7209 62.1839C96.2991 54.9986 101.365 48.6571 107.583 43.5807C113.801 38.5043 121.028 34.8093 128.784 32.7411C155.887 25.0008 172.463 26.6683 172.463 26.6683L170.547 17.6338Z" fill="#4D352C"></path> <path d="M274.854 22.4624C274.406 21.7157 236.625 -1.2313 200.637 16.6136C200.637 16.6136 214.375 0.909128 235.48 2.0291C247.552 2.4253 259.207 6.53629 268.856 13.8012L274.854 22.4624Z" fill="#9C6C74"></path> <path d="M167.684 13.3282C168.929 12.6562 150.263 7.67856 130.626 10.8394C117.592 13.3408 105.187 18.4176 94.1395 25.7724C94.1395 25.7724 99.9883 11.5363 120.422 6.35951C140.855 1.18274 153.249 5.36399 154.071 4.81645C154.892 4.2689 167.684 13.3282 167.684 13.3282Z" fill="#9C6C74"></path> <path d="M153.249 71.2184C164.698 59.048 164.051 67.51 152.975 80.3773C141.9 93.2445 145.136 80.004 153.249 71.2184Z" fill="#FCDFD4"></path> <path d="M77.1658 70.1982C83.6617 63.5779 91.2775 67.9831 83.8857 73.4835C78.0209 77.5081 73.5164 83.2189 70.9687 89.8599C68.8034 95.4349 64.0247 91.6021 67.6336 83.9863C69.7782 78.756 73.0302 74.0521 77.1658 70.1982V70.1982Z" fill="#FCDFD4"></path> <path d="M79.2315 108.476C79.2315 108.476 69.4255 121.568 46.0554 149.691C22.6853 177.815 8.59855 196.979 5.63684 210.095C6.66991 193.687 12.484 177.941 22.3618 164.799C34.1357 149.403 47.7891 135.54 63.0043 123.534L79.2315 108.476Z" fill="#FCDFD4"></path> <path d="M329.558 56.7088C323.103 55.7541 316.52 56.1457 310.224 57.859C303.927 59.5723 298.054 62.5702 292.972 66.6641L290.234 61.6864C294.8 56.0205 301.215 52.1433 308.353 50.7355C312.109 50.1273 315.953 50.3467 319.616 51.3785C323.278 52.4102 326.671 54.2294 329.558 56.7088V56.7088Z" fill="#FCDFD4"></path> <path d="M221.817 67.6096C225.289 67.1042 228.832 67.4808 232.12 68.7047C237.646 70.7207 241.876 66.9874 243.843 68.7047C243.901 67.1321 243.447 65.5831 242.549 64.2905C241.652 62.998 240.359 62.0316 238.865 61.5369C237.039 60.6793 235.052 60.2203 233.035 60.1903C231.018 60.1603 229.018 60.5599 227.168 61.3627C225.301 62.2089 221.817 67.6096 221.817 67.6096Z" fill="#48261E"></path> <path d="M131.472 66.1163C131.472 66.1163 133.164 64.9714 136.923 67.0372C138.5 68.062 140.256 68.7798 142.099 69.1527C142.099 69.1527 146.778 66.6639 148.844 67.2861C150.91 67.9083 146.729 62.5821 146.729 62.5821L143.692 60.5165L139.859 60.1431L137.371 60.6906C134.769 61.6554 132.65 63.6041 131.472 66.1163Z" fill="#48261E"></path> <path d="M227.267 79.0583C227.267 79.0583 224.778 76.9428 225.898 74.9269C227.018 72.9109 228.959 76.1962 232.966 75.8477C236.973 75.4993 236.7 73.0354 238.815 73.1847C240.931 73.3341 241.578 77.5153 238.541 78.7348C235.505 79.9543 227.267 79.0583 227.267 79.0583Z" fill="#944C37"></path> <path d="M133.961 76.6195C133.961 76.6195 132.044 72.5378 134.459 71.9156C136.873 71.2933 136.947 73.7573 140.457 74.2551C141.713 74.2799 142.959 74.0247 144.104 73.5081C145.249 72.9915 146.264 72.2264 147.077 71.2684L141.751 77.2665L140.158 77.7145L133.961 76.6195Z" fill="#944C37"></path> <path d="M231.424 66.1415C232.307 65.8975 233.243 65.9213 234.113 66.2098C234.983 66.4982 235.747 67.0384 236.31 67.7618C236.872 68.4852 237.208 69.3594 237.273 70.2735C237.338 71.1876 237.131 72.1005 236.677 72.8967C236.223 73.6928 235.543 74.3363 234.723 74.7456C233.903 75.1549 232.98 75.3117 232.071 75.1959C231.162 75.0802 230.308 74.6972 229.616 74.0955C228.925 73.4938 228.428 72.7005 228.188 71.816C228.026 71.231 227.981 70.6197 228.056 70.0172C228.131 69.4148 228.325 68.8331 228.625 68.3057C228.926 67.7783 229.328 67.3156 229.808 66.9442C230.289 66.5727 230.837 66.2999 231.424 66.1415V66.1415Z" fill="#1A171B"></path> <path d="M232.419 82.8416C229.991 82.8416 227.618 82.1213 225.6 80.7719C223.581 79.4226 222.009 77.5048 221.081 75.2613C220.153 73.0178 219.911 70.5495 220.387 68.1686C220.862 65.7878 222.033 63.6016 223.752 61.8866C225.47 60.1717 227.659 59.005 230.04 58.5344C232.422 58.0638 234.89 58.3103 237.132 59.2428C239.373 60.1753 241.288 61.7519 242.633 63.7729C243.978 65.794 244.694 68.1687 244.689 70.5965C244.682 73.8464 243.387 76.9609 241.086 79.2566C238.786 81.5523 235.669 82.8416 232.419 82.8416V82.8416ZM232.419 60.8154C230.484 60.8154 228.593 61.389 226.985 62.4638C225.376 63.5386 224.123 65.0662 223.382 66.8534C222.642 68.6407 222.448 70.6073 222.826 72.5047C223.203 74.402 224.135 76.1449 225.503 77.5128C226.871 78.8807 228.613 79.8123 230.511 80.1897C232.408 80.5671 234.375 80.3734 236.162 79.6331C237.949 78.8928 239.477 77.639 240.552 76.0305C241.626 74.4221 242.2 72.531 242.2 70.5965C242.2 68.0024 241.17 65.5145 239.335 63.6802C237.501 61.8459 235.013 60.8154 232.419 60.8154V60.8154Z" fill="#3F2018"></path> <path d="M228.213 63.354C229.046 63.1735 229.917 63.3191 230.646 63.7607C231.376 64.2023 231.908 64.9066 232.134 65.7286C232.361 66.5507 232.263 67.4282 231.863 68.1808C231.462 68.9334 230.788 69.504 229.98 69.7753C229.129 70.004 228.221 69.8862 227.456 69.4478C226.691 69.0094 226.131 68.286 225.898 67.4358C225.781 67.0158 225.748 66.5767 225.801 66.1439C225.854 65.7112 225.992 65.2932 226.207 64.9139C226.422 64.5346 226.71 64.2016 227.054 63.9339C227.399 63.6662 227.792 63.4691 228.213 63.354V63.354Z" fill="white"></path> <path d="M139.436 65.6683C139.939 65.4934 140.472 65.425 141.003 65.4676C141.533 65.5102 142.049 65.6628 142.517 65.9157C142.986 66.1685 143.396 66.516 143.723 66.9362C144.049 67.3564 144.285 67.8401 144.414 68.3563C144.724 69.4131 144.625 70.5481 144.136 71.5352C143.648 72.5223 142.805 73.2889 141.776 73.6823C141.273 73.8612 140.739 73.9326 140.207 73.8919C139.676 73.8511 139.158 73.6991 138.689 73.4457C138.22 73.1923 137.809 72.8432 137.483 72.4209C137.158 71.9986 136.924 71.5126 136.798 70.9944C136.482 69.9376 136.578 68.8 137.068 67.8114C137.557 66.8229 138.404 66.0569 139.436 65.6683V65.6683Z" fill="#1A171B"></path> <path d="M139.411 80.9746C136.859 80.9846 134.399 80.0133 132.542 78.2618C131.45 77.2216 130.573 75.9761 129.962 74.5967C129.351 73.2173 129.019 71.731 128.983 70.2229C128.857 67.3014 129.863 64.4438 131.792 62.2459C133.721 60.0481 136.423 58.6796 139.337 58.4258C140.699 58.3379 142.065 58.5313 143.349 58.9937C144.634 59.4561 145.809 60.1777 146.803 61.1138C147.905 62.147 148.787 63.3911 149.399 64.772C150.01 66.153 150.338 67.6427 150.362 69.1527V69.1527C150.495 72.0718 149.495 74.9294 147.57 77.1279C145.645 79.3265 142.945 80.6959 140.034 80.9497L139.411 80.9746ZM139.884 60.8898H139.461C137.193 61.1168 135.098 62.207 133.611 63.935C132.124 65.6629 131.358 67.8962 131.472 70.1731C131.489 71.3502 131.742 72.5121 132.216 73.5895C132.691 74.6669 133.377 75.638 134.235 76.445C134.986 77.1395 135.868 77.6775 136.829 78.0279C137.791 78.3783 138.812 78.534 139.834 78.4858C142.105 78.2647 144.203 77.1761 145.691 75.4468C147.18 73.7175 147.943 71.4808 147.824 69.2025V69.2025C147.812 68.0243 147.562 66.8607 147.087 65.7825C146.612 64.7043 145.923 63.734 145.061 62.9306C143.663 61.6087 141.808 60.8776 139.884 60.8898V60.8898Z" fill="#3F2018"></path> <path d="M136.624 63.3038C136.981 63.1784 137.361 63.1291 137.738 63.1592C138.116 63.1893 138.483 63.2982 138.816 63.4787C139.149 63.6592 139.44 63.9074 139.671 64.2074C139.902 64.5073 140.068 64.8523 140.158 65.2202C140.392 65.9798 140.326 66.8001 139.975 67.5129C139.623 68.2256 139.012 68.7767 138.266 69.053C137.909 69.1745 137.53 69.2208 137.154 69.1889C136.778 69.157 136.412 69.0476 136.08 68.8676C135.748 68.6877 135.457 68.4409 135.225 68.143C134.993 67.8451 134.826 67.5025 134.732 67.1366C134.498 66.377 134.564 65.5567 134.916 64.844C135.267 64.1313 135.879 63.5802 136.624 63.3038V63.3038Z" fill="white"></path> <path d="M250.637 78.2869C251.241 72.1898 249.575 66.0841 245.958 61.1388C244.04 58.7243 241.551 56.8254 238.716 55.6136C237.346 54.9914 235.921 54.4998 234.46 54.1452C232.956 53.8185 231.418 53.6764 229.88 53.7221C226.817 53.867 223.853 54.8577 221.319 56.5842C218.875 58.2871 216.815 60.4829 215.271 63.0303C212.228 68.0072 210.738 73.778 210.99 79.6059C211.305 73.9418 213.192 68.4775 216.441 63.8268C217.894 61.5388 219.881 59.6373 222.23 58.2849C224.58 56.9326 227.222 56.1697 229.93 56.0616C232.604 56.1184 235.232 56.7732 237.62 57.978C240.046 59.0984 242.151 60.8099 243.743 62.9556C246.875 67.3671 248.42 72.7103 248.123 78.1126L250.637 78.2869Z" fill="#1A171B"></path> <path d="M121.865 76.0716C122.674 71.8912 124.064 67.8448 125.997 64.0506C127.784 60.3292 130.75 57.3021 134.434 55.4392C135.372 55.074 136.337 54.7827 137.321 54.5681C138.319 54.4326 139.325 54.3578 140.332 54.3441C142.314 54.3769 144.226 55.0786 145.758 56.3352C148.92 59.2817 151.152 63.0881 152.179 67.2861C152.038 62.6531 150.215 58.23 147.052 54.8419C145.267 53.1259 142.948 52.072 140.482 51.8553C139.29 51.7431 138.09 51.7431 136.898 51.8553C135.711 52.0709 134.546 52.3873 133.413 52.8011C129.032 54.7413 125.497 58.1964 123.458 62.5324C121.335 66.6099 119.96 71.0356 119.401 75.5988L121.865 76.0716Z" fill="#1A171B"></path> <path d="M321.519 108.875C325.661 107.655 329.484 105.541 332.718 102.681C335.952 99.8208 338.518 96.2851 340.235 92.3238C343.001 86.3326 343.785 79.6158 342.473 73.1488C341.162 66.6817 337.824 60.8009 332.943 56.3602C330.31 53.5727 327.123 51.3667 323.587 49.8837C320.051 48.4007 316.244 47.6735 312.41 47.7488C298.249 48.2715 287.522 60.193 286.974 60.6659L290.732 64.0257C290.732 64.0257 300.688 53.1994 312.634 52.7763C315.78 52.744 318.898 53.3668 321.791 54.6051C324.683 55.8434 327.286 57.6701 329.434 59.969C333.55 63.6992 336.372 68.643 337.491 74.0843C338.609 79.5255 337.966 85.1816 335.656 90.2332C333.815 94.7395 330.61 98.5567 326.49 101.15C322.371 103.743 317.543 104.982 312.684 104.693L312.236 109.671C315.353 109.947 318.494 109.677 321.519 108.875Z" fill="#C47466"></path> <path d="M278.761 48.4706C279.892 50.6748 281.138 52.8181 282.494 54.8918C283.863 56.9326 285.307 58.9486 286.601 61.0392C287.895 63.1298 289.264 65.2204 290.807 67.2364C292.337 69.3582 294.117 71.2884 296.108 72.9856C296.038 70.3352 295.543 67.7133 294.64 65.2204C293.767 62.8035 292.727 60.45 291.529 58.1771L289.687 54.8171L287.546 51.5816C286.053 49.491 284.535 47.4004 282.843 45.4591L278.761 48.4706Z" fill="#C47466"></path> <path d="M209.347 11.6611L209.82 6.68345C205.316 6.28524 200.487 6.03631 195.435 5.93676C185.421 5.91594 175.453 7.28972 165.818 10.0185L167.162 14.9961C176.336 12.3993 185.826 11.0843 195.36 11.0887C200.263 11.014 204.992 11.2629 209.347 11.6611Z" fill="#C47466"></path> <path d="M301.36 88.939C303.848 97.849 308.478 105.34 312.883 113.031C317.288 120.721 321.444 128.511 325.476 136.401C329.508 144.291 333.291 152.255 336.825 160.344C340.427 168.34 343.552 176.542 346.183 184.908C350.891 201.724 352.086 219.329 349.693 236.626C347.308 253.992 342.412 270.919 335.158 286.876C331.59 294.908 327.577 302.735 323.137 310.32C320.947 314.128 318.632 317.787 316.243 321.421C313.744 324.96 311.052 328.358 308.179 331.6C296.476 344.533 282.422 355.124 266.765 362.81C251.101 370.634 234.473 376.358 217.312 379.833C200.115 383.362 182.601 385.113 165.046 385.06C156.252 385.06 147.475 384.67 138.715 383.89C130.027 383.254 121.414 381.838 112.98 379.659C96.1361 375.293 80.3815 367.48 66.7126 356.712C53.0942 345.802 41.5671 332.512 32.6903 317.488C23.7612 302.408 16.9762 286.157 12.5308 269.205C10.2508 260.777 8.49692 252.216 7.27931 243.57C6.0227 234.945 5.58106 226.22 5.96023 217.512C6.32488 208.869 7.8484 200.314 10.4899 192.076C13.2044 183.876 17.0944 176.113 22.0381 169.03C31.8441 154.669 45.5077 143.345 58.8479 131.523C62.1829 128.561 65.4433 125.45 68.6539 122.414C71.8645 119.377 75.1249 116.366 78.3604 113.205C81.7417 110.022 84.7402 106.455 87.2953 102.578C90.0773 98.7511 91.465 94.0872 91.2276 89.3621C87.7726 92.2376 84.9723 95.8186 83.0145 99.865C80.6697 103.413 77.9035 106.664 74.7765 109.546C71.6405 112.583 68.3553 115.594 65.1198 118.631C61.8843 121.667 58.6488 124.703 55.3387 127.615C42.1479 139.263 27.9615 150.836 17.5831 165.918C12.2778 173.413 8.08617 181.637 5.13895 190.334C2.28548 199.031 0.611331 208.071 0.161293 217.213C-0.269731 226.268 0.1636 235.344 1.45546 244.317C2.62719 253.253 4.36455 262.106 6.6571 270.823C11.1931 288.291 18.1371 305.044 27.2895 320.599C36.4752 336.294 48.4427 350.184 62.606 361.59C76.9187 372.944 93.4254 381.214 111.088 385.881C119.921 388.186 128.942 389.701 138.042 390.411C147.002 391.232 155.987 391.655 164.972 391.63C182.975 391.601 200.929 389.741 218.556 386.08C236.27 382.411 253.424 376.428 269.577 368.285C285.861 360.214 300.477 349.145 312.659 335.657C315.663 332.228 318.48 328.639 321.096 324.905C323.585 321.072 326.074 317.264 328.214 313.357C332.733 305.581 336.804 297.554 340.409 289.315C347.844 272.839 352.833 255.365 355.218 237.448C357.639 219.404 356.326 201.055 351.36 183.539C348.653 174.914 345.446 166.455 341.753 158.203C338.144 150.015 334.287 141.976 330.18 134.037C326.074 126.097 321.818 118.257 317.388 110.517C315.244 106.592 312.902 102.779 310.369 99.0934C307.736 95.3974 304.716 91.9933 301.36 88.939Z" fill="#C47466"></path> <path d="M71.2672 115.545L74.7266 111.886C69.5748 107.033 64.5722 90.4075 73.7311 77.1669C78.4599 70.3226 86.3495 68.2071 92.0987 67.6346L91.6009 62.657C81.8198 63.6276 74.1791 67.6346 69.5997 74.3296C59.4452 88.9639 63.8007 108.526 71.2672 115.545Z" fill="#C47466"></path> <path d="M300.314 74.0061C303.262 70.2197 307.249 67.3743 311.788 65.8178C314.018 65.1737 316.36 65.0125 318.657 65.345C319.849 65.4784 321.03 65.6945 322.191 65.9921C323.361 66.2907 324.531 66.7388 325.775 67.0374C324.791 66.2233 323.742 65.4908 322.639 64.8472C321.496 64.2283 320.285 63.7438 319.03 63.4037C316.445 62.6569 313.701 62.6569 311.116 63.4037C308.539 64.1448 306.204 65.5528 304.346 67.4854C302.498 69.3033 301.115 71.54 300.314 74.0061V74.0061Z" fill="#C47466"></path> <path d="M220.896 104.195C222.206 106.868 223.256 109.66 224.032 112.533C224.747 115.135 224.875 117.864 224.405 120.522C224.321 121.177 224.162 121.82 223.932 122.438L223.683 123.384L223.235 124.305C222.989 124.935 222.706 125.55 222.389 126.147C221.991 126.719 221.642 127.317 221.269 127.939C220.547 129.158 219.527 130.229 218.78 131.473C218.034 132.717 216.764 133.688 215.794 134.982L215.943 135.206L219.651 132.468C220.799 131.445 221.888 130.356 222.912 129.208C224.951 126.857 226.348 124.02 226.968 120.97C227.484 117.894 227.148 114.735 225.998 111.836C224.884 108.956 223.247 106.306 221.169 104.021L220.896 104.195Z" fill="#C47466"></path> <path d="M116.514 139.213C113.945 137.152 111.586 134.843 109.471 132.319C107.492 130.004 106.04 127.287 105.215 124.355C104.967 123.664 104.808 122.945 104.742 122.215C104.588 121.487 104.521 120.743 104.543 119.999C104.543 119.253 104.543 118.481 104.543 117.735C104.543 116.988 104.742 116.192 104.817 115.42C105.069 113.822 105.427 112.242 105.887 110.691C106.31 109.098 106.982 107.555 107.38 105.838L107.181 105.689C106.36 107.182 105.464 108.626 104.692 110.144L103.722 112.508C103.362 113.305 103.095 114.14 102.925 114.997C101.951 118.297 101.908 121.803 102.801 125.126C103.762 128.424 105.573 131.411 108.052 133.788C110.489 136.163 113.318 138.099 116.415 139.512L116.514 139.213Z" fill="#C47466"></path> <path d="M176.993 41.2528C171.938 44.6885 167.229 48.606 162.931 52.9503C158.6 57.256 154.369 61.6613 150.288 66.1909C146.206 70.7206 142.224 75.3747 138.515 80.2777C134.703 85.1569 131.424 90.43 128.734 96.0071C126.05 101.812 125.183 108.292 126.245 114.599C127.139 120.899 129.796 126.818 133.911 131.672C136.902 135.396 140.79 138.299 145.21 140.109L147.45 140.955C148.197 141.179 148.968 141.354 149.74 141.528C152.818 142.276 156.008 142.445 159.148 142.026C162.246 141.584 165.22 140.508 167.884 138.865C162.107 140.257 156.1 140.401 150.263 139.288L148.172 138.74L146.156 137.919C144.825 137.337 143.536 136.663 142.298 135.903C139.874 134.29 137.709 132.318 135.877 130.054C132.14 125.522 129.759 120.027 129.008 114.2C128.61 111.319 128.61 108.396 129.008 105.514C129.476 102.656 130.313 99.8702 131.497 97.2267C134.057 91.8319 137.186 86.7258 140.83 81.9949C144.414 77.1417 148.297 72.5126 152.304 67.9829C156.311 63.4532 160.492 59.0729 164.748 54.7672C169.186 50.5985 173.28 46.079 176.993 41.2528V41.2528Z" fill="#C47466"></path> <path d="M199.641 133.39C197.805 132.631 195.828 132.275 193.842 132.344C191.914 132.366 189.998 132.642 188.143 133.166C184.345 134.143 180.933 136.252 178.362 139.214V139.438C181.68 137.84 185.137 136.549 188.69 135.58C192.225 134.536 195.864 133.885 199.542 133.639L199.641 133.39Z" fill="#C47466"></path> <path d="M250.911 78.2368C244.27 78.0505 237.624 78.2166 231 78.7346C224.4 79.1565 217.829 79.9375 211.314 81.0741C224.555 82.257 237.9 81.299 250.836 78.2368H250.911Z" fill="#C47466"></path> <path d="M142.647 77.3408C140.681 77.1915 138.715 76.8182 136.773 76.6689C134.832 76.5196 132.866 76.2956 130.925 76.1213C127.017 75.8476 123.209 75.5489 119.127 75.524C122.737 77.3515 126.686 78.4108 130.725 78.6351C132.73 78.7844 134.744 78.7844 136.748 78.6351C138.775 78.5503 140.771 78.1123 142.647 77.3408V77.3408Z" fill="#C47466"></path> <path d="M272.663 71.8406C272.514 71.6415 258.676 51.5318 237.82 43.8413C233.539 42.2484 229.582 40.8796 225.973 39.6103C210.492 34.2593 201.085 31.0238 198.596 22.1884C198.154 20.4219 198.189 18.5701 198.696 16.8214C199.203 15.0726 200.165 13.4895 201.483 12.2331C208.203 4.49286 225.824 -2.20205 245.187 0.684994C261.588 3.17382 274.58 12.1087 278.238 23.6071L279.458 27.4399L271.369 26.2453C276.347 32.6664 284.162 43.9906 285.357 54.1948L285.904 58.9734L278.935 55.2401C278.637 59.3218 278.089 65.7928 277.218 70.8202L276.148 76.9427L272.663 71.8406ZM279.184 49.7149C275.227 37.5445 263.48 24.6773 263.33 24.528L258.527 19.3015L271.618 21.2178C267.512 14.4482 258.278 7.72841 244.44 5.68757C227.491 3.19874 211.214 8.72394 205.291 15.6429C204.578 16.2916 204.036 17.1048 203.711 18.0116C203.385 18.9183 203.287 19.891 203.424 20.8445C205.316 27.1911 213.728 30.103 227.69 34.9313C231.324 36.2006 235.331 37.5944 239.637 39.1872C255.54 45.0857 267.387 57.3556 273.086 64.1999C273.808 57.7787 274.132 51.2331 274.132 51.1585L274.331 47.2012L279.184 49.7149Z" fill="#513039"></path> <path d="M91.9493 76.8184C89.6821 69.7374 89.4835 62.1564 91.3769 54.9664L86.7477 57.3059L86.1752 53.946C84.6073 44.4636 90.6303 35.3545 95.9812 29.3813L90.2071 30.9741L90.9787 26.992C91.1031 26.2951 94.5875 9.89376 125.822 2.50193C146.753 -2.47573 159.347 3.54721 164.972 7.60401C169.949 11.0884 173.259 15.7673 173.583 19.4757C175.226 36.8975 163.852 38.1669 151.806 39.5108C144.503 40.0188 137.308 41.5433 130.427 44.0404C109.097 52.5522 96.7279 76.9677 96.6034 77.2166L93.7911 82.916L91.9493 76.8184ZM151.258 34.5083C163.951 33.1145 169.75 32.4674 168.68 19.9486C168.531 18.4055 166.689 14.9709 162.134 11.6856C157.157 8.15151 146.081 2.87524 127.067 7.38002C109.197 11.6359 101.457 18.9033 98.2212 23.5574L116.813 18.4304L106.633 26.2702C106.484 26.3947 92.0738 37.6193 91.1031 49.5408L103.547 43.2689L98.4452 51.0839C95.5036 56.6372 94.4716 63.0044 95.5084 69.2026C100.735 60.9147 112.009 46.0067 128.635 39.3366C130.67 38.5285 132.747 37.8306 134.857 37.246C140.242 35.8947 145.726 34.9792 151.258 34.5083V34.5083Z" fill="#513039"></path> <path d="M122.736 133.016C125.866 132.09 129.153 131.822 132.391 132.229C135.63 132.636 138.749 133.709 141.552 135.38L140.307 137.546C138.938 136.923 137.619 136.252 136.226 135.729C134.82 135.183 133.382 134.726 131.92 134.36C128.914 133.591 125.836 133.14 122.736 133.016V133.016Z" fill="#C47466"></path> </g> <defs> <clipPath id="clip0_133_947"> <rect width="356" height="156" fill="white"></rect> </clipPath> </defs> </svg> 