<?xml version="1.0" encoding="UTF-8"?> <svg xmlns="http://www.w3.org/2000/svg" width="805" height="230" viewBox="0 0 805 230" fill="none"> <g clip-path="url(#clip0_312_788)"> <path fill-rule="evenodd" clip-rule="evenodd" d="M594.698 173.746C567.166 173.746 550.061 157.754 550.061 131.997C550.061 105.232 565.844 88.6015 591.256 88.6015L593.404 88.5895C596.581 88.5895 600.973 88.6899 606.967 89.4532V57.1604H624.947V170.842C624.947 170.842 607.873 173.746 594.698 173.746ZM594.542 102.782C577.144 102.782 568.685 112.193 568.685 131.551C568.685 148.921 578.883 159.711 595.291 159.711C598.441 159.711 602.051 159.514 606.967 159.08V103.93C602.047 103.147 598.096 102.782 594.542 102.782Z" fill="black"></path> <path fill-rule="evenodd" clip-rule="evenodd" d="M348.704 171.153L300.184 86.2615L300.172 171.153H283.266V63.698H306.927L355.448 147.83L355.428 63.698H372.549V171.153H348.704Z" fill="black"></path> <path fill-rule="evenodd" clip-rule="evenodd" d="M503.226 172.801C495.06 172.801 486.537 171.885 476.392 169.928L475.314 169.715V154.704L476.921 155.057C485.852 156.961 493.574 158.608 501.287 158.608C507.534 158.608 522.063 157.612 522.063 148.413C522.063 140.689 512.022 138.756 503.952 137.21L503.447 137.109C501.948 136.812 500.53 136.531 499.316 136.226C487.487 133.145 474.869 128.525 474.869 112.63C474.869 97.1321 487.11 88.2424 508.452 88.2424C518.689 88.2424 526.126 89.3511 532.097 90.2429L535.018 90.6808V105.23L533.459 104.961C526.699 103.712 518.777 102.431 511.144 102.431C502.686 102.431 492.608 104.017 492.608 111.581C492.608 117.848 500.842 119.643 510.379 121.72C523.702 124.629 540.239 128.248 540.239 146.473C540.239 163.204 526.747 172.801 503.226 172.801Z" fill="black"></path> <path fill-rule="evenodd" clip-rule="evenodd" d="M675.366 172.801C656.757 172.801 639.543 169.523 639.543 145.726C639.543 119.832 666.17 119.832 682.081 119.832C683.672 119.832 691.149 120.174 693.453 120.278C693.433 105.753 693.237 102.286 672.224 102.286C663.894 102.286 654.638 103.945 646.471 105.407L644.913 105.688V91.3395L645.979 91.1226C655.439 89.1864 664.563 88.2424 673.867 88.2424C694.235 88.2424 711.493 90.3032 711.493 115.626V170.868L710.25 170.997C696.146 172.584 684.938 172.801 675.366 172.801ZM681.629 132.638C666.29 132.638 656.785 134.9 656.785 146.168C656.785 159.203 668.919 160.292 680.29 160.292C684.55 160.292 692.191 159.749 694.527 159.572V133.08C691.229 132.956 682.666 132.638 681.629 132.638Z" fill="black"></path> <path fill-rule="evenodd" clip-rule="evenodd" d="M423.353 172.801C404.745 172.801 387.531 169.523 387.531 145.726C387.531 119.832 414.157 119.832 430.069 119.832C431.655 119.832 439.137 120.174 441.441 120.278C441.42 105.753 441.224 102.286 420.212 102.286C411.881 102.286 402.629 103.945 394.459 105.407L392.9 105.688V91.3395L393.966 91.1226C403.43 89.1864 412.55 88.2424 421.854 88.2424C442.222 88.2424 459.48 90.3032 459.48 115.626V170.868L458.238 170.997C444.133 172.584 432.926 172.801 423.353 172.801ZM429.616 132.638C414.277 132.638 404.773 134.9 404.773 146.168C404.773 159.203 416.906 160.292 428.278 160.292C432.537 160.292 440.178 159.749 442.514 159.572V133.08C439.217 132.956 430.654 132.638 429.616 132.638Z" fill="black"></path> <path fill-rule="evenodd" clip-rule="evenodd" d="M783.014 207.651V172.41C775.998 173.398 772.267 173.398 769.262 173.398C762.154 173.398 754.252 171.848 748.126 169.245C734.442 163.549 726.271 149.047 726.271 130.448C726.271 121.149 728.527 104.177 743.63 95.0305C751.191 90.4912 760.15 88.551 773.59 88.551C778.414 88.551 784.917 88.9246 791.2 89.2902L801.394 89.8164V199.493L783.014 207.651ZM772.243 102.735C754.008 102.735 744.752 112.059 744.752 130.448C744.752 154.101 758.564 159.066 770.16 159.066C772.977 159.066 776.158 159.066 783.178 158.178V103.245C777.677 102.872 775.152 102.735 772.243 102.735Z" fill="black"></path> <path fill-rule="evenodd" clip-rule="evenodd" d="M203.027 0.000732422H266.978L207.567 163.626C205.988 168.016 201.781 171.154 196.856 171.154H134.059V171.057C138.475 170.611 142.157 167.663 143.616 163.626L203.027 0.000732422ZM128.951 168.654C124.519 168.654 120.725 165.971 119.066 162.143L106.267 126.941L128.053 66.9273C128.414 65.8307 129.263 64.5493 129.468 64.2681C131.423 61.5164 134.625 59.7208 138.247 59.7208C142.723 59.7208 146.566 62.4564 148.192 66.3489L160.939 101.409L139.145 161.448C138.648 162.817 137.935 163.822 137.73 164.107C135.775 166.855 132.577 168.654 128.951 168.654ZM133.603 57.2114V57.2476C128.887 57.4444 124.892 60.4853 123.362 64.7353L63.9543 228.356H-0.000976562L59.4063 64.7353C60.9931 60.3447 65.1924 57.2114 70.121 57.2114H133.603Z" fill="#0090BA"></path> </g> <defs> <clipPath id="clip0_312_788"> <rect width="805" height="230" fill="white"></rect> </clipPath> </defs> </svg> 