<?xml version="1.0" encoding="UTF-8"?> <svg xmlns="http://www.w3.org/2000/svg" width="168" height="69" viewBox="0 0 168 69" fill="none"> <path fill-rule="evenodd" clip-rule="evenodd" d="M16.0523 0.0651036C15.2874 0.246263 14.7709 1.12731 14.9786 1.89654C15.15 2.5312 15.787 3.03162 16.4338 3.03973C16.7816 3.04407 17.3015 3.27592 17.5362 3.53123C17.7596 3.77417 17.849 4.01285 17.9238 4.56613C17.9923 5.07249 18.1113 5.33736 18.38 5.58102C18.8313 5.99041 18.9608 6.01219 20.9448 6.01219C22.6113 6.01219 22.8362 5.99636 23.1041 5.86003C23.6288 5.59299 23.9267 5.1133 23.9267 4.5352C23.9267 4.08378 23.8159 3.78646 23.5388 3.49452C23.0879 3.01916 23.002 3.00181 20.9859 2.97795C19.9667 2.96582 19.0541 2.93867 18.9578 2.91754C18.4875 2.8143 17.9718 2.08525 17.9646 1.51333C17.9567 0.884618 17.4593 0.238309 16.8543 0.0708075C16.518 -0.0223027 16.4243 -0.0229454 16.0523 0.0651036ZM36.9883 0.0760295C36.5669 0.202319 36.3465 0.379139 36.1093 0.781626C35.892 1.14997 35.8908 1.1613 35.8507 3.0799C35.8167 4.70696 35.7886 5.04774 35.6707 5.26273C35.3826 5.78773 34.659 6.08778 34.0653 5.92839C33.3679 5.74113 33.0624 5.35624 32.9428 4.51391C32.8488 3.85153 32.6397 3.50215 32.175 3.23061C31.1639 2.63973 30.0453 3.26652 29.8906 4.51061C29.7736 5.45087 29.3431 5.86163 28.3235 6.0056C27.6759 6.0971 27.3224 6.33329 27.077 6.83877C26.9204 7.1614 26.9077 7.32264 26.9077 8.98464C26.9077 10.6517 26.8953 10.8071 26.7368 11.1336C26.3246 11.9826 25.1553 12.2049 24.4633 11.5658C24.1397 11.267 24.0189 10.9994 23.9323 10.3896C23.8428 9.75973 23.5961 9.38705 23.1025 9.13592C22.6181 8.88952 21.941 8.94881 21.5395 9.27289C20.9495 9.74896 20.9456 9.77033 20.9456 12.5236C20.9456 13.9466 20.9088 15.181 20.8581 15.457C20.6771 16.442 20.1014 17.1903 19.1756 17.6436C18.7626 17.8459 18.6424 17.8639 17.5341 17.8895C16.8762 17.9047 16.2157 17.8941 16.066 17.8662C15.5149 17.763 14.9854 17.0857 14.9818 16.4792C14.9783 15.8715 14.5819 15.2971 13.9981 15.0539C13.5636 14.8728 10.361 14.8728 9.92652 15.0539C9.35062 15.2938 8.94455 15.8737 8.94455 16.456C8.94455 17.0789 9.4444 17.7304 10.0513 17.8985C10.2161 17.9441 11.119 17.9816 12.0578 17.9819C13.0641 17.9822 13.8577 18.0174 13.9914 18.0676C14.3087 18.1869 14.7244 18.6071 14.8154 18.9004C14.8574 19.0362 14.9158 19.3361 14.945 19.567C15.0436 20.346 15.7008 20.9487 16.4566 20.953C16.8848 20.9555 17.2397 21.1234 17.5417 21.4665C17.8534 21.8204 17.9147 22.0319 17.868 22.5927C17.8057 23.3416 17.3352 23.7663 16.4414 23.8805C15.9011 23.9495 15.6421 24.0799 15.3213 24.4443C14.4793 25.4005 15.0529 26.7161 16.3943 26.9056C16.9931 26.9901 17.1803 27.0679 17.4995 27.3646C17.7397 27.588 17.8421 27.8525 17.9256 28.4652C17.9907 28.9431 18.1131 29.1953 18.4207 29.4854C18.7013 29.7502 18.9191 29.8343 19.5115 29.9069C20.7686 30.0607 21.3447 31.3651 20.5642 32.2901C20.1414 32.791 19.9016 32.8411 17.9243 32.8411C16.3709 32.8411 16.1112 32.8227 15.8232 32.6923C15.2747 32.4439 15.0585 32.0613 14.9405 31.1312C14.8838 30.6841 14.4751 30.1623 14.0395 29.9804C13.7283 29.8505 13.2256 29.8403 12.9142 29.9577C12.3884 30.1557 11.9272 30.8376 11.9238 31.4219C11.9219 31.7537 11.7055 32.2425 11.4644 32.46C11.2382 32.6639 10.7565 32.8446 10.4393 32.8446C9.86319 32.8446 9.36343 33.1877 9.09376 33.7685C8.96284 34.0505 8.94455 34.3062 8.94455 35.8573C8.94455 37.406 8.96292 37.6644 9.09328 37.946C9.35029 38.5013 9.91322 38.8699 10.5043 38.8699C11.062 38.8699 11.4895 39.1471 11.7687 39.6901C11.9059 39.9568 11.922 40.1768 11.922 41.7819C11.922 43.4838 11.9313 43.5938 12.1033 43.9295C12.4467 44.5996 13.0836 44.9168 13.812 44.7806C14.3885 44.6727 14.9756 43.925 14.9836 43.2884C14.9855 43.1337 15.0543 42.8598 15.1364 42.6795C15.3841 42.1356 15.7716 41.9161 16.6851 41.8018C17.3484 41.7189 17.9646 41.0252 17.9646 40.3615C17.9646 40.0336 18.143 39.5549 18.3504 39.3262C18.9848 38.6267 20.2358 38.7715 20.7039 39.5985V39.5985C20.836 39.8318 20.9054 40.0952 20.9054 40.3631V44.1721V47.8918C20.9054 48.2207 20.8419 48.5465 20.7184 48.8515V48.8515C20.4583 49.4938 19.8522 50.1308 19.1937 50.454C18.673 50.7097 18.6366 50.7154 17.2865 50.7572C16.0187 50.7965 15.8898 50.8143 15.6518 50.9836C14.6384 51.7044 14.7116 53.0333 15.7973 53.6234C16.0411 53.7559 16.2712 53.7723 17.8841 53.7723C18.8811 53.7723 19.7938 53.7453 19.9122 53.7121C20.4366 53.5655 20.9441 52.8778 20.9474 52.3094C20.9512 51.661 21.4404 51.0141 22.0559 50.8436C22.4405 50.7371 23.857 50.7356 24.4192 50.8412C25.8787 51.1151 26.7697 52.1675 26.9084 53.7808C26.9933 54.7688 27.2785 55.3877 27.9169 55.9696C28.4685 56.4723 29.0306 56.6886 30.0295 56.7829C30.9385 56.8686 31.483 57.102 32.0175 57.6349C32.5347 58.1507 32.7882 58.7398 32.8746 59.6266C32.9139 60.0299 32.9815 60.4804 33.025 60.6278C33.2406 61.3587 33.9308 62.1148 34.7087 62.4725C35.1274 62.665 35.2813 62.6865 36.5355 62.728C37.3617 62.7554 37.9727 62.8113 38.0754 62.8691C38.2934 62.9915 38.7236 63.4789 38.7813 63.6685C38.8057 63.7488 38.8619 64.0442 38.9061 64.325C39.0031 64.9399 39.2743 65.3337 39.7489 65.5486C40.7403 65.9976 41.7659 65.384 41.8986 64.2628C41.9728 63.6347 42.1795 63.238 42.5649 62.9838V62.9838C42.7762 62.8444 43.024 62.77 43.2774 62.77H45.7548H48.1158C48.4484 62.77 48.7768 62.843 49.078 62.9837V62.9837C49.7179 63.2829 50.2238 63.7767 50.5339 64.4048C50.7902 64.9239 50.7963 64.9619 50.839 66.3025C50.8641 67.0878 50.9214 67.739 50.9737 67.8312C51.1182 68.086 51.5808 68.4964 51.8286 68.5895C52.3456 68.7839 52.9648 68.6621 53.3613 68.288C53.8048 67.8696 53.8508 67.6954 53.8962 66.2629C53.9373 64.9667 53.9444 64.9231 54.2001 64.4053C54.511 63.7756 55.0176 63.2817 55.6563 62.9854C56.0777 62.79 56.221 62.77 57.4832 62.7305C58.3113 62.7046 58.9194 62.65 59.0209 62.5925C59.3058 62.4312 59.7603 61.8765 59.8062 61.6342C59.83 61.5078 59.8719 61.2352 59.8991 61.0286C59.9648 60.5302 60.225 60.1589 60.6632 59.9382C61.0086 59.7642 61.1027 59.7574 63.1674 59.7574C65.503 59.7574 66.2488 59.8141 70.5639 60.3193L72.2372 60.5152C72.9636 60.6002 73.6982 60.5863 74.4208 60.4737L74.6113 60.444C75.3151 60.3344 76.0001 60.1883 76.1336 60.1195C76.4097 59.9771 77.1988 59.0622 77.4303 58.6158C77.6292 58.2325 77.6243 58.0005 77.3825 56.3037C77.2723 55.531 77.1821 54.6185 77.1821 54.2761V54.2761C77.1821 53.8741 77.3249 53.4851 77.5853 53.1781L77.8221 52.8988C78.1741 52.4837 78.5366 52.0224 78.6275 51.8737C78.8678 51.4806 78.8435 50.9513 78.5518 50.2247C78.4188 49.8937 78.3101 49.4994 78.3101 49.3485C78.3101 49.1976 78.4519 48.702 78.6254 48.2473C79.1216 46.9461 79.1219 46.9607 78.5504 45.1273L78.4018 44.6506C78.3266 44.4093 78.3462 44.1485 78.4566 43.921V43.921C78.5512 43.7262 79.0506 43.1156 79.5666 42.564C80.0825 42.0125 80.5366 41.4774 80.5756 41.3752C80.7058 41.0337 80.66 39.976 80.505 39.745C80.4278 39.6298 79.3313 38.334 78.0684 36.8653C76.8054 35.3968 75.7209 34.0992 75.6583 33.9819C75.5144 33.7123 75.4173 33.1998 75.0469 30.7561C74.8829 29.6737 74.6934 28.6796 74.6259 28.5469C74.5585 28.4141 73.6945 26.8583 72.7059 25.0892L71.4675 22.8731C71.0968 22.2097 70.8223 21.4971 70.6522 20.7567L70.4109 19.7067C70.1372 18.5153 69.8453 17.3594 69.7624 17.1381C69.5893 16.6761 68.6143 15.5545 66.6391 13.5455C65.3417 12.2259 64.972 11.9619 64.4068 11.951C63.5132 11.9337 62.9924 11.4161 62.8483 10.4019C62.7262 9.5417 62.1608 8.98464 61.4098 8.98464C61.2391 8.98464 60.9145 8.89242 60.6863 8.77898C60.3486 8.61124 60.2345 8.4974 60.0662 8.16071C59.9522 7.93263 59.86 7.6096 59.86 7.43848C59.86 6.91043 59.545 6.42271 59.0374 6.16434C58.7938 6.04038 58.5616 6.01219 57.7832 6.01219C57.2579 6.01219 56.6143 5.97282 56.3532 5.9247C55.3822 5.74571 54.5995 5.15427 54.1766 4.27997C53.9583 3.82856 53.9436 3.7295 53.9013 2.4372C53.8503 0.879316 53.7891 0.694542 53.1834 0.270123C52.8909 0.0651038 52.7677 0.0297554 52.3647 0.0352182C51.5033 0.0469474 50.9559 0.593076 50.8355 1.56057C50.7223 2.47054 50.2102 2.9606 49.3752 2.95811C48.5424 2.95554 48.0106 2.44042 47.9036 1.53302C47.8328 0.931856 47.5758 0.500689 47.1348 0.24305C45.6741 -0.610608 44.1305 1.24461 45.2616 2.49448C45.6027 2.87134 45.9461 3.03901 46.3824 3.0415C46.8531 3.04423 47.3295 3.30058 47.5882 3.6903C47.7752 3.97212 47.8151 4.11897 47.8151 4.52596C47.8151 5.11756 47.5967 5.49811 47.0913 5.787C46.7798 5.96511 46.6998 5.97202 44.9549 5.97202C43.9579 5.97202 43.0452 5.94494 42.9268 5.91176C42.6454 5.83312 42.2403 5.48944 42.0922 5.20384C42.0275 5.07916 41.9405 4.73748 41.899 4.44466C41.7754 3.57477 41.2977 3.09661 40.4484 2.99273C39.4225 2.86725 39.0377 2.48147 38.9093 1.44947C38.8392 0.885903 38.5803 0.470483 38.138 0.211959C37.8324 0.0334512 37.3291 -0.0260784 36.9883 0.0760295ZM32.2309 12.247C32.7442 12.546 33.0146 13.4132 32.7837 14.0205C32.5154 14.7269 31.5464 15.1234 30.8328 14.8189C30.2856 14.5856 29.9683 14.0698 29.9705 13.418C29.9746 12.2922 31.2096 11.6523 32.2309 12.247ZM56.112 15.1936C57.062 15.7302 57.024 17.2629 56.049 17.7336C55.4762 18.0101 54.8063 17.9379 54.3937 17.5552C53.6142 16.8322 53.7997 15.544 54.7439 15.1237C55.1263 14.9536 55.7426 14.9851 56.112 15.1936ZM3.99711 20.9922C3.06607 21.3231 2.68804 22.394 3.21158 23.2171C3.70626 23.9949 4.82455 24.1538 5.50237 23.5426C5.92358 23.1628 6.09752 22.2564 5.84325 21.7661C5.67357 21.4389 5.20491 21.0567 4.85436 20.9596C4.46932 20.853 4.37893 20.8565 3.99711 20.9922ZM10.2704 20.9114C10.2261 20.9276 10.0929 20.962 9.97445 20.9879C9.66161 21.0564 9.26256 21.4216 9.09248 21.795C8.96333 22.0785 8.94431 22.347 8.94278 23.9097C8.94085 25.8891 8.9684 26.0327 9.43497 26.473C10.0837 27.0853 10.9967 27.0501 11.5775 26.3905C11.9704 25.9443 12.0167 25.6396 11.988 23.6839L11.9684 22.3497C11.9644 22.0777 11.878 21.8133 11.7206 21.5912V21.5912C11.5877 21.4037 11.352 21.1862 11.1969 21.1078C10.91 20.9628 10.4164 20.8582 10.2704 20.9114ZM19.8927 24.006C20.202 24.0944 20.5807 24.4211 20.7511 24.746C20.8134 24.865 20.8984 25.202 20.94 25.4948C21.0248 26.0915 21.2682 26.4863 21.6951 26.719C21.9133 26.8381 22.2483 26.8657 23.8864 26.8997C26.0839 26.9453 26.2687 26.9901 26.653 27.5692C26.8262 27.8302 26.8673 27.9858 26.8669 28.3801C26.8663 29.0366 26.6317 29.4189 26.0694 29.68C25.6776 29.862 25.5799 29.8706 23.9223 29.8714C22.22 29.8722 22.1777 29.8682 21.7719 29.6665C21.4343 29.4988 21.3201 29.3849 21.1519 29.0482C21.0381 28.8207 20.9456 28.4971 20.9456 28.3268C20.9456 27.5522 20.3493 26.9775 19.4393 26.8751C18.6955 26.7913 18.2161 26.4238 18.0419 25.8035C17.8484 25.1141 18.1548 24.4101 18.7838 24.0997C19.1661 23.911 19.4706 23.8853 19.8927 24.006ZM37.8067 26.9849C38.4581 27.1653 38.8595 27.7424 38.8447 28.4774C38.8288 29.2699 38.3002 29.7536 37.3175 29.8751C36.4436 29.9832 35.995 30.4633 35.8564 31.4387C35.7714 32.0378 35.622 32.3019 35.2099 32.5816C33.9564 33.4324 32.4402 32.0396 33.1315 30.6725C33.3549 30.2308 33.7804 29.9799 34.4642 29.8866C35.3391 29.7673 35.9313 29.1616 35.9313 28.3859C35.9313 27.9945 36.2015 27.4288 36.4821 27.2331C36.9289 26.9212 37.3154 26.8489 37.8067 26.9849ZM56.0705 27.0991C56.8351 27.4934 57.0469 28.6895 56.4684 29.3464C55.5785 30.3572 53.9015 29.7296 53.9015 28.3859C53.9015 27.7502 54.3256 27.1676 54.9285 26.975C55.2124 26.8843 55.7718 26.9451 56.0705 27.0991ZM14.1777 33.0855C14.9519 33.4794 15.1546 34.6803 14.5552 35.3228C13.3967 36.5648 11.4202 35.2197 12.1611 33.6935C12.5046 32.9859 13.4322 32.7063 14.1777 33.0855ZM50.1569 33.1247C50.7716 33.4839 51.0152 34.3494 50.6838 34.9968C50.3026 35.7416 50.0411 35.8171 47.8431 35.8171C46.1905 35.8171 46.0264 35.8042 45.7043 35.6487C45.3458 35.4757 45.0281 35.0452 44.9219 34.589C44.8533 34.2943 45.0033 33.7501 45.2387 33.4398C45.6032 32.959 45.7595 32.9288 47.8885 32.9268C49.7968 32.925 49.8184 32.9269 50.1569 33.1247ZM1.03842 35.8939C0.677873 36.0028 0.401203 36.2297 0.189389 36.59C-0.0120307 36.9327 -0.0149308 36.9614 0.0119789 38.3259C0.0418696 39.8441 0.0869875 40.0116 0.661357 40.7394C1.29631 41.544 2.11456 41.8423 3.6858 41.8423C5.0113 41.8423 5.3509 41.7242 5.72739 41.1322C5.99246 40.7155 6.04564 40.0698 5.84631 39.6893C5.58173 39.1842 4.9421 38.7895 4.38827 38.7895C4.01911 38.7895 3.52192 38.5362 3.31084 38.2406C3.14889 38.0139 3.02659 37.6088 2.93458 36.9948C2.9034 36.7864 2.78255 36.5719 2.56204 36.3333C2.13454 35.8708 1.61262 35.7204 1.03842 35.8939ZM32.0062 36.008C32.9504 36.4109 33.1711 37.6992 32.4163 38.4028C32.1271 38.6725 31.823 38.7895 31.4117 38.7895C30.2821 38.7895 29.591 37.5593 30.1685 36.5767C30.5132 35.9901 31.3542 35.7299 32.0062 36.008ZM31.963 44.9384C32.3457 45.0978 32.5287 45.2668 32.7171 45.635C33.0196 46.2261 32.8341 47.0911 32.3277 47.4501C31.8948 47.757 31.5405 47.8011 29.7276 47.7734C27.7952 47.744 27.6694 47.7137 27.2604 47.179C27.0313 46.8794 26.9162 46.2366 27.0189 45.8289C27.0949 45.5267 27.468 45.1302 27.8309 44.9658C28.1144 44.8374 28.3832 44.8181 29.9114 44.8166C31.3114 44.8151 31.7264 44.8398 31.963 44.9384ZM9.86754 53.846C9.36786 54.0685 8.93916 54.7314 8.94278 55.2761C8.94528 55.6447 9.19327 56.1496 9.49717 56.4046C10.603 57.3324 12.3014 56.2618 11.9265 54.8733C11.6927 54.0076 10.661 53.4929 9.86754 53.846ZM44.0146 53.9221C44.1592 53.9823 44.3725 54.1441 44.4885 54.2816C45.5269 55.5121 44.1773 57.2381 42.725 56.537C41.6626 56.0242 41.6577 54.4665 42.717 53.9459C43.0413 53.7866 43.6618 53.7751 44.0146 53.9221ZM24.9438 59.7951C24.7721 59.8561 24.5099 60.0237 24.3612 60.1674C23.6838 60.822 23.8163 61.9343 24.6386 62.4961C25.0595 62.7837 25.7887 62.7712 26.2473 62.4687C27.2183 61.8279 27.1301 60.4038 26.0873 59.8857C25.6162 59.6516 25.3965 59.6342 24.9438 59.7951Z" fill="url(#paint0_linear_523_905)"></path> <mask id="mask0_523_905" style="mask-type:alpha" maskUnits="userSpaceOnUse" x="0" y="0" width="81" height="69"> <path fill-rule="evenodd" clip-rule="evenodd" d="M16.0523 0.0651036C15.2874 0.246263 14.7709 1.12731 14.9786 1.89654C15.15 2.5312 15.787 3.03162 16.4338 3.03973C16.7816 3.04407 17.3016 3.27592 17.5362 3.53123C17.7596 3.77417 17.849 4.01285 17.9238 4.56613C17.9923 5.07249 18.1113 5.33736 18.38 5.58102C18.8313 5.99041 18.9608 6.01219 20.9448 6.01219C22.6113 6.01219 22.8363 5.99636 23.1041 5.86003C23.6288 5.59299 23.9267 5.1133 23.9267 4.5352C23.9267 4.08378 23.8159 3.78646 23.5388 3.49452C23.0879 3.01916 23.002 3.00181 20.9859 2.97795C19.9667 2.96582 19.0541 2.93867 18.9578 2.91754C18.4875 2.8143 17.9718 2.08525 17.9646 1.51333C17.9567 0.884618 17.4593 0.238309 16.8543 0.0708074C16.518 -0.0223027 16.4243 -0.0229454 16.0523 0.0651036ZM36.9883 0.0760295C36.5669 0.202319 36.3465 0.379139 36.1093 0.781626C35.8921 1.14997 35.8908 1.1613 35.8507 3.0799C35.8167 4.70696 35.7886 5.04774 35.6707 5.26273C35.3826 5.78773 34.659 6.08778 34.0653 5.92839C33.3679 5.74113 33.0624 5.35624 32.9428 4.51391C32.8488 3.85153 32.6397 3.50215 32.175 3.23061C31.1639 2.63973 30.0453 3.26652 29.8906 4.51061C29.7736 5.45087 29.3431 5.86163 28.3235 6.0056C27.6759 6.0971 27.3224 6.33329 27.077 6.83877C26.9204 7.1614 26.9077 7.32264 26.9077 8.98464C26.9077 10.6517 26.8953 10.8071 26.7368 11.1336C26.3246 11.9826 25.1553 12.2049 24.4633 11.5658C24.1397 11.267 24.0189 10.9994 23.9323 10.3896C23.8428 9.75973 23.5961 9.38705 23.1025 9.13592C22.6181 8.88952 21.941 8.94881 21.5395 9.27289C20.9495 9.74896 20.9456 9.77033 20.9456 12.5236C20.9456 13.9466 20.9088 15.181 20.8581 15.457C20.6771 16.442 20.1014 17.1903 19.1756 17.6436C18.7627 17.8459 18.6424 17.8638 17.5341 17.8895C16.8762 17.9047 16.2157 17.8941 16.066 17.8662C15.5149 17.763 14.9854 17.0857 14.9818 16.4792C14.9783 15.8715 14.5819 15.2971 13.9981 15.0539C13.5636 14.8728 10.361 14.8728 9.92652 15.0539C9.35062 15.2938 8.94455 15.8737 8.94455 16.456C8.94455 17.0789 9.4444 17.7304 10.0513 17.8985C10.2161 17.9441 11.119 17.9816 12.0578 17.9819C13.0641 17.9822 13.8577 18.0174 13.9914 18.0676C14.3087 18.1869 14.7244 18.6071 14.8154 18.9004C14.8574 19.0362 14.9158 19.3361 14.945 19.567C15.0436 20.346 15.7008 20.9487 16.4566 20.953C16.8848 20.9555 17.2397 21.1234 17.5417 21.4665C17.8534 21.8204 17.9147 22.0319 17.868 22.5927C17.8057 23.3416 17.3352 23.7663 16.4414 23.8805C15.9011 23.9495 15.6421 24.0799 15.3213 24.4443C14.4793 25.4005 15.0529 26.7161 16.3943 26.9056C16.9931 26.9901 17.1803 27.0679 17.4995 27.3646C17.7397 27.588 17.8421 27.8525 17.9256 28.4652C17.9907 28.9431 18.1131 29.1953 18.4207 29.4854C18.7013 29.7502 18.9191 29.8343 19.5115 29.9069C20.7686 30.0607 21.3447 31.3651 20.5642 32.2901C20.1414 32.791 19.9016 32.8411 17.9243 32.8411C16.3709 32.8411 16.1112 32.8227 15.8232 32.6923C15.2747 32.4439 15.0585 32.0613 14.9405 31.1312C14.8838 30.6841 14.4751 30.1623 14.0395 29.9804C13.7283 29.8505 13.2256 29.8403 12.9142 29.9576C12.3884 30.1557 11.9272 30.8376 11.9238 31.4219C11.9219 31.7537 11.7055 32.2425 11.4644 32.46C11.2382 32.6639 10.7565 32.8446 10.4393 32.8446C9.86319 32.8446 9.36343 33.1877 9.09377 33.7685C8.96284 34.0505 8.94455 34.3062 8.94455 35.8573C8.94455 37.406 8.96292 37.6644 9.09328 37.946C9.35029 38.5013 9.91322 38.8699 10.5043 38.8699C11.062 38.8699 11.4895 39.1471 11.7687 39.6901C11.9059 39.9568 11.922 40.1768 11.922 41.7819C11.922 43.4838 11.9313 43.5938 12.1033 43.9295C12.4467 44.5996 13.0836 44.9168 13.812 44.7806C14.3885 44.6727 14.9756 43.925 14.9836 43.2884C14.9855 43.1337 15.0543 42.8598 15.1364 42.6795C15.3841 42.1356 15.7716 41.9161 16.6851 41.8018C17.3484 41.7189 17.9646 41.0252 17.9646 40.3615C17.9646 40.0336 18.143 39.5549 18.3504 39.3262C18.9848 38.6267 20.2358 38.7715 20.7039 39.5985C20.836 39.8318 20.9054 40.0952 20.9054 40.3631V44.1721V47.8918C20.9054 48.2207 20.8419 48.5465 20.7184 48.8515C20.4583 49.4938 19.8522 50.1308 19.1937 50.454C18.673 50.7097 18.6366 50.7154 17.2865 50.7572C16.0187 50.7965 15.8898 50.8143 15.6518 50.9836C14.6384 51.7044 14.7116 53.0333 15.7973 53.6234C16.0411 53.7559 16.2712 53.7723 17.8841 53.7723C18.8811 53.7723 19.7938 53.7453 19.9122 53.7121C20.4366 53.5655 20.9441 52.8778 20.9474 52.3094C20.9512 51.661 21.4404 51.014 22.0559 50.8436C22.4405 50.737 23.857 50.7356 24.4193 50.8412C25.8787 51.1151 26.7697 52.1675 26.9084 53.7808C26.9933 54.7688 27.2785 55.3877 27.9169 55.9696C28.4685 56.4723 29.0306 56.6886 30.0295 56.7829C30.9385 56.8686 31.483 57.102 32.0175 57.6349C32.5347 58.1507 32.7882 58.7398 32.8746 59.6266C32.9139 60.0299 32.9815 60.4804 33.025 60.6278C33.2406 61.3587 33.9308 62.1148 34.7087 62.4725C35.1274 62.665 35.2813 62.6865 36.5356 62.728C37.3617 62.7554 37.9727 62.8113 38.0754 62.8691C38.2934 62.9915 38.7236 63.4789 38.7813 63.6685C38.8057 63.7488 38.8619 64.0442 38.9061 64.3249C39.0031 64.9399 39.2743 65.3337 39.7489 65.5486C40.7403 65.9976 41.7659 65.384 41.8986 64.2628C41.9728 63.6347 42.1795 63.238 42.5649 62.9838C42.7762 62.8444 43.024 62.77 43.2774 62.77H45.7548H48.1158C48.4484 62.77 48.7768 62.843 49.078 62.9837C49.7179 63.2829 50.2238 63.7766 50.5339 64.4048C50.7902 64.9239 50.7963 64.9619 50.839 66.3025C50.8641 67.0878 50.9215 67.739 50.9737 67.8312C51.1182 68.086 51.5808 68.4964 51.8286 68.5895C52.3457 68.7839 52.9648 68.6621 53.3613 68.288C53.8048 67.8696 53.8508 67.6954 53.8962 66.2629C53.9373 64.9667 53.9444 64.9231 54.2001 64.4053C54.511 63.7756 55.0176 63.2817 55.6564 62.9854C56.0777 62.79 56.221 62.77 57.4832 62.7305C58.3113 62.7046 58.9194 62.65 59.021 62.5925C59.3058 62.4312 59.7603 61.8765 59.8062 61.6342C59.83 61.5078 59.8719 61.2352 59.8991 61.0286C59.9648 60.5302 60.225 60.1589 60.6632 59.9382C61.0086 59.7642 61.1027 59.7574 63.1674 59.7574C65.5031 59.7574 66.2488 59.814 70.5639 60.3193L72.2372 60.5152C72.9636 60.6002 73.6982 60.5863 74.4208 60.4737L74.6113 60.444C75.3151 60.3344 76.0001 60.1883 76.1336 60.1195C76.4097 59.9771 77.1988 59.0622 77.4303 58.6158C77.6292 58.2325 77.6244 58.0004 77.3825 56.3037C77.2723 55.531 77.1821 54.6185 77.1821 54.2761C77.1821 53.8741 77.325 53.4851 77.5853 53.1781L77.8221 52.8988C78.1741 52.4837 78.5366 52.0224 78.6275 51.8737C78.8678 51.4806 78.8435 50.9513 78.5518 50.2247C78.4188 49.8937 78.3101 49.4994 78.3101 49.3485C78.3101 49.1976 78.4519 48.702 78.6254 48.2473C79.1216 46.9461 79.122 46.9607 78.5504 45.1273L78.4018 44.6506C78.3266 44.4093 78.3462 44.1485 78.4566 43.921C78.5512 43.7262 79.0506 43.1156 79.5666 42.564C80.0826 42.0125 80.5366 41.4774 80.5756 41.3752C80.7058 41.0337 80.66 39.976 80.505 39.745C80.4278 39.6298 79.3313 38.3339 78.0684 36.8653C76.8055 35.3968 75.7209 34.0992 75.6583 33.9819C75.5144 33.7123 75.4173 33.1998 75.0469 30.7561C74.8829 29.6737 74.6934 28.6796 74.6259 28.5469C74.5585 28.4141 73.6945 26.8583 72.7059 25.0892L71.4675 22.8731C71.0968 22.2097 70.8223 21.4971 70.6522 20.7567L70.4109 19.7067C70.1372 18.5153 69.8453 17.3594 69.7624 17.1381C69.5893 16.6761 68.6143 15.5545 66.6391 13.5455C65.3417 12.2259 64.972 11.9619 64.4068 11.951C63.5132 11.9337 62.9924 11.4161 62.8483 10.4019C62.7262 9.5417 62.1608 8.98464 61.4098 8.98464C61.2391 8.98464 60.9145 8.89242 60.6863 8.77898C60.3486 8.61124 60.2345 8.4974 60.0662 8.16071C59.9522 7.93263 59.86 7.6096 59.86 7.43848C59.86 6.91043 59.545 6.42271 59.0374 6.16434C58.7938 6.04038 58.5616 6.01219 57.7832 6.01219C57.2579 6.01219 56.6143 5.97282 56.3532 5.9247C55.3822 5.74571 54.5995 5.15427 54.1766 4.27997C53.9583 3.82855 53.9436 3.7295 53.9013 2.4372C53.8503 0.879316 53.7891 0.694541 53.1834 0.270123C52.8909 0.0651038 52.7677 0.0297553 52.3647 0.0352182C51.5033 0.0469474 50.9559 0.593076 50.8355 1.56057C50.7223 2.47054 50.2102 2.9606 49.3752 2.95811C48.5424 2.95554 48.0106 2.44042 47.9036 1.53302C47.8328 0.931856 47.5758 0.500689 47.1348 0.24305C45.6741 -0.610608 44.1305 1.24461 45.2616 2.49448C45.6027 2.87134 45.9461 3.03901 46.3824 3.0415C46.8531 3.04423 47.3295 3.30058 47.5882 3.6903C47.7752 3.97212 47.8151 4.11897 47.8151 4.52596C47.8151 5.11756 47.5967 5.49811 47.0913 5.787C46.7798 5.96511 46.6998 5.97202 44.9549 5.97202C43.9579 5.97202 43.0452 5.94494 42.9268 5.91176C42.6454 5.83311 42.2403 5.48943 42.0922 5.20384C42.0275 5.07916 41.9405 4.73748 41.899 4.44466C41.7754 3.57477 41.2977 3.09661 40.4484 2.99273C39.4225 2.86725 39.0377 2.48147 38.9093 1.44947C38.8392 0.885903 38.5803 0.470483 38.138 0.211959C37.8325 0.0334512 37.3291 -0.0260784 36.9883 0.0760295ZM32.2309 12.247C32.7442 12.546 33.0146 13.4132 32.7837 14.0205C32.5154 14.7269 31.5464 15.1234 30.8328 14.8189C30.2856 14.5856 29.9683 14.0698 29.9705 13.418C29.9746 12.2922 31.2096 11.6523 32.2309 12.247ZM56.112 15.1936C57.062 15.7302 57.024 17.2629 56.049 17.7336C55.4762 18.0101 54.8063 17.9379 54.3937 17.5552C53.6142 16.8322 53.7997 15.544 54.7439 15.1237C55.1263 14.9536 55.7426 14.9851 56.112 15.1936ZM3.99711 20.9922C3.06607 21.3231 2.68805 22.394 3.21158 23.2171C3.70626 23.9949 4.82455 24.1538 5.50237 23.5426C5.92358 23.1628 6.09752 22.2564 5.84325 21.7661C5.67357 21.4389 5.20491 21.0567 4.85436 20.9596C4.46932 20.853 4.37893 20.8565 3.99711 20.9922ZM10.2704 20.9114C10.2261 20.9276 10.0929 20.962 9.97445 20.9879C9.66161 21.0564 9.26256 21.4216 9.09248 21.795C8.96333 22.0785 8.94431 22.347 8.94278 23.9097C8.94085 25.8891 8.9684 26.0327 9.43497 26.473C10.0837 27.0853 10.9967 27.0501 11.5775 26.3905C11.9704 25.9443 12.0167 25.6396 11.988 23.6839L11.9684 22.3497C11.9644 22.0777 11.8781 21.8133 11.7206 21.5912C11.5877 21.4037 11.352 21.1862 11.1969 21.1078C10.91 20.9628 10.4165 20.8582 10.2704 20.9114ZM19.8927 24.006C20.202 24.0944 20.5807 24.4211 20.7511 24.746C20.8134 24.865 20.8984 25.202 20.94 25.4948C21.0248 26.0915 21.2682 26.4863 21.6951 26.719C21.9133 26.8381 22.2483 26.8657 23.8864 26.8997C26.0839 26.9453 26.2687 26.9901 26.653 27.5692C26.8262 27.8302 26.8673 27.9858 26.8669 28.3801C26.8663 29.0366 26.6317 29.4189 26.0694 29.68C25.6776 29.862 25.5799 29.8706 23.9223 29.8714C22.22 29.8722 22.1777 29.8682 21.7719 29.6665C21.4343 29.4988 21.3201 29.3849 21.1519 29.0482C21.0381 28.8207 20.9456 28.497 20.9456 28.3268C20.9456 27.5522 20.3493 26.9775 19.4393 26.8751C18.6955 26.7913 18.2161 26.4238 18.0419 25.8035C17.8484 25.1141 18.1548 24.4101 18.7838 24.0997C19.1661 23.911 19.4706 23.8853 19.8927 24.006ZM37.8067 26.9849C38.4581 27.1653 38.8595 27.7424 38.8447 28.4774C38.8288 29.2699 38.3002 29.7536 37.3175 29.8751C36.4436 29.9832 35.995 30.4633 35.8564 31.4387C35.7714 32.0378 35.622 32.3019 35.2099 32.5816C33.9564 33.4324 32.4402 32.0396 33.1316 30.6725C33.3549 30.2308 33.7804 29.9799 34.4642 29.8866C35.3391 29.7673 35.9313 29.1616 35.9313 28.3859C35.9313 27.9945 36.2015 27.4288 36.4821 27.2331C36.9289 26.9212 37.3154 26.8489 37.8067 26.9849ZM56.0706 27.0991C56.8351 27.4934 57.0469 28.6895 56.4684 29.3464C55.5785 30.3572 53.9015 29.7296 53.9015 28.3859C53.9015 27.7502 54.3256 27.1676 54.9285 26.975C55.2124 26.8843 55.7718 26.9451 56.0706 27.0991ZM14.1777 33.0855C14.9519 33.4794 15.1546 34.6803 14.5552 35.3228C13.3967 36.5648 11.4202 35.2197 12.1612 33.6935C12.5046 32.9859 13.4322 32.7063 14.1777 33.0855ZM50.1569 33.1247C50.7716 33.4839 51.0152 34.3494 50.6838 34.9968C50.3026 35.7416 50.0411 35.8171 47.8431 35.8171C46.1905 35.8171 46.0264 35.8041 45.7043 35.6487C45.3458 35.4757 45.0281 35.0452 44.9219 34.589C44.8533 34.2943 45.0033 33.7501 45.2387 33.4398C45.6032 32.959 45.7595 32.9288 47.8885 32.9268C49.7968 32.925 49.8184 32.9269 50.1569 33.1247ZM1.03842 35.8939C0.677873 36.0028 0.401203 36.2297 0.189389 36.59C-0.0120307 36.9327 -0.0149308 36.9614 0.0119789 38.3259C0.0418696 39.8441 0.0869875 40.0116 0.661357 40.7394C1.29631 41.544 2.11456 41.8423 3.6858 41.8423C5.0113 41.8423 5.3509 41.7242 5.72739 41.1322C5.99246 40.7154 6.04564 40.0698 5.84631 39.6893C5.58173 39.1842 4.9421 38.7895 4.38827 38.7895C4.01911 38.7895 3.52192 38.5362 3.31084 38.2406C3.14889 38.0139 3.02659 37.6088 2.93458 36.9948C2.9034 36.7864 2.78255 36.5718 2.56204 36.3333C2.13454 35.8708 1.61262 35.7204 1.03842 35.8939ZM32.0062 36.008C32.9504 36.4109 33.1711 37.6992 32.4163 38.4028C32.1271 38.6725 31.823 38.7895 31.4117 38.7895C30.2821 38.7895 29.591 37.5593 30.1685 36.5767C30.5133 35.9901 31.3542 35.7299 32.0062 36.008ZM31.963 44.9384C32.3457 45.0978 32.5287 45.2668 32.7171 45.635C33.0196 46.2261 32.8341 47.091 32.3277 47.4501C31.8948 47.757 31.5405 47.8011 29.7276 47.7734C27.7952 47.744 27.6694 47.7137 27.2604 47.179C27.0313 46.8794 26.9162 46.2366 27.0189 45.8289C27.0949 45.5267 27.468 45.1302 27.8309 44.9658C28.1144 44.8374 28.3832 44.8181 29.9114 44.8166C31.3114 44.8151 31.7264 44.8398 31.963 44.9384ZM9.86754 53.846C9.36786 54.0684 8.93916 54.7314 8.94278 55.2761C8.94528 55.6447 9.19327 56.1496 9.49717 56.4046C10.603 57.3324 12.3014 56.2618 11.9265 54.8733C11.6927 54.0076 10.661 53.4929 9.86754 53.846ZM44.0146 53.9221C44.1592 53.9823 44.3725 54.1441 44.4885 54.2816C45.5269 55.5121 44.1773 57.2381 42.725 56.537C41.6626 56.0242 41.6577 54.4665 42.717 53.9459C43.0413 53.7865 43.6618 53.7751 44.0146 53.9221ZM24.9438 59.7951C24.7721 59.8561 24.5099 60.0236 24.3612 60.1674C23.6838 60.822 23.8163 61.9343 24.6386 62.4961C25.0595 62.7837 25.7887 62.7712 26.2473 62.4687C27.2183 61.8279 27.1301 60.4038 26.0873 59.8857C25.6162 59.6516 25.3965 59.6342 24.9438 59.7951Z" fill="url(#paint1_linear_523_905)"></path> </mask> <g mask="url(#mask0_523_905)"> <ellipse rx="40.1762" ry="33.0687" transform="matrix(-1 0 0 1 34.4898 73.3196)" fill="url(#paint2_linear_523_905)"></ellipse> </g> <path d="M107.782 30.7493L95.8066 18.3794H91.9209V33.3468H94.6387V20.9769L106.614 33.3468H110.5V18.3794H107.782V30.7493Z" fill="#1625B1"></path> <path d="M129.675 18.3794H113.963V33.3468H116.681V28.2583H128.401V25.8312H116.681V20.8065H129.675V18.3794Z" fill="#1625B1"></path> <path d="M150.465 18.3794H132.205V20.8065H139.998V33.3468H142.694V20.8065H150.465V18.3794Z" fill="#1625B1"></path> <path d="M107.803 45.5205C108.886 44.6901 109.459 43.4766 109.459 42.0714C109.459 40.1126 108.398 38.2816 104.937 38.2816H91.9209V53.249H105.043C108.462 53.249 109.927 51.5671 109.927 49.0335C109.927 47.3089 109.056 46.1805 107.803 45.5205ZM103.981 40.6236C105.51 40.6236 106.572 40.6236 106.572 42.6036C106.572 44.5624 105.51 44.5624 103.981 44.5624H94.6387V40.6236H103.981ZM94.6387 50.907V46.8192H104.448C105.956 46.8192 107.018 46.8192 107.018 48.8631C107.018 50.907 105.956 50.907 104.448 50.907H94.6387Z" fill="#1625B1"></path> <path d="M131.82 53.249L123.178 38.2816H119.738L111.096 53.249H114.196L116.044 50.0128H126.894L128.741 53.249H131.82ZM121.458 40.5384L125.535 47.6708H117.381L121.458 40.5384Z" fill="#1625B1"></path> <path d="M134.097 38.2816V40.7088H146.709L134.097 50.8219V53.249H150.935V50.8219H138.322L150.935 40.7088V38.2816H134.097Z" fill="#1625B1"></path> <path d="M156.534 38.2816H153.816V53.249H168V50.8219H156.534V38.2816Z" fill="#1625B1"></path> <defs> <linearGradient id="paint0_linear_523_905" x1="80.6517" y1="44.5155" x2="6.16293" y2="34.7732" gradientUnits="userSpaceOnUse"> <stop stop-color="#4254FF"></stop> <stop offset="1" stop-color="#050E67"></stop> </linearGradient> <linearGradient id="paint1_linear_523_905" x1="80.6517" y1="44.5155" x2="6.16293" y2="34.7732" gradientUnits="userSpaceOnUse"> <stop stop-color="#4254FF"></stop> <stop offset="1" stop-color="#050E67"></stop> </linearGradient> <linearGradient id="paint2_linear_523_905" x1="80.3524" y1="42.8668" x2="6.22785" y2="32.8366" gradientUnits="userSpaceOnUse"> <stop stop-color="#4254FF"></stop> <stop offset="1" stop-color="#050E67"></stop> </linearGradient> </defs> </svg> 