<?xml version="1.0" encoding="UTF-8"?> <svg xmlns="http://www.w3.org/2000/svg" width="74" height="80" viewBox="0 0 148 160" fill="none"> <path fill-rule="evenodd" clip-rule="evenodd" d="M43.5768 13.6125C40.9069 13.3959 38.7438 14.2796 37.3788 15.3029L37.347 15.3266C36.8253 15.7129 36.221 16.2768 36.7012 19.0328C37.0734 21.1691 37.7758 23.0167 38.5797 25.1314C38.9877 26.2045 39.4218 27.3464 39.8522 28.6297C43.082 38.2227 43.7505 45.7036 43.0671 51.7118C42.3808 57.745 40.3691 61.8183 39.1465 64.2937L39.1324 64.3223C34.1946 74.314 32.8347 81.2542 34.1507 92.2332M43.5768 13.6125C46.161 13.8221 49.9262 15.1234 54.424 19.6813ZM64.1091 10.1863C57.7748 3.77185 51.1009 0.64586 44.6807 0.125071C38.3511 -0.388374 32.9472 1.69076 29.2173 4.48147C22.7174 9.30666 22.4414 16.3711 23.3081 21.3455C23.9173 24.8418 25.4138 28.7913 26.3364 31.2264C26.6048 31.9346 26.8246 32.5147 26.9599 32.9184L26.9627 32.9267C29.6893 41.0239 29.9799 46.5016 29.5604 50.1892C29.1463 53.8298 28.0055 56.1822 26.9355 58.3486C20.9219 70.5173 19.0036 80.0781 20.654 93.8412L20.6544 93.8452C21.7377 102.833 26.6545 112.217 32.7203 119.909C38.8055 127.626 46.756 134.541 54.8985 138.049C81.302 149.447 108.881 142.087 129.123 123.809M64.1091 10.1863C68.5869 14.6835 72.0534 20.0195 74.3379 25.8401C82.4311 21.3922 92.0414 21.211 99.9676 23.1836C112.319 26.2577 118.983 35.2784 120.341 42.766L120.343 42.7801C120.404 43.1179 120.456 43.4568 120.501 43.7964C123.169 44.8249 125.642 46.3287 127.793 48.2476C131.189 51.2768 133.639 55.2131 134.853 59.5883C134.872 59.6568 134.89 59.7255 134.907 59.7945C135.29 61.3666 135.526 62.9663 135.614 64.5735C137.734 65.7106 139.671 67.1732 141.351 68.9155C144.065 71.7297 146.02 75.1818 147.033 78.95C149.311 87.2023 147.189 96.4225 144.52 102.854C141.071 111.19 135.382 118.159 129.124 123.808M127.947 75.9373C129.307 76.4395 130.538 77.242 131.546 78.287C132.674 79.4574 133.486 80.8936 133.905 82.4613L133.91 82.4778C133.914 82.4928 133.918 82.5078 133.922 82.5228C135.062 86.6316 134.097 92.533 131.955 97.6924L131.952 97.7001C129.482 103.669 125.229 109.057 119.992 113.784L119.991 113.785C102.95 129.174 80.9419 134.542 60.3062 125.634L60.3007 125.632C54.8521 123.285 48.5866 118.115 43.4123 111.554C38.2177 104.966 34.8314 97.8768 34.1509 92.2349M127.759 75.8703L127.754 75.9133L127.947 75.9373M127.987 74.0539L127.452 75.7698C127.555 75.8016 127.658 75.8351 127.759 75.8703M128.597 69.1995L121.89 68.1031C122.165 66.4371 122.108 64.7338 121.722 63.0904C121.192 61.2535 120.152 59.6017 118.721 58.3252C117.265 57.0255 115.464 56.1697 113.532 55.8593L113.488 55.8521L112.611 55.7052C108.971 55.096 106.485 51.7062 107.01 48.0693C107.15 47.1041 107.134 46.1229 106.962 45.1627C106.56 42.9657 103.885 38.1073 96.6709 36.3117C88.4526 34.2663 80.3975 35.9812 75.9707 42.0943C74.329 44.3613 71.4562 45.3902 68.74 44.684C66.0239 43.9778 64.0233 41.6818 63.7048 38.9052C62.8728 31.6515 59.6117 24.8879 54.4471 19.7046L54.424 19.6813M128.597 69.1995L127.987 74.0539Z" fill="white"></path> <path fill-rule="evenodd" clip-rule="evenodd" d="M43.5768 13.6125C40.9069 13.3959 38.7438 14.2796 37.3788 15.3029L37.347 15.3266C36.8253 15.7129 36.221 16.2768 36.7012 19.0328C37.0734 21.1691 37.7758 23.0167 38.5797 25.1314C38.9877 26.2045 39.4218 27.3464 39.8522 28.6297C43.082 38.2227 43.7505 45.7036 43.0671 51.7118C42.3808 57.745 40.3691 61.8183 39.1465 64.2937L39.1324 64.3223C34.1946 74.314 32.8347 81.2542 34.1507 92.2332M43.5768 13.6125C46.161 13.8221 49.9262 15.1234 54.424 19.6813ZM64.1091 10.1863C57.7748 3.77185 51.1009 0.64586 44.6807 0.125071C38.3511 -0.388374 32.9472 1.69076 29.2173 4.48147C22.7174 9.30666 22.4414 16.3711 23.3081 21.3455C23.9173 24.8418 25.4138 28.7913 26.3364 31.2264C26.6048 31.9346 26.8246 32.5147 26.9599 32.9184L26.9627 32.9267C29.6893 41.0239 29.9799 46.5016 29.5604 50.1892C29.1463 53.8298 28.0055 56.1822 26.9355 58.3486C20.9219 70.5173 19.0036 80.0781 20.654 93.8412L20.6544 93.8452C21.7377 102.833 26.6545 112.217 32.7203 119.909C38.8055 127.626 46.756 134.541 54.8985 138.049C81.302 149.447 108.881 142.087 129.123 123.809M64.1091 10.1863C68.5869 14.6835 72.0534 20.0195 74.3379 25.8401C82.4311 21.3922 92.0414 21.211 99.9676 23.1836C112.319 26.2577 118.983 35.2784 120.341 42.766L120.343 42.7801C120.404 43.1179 120.456 43.4568 120.501 43.7964C123.169 44.8249 125.642 46.3287 127.793 48.2476C131.189 51.2768 133.639 55.2131 134.853 59.5883C134.872 59.6568 134.89 59.7255 134.907 59.7945C135.29 61.3666 135.526 62.9663 135.614 64.5735C137.734 65.7106 139.671 67.1732 141.351 68.9155C144.065 71.7297 146.02 75.1818 147.033 78.95C149.311 87.2023 147.189 96.4225 144.52 102.854C141.071 111.19 135.382 118.159 129.124 123.808M127.947 75.9373C129.307 76.4395 130.538 77.242 131.546 78.287C132.674 79.4574 133.486 80.8936 133.905 82.4613L133.91 82.4778C133.914 82.4928 133.918 82.5078 133.922 82.5228C135.062 86.6316 134.097 92.533 131.955 97.6924L131.952 97.7001C129.482 103.669 125.229 109.057 119.992 113.784L119.991 113.785C102.95 129.174 80.9419 134.542 60.3062 125.634L60.3007 125.632C54.8521 123.285 48.5866 118.115 43.4123 111.554C38.2177 104.966 34.8314 97.8768 34.1509 92.2349M127.759 75.8703L127.754 75.9133L127.947 75.9373M127.987 74.0539L127.452 75.7698C127.555 75.8016 127.658 75.8351 127.759 75.8703M128.597 69.1995L121.89 68.1031C122.165 66.4371 122.108 64.7338 121.722 63.0904C121.192 61.2535 120.152 59.6017 118.721 58.3252C117.265 57.0255 115.464 56.1697 113.532 55.8593L113.488 55.8521L112.611 55.7052C108.971 55.096 106.485 51.7062 107.01 48.0693C107.15 47.1041 107.134 46.1229 106.962 45.1627C106.56 42.9657 103.885 38.1073 96.6709 36.3117C88.4526 34.2663 80.3975 35.9812 75.9707 42.0943C74.329 44.3613 71.4562 45.3902 68.74 44.684C66.0239 43.9778 64.0233 41.6818 63.7048 38.9052C62.8728 31.6515 59.6117 24.8879 54.4471 19.7046L54.424 19.6813M128.597 69.1995L127.987 74.0539Z" fill="white"></path> <path fill-rule="evenodd" clip-rule="evenodd" d="M43.5768 13.6125C40.9069 13.3959 38.7438 14.2796 37.3788 15.3029L37.347 15.3266C36.8253 15.7129 36.221 16.2768 36.7012 19.0328C37.0734 21.1691 37.7758 23.0167 38.5797 25.1314C38.9877 26.2045 39.4218 27.3464 39.8522 28.6297C43.082 38.2227 43.7505 45.7036 43.0671 51.7118C42.3808 57.745 40.3691 61.8183 39.1465 64.2937L39.1324 64.3223C34.1946 74.314 32.8347 81.2542 34.1507 92.2332M43.5768 13.6125C46.161 13.8221 49.9262 15.1234 54.424 19.6813ZM64.1091 10.1863C57.7748 3.77185 51.1009 0.64586 44.6807 0.125071C38.3511 -0.388374 32.9472 1.69076 29.2173 4.48147C22.7174 9.30666 22.4414 16.3711 23.3081 21.3455C23.9173 24.8418 25.4138 28.7913 26.3364 31.2264C26.6048 31.9346 26.8246 32.5147 26.9599 32.9184L26.9627 32.9267C29.6893 41.0239 29.9799 46.5016 29.5604 50.1892C29.1463 53.8298 28.0055 56.1822 26.9355 58.3486C20.9219 70.5173 19.0036 80.0781 20.654 93.8412L20.6544 93.8452C21.7377 102.833 26.6545 112.217 32.7203 119.909C38.8055 127.626 46.756 134.541 54.8985 138.049C81.302 149.447 108.881 142.087 129.123 123.809M64.1091 10.1863C68.5869 14.6835 72.0534 20.0195 74.3379 25.8401C82.4311 21.3922 92.0414 21.211 99.9676 23.1836C112.319 26.2577 118.983 35.2784 120.341 42.766L120.343 42.7801C120.404 43.1179 120.456 43.4568 120.501 43.7964C123.169 44.8249 125.642 46.3287 127.793 48.2476C131.189 51.2768 133.639 55.2131 134.853 59.5883C134.872 59.6568 134.89 59.7255 134.907 59.7945C135.29 61.3666 135.526 62.9663 135.614 64.5735C137.734 65.7106 139.671 67.1732 141.351 68.9155C144.065 71.7297 146.02 75.1818 147.033 78.95C149.311 87.2023 147.189 96.4225 144.52 102.854C141.071 111.19 135.382 118.159 129.124 123.808M127.947 75.9373C129.307 76.4395 130.538 77.242 131.546 78.287C132.674 79.4574 133.486 80.8936 133.905 82.4613L133.91 82.4778C133.914 82.4928 133.918 82.5078 133.922 82.5228C135.062 86.6316 134.097 92.533 131.955 97.6924L131.952 97.7001C129.482 103.669 125.229 109.057 119.992 113.784L119.991 113.785C102.95 129.174 80.9419 134.542 60.3062 125.634L60.3007 125.632C54.8521 123.285 48.5866 118.115 43.4123 111.554C38.2177 104.966 34.8314 97.8768 34.1509 92.2349M127.759 75.8703L127.754 75.9133L127.947 75.9373M127.987 74.0539L127.452 75.7698C127.555 75.8016 127.658 75.8351 127.759 75.8703M128.597 69.1995L121.89 68.1031C122.165 66.4371 122.108 64.7338 121.722 63.0904C121.192 61.2535 120.152 59.6017 118.721 58.3252C117.265 57.0255 115.464 56.1697 113.532 55.8593L113.488 55.8521L112.611 55.7052C108.971 55.096 106.485 51.7062 107.01 48.0693C107.15 47.1041 107.134 46.1229 106.962 45.1627C106.56 42.9657 103.885 38.1073 96.6709 36.3117C88.4526 34.2663 80.3975 35.9812 75.9707 42.0943C74.329 44.3613 71.4562 45.3902 68.74 44.684C66.0239 43.9778 64.0233 41.6818 63.7048 38.9052C62.8728 31.6515 59.6117 24.8879 54.4471 19.7046L54.424 19.6813M128.597 69.1995L127.987 74.0539Z" fill="white"></path> <path fill-rule="evenodd" clip-rule="evenodd" d="M73.4849 26.3108C81.7508 21.3919 91.7649 21.1236 99.9645 23.1595C112.313 26.2254 118.984 35.2567 120.341 42.7428L120.345 42.7658C120.647 44.4634 120.751 46.19 120.657 47.9113C120.598 48.9703 120.29 50.0008 119.758 50.9196C119.507 51.3536 118.907 52.3311 117.832 53.1853C116.598 54.1665 114.046 55.4282 110.993 54.3184C108.57 53.4375 107.458 51.5747 107.119 50.9612C106.672 50.1529 106.425 49.3737 106.283 48.8607L106.282 48.8571C105.835 47.2313 105.262 46.4226 104.189 45.6478C102.781 44.6317 100.194 43.4796 95.1233 42.2535L95.1177 42.2521C87.6618 40.4425 80.2278 44.0729 76.0182 49.5911C74.3337 51.7992 71.4664 52.7607 68.7832 52.0173C66.1 51.2738 64.144 48.9759 63.8477 46.2189L62.3408 32.1997C61.9668 28.7208 64.3187 25.532 67.7648 24.8453C69.8656 24.4267 71.9506 25.0222 73.4849 26.3108Z" fill="white"></path> <path fill-rule="evenodd" clip-rule="evenodd" d="M42.3302 0.00089514C44.7926 -0.0388979 47.084 1.25053 48.3196 3.37133L48.5449 3.75796C49.6358 5.6304 49.761 7.90945 48.8816 9.88913C48.0022 11.8688 46.2244 13.3101 44.0989 13.7666C43.7051 13.8512 43.4931 13.9425 43.3951 13.9957C43.3599 14.0888 43.3056 14.2813 43.274 14.6226C43.1115 16.3789 43.7661 19.8251 46.3089 25.1062C52.6609 38.2984 52.3875 53.0216 45.5676 66.5112C43.2118 71.1708 42.4723 76.0947 42.5585 80.2388C42.6013 82.3006 42.8475 84.0821 43.1528 85.4317C43.4103 86.5699 43.6533 87.1553 43.7178 87.3107C43.738 87.3593 43.7407 87.3658 43.721 87.334L43.7236 87.3383C43.9693 87.7337 44.5291 88.6888 44.7599 90.0112C45.0275 91.545 44.8923 94.2425 42.6117 96.3211C40.7762 97.9941 38.7047 98.1307 38.0374 98.151C37.175 98.1771 36.4629 98.0477 36.0741 97.9647C34.6833 97.6676 33.1577 96.9843 32.1277 96.5023C29.7084 95.3703 26.4805 93.6149 23.5564 91.9714C21.4606 90.7935 20.1468 88.5998 20.1025 86.2042C19.915 76.0718 22.1959 67.9277 26.9371 58.3454L26.9429 58.3337C28.0042 56.1992 29.1463 53.8457 29.5605 50.2012C29.9802 46.5083 29.6891 41.0225 26.9629 32.9264L26.9601 32.9181C26.8248 32.5146 26.6052 31.9349 26.3371 31.2274C25.4144 28.7919 23.9174 24.8409 23.308 21.339C22.4402 16.3522 22.7217 9.289 29.2144 4.44483L29.24 4.42584C33.0314 1.62471 37.6094 0.0771819 42.3302 0.00089514ZM43.4287 13.9244C43.4291 13.9249 43.4254 13.9325 43.4163 13.9456C43.4237 13.9305 43.4283 13.9239 43.4287 13.9244ZM43.3486 14.0233C43.3344 14.0365 43.3258 14.0421 43.3251 14.0417C43.3244 14.0412 43.3315 14.0346 43.3486 14.0233Z" fill="white"></path> <path fill-rule="evenodd" clip-rule="evenodd" d="M75.8954 34.7991C77.6532 33.1599 79.9728 32.2461 82.3845 32.2461C84.8373 32.2461 87.1949 33.1914 88.9631 34.8838C89.0088 34.9276 89.0539 34.972 89.0984 35.017C90.8386 36.7786 91.8137 39.1503 91.8137 41.6208C91.8137 44.0914 90.8386 46.4631 89.0984 48.2247C88.9812 48.3434 88.8596 48.4577 88.7338 48.5675C84.3644 52.3822 79.3333 55.3694 73.8887 57.3836C73.6833 57.4783 73.4725 57.5631 73.2568 57.6375C70.2515 58.6738 67.417 57.9344 65.4617 56.7299C63.5746 55.5674 62.0416 53.7225 61.3144 51.4959C61.268 51.3539 61.2263 51.2104 61.1895 51.0657C60.5873 48.6999 60.9272 46.194 62.138 44.0719C63.3038 42.0288 65.19 40.4937 67.4257 39.7606C67.5024 39.7327 67.5698 39.7081 67.6293 39.6865C67.767 39.6364 67.8626 39.6016 67.9335 39.5753C68.0438 39.522 68.165 39.4658 68.2909 39.4109C68.3691 39.3769 68.5043 39.3191 68.6733 39.2552L68.8616 39.1718C69.4939 38.8682 70.1093 38.5561 70.8036 38.197C71.8492 37.6275 72.8656 37.0064 73.8489 36.336L73.8751 36.3182C74.2479 36.0667 74.6123 35.8081 74.9552 35.5505C74.9738 35.5366 74.9925 35.5227 75.0112 35.5089C75.0117 35.5086 75.0121 35.5082 75.0125 35.5079L75.2877 35.3057C75.3198 35.2813 75.3479 35.2599 75.3704 35.2429C75.3789 35.2365 75.3955 35.224 75.4149 35.2095C75.4205 35.2053 75.4306 35.1978 75.4436 35.1882L75.435 35.1775C75.437 35.1759 75.439 35.1744 75.4409 35.1728L75.4475 35.1677L75.4564 35.1788C75.4603 35.176 75.4643 35.173 75.4686 35.1699C75.4808 35.1609 75.5035 35.1444 75.5321 35.124C75.5468 35.1135 75.5683 35.0983 75.5945 35.08C75.618 35.0636 75.6615 35.0335 75.7167 34.9967C75.7425 34.9797 75.8023 34.9408 75.8363 34.919C75.837 34.9186 75.8378 34.9181 75.8385 34.9176L75.8058 34.8838C75.8355 34.8554 75.8654 34.8272 75.8954 34.7991ZM75.9778 34.8322L75.9238 34.7735C75.9148 34.7818 75.9053 34.7903 75.8954 34.7991M75.875 34.9554C75.8624 34.9622 75.8508 34.9685 75.8427 34.973C75.8226 34.9841 75.7843 35.0056 75.7661 35.0159C75.7493 35.0255 75.7171 35.0441 75.7017 35.053L75.6468 35.0854C75.6134 35.1054 75.5837 35.1235 75.5584 35.1391C75.5329 35.1548 75.5101 35.1691 75.4903 35.1817C75.483 35.1863 75.476 35.1908 75.4692 35.1951L78.701 39.29C78.9559 39.0853 79.208 38.8767 79.4572 38.6644L75.875 34.9554ZM79.4848 38.6409L76.0204 34.8784C76.031 34.8729 76.0409 34.8678 76.0488 34.8638C76.0823 34.8469 76.1538 34.8116 76.1918 34.7932C76.2347 34.7728 76.3271 34.7302 76.3766 34.708C76.4335 34.6832 76.5571 34.6312 76.6239 34.6043C76.7023 34.5739 76.875 34.5105 76.9695 34.4781C77.0832 34.4411 77.3383 34.366 77.4799 34.3289C77.6562 34.2872 78.0602 34.2101 78.288 34.1776C78.5832 34.1471 79.2721 34.1258 79.6642 34.1448C80.1834 34.2051 81.3633 34.4976 82.0068 34.757C82.12 34.8185 82.2475 34.897 82.3845 34.9885C82.3976 34.9973 82.4108 35.0062 82.4241 35.0152C83.5692 36.2187 84.3342 37.7286 84.8059 39.1882C84.8084 39.1961 84.811 39.204 84.8135 39.212C85.0843 40.0553 85.2572 40.8812 85.3489 41.6208C85.4415 42.3671 85.4516 43.0256 85.3962 43.5257C85.3902 43.5409 85.3844 43.5553 85.379 43.5686C85.2956 43.7534 85.1317 44.0795 85.0533 44.2216C85.0483 44.2302 85.0429 44.2393 85.0373 44.2488C85.0241 44.2712 85.0093 44.2959 84.9937 44.3218C84.9846 44.3369 84.9752 44.3523 84.9657 44.368C84.9382 44.4131 84.9093 44.4598 84.8825 44.5028C84.8508 44.5535 84.8218 44.5991 84.801 44.631C84.7499 44.7065 84.6526 44.8445 84.6068 44.9071C84.5669 44.9604 84.4909 45.059 84.4549 45.1044C84.4232 45.1437 84.3625 45.2173 84.3337 45.2515C84.3193 45.2685 84.2974 45.2939 84.2768 45.3176C84.0838 45.4175 83.8831 45.502 83.6768 45.5702C83.6716 45.5719 83.6665 45.5736 83.6614 45.5753C83.5157 45.6228 83.3672 45.6622 83.2165 45.6933C83.2087 45.6949 83.2009 45.6965 83.1931 45.6981L81.0501 43.077L82.4061 41.6729L84.2525 43.4805L82.539 41.5354L84.2525 39.7611L82.4932 41.4835L79.7712 38.3936C79.6762 38.4766 79.5807 38.559 79.4848 38.6409ZM82.3529 41.6208L79.4066 38.7364C79.188 38.9577 78.9971 39.201 78.836 39.4611L79.6464 40.488L78.8342 39.4638C78.7747 39.5601 78.7192 39.6587 78.668 39.7592L79.3746 40.7123L78.6567 39.7815C78.621 39.8526 78.5874 39.9247 78.5559 39.9977C78.5532 40.004 78.5505 40.0103 78.5478 40.0166C78.524 40.0725 78.5015 40.1289 78.4802 40.1858C78.4789 40.1895 78.4775 40.1932 78.4761 40.1969C78.3087 40.6486 78.2207 41.1303 78.2207 41.6208C78.2207 42.1258 78.3139 42.6213 78.4911 43.0845L79.4435 44.4691L80.7255 43.2141L79.0483 40.952L80.7468 43.1933L80.9336 43.0104L79.2114 40.8282L80.968 42.9767L82.3529 41.6208ZM81.0149 43.1134L80.8307 43.3041L82.6966 45.7664C82.8229 45.7568 82.9483 45.7414 83.0724 45.7204L81.0149 43.1134ZM84.0035 45.6836C83.9565 45.7251 83.919 45.757 83.8986 45.7743C83.8709 45.7978 83.848 45.8168 83.8329 45.8293C83.8031 45.8539 83.7792 45.8732 83.7668 45.8832C83.7413 45.9038 83.7208 45.92 83.7122 45.9268L83.6859 45.9474C83.6498 45.9757 83.6072 46.0085 83.5799 46.0295C83.5457 46.0558 83.5052 46.0868 83.4636 46.1185C83.4229 46.1496 83.3758 46.1854 83.3298 46.2199C83.3069 46.2372 83.2801 46.2573 83.2521 46.2781C83.2277 46.2962 83.1852 46.3277 83.1357 46.3632C83.1118 46.3804 83.0682 46.4116 83.014 46.4489C83.013 46.4496 83.0119 46.4503 83.0109 46.451C82.5148 46.8201 82.0121 47.175 81.5161 47.51C80.1394 48.4478 78.716 49.3157 77.2511 50.1102C77.2127 50.1311 77.174 50.1516 77.1351 50.1717C76.3327 50.5871 75.5291 50.9961 74.6569 51.4129C74.5971 51.4415 74.5368 51.4692 74.4761 51.4961L73.9169 51.7435C73.8976 51.752 73.8783 51.7605 73.859 51.7688C73.7859 51.803 73.7114 51.8373 73.639 51.8698C73.5925 51.8906 73.5264 51.9199 73.4504 51.9519L73.4466 51.9534C73.4184 51.9653 73.3356 52.0002 73.2204 52.0442C73.1249 52.0831 73.0312 52.1204 72.9403 52.1559M73.6396 51.2313C73.6491 51.219 73.6586 51.2067 73.6679 51.1942C73.6687 51.1932 73.6695 51.1922 73.6703 51.1912C73.7747 51.0529 73.8706 50.9074 73.9574 50.7554C73.9934 50.6924 74.0276 50.6285 74.06 50.5639C74.0926 50.4988 74.1235 50.433 74.1524 50.3666C74.5119 49.5431 74.5896 48.6201 74.3661 47.7418L72.2566 48.2739L73.6396 51.2313ZM72.1267 47.996L74.2412 47.3115C73.9256 46.3454 73.3247 45.6604 72.6144 45.2228C72.315 45.0384 71.9218 44.8584 71.4593 44.7384L71.7159 45.3132L71.4359 44.7324C71.3453 44.7094 71.2522 44.6888 71.1566 44.6708V45.5606L70.7331 44.6118C70.6688 44.606 70.6038 44.6014 70.5379 44.5982C70.535 44.5981 70.5321 44.598 70.5293 44.5978L71.0168 45.6225L72.1267 47.996ZM70.3539 44.2292C70.3571 44.2279 70.3603 44.2266 70.3634 44.2252C70.4189 44.2023 70.4743 44.1792 70.5296 44.156L68.4024 39.3912C68.3061 39.4274 68.2191 39.4625 68.1499 39.4915C68.1351 39.4977 68.1211 39.5036 68.108 39.5092L70.3539 44.2292ZM67.9862 39.5634C67.9883 39.5621 68.0144 39.55 68.0584 39.5307C68.0062 39.555 67.9842 39.5646 67.9862 39.5634ZM71.1566 38.9767V43.8853C71.7164 43.637 72.269 43.3739 72.8139 43.0963C72.5942 42.4703 72.42 41.8414 72.3635 41.4401C72.3605 41.3586 72.3595 41.269 72.3604 41.1737L71.158 38.9767C71.1576 38.9767 71.1571 38.9767 71.1566 38.9767ZM71.2922 38.9858L72.3627 41.0352C72.3772 40.445 72.449 39.7027 72.52 39.3482C72.5315 39.3042 72.5449 39.2558 72.5598 39.2045C72.0792 39.0741 71.6439 39.013 71.2922 38.9858ZM73.6331 39.5983C73.7339 40.4259 73.9366 41.363 74.2648 42.3125C74.8248 41.9923 75.3756 41.6563 75.9166 41.3049C75.1773 40.4531 74.3315 39.9225 73.6331 39.5983ZM79.433 44.4794L78.5015 43.1116C78.7031 43.6277 79.0092 44.1029 79.4066 44.5053L79.433 44.4794ZM79.5931 44.6866C80.3511 45.3876 81.3481 45.7782 82.3845 45.7782C82.4638 45.7782 82.5428 45.7759 82.6216 45.7714L80.809 43.3266L79.5525 44.6276L79.5931 44.6866ZM76.1315 41.1642C75.432 40.3681 74.5635 39.7593 73.6073 39.3671C73.4943 38.2546 73.5712 37.3682 73.7757 36.9635C73.8519 36.8533 73.943 36.7302 74.0363 36.6084C74.0427 36.6 74.0491 36.5916 74.0556 36.5832C74.2564 36.3222 74.4638 36.072 74.5541 35.9741C74.6338 35.8916 74.7679 35.7589 74.8215 35.7078C74.8532 35.6782 74.9049 35.6307 74.9376 35.6011C74.944 35.5953 74.9497 35.5902 74.9543 35.586C74.9591 35.5817 74.9648 35.5767 74.9709 35.5713C74.9885 35.5558 75.0095 35.5373 75.0242 35.5244C75.0245 35.5242 75.0248 35.524 75.025 35.5237C75.0282 35.521 75.0311 35.5185 75.0335 35.5164L75.086 35.4714L75.1234 35.44L75.1513 35.4168L75.1729 35.399L75.1901 35.3849L75.2022 35.3751L75.2165 35.365L75.2383 35.3496L78.4386 39.4987C78.3818 39.5435 78.3248 39.588 78.2677 39.6324C78.2608 39.6378 78.2538 39.6432 78.2469 39.6486C78.212 39.6756 78.177 39.7026 78.142 39.7296C78.1378 39.7328 78.1336 39.7361 78.1294 39.7393C77.7086 40.0629 77.2804 40.3764 76.8454 40.6798C76.8435 40.6811 76.8416 40.6824 76.8396 40.6838C76.6056 40.8469 76.3695 41.007 76.1315 41.1642ZM78.4615 39.4807C78.5407 39.4183 78.6196 39.3555 78.6982 39.2923L75.4558 35.2037C75.449 35.2081 75.4425 35.2123 75.4363 35.2163L75.3926 35.2448C75.3749 35.2565 75.3588 35.2672 75.3446 35.2768L78.4615 39.4807ZM75.1249 35.4311C75.1235 35.4322 75.1238 35.4319 75.1257 35.4305L75.1249 35.4311ZM72.6079 39.0442C72.1567 38.9357 71.6935 38.8729 71.2256 38.8582ZM71.0587 38.7953C70.218 38.8077 69.5754 38.9764 69.4187 39.0175C69.4148 39.0185 69.4113 39.0194 69.408 39.0202C69.2322 39.0662 69.0807 39.1132 68.9651 39.1515M71.4957 52.4595C71.4828 52.4608 71.4698 52.4622 71.4566 52.4635C71.3201 52.4773 71.1646 52.4888 70.9942 52.4944C70.6745 52.5048 69.8555 52.515 68.8624 52.2258C68.1354 52.0141 66.7268 51.453 65.5854 50.1134C65.5492 50.071 65.5134 50.0279 65.4778 49.9839C65.1384 49.5642 64.8261 49.0723 64.5671 48.4962C64.0059 47.2482 63.9115 46.0809 64.0013 45.1256C64.0894 44.1888 64.3545 43.4558 64.5304 43.0501C65.1517 41.6172 66.1411 40.7735 66.2024 40.7213C66.204 40.7199 66.205 40.7191 66.2053 40.7188C66.4689 40.4807 66.6945 40.3155 66.7921 40.2453C67.0051 40.092 67.1812 39.9846 67.2414 39.948C67.268 39.9319 67.2942 39.9163 67.3198 39.9012M84.0035 45.6836C84.322 45.4306 84.7098 45.113 85.109 44.7488C85.1487 44.7125 85.1881 44.6757 85.2269 44.6385C85.188 44.6758 85.1484 44.7122 85.1081 44.7478C84.9186 44.9154 84.715 45.0642 84.5004 45.1929C84.6162 45.0585 84.8015 44.8308 84.9748 44.603C85.0071 44.5605 85.039 44.518 85.07 44.476C85.0791 44.4637 85.0882 44.4514 85.0971 44.4392C85.1162 44.4131 85.1349 44.3874 85.1529 44.362C85.1725 44.3346 85.1914 44.3078 85.2095 44.2816C85.2963 44.1099 85.3601 43.8514 85.3962 43.5257C85.4986 43.2657 85.6741 42.7423 85.7552 42.4326C85.7928 42.2444 85.8307 41.9469 85.8602 41.6208C85.9001 41.1797 85.9244 40.6863 85.9116 40.3409C85.8527 39.9225 85.666 39.2571 85.4331 38.6054C85.4273 38.5892 85.4215 38.573 85.4157 38.5568C85.2206 38.0168 84.9952 37.4907 84.7861 37.1276C84.2811 36.4825 83.2082 35.5464 82.4241 35.0152C82.4109 35.0013 82.3977 34.9876 82.3845 34.9738C82.0972 34.6759 81.7863 34.3972 81.4504 34.1433C79.5604 33.8569 77.1722 34.2631 76.6928 34.4573C76.4885 34.5534 76.1768 34.7164 76.0672 34.7787C76.0418 34.7936 76.0101 34.8126 75.9778 34.8322M75.8954 34.7991C75.8 34.8844 75.6627 34.9984 75.4409 35.1728L75.0125 35.5079" fill="white"></path> <path fill-rule="evenodd" clip-rule="evenodd" d="M75.8954 34.7991C77.6532 33.1599 79.9728 32.2461 82.3845 32.2461C84.8373 32.2461 87.1949 33.1914 88.9631 34.8838C89.0088 34.9276 89.0539 34.972 89.0984 35.017C90.8386 36.7786 91.8137 39.1503 91.8137 41.6208C91.8137 44.0914 90.8386 46.4631 89.0984 48.2247C88.9812 48.3434 88.8596 48.4577 88.7338 48.5675C84.3644 52.3822 79.3333 55.3694 73.8887 57.3836C73.6833 57.4783 73.4725 57.5631 73.2568 57.6375C70.2515 58.6738 67.417 57.9344 65.4617 56.7299C63.5746 55.5674 62.0416 53.7225 61.3144 51.4959C61.268 51.3539 61.2263 51.2104 61.1895 51.0657C60.5873 48.6999 60.9272 46.194 62.138 44.0719C63.3038 42.0288 65.19 40.4937 67.4257 39.7606C67.5024 39.7327 67.5698 39.7081 67.6293 39.6865C67.767 39.6364 67.8626 39.6016 67.9335 39.5753C68.0438 39.522 68.165 39.4658 68.2909 39.4109C68.3691 39.3769 68.5043 39.3191 68.6733 39.2552L68.8616 39.1718C69.4939 38.8682 70.1093 38.5561 70.8036 38.197C71.8492 37.6275 72.8656 37.0064 73.8489 36.336L73.8751 36.3182C74.2479 36.0667 74.6123 35.8081 74.9552 35.5505C74.9738 35.5366 74.9925 35.5227 75.0112 35.5089C75.0117 35.5086 75.0121 35.5082 75.0125 35.5079L75.2877 35.3057C75.3198 35.2813 75.3479 35.2599 75.3704 35.2429C75.3789 35.2365 75.3955 35.224 75.4149 35.2095C75.4205 35.2053 75.4306 35.1978 75.4436 35.1882L75.435 35.1775C75.437 35.1759 75.439 35.1744 75.4409 35.1728L75.4475 35.1677L75.4564 35.1788C75.4603 35.176 75.4643 35.173 75.4686 35.1699C75.4808 35.1609 75.5035 35.1444 75.5321 35.124C75.5468 35.1135 75.5683 35.0983 75.5945 35.08C75.618 35.0636 75.6615 35.0335 75.7167 34.9967C75.7425 34.9797 75.8023 34.9408 75.8363 34.919C75.837 34.9186 75.8378 34.9181 75.8385 34.9176L75.8058 34.8838C75.8355 34.8554 75.8654 34.8272 75.8954 34.7991ZM75.9778 34.8322L75.9238 34.7735C75.9148 34.7818 75.9053 34.7903 75.8954 34.7991M75.875 34.9554C75.8624 34.9622 75.8508 34.9685 75.8427 34.973C75.8226 34.9841 75.7843 35.0056 75.7661 35.0159C75.7493 35.0255 75.7171 35.0441 75.7017 35.053L75.6468 35.0854C75.6134 35.1054 75.5837 35.1235 75.5584 35.1391C75.5329 35.1548 75.5101 35.1691 75.4903 35.1817C75.483 35.1863 75.476 35.1908 75.4692 35.1951L78.701 39.29C78.9559 39.0853 79.208 38.8767 79.4572 38.6644L75.875 34.9554ZM79.4848 38.6409L76.0204 34.8784C76.031 34.8729 76.0409 34.8678 76.0488 34.8638C76.0823 34.8469 76.1538 34.8116 76.1918 34.7932C76.2347 34.7728 76.3271 34.7302 76.3766 34.708C76.4335 34.6832 76.5571 34.6312 76.6239 34.6043C76.7023 34.5739 76.875 34.5105 76.9695 34.4781C77.0832 34.4411 77.3383 34.366 77.4799 34.3289C77.6562 34.2872 78.0602 34.2101 78.288 34.1776C78.5832 34.1471 79.2721 34.1258 79.6642 34.1448C80.1834 34.2051 81.3633 34.4976 82.0068 34.757C82.12 34.8185 82.2475 34.897 82.3845 34.9885C82.3976 34.9973 82.4108 35.0062 82.4241 35.0152C83.5692 36.2187 84.3342 37.7286 84.8059 39.1882C84.8084 39.1961 84.811 39.204 84.8135 39.212C85.0843 40.0553 85.2572 40.8812 85.3489 41.6208C85.4415 42.3671 85.4516 43.0256 85.3962 43.5257C85.3902 43.5409 85.3844 43.5553 85.379 43.5686C85.2956 43.7534 85.1317 44.0795 85.0533 44.2216C85.0483 44.2302 85.0429 44.2393 85.0373 44.2488C85.0241 44.2712 85.0093 44.2959 84.9937 44.3218C84.9846 44.3369 84.9752 44.3523 84.9657 44.368C84.9382 44.4131 84.9093 44.4598 84.8825 44.5028C84.8508 44.5535 84.8218 44.5991 84.801 44.631C84.7499 44.7065 84.6526 44.8445 84.6068 44.9071C84.5669 44.9604 84.4909 45.059 84.4549 45.1044C84.4232 45.1437 84.3625 45.2173 84.3337 45.2515C84.3193 45.2685 84.2974 45.2939 84.2768 45.3176C84.0838 45.4175 83.8831 45.502 83.6768 45.5702C83.6716 45.5719 83.6665 45.5736 83.6614 45.5753C83.5157 45.6228 83.3672 45.6622 83.2165 45.6933C83.2087 45.6949 83.2009 45.6965 83.1931 45.6981L81.0501 43.077L82.4061 41.6729L84.2525 43.4805L82.539 41.5354L84.2525 39.7611L82.4932 41.4835L79.7712 38.3936C79.6762 38.4766 79.5807 38.559 79.4848 38.6409ZM82.3529 41.6208L79.4066 38.7364C79.188 38.9577 78.9971 39.201 78.836 39.4611L79.6464 40.488L78.8342 39.4638C78.7747 39.5601 78.7192 39.6587 78.668 39.7592L79.3746 40.7123L78.6567 39.7815C78.621 39.8526 78.5874 39.9247 78.5559 39.9977C78.5532 40.004 78.5505 40.0103 78.5478 40.0166C78.524 40.0725 78.5015 40.1289 78.4802 40.1858C78.4789 40.1895 78.4775 40.1932 78.4761 40.1969C78.3087 40.6486 78.2207 41.1303 78.2207 41.6208C78.2207 42.1258 78.3139 42.6213 78.4911 43.0845L79.4435 44.4691L80.7255 43.2141L79.0483 40.952L80.7468 43.1933L80.9336 43.0104L79.2114 40.8282L80.968 42.9767L82.3529 41.6208ZM81.0149 43.1134L80.8307 43.3041L82.6966 45.7664C82.8229 45.7568 82.9483 45.7414 83.0724 45.7204L81.0149 43.1134ZM84.0035 45.6836C83.9565 45.7251 83.919 45.757 83.8986 45.7743C83.8709 45.7978 83.848 45.8168 83.8329 45.8293C83.8031 45.8539 83.7792 45.8732 83.7668 45.8832C83.7413 45.9038 83.7208 45.92 83.7122 45.9268L83.6859 45.9474C83.6498 45.9757 83.6072 46.0085 83.5799 46.0295C83.5457 46.0558 83.5052 46.0868 83.4636 46.1185C83.4229 46.1496 83.3758 46.1854 83.3298 46.2199C83.3069 46.2372 83.2801 46.2573 83.2521 46.2781C83.2277 46.2962 83.1852 46.3277 83.1357 46.3632C83.1118 46.3804 83.0682 46.4116 83.014 46.4489C83.013 46.4496 83.0119 46.4503 83.0109 46.451C82.5148 46.8201 82.0121 47.175 81.5161 47.51C80.1394 48.4478 78.716 49.3157 77.2511 50.1102C77.2127 50.1311 77.174 50.1516 77.1351 50.1717C76.3327 50.5871 75.5291 50.9961 74.6569 51.4129C74.5971 51.4415 74.5368 51.4692 74.4761 51.4961L73.9169 51.7435C73.8976 51.752 73.8783 51.7605 73.859 51.7688C73.7859 51.803 73.7114 51.8373 73.639 51.8698C73.5925 51.8906 73.5264 51.9199 73.4504 51.9519L73.4466 51.9534C73.4184 51.9653 73.3356 52.0002 73.2204 52.0442C73.1249 52.0831 73.0312 52.1204 72.9403 52.1559M73.6396 51.2313C73.6491 51.219 73.6586 51.2067 73.6679 51.1942C73.6687 51.1932 73.6695 51.1922 73.6703 51.1912C73.7747 51.0529 73.8706 50.9074 73.9574 50.7554C73.9934 50.6924 74.0276 50.6285 74.06 50.5639C74.0926 50.4988 74.1235 50.433 74.1524 50.3666C74.5119 49.5431 74.5896 48.6201 74.3661 47.7418L72.2566 48.2739L73.6396 51.2313ZM72.1267 47.996L74.2412 47.3115C73.9256 46.3454 73.3247 45.6604 72.6144 45.2228C72.315 45.0384 71.9218 44.8584 71.4593 44.7384L71.7159 45.3132L71.4359 44.7324C71.3453 44.7094 71.2522 44.6888 71.1566 44.6708V45.5606L70.7331 44.6118C70.6688 44.606 70.6038 44.6014 70.5379 44.5982C70.535 44.5981 70.5321 44.598 70.5293 44.5978L71.0168 45.6225L72.1267 47.996ZM70.3539 44.2292C70.3571 44.2279 70.3603 44.2266 70.3634 44.2252C70.4189 44.2023 70.4743 44.1792 70.5296 44.156L68.4024 39.3912C68.3061 39.4274 68.2191 39.4625 68.1499 39.4915C68.1351 39.4977 68.1211 39.5036 68.108 39.5092L70.3539 44.2292ZM67.9862 39.5634C67.9883 39.5621 68.0144 39.55 68.0584 39.5307C68.0062 39.555 67.9842 39.5646 67.9862 39.5634ZM71.1566 38.9767V43.8853C71.7164 43.637 72.269 43.3739 72.8139 43.0963C72.5942 42.4703 72.42 41.8414 72.3635 41.4401C72.3605 41.3586 72.3595 41.269 72.3604 41.1737L71.158 38.9767C71.1576 38.9767 71.1571 38.9767 71.1566 38.9767ZM71.2922 38.9858L72.3627 41.0352C72.3772 40.445 72.449 39.7027 72.52 39.3482C72.5315 39.3042 72.5449 39.2558 72.5598 39.2045C72.0792 39.0741 71.6439 39.013 71.2922 38.9858ZM73.6331 39.5983C73.7339 40.4259 73.9366 41.363 74.2648 42.3125C74.8248 41.9923 75.3756 41.6563 75.9166 41.3049C75.1773 40.4531 74.3315 39.9225 73.6331 39.5983ZM79.433 44.4794L78.5015 43.1116C78.7031 43.6277 79.0092 44.1029 79.4066 44.5053L79.433 44.4794ZM79.5931 44.6866C80.3511 45.3876 81.3481 45.7782 82.3845 45.7782C82.4638 45.7782 82.5428 45.7759 82.6216 45.7714L80.809 43.3266L79.5525 44.6276L79.5931 44.6866ZM76.1315 41.1642C75.432 40.3681 74.5635 39.7593 73.6073 39.3671C73.4943 38.2546 73.5712 37.3682 73.7757 36.9635C73.8519 36.8533 73.943 36.7302 74.0363 36.6084C74.0427 36.6 74.0491 36.5916 74.0556 36.5832C74.2564 36.3222 74.4638 36.072 74.5541 35.9741C74.6338 35.8916 74.7679 35.7589 74.8215 35.7078C74.8532 35.6782 74.9049 35.6307 74.9376 35.6011C74.944 35.5953 74.9497 35.5902 74.9543 35.586C74.9591 35.5817 74.9648 35.5767 74.9709 35.5713C74.9885 35.5558 75.0095 35.5373 75.0242 35.5244C75.0245 35.5242 75.0248 35.524 75.025 35.5237C75.0282 35.521 75.0311 35.5185 75.0335 35.5164L75.086 35.4714L75.1234 35.44L75.1513 35.4168L75.1729 35.399L75.1901 35.3849L75.2022 35.3751L75.2165 35.365L75.2383 35.3496L78.4386 39.4987C78.3818 39.5435 78.3248 39.588 78.2677 39.6324C78.2608 39.6378 78.2538 39.6432 78.2469 39.6486C78.212 39.6756 78.177 39.7026 78.142 39.7296C78.1378 39.7328 78.1336 39.7361 78.1294 39.7393C77.7086 40.0629 77.2804 40.3764 76.8454 40.6798C76.8435 40.6811 76.8416 40.6824 76.8396 40.6838C76.6056 40.8469 76.3695 41.007 76.1315 41.1642ZM78.4615 39.4807C78.5407 39.4183 78.6196 39.3555 78.6982 39.2923L75.4558 35.2037C75.449 35.2081 75.4425 35.2123 75.4363 35.2163L75.3926 35.2448C75.3749 35.2565 75.3588 35.2672 75.3446 35.2768L78.4615 39.4807ZM75.1249 35.4311C75.1235 35.4322 75.1238 35.4319 75.1257 35.4305L75.1249 35.4311ZM72.6079 39.0442C72.1567 38.9357 71.6935 38.8729 71.2256 38.8582ZM71.0587 38.7953C70.218 38.8077 69.5754 38.9764 69.4187 39.0175C69.4148 39.0185 69.4113 39.0194 69.408 39.0202C69.2322 39.0662 69.0807 39.1132 68.9651 39.1515M71.4957 52.4595C71.4828 52.4608 71.4698 52.4622 71.4566 52.4635C71.3201 52.4773 71.1646 52.4888 70.9942 52.4944C70.6745 52.5048 69.8555 52.515 68.8624 52.2258C68.1354 52.0141 66.7268 51.453 65.5854 50.1134C65.5492 50.071 65.5134 50.0279 65.4778 49.9839C65.1384 49.5642 64.8261 49.0723 64.5671 48.4962C64.0059 47.2482 63.9115 46.0809 64.0013 45.1256C64.0894 44.1888 64.3545 43.4558 64.5304 43.0501C65.1517 41.6172 66.1411 40.7735 66.2024 40.7213C66.204 40.7199 66.205 40.7191 66.2053 40.7188C66.4689 40.4807 66.6945 40.3155 66.7921 40.2453C67.0051 40.092 67.1812 39.9846 67.2414 39.948C67.268 39.9319 67.2942 39.9163 67.3198 39.9012M84.0035 45.6836C84.322 45.4306 84.7098 45.113 85.109 44.7488C85.1487 44.7125 85.1881 44.6757 85.2269 44.6385C85.188 44.6758 85.1484 44.7122 85.1081 44.7478C84.9186 44.9154 84.715 45.0642 84.5004 45.1929C84.6162 45.0585 84.8015 44.8308 84.9748 44.603C85.0071 44.5605 85.039 44.518 85.07 44.476C85.0791 44.4637 85.0882 44.4514 85.0971 44.4392C85.1162 44.4131 85.1349 44.3874 85.1529 44.362C85.1725 44.3346 85.1914 44.3078 85.2095 44.2816C85.2963 44.1099 85.3601 43.8514 85.3962 43.5257C85.4986 43.2657 85.6741 42.7423 85.7552 42.4326C85.7928 42.2444 85.8307 41.9469 85.8602 41.6208C85.9001 41.1797 85.9244 40.6863 85.9116 40.3409C85.8527 39.9225 85.666 39.2571 85.4331 38.6054C85.4273 38.5892 85.4215 38.573 85.4157 38.5568C85.2206 38.0168 84.9952 37.4907 84.7861 37.1276C84.2811 36.4825 83.2082 35.5464 82.4241 35.0152C82.4109 35.0013 82.3977 34.9876 82.3845 34.9738C82.0972 34.6759 81.7863 34.3972 81.4504 34.1433C79.5604 33.8569 77.1722 34.2631 76.6928 34.4573C76.4885 34.5534 76.1768 34.7164 76.0672 34.7787C76.0418 34.7936 76.0101 34.8126 75.9778 34.8322M75.8954 34.7991C75.8 34.8844 75.6627 34.9984 75.4409 35.1728L75.0125 35.5079" fill="white"></path> <path fill-rule="evenodd" clip-rule="evenodd" d="M75.8954 34.7991C77.6532 33.1599 79.9728 32.2461 82.3845 32.2461C84.8373 32.2461 87.1949 33.1914 88.9631 34.8838C89.0088 34.9276 89.0539 34.972 89.0984 35.017C90.8386 36.7786 91.8137 39.1503 91.8137 41.6208C91.8137 44.0914 90.8386 46.4631 89.0984 48.2247C88.9812 48.3434 88.8596 48.4577 88.7338 48.5675C84.3644 52.3822 79.3333 55.3694 73.8887 57.3836C73.6833 57.4783 73.4725 57.5631 73.2568 57.6375C70.2515 58.6738 67.417 57.9344 65.4617 56.7299C63.5746 55.5674 62.0416 53.7225 61.3144 51.4959C61.268 51.3539 61.2263 51.2104 61.1895 51.0657C60.5873 48.6999 60.9272 46.194 62.138 44.0719C63.3038 42.0288 65.19 40.4937 67.4257 39.7606C67.5024 39.7327 67.5698 39.7081 67.6293 39.6865C67.767 39.6364 67.8626 39.6016 67.9335 39.5753C68.0438 39.522 68.165 39.4658 68.2909 39.4109C68.3691 39.3769 68.5043 39.3191 68.6733 39.2552L68.8616 39.1718C69.4939 38.8682 70.1093 38.5561 70.8036 38.197C71.8492 37.6275 72.8656 37.0064 73.8489 36.336L73.8751 36.3182C74.2479 36.0667 74.6123 35.8081 74.9552 35.5505C74.9738 35.5366 74.9925 35.5227 75.0112 35.5089C75.0117 35.5086 75.0121 35.5082 75.0125 35.5079L75.2877 35.3057C75.3198 35.2813 75.3479 35.2599 75.3704 35.2429C75.3789 35.2365 75.3955 35.224 75.4149 35.2095C75.4205 35.2053 75.4306 35.1978 75.4436 35.1882L75.435 35.1775C75.437 35.1759 75.439 35.1744 75.4409 35.1728L75.4475 35.1677L75.4564 35.1788C75.4603 35.176 75.4643 35.173 75.4686 35.1699C75.4808 35.1609 75.5035 35.1444 75.5321 35.124C75.5468 35.1135 75.5683 35.0983 75.5945 35.08C75.618 35.0636 75.6615 35.0335 75.7167 34.9967C75.7425 34.9797 75.8023 34.9408 75.8363 34.919C75.837 34.9186 75.8378 34.9181 75.8385 34.9176L75.8058 34.8838C75.8355 34.8554 75.8654 34.8272 75.8954 34.7991ZM75.9778 34.8322L75.9238 34.7735C75.9148 34.7818 75.9053 34.7903 75.8954 34.7991M75.875 34.9554C75.8624 34.9622 75.8508 34.9685 75.8427 34.973C75.8226 34.9841 75.7843 35.0056 75.7661 35.0159C75.7493 35.0255 75.7171 35.0441 75.7017 35.053L75.6468 35.0854C75.6134 35.1054 75.5837 35.1235 75.5584 35.1391C75.5329 35.1548 75.5101 35.1691 75.4903 35.1817C75.483 35.1863 75.476 35.1908 75.4692 35.1951L78.701 39.29C78.9559 39.0853 79.208 38.8767 79.4572 38.6644L75.875 34.9554ZM79.4848 38.6409L76.0204 34.8784C76.031 34.8729 76.0409 34.8678 76.0488 34.8638C76.0823 34.8469 76.1538 34.8116 76.1918 34.7932C76.2347 34.7728 76.3271 34.7302 76.3766 34.708C76.4335 34.6832 76.5571 34.6312 76.6239 34.6043C76.7023 34.5739 76.875 34.5105 76.9695 34.4781C77.0832 34.4411 77.3383 34.366 77.4799 34.3289C77.6562 34.2872 78.0602 34.2101 78.288 34.1776C78.5832 34.1471 79.2721 34.1258 79.6642 34.1448C80.1834 34.2051 81.3633 34.4976 82.0068 34.757C82.12 34.8185 82.2475 34.897 82.3845 34.9885C82.3976 34.9973 82.4108 35.0062 82.4241 35.0152C83.5692 36.2187 84.3342 37.7286 84.8059 39.1882C84.8084 39.1961 84.811 39.204 84.8135 39.212C85.0843 40.0553 85.2572 40.8812 85.3489 41.6208C85.4415 42.3671 85.4516 43.0256 85.3962 43.5257C85.3902 43.5409 85.3844 43.5553 85.379 43.5686C85.2956 43.7534 85.1317 44.0795 85.0533 44.2216C85.0483 44.2302 85.0429 44.2393 85.0373 44.2488C85.0241 44.2712 85.0093 44.2959 84.9937 44.3218C84.9846 44.3369 84.9752 44.3523 84.9657 44.368C84.9382 44.4131 84.9093 44.4598 84.8825 44.5028C84.8508 44.5535 84.8218 44.5991 84.801 44.631C84.7499 44.7065 84.6526 44.8445 84.6068 44.9071C84.5669 44.9604 84.4909 45.059 84.4549 45.1044C84.4232 45.1437 84.3625 45.2173 84.3337 45.2515C84.3193 45.2685 84.2974 45.2939 84.2768 45.3176C84.0838 45.4175 83.8831 45.502 83.6768 45.5702C83.6716 45.5719 83.6665 45.5736 83.6614 45.5753C83.5157 45.6228 83.3672 45.6622 83.2165 45.6933C83.2087 45.6949 83.2009 45.6965 83.1931 45.6981L81.0501 43.077L82.4061 41.6729L84.2525 43.4805L82.539 41.5354L84.2525 39.7611L82.4932 41.4835L79.7712 38.3936C79.6762 38.4766 79.5807 38.559 79.4848 38.6409ZM82.3529 41.6208L79.4066 38.7364C79.188 38.9577 78.9971 39.201 78.836 39.4611L79.6464 40.488L78.8342 39.4638C78.7747 39.5601 78.7192 39.6587 78.668 39.7592L79.3746 40.7123L78.6567 39.7815C78.621 39.8526 78.5874 39.9247 78.5559 39.9977C78.5532 40.004 78.5505 40.0103 78.5478 40.0166C78.524 40.0725 78.5015 40.1289 78.4802 40.1858C78.4789 40.1895 78.4775 40.1932 78.4761 40.1969C78.3087 40.6486 78.2207 41.1303 78.2207 41.6208C78.2207 42.1258 78.3139 42.6213 78.4911 43.0845L79.4435 44.4691L80.7255 43.2141L79.0483 40.952L80.7468 43.1933L80.9336 43.0104L79.2114 40.8282L80.968 42.9767L82.3529 41.6208ZM81.0149 43.1134L80.8307 43.3041L82.6966 45.7664C82.8229 45.7568 82.9483 45.7414 83.0724 45.7204L81.0149 43.1134ZM84.0035 45.6836C83.9565 45.7251 83.919 45.757 83.8986 45.7743C83.8709 45.7978 83.848 45.8168 83.8329 45.8293C83.8031 45.8539 83.7792 45.8732 83.7668 45.8832C83.7413 45.9038 83.7208 45.92 83.7122 45.9268L83.6859 45.9474C83.6498 45.9757 83.6072 46.0085 83.5799 46.0295C83.5457 46.0558 83.5052 46.0868 83.4636 46.1185C83.4229 46.1496 83.3758 46.1854 83.3298 46.2199C83.3069 46.2372 83.2801 46.2573 83.2521 46.2781C83.2277 46.2962 83.1852 46.3277 83.1357 46.3632C83.1118 46.3804 83.0682 46.4116 83.014 46.4489C83.013 46.4496 83.0119 46.4503 83.0109 46.451C82.5148 46.8201 82.0121 47.175 81.5161 47.51C80.1394 48.4478 78.716 49.3157 77.2511 50.1102C77.2127 50.1311 77.174 50.1516 77.1351 50.1717C76.3327 50.5871 75.5291 50.9961 74.6569 51.4129C74.5971 51.4415 74.5368 51.4692 74.4761 51.4961L73.9169 51.7435C73.8976 51.752 73.8783 51.7605 73.859 51.7688C73.7859 51.803 73.7114 51.8373 73.639 51.8698C73.5925 51.8906 73.5264 51.9199 73.4504 51.9519L73.4466 51.9534C73.4184 51.9653 73.3356 52.0002 73.2204 52.0442C73.1249 52.0831 73.0312 52.1204 72.9403 52.1559M73.6396 51.2313C73.6491 51.219 73.6586 51.2067 73.6679 51.1942C73.6687 51.1932 73.6695 51.1922 73.6703 51.1912C73.7747 51.0529 73.8706 50.9074 73.9574 50.7554C73.9934 50.6924 74.0276 50.6285 74.06 50.5639C74.0926 50.4988 74.1235 50.433 74.1524 50.3666C74.5119 49.5431 74.5896 48.6201 74.3661 47.7418L72.2566 48.2739L73.6396 51.2313ZM72.1267 47.996L74.2412 47.3115C73.9256 46.3454 73.3247 45.6604 72.6144 45.2228C72.315 45.0384 71.9218 44.8584 71.4593 44.7384L71.7159 45.3132L71.4359 44.7324C71.3453 44.7094 71.2522 44.6888 71.1566 44.6708V45.5606L70.7331 44.6118C70.6688 44.606 70.6038 44.6014 70.5379 44.5982C70.535 44.5981 70.5321 44.598 70.5293 44.5978L71.0168 45.6225L72.1267 47.996ZM70.3539 44.2292C70.3571 44.2279 70.3603 44.2266 70.3634 44.2252C70.4189 44.2023 70.4743 44.1792 70.5296 44.156L68.4024 39.3912C68.3061 39.4274 68.2191 39.4625 68.1499 39.4915C68.1351 39.4977 68.1211 39.5036 68.108 39.5092L70.3539 44.2292ZM67.9862 39.5634C67.9883 39.5621 68.0144 39.55 68.0584 39.5307C68.0062 39.555 67.9842 39.5646 67.9862 39.5634ZM71.1566 38.9767V43.8853C71.7164 43.637 72.269 43.3739 72.8139 43.0963C72.5942 42.4703 72.42 41.8414 72.3635 41.4401C72.3605 41.3586 72.3595 41.269 72.3604 41.1737L71.158 38.9767C71.1576 38.9767 71.1571 38.9767 71.1566 38.9767ZM71.2922 38.9858L72.3627 41.0352C72.3772 40.445 72.449 39.7027 72.52 39.3482C72.5315 39.3042 72.5449 39.2558 72.5598 39.2045C72.0792 39.0741 71.6439 39.013 71.2922 38.9858ZM73.6331 39.5983C73.7339 40.4259 73.9366 41.363 74.2648 42.3125C74.8248 41.9923 75.3756 41.6563 75.9166 41.3049C75.1773 40.4531 74.3315 39.9225 73.6331 39.5983ZM79.433 44.4794L78.5015 43.1116C78.7031 43.6277 79.0092 44.1029 79.4066 44.5053L79.433 44.4794ZM79.5931 44.6866C80.3511 45.3876 81.3481 45.7782 82.3845 45.7782C82.4638 45.7782 82.5428 45.7759 82.6216 45.7714L80.809 43.3266L79.5525 44.6276L79.5931 44.6866ZM76.1315 41.1642C75.432 40.3681 74.5635 39.7593 73.6073 39.3671C73.4943 38.2546 73.5712 37.3682 73.7757 36.9635C73.8519 36.8533 73.943 36.7302 74.0363 36.6084C74.0427 36.6 74.0491 36.5916 74.0556 36.5832C74.2564 36.3222 74.4638 36.072 74.5541 35.9741C74.6338 35.8916 74.7679 35.7589 74.8215 35.7078C74.8532 35.6782 74.9049 35.6307 74.9376 35.6011C74.944 35.5953 74.9497 35.5902 74.9543 35.586C74.9591 35.5817 74.9648 35.5767 74.9709 35.5713C74.9885 35.5558 75.0095 35.5373 75.0242 35.5244C75.0245 35.5242 75.0248 35.524 75.025 35.5237C75.0282 35.521 75.0311 35.5185 75.0335 35.5164L75.086 35.4714L75.1234 35.44L75.1513 35.4168L75.1729 35.399L75.1901 35.3849L75.2022 35.3751L75.2165 35.365L75.2383 35.3496L78.4386 39.4987C78.3818 39.5435 78.3248 39.588 78.2677 39.6324C78.2608 39.6378 78.2538 39.6432 78.2469 39.6486C78.212 39.6756 78.177 39.7026 78.142 39.7296C78.1378 39.7328 78.1336 39.7361 78.1294 39.7393C77.7086 40.0629 77.2804 40.3764 76.8454 40.6798C76.8435 40.6811 76.8416 40.6824 76.8396 40.6838C76.6056 40.8469 76.3695 41.007 76.1315 41.1642ZM78.4615 39.4807C78.5407 39.4183 78.6196 39.3555 78.6982 39.2923L75.4558 35.2037C75.449 35.2081 75.4425 35.2123 75.4363 35.2163L75.3926 35.2448C75.3749 35.2565 75.3588 35.2672 75.3446 35.2768L78.4615 39.4807ZM75.1249 35.4311C75.1235 35.4322 75.1238 35.4319 75.1257 35.4305L75.1249 35.4311ZM72.6079 39.0442C72.1567 38.9357 71.6935 38.8729 71.2256 38.8582ZM71.0587 38.7953C70.218 38.8077 69.5754 38.9764 69.4187 39.0175C69.4148 39.0185 69.4113 39.0194 69.408 39.0202C69.2322 39.0662 69.0807 39.1132 68.9651 39.1515M71.4957 52.4595C71.4828 52.4608 71.4698 52.4622 71.4566 52.4635C71.3201 52.4773 71.1646 52.4888 70.9942 52.4944C70.6745 52.5048 69.8555 52.515 68.8624 52.2258C68.1354 52.0141 66.7268 51.453 65.5854 50.1134C65.5492 50.071 65.5134 50.0279 65.4778 49.9839C65.1384 49.5642 64.8261 49.0723 64.5671 48.4962C64.0059 47.2482 63.9115 46.0809 64.0013 45.1256C64.0894 44.1888 64.3545 43.4558 64.5304 43.0501C65.1517 41.6172 66.1411 40.7735 66.2024 40.7213C66.204 40.7199 66.205 40.7191 66.2053 40.7188C66.4689 40.4807 66.6945 40.3155 66.7921 40.2453C67.0051 40.092 67.1812 39.9846 67.2414 39.948C67.268 39.9319 67.2942 39.9163 67.3198 39.9012M84.0035 45.6836C84.322 45.4306 84.7098 45.113 85.109 44.7488C85.1487 44.7125 85.1881 44.6757 85.2269 44.6385C85.188 44.6758 85.1484 44.7122 85.1081 44.7478C84.9186 44.9154 84.715 45.0642 84.5004 45.1929C84.6162 45.0585 84.8015 44.8308 84.9748 44.603C85.0071 44.5605 85.039 44.518 85.07 44.476C85.0791 44.4637 85.0882 44.4514 85.0971 44.4392C85.1162 44.4131 85.1349 44.3874 85.1529 44.362C85.1725 44.3346 85.1914 44.3078 85.2095 44.2816C85.2963 44.1099 85.3601 43.8514 85.3962 43.5257C85.4986 43.2657 85.6741 42.7423 85.7552 42.4326C85.7928 42.2444 85.8307 41.9469 85.8602 41.6208C85.9001 41.1797 85.9244 40.6863 85.9116 40.3409C85.8527 39.9225 85.666 39.2571 85.4331 38.6054C85.4273 38.5892 85.4215 38.573 85.4157 38.5568C85.2206 38.0168 84.9952 37.4907 84.7861 37.1276C84.2811 36.4825 83.2082 35.5464 82.4241 35.0152C82.4109 35.0013 82.3977 34.9876 82.3845 34.9738C82.0972 34.6759 81.7863 34.3972 81.4504 34.1433C79.5604 33.8569 77.1722 34.2631 76.6928 34.4573C76.4885 34.5534 76.1768 34.7164 76.0672 34.7787C76.0418 34.7936 76.0101 34.8126 75.9778 34.8322M75.8954 34.7991C75.8 34.8844 75.6627 34.9984 75.4409 35.1728L75.0125 35.5079" fill="white"></path> <path fill-rule="evenodd" clip-rule="evenodd" d="M70.1596 28.7256C76.72 28.4346 79.5023 34.1135 79.8559 37.3921L79.8591 37.4228C80.5913 44.5176 79.8259 51.6862 77.6122 58.469C76.8942 60.758 75.3295 62.6918 73.2328 63.8774C71.1073 65.0793 68.5984 65.4201 66.2271 64.8288C66.1551 64.8108 66.0833 64.7917 66.0119 64.7713C63.6231 64.0921 61.5985 62.5047 60.3755 60.3521C59.1524 58.1994 58.8289 55.6542 59.4749 53.2662C59.5067 53.1484 59.5418 53.0315 59.58 52.9156C61.0739 48.3844 61.5784 43.5877 61.0598 38.8467C60.6866 35.4486 62.3156 32.7951 64.0225 31.2554C65.6553 29.7824 67.8464 28.8252 70.1596 28.7256Z" fill="white"></path> <path fill-rule="evenodd" clip-rule="evenodd" d="M109.025 40.889C111.174 39.6601 113.723 39.3215 116.121 39.948C118.542 40.5801 120.611 42.1433 121.874 44.294C121.913 44.3602 121.95 44.4271 121.987 44.4946C123.08 46.511 123.416 48.8469 122.939 51.084C122.105 55.4751 120.358 59.6438 117.809 63.3222C116.524 65.2935 114.545 66.7202 112.255 67.318C109.885 67.9373 107.365 67.6195 105.224 66.4311C105.172 66.4024 105.121 66.3729 105.07 66.3428C102.93 65.0807 101.376 63.0297 100.745 60.6346C100.113 58.2395 100.456 55.6932 101.698 53.5477C101.742 53.4707 101.788 53.3946 101.836 53.3194C102.276 52.6248 102.669 51.9704 103.014 51.3455C103.029 51.3175 103.045 51.2895 103.061 51.2617C103.103 51.1883 103.166 51.071 103.253 50.9015C103.321 50.77 103.381 50.6491 103.45 50.5112C103.458 50.4958 103.466 50.4802 103.474 50.4644C103.478 50.4556 103.482 50.4453 103.487 50.4329C103.489 50.4271 103.492 50.4201 103.495 50.4123C103.51 50.3765 103.532 50.3225 103.554 50.2717L103.558 50.2616C103.609 50.1374 103.708 49.8997 103.854 49.6032C103.861 49.586 103.867 49.5699 103.872 49.5576C103.875 49.5496 103.877 49.5432 103.879 49.5392C103.885 49.5233 103.889 49.5123 103.892 49.5054C103.995 49.2142 104.079 48.9564 104.146 48.7207M109.025 40.889C107.966 41.487 107.034 42.2851 106.283 43.2387C105.602 44.1023 105.08 45.0782 104.741 46.1208C104.612 46.4976 104.516 46.8906 104.454 47.2971C104.382 47.7772 104.279 48.2523 104.146 48.7195M103.454 50.5123C103.454 50.5123 103.454 50.5107 103.456 50.5077C103.454 50.5109 103.454 50.5124 103.454 50.5123Z" fill="white"></path> <path fill-rule="evenodd" clip-rule="evenodd" d="M92.9729 19.3928C98.4505 19.6961 103.8 21.1602 108.665 23.6874C108.706 23.7088 108.747 23.7305 108.787 23.7527C113.331 26.2324 117.141 29.8561 119.837 34.2616C119.855 34.2896 119.871 34.3177 119.888 34.346C122.812 39.2845 123.914 45.0831 123.005 50.7423C122.486 54.2227 120.082 56.335 118.155 57.3205C116.256 58.2916 113.741 58.7745 111.227 58.0845C105.19 56.4349 104.01 50.7186 104.444 47.4368L104.445 47.4314C104.547 46.6663 104.477 45.8886 104.24 45.1546C104.221 45.1084 104.183 45.0174 104.12 44.8676C104.099 44.8156 104.055 44.7121 104.013 44.6046C104.008 44.5932 104.002 44.576 103.993 44.554C103.946 44.4534 103.929 44.418 103.926 44.4114C103.697 43.9899 103.444 43.5825 103.166 43.1917C103.149 43.1691 103.134 43.1464 103.118 43.1236C103.098 43.0987 103.078 43.0738 103.059 43.0488L102.96 42.9266C102.779 42.7207 102.619 42.5431 102.467 42.3831C102.109 42.0117 101.73 41.6598 101.334 41.3289C100.996 41.0672 100.642 40.825 100.276 40.6036L100.243 40.5833C99.7117 40.2582 99.162 39.9646 98.5964 39.7039C96.156 38.6813 93.5362 38.1488 90.8878 38.1374C90.862 38.1373 90.8361 38.137 90.8103 38.1366C90.0334 38.1245 89.2801 38.1418 88.534 38.1918C88.5259 38.193 88.5164 38.1943 88.505 38.196C88.4694 38.2011 88.3984 38.2113 88.3258 38.2213C88.0379 38.2607 87.6328 38.3088 87.1258 38.3251L87.121 38.3259C85.9171 38.5276 84.7379 38.8536 83.6024 39.2983C83.5379 39.3286 83.477 39.3564 83.4342 39.3757C83.3382 39.4192 83.2356 39.4648 83.1639 39.4965L82.7112 39.719C82.4659 39.8415 82.2153 39.9782 81.9665 40.1248C81.9435 40.1384 81.9203 40.1519 81.8971 40.1652C81.4752 40.4071 81.0668 40.6716 80.6738 40.9574C80.6404 40.9851 80.6142 41.0066 80.5999 41.0184L80.5926 41.0244C80.5281 41.0774 80.4238 41.1627 80.3215 41.2455L79.9321 41.5926L79.9133 41.6093C79.7244 41.7765 79.5072 41.985 79.2573 42.2392C78.8737 42.6361 78.5151 43.0563 78.1836 43.4974C78.0441 43.683 77.8963 43.86 77.7409 44.028C76.4811 45.5388 74.7717 46.6309 72.8425 47.1348C70.4784 47.7523 67.9663 47.4389 65.8283 46.2598C65.7819 46.2342 65.7357 46.208 65.6898 46.1813C63.4251 44.8623 62.0041 42.727 61.3846 40.64C60.7532 38.5133 60.7028 35.4651 62.6703 32.7684C66.4761 27.5156 71.7854 23.5281 77.9043 21.3273C77.935 21.3162 77.9658 21.3054 77.9967 21.2948C82.8048 19.643 87.9029 18.9957 92.9729 19.3928ZM73.6596 40.7327L73.6821 40.7019C73.6747 40.7122 73.6672 40.7225 73.6596 40.7327Z" fill="white"></path> <path fill-rule="evenodd" clip-rule="evenodd" d="M127.385 59.8593C128.628 59.6987 129.891 59.7858 131.1 60.1157C131.153 60.1301 131.205 60.1451 131.258 60.1608C133.537 60.8418 135.476 62.3482 136.695 64.3828C136.755 64.4826 136.812 64.584 136.866 64.6867C137.923 66.6784 138.249 68.972 137.792 71.1731C137.147 74.7884 136.047 78.3085 134.517 81.6498C134.441 81.8162 134.358 81.9794 134.268 82.1391C133.661 83.2231 132.841 84.1748 131.859 84.938C130.883 85.6953 129.766 86.2519 128.573 86.5756C127.365 86.9062 126.103 86.9938 124.86 86.8333C123.608 86.6716 122.402 86.2612 121.312 85.6267L121.27 85.6021C119.221 84.3887 117.704 82.4528 117.021 80.1782C116.986 80.0646 116.955 79.9501 116.927 79.8349C116.393 77.6417 116.65 75.3355 117.647 73.3173L117.701 73.1959C118.46 71.3258 119.012 69.3777 119.345 67.3866L119.353 67.3371C119.392 67.1059 119.442 66.8769 119.505 66.6509C119.833 65.469 120.391 64.3628 121.149 63.3958C121.899 62.4382 122.83 61.6359 123.889 61.0337C124.965 60.4176 126.153 60.0184 127.385 59.8593Z" fill="white"></path> <path fill-rule="evenodd" clip-rule="evenodd" d="M116.642 40.0075C123.199 41.188 129.065 44.8003 133.054 50.1181C137.964 56.5457 138.799 64.1074 137.861 70.8469L137.858 70.8704C137.358 74.3734 134.957 76.5075 133.013 77.5077C131.112 78.4859 128.594 78.9731 126.073 78.2829C120.081 76.6434 118.818 70.9605 119.306 67.5622C119.308 67.5424 119.311 67.5226 119.314 67.5028C119.522 66.1397 119.435 64.7481 119.057 63.4217C119.022 63.3013 118.984 63.1819 118.942 63.0636C118.917 63.0074 118.894 62.9555 118.877 62.9165C118.838 62.8283 118.799 62.736 118.768 62.6654C118.709 62.5438 118.685 62.496 118.667 62.4631C118.649 62.4302 118.632 62.3971 118.614 62.3638C118.521 62.184 118.387 61.9576 118.188 61.654C118.175 61.6347 118.162 61.6153 118.15 61.5958C118.12 61.5499 118.107 61.5304 118.069 61.4764C118.049 61.4466 118.02 61.4062 117.978 61.3449L117.966 61.3295C117.592 60.8721 117.18 60.4471 116.733 60.0592C116.437 59.8047 116.116 59.5797 115.775 59.3873C115.725 59.3592 115.676 59.3303 115.626 59.3009C115.291 59.1004 114.938 58.9313 114.572 58.7959C114.164 58.6546 113.746 58.5416 113.323 58.4577C113.173 58.4449 113.023 58.4271 112.873 58.4043C109.438 57.8811 107.307 55.5618 106.286 53.6065C105.288 51.6964 104.813 49.1974 105.493 46.7026C105.516 46.6202 105.54 46.5381 105.566 46.4566C106.288 44.1566 107.863 42.2165 109.97 41.0301C111.996 39.8888 114.37 39.5272 116.642 40.0075Z" fill="white"></path> <path fill-rule="evenodd" clip-rule="evenodd" d="M16.3392 100.701C16.0608 101.82 16.0198 103.444 16.9698 105.773L16.9705 105.775C17.8374 107.903 19.7584 111.008 22.5643 114.768C25.2935 118.425 28.5824 122.337 31.8666 126.011C35.1433 129.675 38.358 133.039 40.9079 135.587C42.1842 136.863 43.2718 137.913 44.1013 138.682C44.7215 139.257 45.0732 139.558 45.2116 139.676C45.2877 139.741 45.2993 139.751 45.2556 139.721C45.2945 139.748 45.3332 139.775 45.3715 139.803C47.8582 141.59 50.6772 142.867 53.6643 143.559C58.9054 144.635 63.7252 142.395 65.2177 139.441L65.2181 139.44C67.0001 135.914 65.8233 131.758 61.1177 126.496L61.1173 126.496C58.8247 123.932 56.598 121.295 54.435 118.731L54.2299 118.487C52.1191 115.984 50.0673 113.551 47.9693 111.185C43.6347 106.298 39.3076 101.937 34.5038 98.4362L34.4714 98.4124C34.3127 98.2953 34.1568 98.18 34.0035 98.0666C32.403 96.883 31.0784 95.9035 29.6279 95.1167C28.1194 94.2986 26.8655 93.9216 25.7142 93.8953C24.5105 93.8699 20.994 94.8622 18.457 97.2916C17.3253 98.3753 16.6323 99.5234 16.3392 100.701ZM9.03379 87.5389C13.9349 82.8457 20.8714 80.2538 26.0152 80.3666L26.0188 80.3667C33.2075 80.5281 38.8672 84.7708 41.911 87.0527C42.139 87.2236 42.3524 87.3836 42.5506 87.5299C48.4973 91.867 53.5674 97.0516 58.1591 102.229C60.3718 104.724 62.521 107.273 64.6017 109.74L64.8458 110.03C67.0226 112.611 69.128 115.102 71.2704 117.498M9.03379 87.5389C6.44585 90.0171 4.17319 93.3157 3.14509 97.4468ZM3.14509 97.4468C2.10239 101.636 2.46654 106.182 4.37433 110.862ZM4.37503 110.863C5.91229 114.635 8.68434 118.86 11.6531 122.838C14.699 126.92 18.2668 131.153 21.7131 135.008C25.1668 138.87 28.5564 142.417 31.2768 145.137C32.6356 146.495 33.8495 147.668 34.8372 148.584C35.6665 149.353 36.6469 150.235 37.4533 150.802C41.4204 153.646 45.9184 155.672 50.6834 156.762C50.6998 156.765 50.7162 156.769 50.7327 156.773C50.7562 156.778 50.7797 156.783 50.8033 156.788C59.9871 158.715 72.2253 155.686 77.361 145.522M77.3613 145.521C83.1595 134.047 76.7714 123.65 71.2708 117.499Z" fill="white"></path> <path fill-rule="evenodd" clip-rule="evenodd" d="M16.3392 100.701C16.0608 101.82 16.0198 103.444 16.9698 105.773L16.9705 105.775C17.8374 107.903 19.7584 111.008 22.5643 114.768C25.2935 118.425 28.5824 122.337 31.8666 126.011C35.1433 129.675 38.358 133.039 40.9079 135.587C42.1842 136.863 43.2718 137.913 44.1013 138.682C44.7215 139.257 45.0732 139.558 45.2116 139.676C45.2877 139.741 45.2993 139.751 45.2556 139.721C45.2945 139.748 45.3332 139.775 45.3715 139.803C47.8582 141.59 50.6772 142.867 53.6643 143.559C58.9054 144.635 63.7252 142.395 65.2177 139.441L65.2181 139.44C67.0001 135.914 65.8233 131.758 61.1177 126.496L61.1173 126.496C58.8247 123.932 56.598 121.295 54.435 118.731L54.2299 118.487C52.1191 115.984 50.0673 113.551 47.9693 111.185C43.6347 106.298 39.3076 101.937 34.5038 98.4362L34.4714 98.4124C34.3127 98.2953 34.1568 98.18 34.0035 98.0666C32.403 96.883 31.0784 95.9035 29.6279 95.1167C28.1194 94.2986 26.8655 93.9216 25.7142 93.8953C24.5105 93.8699 20.994 94.8622 18.457 97.2916C17.3253 98.3753 16.6323 99.5234 16.3392 100.701ZM9.03379 87.5389C13.9349 82.8457 20.8714 80.2538 26.0152 80.3666L26.0188 80.3667C33.2075 80.5281 38.8672 84.7708 41.911 87.0527C42.139 87.2236 42.3524 87.3836 42.5506 87.5299C48.4973 91.867 53.5674 97.0516 58.1591 102.229C60.3718 104.724 62.521 107.273 64.6017 109.74L64.8458 110.03C67.0226 112.611 69.128 115.102 71.2704 117.498M9.03379 87.5389C6.44585 90.0171 4.17319 93.3157 3.14509 97.4468ZM3.14509 97.4468C2.10239 101.636 2.46654 106.182 4.37433 110.862ZM4.37503 110.863C5.91229 114.635 8.68434 118.86 11.6531 122.838C14.699 126.92 18.2668 131.153 21.7131 135.008C25.1668 138.87 28.5564 142.417 31.2768 145.137C32.6356 146.495 33.8495 147.668 34.8372 148.584C35.6665 149.353 36.6469 150.235 37.4533 150.802C41.4204 153.646 45.9184 155.672 50.6834 156.762C50.6998 156.765 50.7162 156.769 50.7327 156.773C50.7562 156.778 50.7797 156.783 50.8033 156.788C59.9871 158.715 72.2253 155.686 77.361 145.522M77.3613 145.521C83.1595 134.047 76.7714 123.65 71.2708 117.499Z" fill="white"></path> <path fill-rule="evenodd" clip-rule="evenodd" d="M9.0416 87.5702C13.9427 82.877 20.8793 80.285 26.023 80.3978C26.073 80.3989 26.1229 80.4006 26.1728 80.4028C29.83 80.5633 33.3897 81.6268 36.5314 83.4975C39.1524 85.0581 40.4058 88.1675 39.5957 91.0989C38.7856 94.0304 36.1108 96.0639 33.0568 96.0702C26.7971 96.0832 24.4619 97.9367 23.7393 98.8916C23.0891 99.7508 22.6413 101.342 23.7373 103.842C25.0997 106.951 29.7678 113.546 36.045 120.578C42.2597 127.539 49.0623 133.814 54.0946 136.739C59.1507 139.677 62.487 140.079 64.136 140.047C64.9874 140.03 65.5065 139.896 65.7024 139.835C65.723 139.829 65.7405 139.823 65.7548 139.818C68.6399 138.323 72.2159 139.073 74.2432 141.654C76.3544 144.341 76.1253 148.173 73.7089 150.593C67.6823 156.626 58.4704 158.427 50.8103 156.819C50.7705 156.811 50.7308 156.802 50.6912 156.793C45.9221 155.702 41.4204 153.673 37.4508 150.826C36.6589 150.266 35.6824 149.385 34.8481 148.61C33.8648 147.696 32.6538 146.524 31.2963 145.166C28.579 142.449 25.1892 138.903 21.7338 135.04C18.2861 131.186 14.7153 126.953 11.6669 122.872C8.69595 118.894 5.92076 114.668 4.38284 110.895M65.4373 139.994L65.4372 139.994L65.437 139.994C65.4371 139.994 65.4372 139.994 65.4373 139.994ZM9.0416 87.5702C6.45367 90.0483 4.18101 93.347 3.1529 97.478ZM3.1529 97.478C2.1102 101.668 2.47436 106.214 4.38214 110.893Z" fill="white"></path> <path fill-rule="evenodd" clip-rule="evenodd" d="M19.2232 80.5269C20.993 78.765 23.3935 77.7751 25.8964 77.7751C25.9747 77.7751 26.0531 77.7765 26.1313 77.7792C33.8326 78.0443 39.6477 82.1503 43.8145 85.2228C52.4851 91.5803 59.4012 99.5102 65.7165 106.994C65.8296 107.128 65.9422 107.261 66.0546 107.394C67.513 109.118 68.9178 110.778 70.428 112.537C70.8197 112.993 71.2642 113.498 71.7385 114.036C72.9545 115.417 74.3657 117.019 75.5812 118.592L75.5924 118.606C79.0742 123.138 82.1724 129.065 82.3024 136.007C82.3054 136.171 82.3025 136.336 82.2936 136.5C82.1628 138.902 81.1121 141.163 79.3577 142.817C77.6033 144.471 75.2787 145.393 72.8622 145.393C70.4458 145.393 68.1211 144.471 66.3668 142.817C64.6124 141.163 63.5617 138.902 63.4309 136.5C63.4263 136.416 63.4234 136.333 63.4219 136.249C63.387 134.22 62.0663 131.523 59.2683 128.382L59.2591 128.372C56.8068 125.608 54.5677 122.951 52.394 120.371C48.7376 116.032 45.2664 111.913 41.2772 107.875L41.2516 107.849C38.4844 105.017 35.4935 102.412 32.3075 100.057C32.2745 100.032 32.2418 100.008 32.2092 99.9828C30.8845 98.966 29.4864 98.0477 28.0262 97.2354C27.3864 96.8922 26.6915 96.6656 25.9743 96.565C25.9484 96.5653 25.9224 96.5654 25.8964 96.5654C23.3934 96.5654 20.993 95.5755 19.2232 93.8136C17.4533 92.0518 16.459 89.6621 16.459 87.1703C16.459 84.6785 17.4533 82.2888 19.2232 80.5269Z" fill="white"></path> <path fill-rule="evenodd" clip-rule="evenodd" d="M25.8807 77.783C28.3837 77.783 30.7841 78.7728 32.554 80.5347C34.3238 82.2966 35.3182 84.6863 35.3182 87.1781C35.3182 89.6699 34.3238 92.0596 32.554 93.8215C30.7841 95.5834 28.3837 96.5732 25.8807 96.5732H25.5716C25.1122 96.6648 24.8816 96.7154 24.6659 96.7793C24.6358 96.7882 24.6057 96.7969 24.5755 96.8054C24.3291 96.8747 24.1468 96.933 24.0045 96.9843C24.0034 96.9847 24.0023 96.9851 24.0012 96.9855L23.6524 97.1123C22.7334 97.5263 21.8556 98.0256 21.0307 98.6034L20.6811 98.8974C20.4713 99.0821 20.3106 99.2333 20.1755 99.3712C20.044 99.5055 19.8979 99.6668 19.6909 99.9055C19.6252 99.9936 19.5978 100.032 19.5779 100.061C19.5415 100.114 19.5043 100.167 19.4663 100.219C19.4601 100.229 19.4519 100.243 19.4414 100.26C19.4175 100.3 19.3874 100.351 19.3468 100.422C19.3214 100.467 19.2963 100.511 19.2678 100.561L19.1065 100.873C19.0218 101.113 18.9466 101.356 18.881 101.601C18.8763 101.649 18.8711 101.697 18.8653 101.745C18.8639 101.814 18.8614 101.883 18.8579 101.953C18.8477 102.15 18.8466 102.348 18.8544 102.545L18.8777 102.839C18.8908 102.915 18.9033 102.991 18.915 103.066C18.9581 103.284 19.0194 103.536 19.1044 103.838C19.1937 104.145 19.3129 104.49 19.4771 104.922C19.4772 104.922 19.4771 104.922 19.4771 104.922C19.4985 104.971 19.521 105.023 19.5342 105.054C19.5449 105.077 19.5554 105.099 19.5658 105.122C19.7827 105.591 20.0363 106.084 20.3323 106.624C21.9262 109.394 23.7172 112.047 25.6913 114.562C25.6996 114.572 25.7069 114.58 25.7131 114.588C25.7176 114.593 25.7214 114.598 25.7246 114.602C25.7386 114.619 25.7503 114.633 25.7585 114.643C25.7745 114.663 25.7878 114.68 25.796 114.69C25.8128 114.711 25.8279 114.73 25.8383 114.743C25.8601 114.771 25.883 114.8 25.903 114.826C25.9231 114.852 25.9457 114.881 25.967 114.909L26.0056 114.959L26.0347 114.998L26.057 115.027C26.0572 115.028 26.0574 115.028 26.0577 115.028L26.1088 115.094L26.5944 115.709L27.4624 116.791C27.464 116.793 27.4655 116.795 27.4671 116.797C27.5186 116.861 27.5696 116.924 27.62 116.987C28.2422 117.759 28.7797 118.427 29.3094 119.04C29.336 119.071 29.3623 119.102 29.3884 119.133C30.6929 120.7 32.0107 122.224 33.3417 123.708L33.3539 123.721C35.8472 126.515 38.404 129.259 41.0242 131.953L41.046 131.975C42.8099 133.806 44.6107 135.589 46.4419 137.254L46.4444 137.256C46.6222 137.418 46.7803 137.558 46.9222 137.679C46.9242 137.681 46.9261 137.682 46.9281 137.684C48.6491 138.889 50.5306 139.849 52.5181 140.536C53.0713 140.715 53.5393 140.847 54.0017 140.95L54.6678 141.084C54.6931 141.088 54.755 141.098 54.8725 141.116C54.8791 141.117 54.8866 141.118 54.8945 141.12C55.556 141.193 56.2225 141.212 56.8873 141.177C56.8985 141.176 56.9097 141.176 56.9209 141.175C56.9307 141.175 56.9406 141.174 56.9504 141.174C57.1112 141.167 57.2495 141.159 57.3709 141.149C57.4182 141.142 57.4602 141.135 57.4954 141.13C57.6691 141.105 57.8417 141.084 57.9897 141.069C58.2486 141.023 58.4598 140.98 58.6497 140.935L58.6935 140.925C59.0481 140.843 59.3984 140.744 59.7433 140.628L60.2206 140.453C60.2267 140.45 60.2329 140.447 60.239 140.444C60.7481 140.21 61.2357 139.933 61.6962 139.615C61.8267 139.507 61.8736 139.468 61.874 139.469C61.8742 139.469 61.8601 139.481 61.8381 139.501C61.8623 139.48 61.8868 139.458 61.9113 139.437C62.0099 139.353 62.0704 139.294 62.1091 139.254C62.1566 139.205 62.2048 139.157 62.2538 139.11C62.3305 139.035 62.4045 138.958 62.4754 138.878C62.5231 138.809 62.6001 138.699 62.654 138.622C62.705 138.542 62.7472 138.47 62.7838 138.403C62.8126 138.35 62.8422 138.298 62.8724 138.246C62.9476 138.116 63.0104 137.98 63.0602 137.839C63.0655 137.824 63.0709 137.809 63.0763 137.794C63.0835 137.774 63.0908 137.755 63.0981 137.735C63.248 137.332 63.341 136.911 63.375 136.484C63.3685 136.355 63.3656 136.225 63.3665 136.095C63.3855 133.337 64.5488 130.826 66.5805 129.095C68.4737 127.482 70.7676 126.835 72.8164 126.835C74.8645 126.835 77.1659 127.482 79.063 129.108C81.0968 130.851 82.2442 133.372 82.249 136.124C82.2577 138.539 81.8878 140.94 81.1525 143.241C81.1451 143.265 81.1376 143.288 81.1299 143.311C78.5594 151.065 72.4182 156.306 65.259 158.633C65.2202 158.646 65.1812 158.658 65.1421 158.67C58.2845 160.764 50.9048 160.375 44.3094 157.573C40.1486 155.916 36.3205 153.527 33.0079 150.521C32.9895 150.505 32.9713 150.488 32.9531 150.471C30.5415 148.234 28.2677 145.92 26.0995 143.66C19.7482 137.166 13.8521 130.245 8.4528 122.947C5.9773 119.674 3.87644 116.137 2.1893 112.4C2.17111 112.359 2.15332 112.319 2.13592 112.278C-0.38775 106.382 -0.964607 99.5097 1.99184 92.9407C2.02325 92.8709 2.05586 92.8016 2.08964 92.7329C4.44938 87.9329 8.25299 83.9862 12.9693 81.4402C16.8311 79.1552 21.219 77.8961 25.712 77.785C25.7682 77.7837 25.8245 77.783 25.8807 77.783ZM25.9175 114.849C25.9138 114.844 25.9117 114.841 25.9117 114.841C25.9117 114.841 25.9129 114.843 25.9156 114.846L25.9175 114.849ZM19.5895 112.411C19.8968 112.385 20.2041 112.369 20.5022 112.361C20.2591 112.345 20.0249 112.338 19.8095 112.344C19.7375 112.364 19.6641 112.386 19.5895 112.411ZM17.6871 112.501C17.9877 112.234 18.2725 111.96 18.4409 111.77C18.7085 111.422 19.1407 110.737 19.3106 110.407C19.3439 110.334 19.382 110.244 19.4217 110.146C18.9846 110.832 18.3463 111.634 17.6041 112.373C17.6317 112.416 17.6593 112.458 17.6871 112.501Z" fill="white"></path> <path d="M128.596 69.2008L129.466 69.309C132.121 70.1292 134.523 71.6064 136.448 73.6025C138.373 75.5987 139.758 78.0484 140.473 80.7224C142.189 86.9085 140.644 94.4787 138.236 100.278C135.276 107.431 130.305 113.609 124.557 118.798C105.916 135.632 81.1219 141.996 57.6021 131.843C44.0091 125.989 29.1655 107.671 27.4023 93.0404C25.9187 80.6682 27.5576 72.4175 33.0337 61.3367C35.3251 56.6971 39.3641 48.4696 33.4065 30.7774C31.5268 25.1712 26.2527 15.1111 33.29 9.89928C38.3854 6.07937 48.4365 3.96063 59.2721 14.941C65.5119 21.2034 69.4519 29.375 70.4572 38.1388C77.0983 28.9679 88.532 27.3132 98.319 29.7489C108.106 32.1847 112.774 39.1286 113.652 43.9692C113.952 45.6422 113.98 47.3521 113.737 49.0341L114.615 49.181C117.831 49.6978 120.831 51.1232 123.257 53.2876C125.683 55.4521 127.434 58.2646 128.301 61.3908C128.924 63.9481 129.025 66.6041 128.596 69.2008V69.2008Z" fill="#FFB000"></path> <path d="M96.7269 35.6793C107.376 38.2543 111.244 41.2855 112.837 47.0695C113.14 48.1675 113.489 48.1985 113.87 47.5412C113.936 46.3383 113.863 45.1318 113.652 43.9455C112.774 39.1049 108.098 32.1533 98.3192 29.7252C88.54 27.2972 77.0986 28.952 70.4574 38.1151C70.1993 35.8684 69.7444 33.6484 69.0981 31.4805L70.605 45.4998C76.0733 38.3316 86.0855 33.0967 96.7269 35.6793Z" fill="white"></path> <path d="M42.6661 7.15226L42.4409 6.76562C39.141 6.81895 35.941 7.90068 33.2908 9.85867C26.2535 15.1091 31.5276 25.1693 33.4073 30.7754C39.365 48.4677 35.3259 56.7261 33.0345 61.3347C28.6537 70.1886 26.7351 77.264 26.8982 86.0791C32.7316 89.3578 39.0388 92.6596 37.9435 90.8966C35.9706 87.7262 33.586 75.1607 39.497 63.469C45.4081 51.7772 45.5867 39.2581 40.1805 28.0303C34.7744 16.8026 34.9608 8.80704 42.6661 7.15226Z" fill="white"></path> <path d="M71.0482 51.2125C75.8994 49.4852 80.3794 46.8617 84.2529 43.4799C84.7429 42.9838 85.0175 42.3159 85.0175 41.6202C85.0175 40.9244 84.7429 40.2565 84.2529 39.7605C83.7508 39.2799 83.0813 39.0115 82.3848 39.0115C81.6883 39.0115 81.0188 39.2799 80.5167 39.7605C80.2371 40.0157 79.942 40.2554 79.6468 40.4873L79.2118 40.8276C78.8778 41.0982 79.8099 40.3791 79.3749 40.7116L79.0487 40.9513C78.6059 41.2838 78.1477 41.6086 77.6894 41.9179C76.4986 42.7297 75.2672 43.4807 73.9999 44.1681C73.2231 44.5702 72.493 44.9413 71.7162 45.3125L71.157 45.5599C71.0715 45.5599 70.4268 45.9002 71.0172 45.6218C70.5667 45.8306 70.0928 45.993 69.6268 46.1631C68.9582 46.3613 68.3926 46.8092 68.048 47.413C67.7035 48.0168 67.6068 48.7299 67.7781 49.4031C68.1898 50.6635 69.6423 51.7229 71.0327 51.2434L71.0482 51.2125Z" fill="#FF004F"></path> <path d="M67.8177 38.1139C68.441 43.8128 67.8346 49.5784 66.0389 55.0251C65.857 55.6976 65.9481 56.4144 66.2925 57.0206C66.637 57.6268 67.2071 58.0738 67.8798 58.2651C68.5559 58.4337 69.2713 58.3365 69.8773 57.9938C70.4834 57.6511 70.9336 57.0892 71.1344 56.4247C73.0672 50.5248 73.7366 44.2872 73.0995 38.1139C72.9519 36.7452 71.9888 35.4152 70.4586 35.4848C69.1537 35.5389 67.6546 36.6447 67.8177 38.1139Z" fill="#FF004F"></path> <path d="M111.174 48.3056C111.059 49.0678 110.896 49.8219 110.685 50.5635C110.568 50.9734 110.436 51.3755 110.297 51.7698C110.242 51.9245 110.18 52.0714 110.126 52.2183L110.009 52.5199C109.901 52.7828 109.924 52.7209 110.087 52.342C109.885 52.6668 109.768 53.0612 109.598 53.4014C109.427 53.7416 109.194 54.2133 108.968 54.6077C108.541 55.381 108.075 56.1542 107.586 56.9275C107.237 57.5304 107.141 58.246 107.318 58.919C107.495 59.5921 107.932 60.1685 108.533 60.5232C109.141 60.8606 109.857 60.9509 110.53 60.775C111.203 60.5992 111.782 60.1709 112.145 59.5798C114.211 56.6288 115.62 53.2728 116.278 49.7361C116.438 49.0504 116.342 48.3298 116.006 47.7102C115.652 47.1084 115.073 46.6709 114.396 46.494C113.719 46.3171 112.998 46.4152 112.394 46.7668C112.098 46.9312 111.837 47.1526 111.628 47.4181C111.419 47.6836 111.264 47.9879 111.174 48.3133V48.3056Z" fill="#FF004F"></path> <path d="M72.7417 39.4439C73.2472 38.7712 73.7946 38.1307 74.3806 37.5262C74.7069 37.1937 75.0487 36.8612 75.3982 36.5519L75.9186 36.0879C75.9885 36.0338 76.6254 35.5157 76.3536 35.7245C77.0396 35.2051 77.7583 34.7299 78.5052 34.3017C78.8858 34.0774 79.2819 33.8609 79.6858 33.6599L80.2839 33.366C80.2839 33.366 81.0606 33.0258 80.6334 33.1959C82.362 32.4761 84.1682 31.9572 86.0163 31.6494L86.5444 31.5643C87.3833 31.4329 86.2648 31.5643 86.7697 31.5643C87.2746 31.5643 87.5465 31.4793 87.9659 31.4483C88.9524 31.3787 89.9311 31.3555 90.9175 31.371C94.5008 31.3865 98.0449 32.1147 101.341 33.5129C102.188 33.8978 103.011 34.3342 103.804 34.8198C104.429 35.1979 105.031 35.6136 105.606 36.0647C106.233 36.5818 106.829 37.1343 107.392 37.7195C107.656 37.9979 107.913 38.284 108.169 38.5778L108.526 39.0186C108.643 39.1655 108.62 39.1346 108.449 38.9258C108.542 39.0418 108.627 39.1578 108.713 39.2815C109.157 39.9056 109.561 40.5563 109.924 41.2301C110.111 41.5781 110.258 41.9415 110.437 42.2895C110.111 41.6477 110.577 42.6606 110.639 42.8694C111.241 44.6203 111.427 46.4864 111.183 48.3209C110.996 49.7283 111.525 51.1511 113.031 51.5609C114.266 51.9011 116.092 51.1433 116.286 49.7205C116.959 45.601 116.162 41.3769 114.033 37.7814C111.956 34.3874 109.021 31.5957 105.52 29.6853C101.491 27.5917 97.0565 26.384 92.5176 26.1438C88.3531 25.8068 84.1637 26.3334 80.214 27.6903C75.3771 29.43 71.1807 32.5834 68.1745 36.7375C67.3278 37.8896 67.9803 39.6758 69.1221 40.3409C69.7304 40.6764 70.4453 40.7655 71.1179 40.5898C71.7906 40.4141 72.3694 39.9871 72.7339 39.3975L72.7417 39.4439Z" fill="black"></path> <path d="M126.05 68.4965C125.596 71.217 124.813 73.873 123.72 76.407L123.984 75.7807L123.798 76.206C123.46 76.8281 123.366 77.5525 123.534 78.2396C123.728 78.8882 124.161 79.4402 124.745 79.7862C125.05 79.9634 125.387 80.0779 125.736 80.1231C126.086 80.1683 126.441 80.1431 126.78 80.0491C127.107 79.9615 127.413 79.8097 127.68 79.6025C127.947 79.3953 128.169 79.137 128.334 78.8428C129.643 75.9833 130.58 72.9689 131.122 69.8729C131.282 69.188 131.188 68.4687 130.858 67.847C130.51 67.2657 129.956 66.8353 129.305 66.6407C128.965 66.548 128.61 66.5235 128.261 66.5686C127.911 66.6138 127.575 66.7276 127.27 66.9036C126.976 67.0694 126.717 67.2914 126.509 67.5567C126.301 67.8221 126.148 68.1257 126.058 68.4501L126.05 68.4965Z" fill="#FF004F"></path> <path d="M113.909 51.6924C114.917 51.8439 115.908 52.0899 116.869 52.427C117.655 52.7126 118.412 53.0725 119.129 53.5018C119.861 53.9153 120.551 54.3997 121.187 54.9478C121.958 55.6159 122.668 56.3508 123.308 57.1439L123.486 57.3759C123.619 57.5692 123.751 57.7548 123.875 57.9481C124.154 58.3734 124.419 58.8064 124.652 59.2549C124.76 59.456 124.861 59.6647 124.962 59.8735C124.962 59.8735 125.289 60.6468 125.141 60.2524C125.313 60.6802 125.463 61.1164 125.591 61.5592C126.238 63.8207 126.389 66.194 126.034 68.5186C125.832 69.9259 126.376 71.3487 127.875 71.7586C129.118 72.0988 130.928 71.3333 131.13 69.9182C131.906 64.3352 131.13 58.76 127.627 54.19C124.641 50.1978 120.232 47.4968 115.307 46.643C114.633 46.4799 113.921 46.5786 113.316 46.9189C112.712 47.2593 112.26 47.8158 112.053 48.4756C111.711 49.7283 112.48 51.4991 113.901 51.7156L113.909 51.6924Z" fill="black"></path> <path d="M128.768 71.8434C131.024 72.5846 133.062 73.8673 134.703 75.5783C136.133 77.0922 137.196 78.9121 137.81 80.8983C139.472 86.3112 138.361 92.3117 136.443 97.6627C132.613 108.357 123.774 117.141 114.414 123.366C109.799 126.473 104.803 128.979 99.5472 130.82C94.417 132.617 89.0549 133.674 83.6239 133.96C78.0409 134.255 72.4457 133.681 67.0404 132.258C61.9721 131.028 57.1553 128.935 52.8027 126.072C51.6997 125.299 50.8531 124.696 50.0065 124.015C49.0045 123.242 48.0257 122.368 47.0781 121.502C45.0522 119.635 43.1479 117.641 41.3768 115.533C37.994 111.54 35.1551 107.12 32.9336 102.387C32.654 101.776 32.5375 101.506 32.3744 101.119C32.118 100.493 31.8773 99.8587 31.652 99.2247C31.2636 98.1112 30.9219 96.9822 30.6345 95.8455C30.505 95.33 30.3885 94.7965 30.2849 94.2449C30.2306 93.9588 30.184 93.6726 30.1296 93.3865C30.1296 93.2705 30.1296 93.1468 30.0752 93.0231C30.1607 93.5644 30.0752 92.9148 30.0752 92.8298C29.8966 91.2833 29.7567 89.7909 29.6713 88.2675C29.4991 85.4163 29.564 82.5558 29.8655 79.7153C29.9938 78.5515 30.1831 77.3952 30.4325 76.251C30.7121 74.9133 31.0539 73.5833 31.4578 72.2765C32.7394 68.0545 34.6968 64.3815 36.46 60.345C37.855 57.2033 38.7335 53.8588 39.0621 50.4395C39.4274 45.4433 38.9442 40.4215 37.6329 35.5852C36.9781 32.9634 36.1715 30.3816 35.2173 27.8525C34.4036 25.8144 33.6933 23.7369 33.089 21.6278C32.944 21.071 32.8119 20.5066 32.6928 19.9343C32.6462 19.6946 32.6074 19.4549 32.5608 19.2152C32.5608 19.1147 32.4909 18.6894 32.5608 19.2152C32.5608 19.0606 32.522 18.8982 32.5064 18.7358C32.4586 18.2217 32.4378 17.7055 32.4443 17.1893C32.4443 16.9109 32.4443 16.6402 32.4443 16.3696C32.4443 16.2536 32.4443 16.1376 32.4443 16.0216C32.4909 15.6118 32.3045 16.617 32.4443 15.9211C32.5608 15.434 32.6851 14.9623 32.8326 14.4906C32.9181 14.2045 32.7938 14.5447 32.7783 14.5834C32.8404 14.4442 32.9103 14.305 32.9802 14.1658C33.0501 14.0266 33.2443 13.6941 33.3841 13.4621C33.4463 13.3539 33.5162 13.2611 33.5861 13.1606C33.3375 13.524 33.5861 13.1606 33.5861 13.1606C33.7492 12.975 33.9201 12.7894 34.0987 12.6115C34.2774 12.4337 34.3473 12.3796 34.4716 12.2558C34.4716 12.2558 34.7978 11.9775 34.6192 12.1244L35.0231 11.8306C35.6567 11.3944 36.3242 11.0091 37.0193 10.6784L37.5863 10.4155C37.8504 10.284 37.3844 10.5005 37.3766 10.5005L37.7883 10.3536C38.2077 10.2067 38.6272 10.0598 39.0544 9.9438C39.4816 9.82781 39.8777 9.72728 40.2972 9.64222L40.9885 9.5185C40.3904 9.64222 41.0894 9.5185 41.3147 9.5185C42.2889 9.43346 43.2688 9.43346 44.243 9.5185C44.4294 9.5185 45.0974 9.62676 44.5693 9.5185L45.2683 9.63449C45.8742 9.75048 46.4645 9.8974 47.0548 10.0675C48.0867 10.3462 49.0845 10.7378 50.0298 11.2351C52.6643 12.6074 55.0632 14.3875 57.137 16.5088C61.1111 20.436 64.1455 25.2038 66.0151 30.4584C66.8734 32.9485 67.4772 35.5185 67.8172 38.1292C67.8368 38.8203 68.1213 39.4778 68.6124 39.9667C69.1035 40.4556 69.7639 40.7388 70.4581 40.7583C71.7553 40.7583 73.2699 39.552 73.099 38.1292C72.4203 31.919 70.3756 25.9339 67.1103 20.5993C63.7082 15.1247 58.9468 10.0134 53.2066 6.93581C48.7739 4.44203 43.5881 3.61866 38.5961 4.61602C34.4949 5.50527 30.0519 7.98744 28.2499 11.9388C26.075 16.7408 27.4343 22.084 29.1431 26.8164C29.9665 29.082 30.852 31.3168 31.5588 33.6288C32.0559 35.2604 32.4987 36.9152 32.8637 38.5932C33.0035 39.2479 33.1356 39.9051 33.2599 40.565C33.322 40.9052 33.3764 41.2455 33.4308 41.5934C33.4308 41.6939 33.5861 42.6451 33.5395 42.3048C33.8551 44.6572 33.9462 47.034 33.8113 49.4034C33.8113 49.8905 33.7414 50.3777 33.6871 50.8648C33.6871 50.9499 33.5783 51.7 33.6327 51.3056C33.6871 50.9112 33.6327 51.3056 33.6327 51.4371C33.6327 51.5685 33.5861 51.7541 33.555 51.9087C33.4152 52.682 33.2366 53.5326 33.0268 54.3368C32.8171 55.141 32.5841 55.8833 32.3122 56.587C32.1957 56.8963 32.0714 57.2133 31.9472 57.5226C31.9472 57.5226 31.784 57.8938 31.7918 57.9015C31.7996 57.9093 32.0559 57.3061 31.9006 57.6464C31.854 57.7469 31.8151 57.8474 31.7685 57.9402C30.9918 59.6336 30.1451 61.2729 29.3839 62.9587C26.7886 68.4819 25.1299 74.3949 24.4749 80.4576C24.2134 83.4439 24.2004 86.4467 24.436 89.4352C24.5915 92.3259 25.0259 95.195 25.7332 98.0029C27.2763 103.337 29.6764 108.387 32.8404 112.958C36.0826 117.809 39.9355 122.227 44.3052 126.103C48.4251 129.81 53.1544 132.784 58.2866 134.895C64.0892 137.22 70.2171 138.642 76.4546 139.11C88.5329 140.045 100.673 137.06 111.299 131.377C116.812 128.399 121.94 124.764 126.57 120.551C131.342 116.326 135.379 111.343 138.516 105.805C144.109 95.6599 147.364 80.2875 137.895 71.3331C135.682 69.2909 133.054 67.7456 130.19 66.8018C129.513 66.6251 128.794 66.7187 128.186 67.0626C127.578 67.4064 127.129 67.9733 126.935 68.6421C126.766 69.3152 126.863 70.0274 127.208 70.6307C127.552 71.2341 128.116 71.6822 128.784 71.8821L128.768 71.8434Z" fill="black"></path> <path d="M41.3927 145.288C38.6042 143.37 15.4805 120.118 10.6725 108.318C4.95564 94.2988 19.5196 86.9914 25.8656 87.1306C31.0309 87.2466 35.1865 90.5175 38.5187 92.9765C49.2766 100.817 57.3237 112.076 66.1941 121.997C71.2973 127.704 75.0801 134.98 71.2896 142.481C67.9729 149.046 59.4287 151.683 52.205 150.167C48.3096 149.276 44.6331 147.617 41.3927 145.288Z" fill="#FFB000"></path> <path d="M50.6661 142.582C38.6964 135.622 21.1498 114.86 17.5069 106.548C13.864 98.235 18.1128 89.3347 33.0418 89.3038C30.8674 88.0091 28.4036 87.273 25.8724 87.1619C19.5264 87.0227 4.96248 94.33 10.6793 108.349C15.4874 120.149 38.6421 143.401 41.3995 145.319C44.6399 147.648 48.3164 149.307 52.2118 150.198C58.0684 151.428 64.7873 149.928 68.8885 145.822C68.8885 145.822 62.6435 149.541 50.6661 142.582Z" fill="white"></path> <path d="M25.8657 89.7603C27.7706 89.87 29.6274 90.3981 31.3029 91.3068C33.0685 92.2866 34.7587 93.3954 36.3595 94.6241C39.8374 97.1948 43.1024 100.039 46.1232 103.13C52.6013 109.687 58.2404 117.002 64.3534 123.892C67.4604 127.38 70.1401 131.625 70.2178 136.133C70.2545 136.806 70.5491 137.44 71.0411 137.904C71.5331 138.368 72.1849 138.627 72.8626 138.627C73.5403 138.627 74.1921 138.368 74.6841 137.904C75.1761 137.44 75.4707 136.806 75.5074 136.133C75.4142 131.153 73.1772 126.599 70.1945 122.717C68.641 120.706 66.9089 118.85 65.2622 116.933C63.6155 115.015 62.0931 113.213 60.5163 111.35C54.1936 103.857 47.7311 96.4954 39.7772 90.665C35.5828 87.572 31.2874 84.7264 25.8968 84.5408C25.1964 84.5408 24.5246 84.8178 24.0294 85.3108C23.5341 85.8039 23.2559 86.4726 23.2559 87.1699C23.2559 87.8671 23.5341 88.5359 24.0294 89.0289C24.5246 89.522 25.1964 89.799 25.8968 89.799L25.8657 89.7603Z" fill="#FF004F"></path> <path d="M70.1861 136.094C70.1886 137.456 69.9466 138.807 69.4715 140.084C69.282 140.621 69.0427 141.138 68.7569 141.631C68.6093 141.901 68.454 142.157 68.2909 142.404C68.221 142.505 67.786 143.115 68.0268 142.806C67.7119 143.211 67.3693 143.593 67.0015 143.951C66.7918 144.167 66.5743 144.368 66.349 144.561C66.2558 144.647 65.6733 145.11 65.9839 144.879C65.0795 145.545 64.1086 146.118 63.0867 146.587C62.675 146.788 63.1877 146.587 62.7527 146.734L62.0148 147.005C61.4285 147.206 60.8322 147.376 60.2283 147.515C59.7079 147.639 59.1875 147.732 58.6748 147.817C59.0787 147.755 58.434 147.817 58.3175 147.856C57.9602 147.894 57.6029 147.917 57.2456 147.933C56.0918 147.994 54.9349 147.95 53.7891 147.801C54.2008 147.856 53.5638 147.763 53.4395 147.74L52.5929 147.569C51.8161 147.399 51.0938 147.191 50.3559 146.951C47.7451 146.055 45.2741 144.798 43.0156 143.216C42.8991 143.139 42.7904 143.046 42.6661 142.976C42.3787 142.798 43.0467 143.27 43.0467 143.262C42.9326 143.161 42.8134 143.065 42.6894 142.976C42.4098 142.744 42.1301 142.497 41.8583 142.249C39.8854 140.455 37.9746 138.561 36.1415 136.659C33.4539 133.896 30.8311 131.081 28.273 128.215C26.8853 126.668 25.513 125.08 24.1563 123.451C23.4883 122.678 22.8203 121.843 22.1601 121.023L21.2668 119.91L20.7542 119.26L20.5367 118.982C20.2881 118.657 20.7697 119.276 20.5367 118.982C18.269 116.119 16.218 113.092 14.4004 109.927C14.0431 109.278 13.7013 108.62 13.3906 107.948C13.3207 107.808 13.2664 107.661 13.1964 107.514C13.1265 107.368 13.313 107.808 13.3052 107.793C13.2974 107.777 13.2353 107.607 13.1964 107.514C12.9634 106.911 12.7459 106.308 12.5673 105.69C12.4275 105.195 12.3032 104.692 12.21 104.182C12.1875 104.015 12.1564 103.85 12.1168 103.687C12.1556 103.981 12.1168 103.586 12.1168 103.555L12.0702 102.968C12.0469 102.514 12.0469 102.06 12.0702 101.607C12.0702 101.383 12.0702 101.166 12.1168 100.942C12.1711 100.323 12.0546 101.12 12.1168 100.679C12.3043 99.7982 12.564 98.9344 12.8935 98.0961C12.6993 98.5833 12.8935 98.0961 13.0023 97.8951L13.2819 97.3538C13.4916 96.9826 13.7169 96.5805 13.9577 96.2558C14.0897 96.0625 14.2295 95.8769 14.3693 95.6913C14.5092 95.5057 14.2684 95.815 14.2606 95.8305L14.447 95.5985C14.7266 95.2737 15.0063 94.9567 15.3092 94.6474C15.6121 94.3381 15.9228 94.052 16.2413 93.7736L16.6918 93.3947C17.1501 93.0081 16.4898 93.5262 16.8471 93.2633C18.1745 92.3043 19.6015 91.4903 21.1037 90.8352C20.7153 91.0053 20.8396 90.9357 21.1037 90.8352L21.6785 90.6264C22.0203 90.5027 22.3698 90.3945 22.7271 90.2939C23.3796 90.1006 24.0398 89.9769 24.7078 89.8454C25.1738 89.7526 24.1175 89.8918 24.5757 89.8454L25.0573 89.8068C25.3292 89.8068 25.6088 89.8068 25.8807 89.8068C26.5811 89.8068 27.2528 89.5298 27.7481 89.0367C28.2434 88.5437 28.5216 87.875 28.5216 87.1777C28.5216 86.4804 28.2434 85.8117 27.7481 85.3186C27.2528 84.8256 26.5811 84.5486 25.8807 84.5486C22.5079 84.632 19.2151 85.5887 16.3267 87.3246C12.7979 89.1978 9.95218 92.1309 8.19421 95.7068C6.15138 100.246 6.46208 105.125 8.3884 109.625C9.873 112.914 11.7228 116.026 13.9033 118.905C19.1305 125.973 24.8401 132.675 30.9916 138.963C33.1355 141.198 35.3103 143.409 37.5862 145.52C40.3162 147.997 43.4741 149.962 46.9071 151.32C52.0447 153.522 57.8013 153.834 63.1488 152.201C68.5472 150.446 72.8737 146.626 74.6757 141.19C75.1973 139.557 75.4594 137.854 75.4525 136.141C75.4525 132.754 70.1861 132.754 70.1628 136.141L70.1861 136.094Z" fill="black"></path> </svg> 