<?xml version="1.0" encoding="UTF-8"?> <svg xmlns="http://www.w3.org/2000/svg" width="344" height="250" viewBox="0 0 344 250" fill="none"> <g clip-path="url(#clip0_133_1203)"> <path d="M339.757 160.344C337.645 149.953 332.765 140.326 325.631 132.482C318.498 124.637 309.377 118.866 299.234 115.78C299.064 112.34 298.619 108.919 297.904 105.551C296.605 98.9449 293.922 92.6892 290.033 87.1945C286.143 81.6997 281.135 77.0905 275.338 73.6698C270.7 70.8437 265.742 68.5801 260.568 66.9267V51.9037L198.901 2.17896L141.567 21.812L140.856 22.0413L122.349 48.8762C109.736 45.7799 88.2016 44.5872 65.016 61.3303C54.0386 69.2926 45.2764 79.9268 39.56 92.2248C33.1386 95.1835 8.09542 109.106 2.63728 148.257C-0.114716 167.982 3.16476 184.794 9.95302 198.188C9.79249 203.693 9.49432 243.555 33.1386 259.473C33.2407 261.923 33.8332 264.329 34.881 266.547C35.9288 268.765 37.4106 270.75 39.2389 272.385C34.1027 281.948 32.1125 292.887 33.5514 303.647L33.7349 305.275L47.0363 292.179C43.7797 303.647 41.8762 327.041 57.9754 345.963L58.2506 347.385C59.5114 352.803 61.4613 358.037 64.0527 362.959C66.7278 367.874 70.078 372.39 74.0058 376.376L76.1845 380.184L77.3312 374.84C82.6277 382.172 89.6551 388.082 97.7877 392.041C97.8712 392.135 97.9479 392.235 98.017 392.339C101.615 396.532 105.839 400.145 110.539 403.05C115.218 405.919 120.253 408.163 125.514 409.725L128.931 413.257L117.465 395.665L127.555 403.555L137.462 412.729L139.251 414.381L141.246 412.936L159.341 399.771L164.845 395.688L157.025 410.734L159.799 409.954C162.79 409.091 165.723 408.041 168.583 406.812C171.404 405.619 174.156 404.266 176.862 402.821C182.008 400.007 186.876 396.712 191.402 392.982C197.214 393.719 203.116 393.211 208.716 391.491C213.497 389.97 217.92 387.497 221.719 384.22C227.109 383.096 245.639 378.165 256.119 361.858C262.059 352.684 264.375 341.56 262.999 328.716L261.899 321.33L271.783 338.555C272.356 337.959 280.819 328.784 277.768 311.032C280.979 309.312 294.166 301.307 295.932 284.931C304.44 280.344 313.751 272.638 322.557 259.358C327.896 251.538 331.439 242.634 332.934 233.285C334.429 223.935 333.838 214.37 331.203 205.275C335.592 198.753 338.613 191.409 340.083 183.686C341.554 175.964 341.443 168.023 339.757 160.344V160.344Z" fill="#F8BE9A"></path> <path d="M127.624 223.647C137.516 223.647 145.535 215.35 145.535 205.115C145.535 194.88 137.516 186.583 127.624 186.583C117.732 186.583 109.713 194.88 109.713 205.115C109.713 215.35 117.732 223.647 127.624 223.647Z" fill="white"></path> <path d="M139.022 40.5275L162.597 25.2523L173.399 39.9312C175.692 39.9312 177.986 40.0458 180.279 40.1376L185.301 40.2981L197.846 2.86694L142.233 21.9036L123.565 48.9679C126.517 49.7814 129.388 50.8639 132.142 52.2018C133.704 50.9422 135.334 49.7706 137.027 48.6926L139.022 40.5275Z" fill="#948F53"></path> <path d="M199.107 2.88989L186.586 40.3211C188.466 40.3211 190.37 40.3211 192.25 40.3211C196.753 40.2449 201.253 40.5982 205.689 41.3761L205.184 40.5046L207.638 37.2936L231.581 36.1009L242.795 56.5596L238.484 65.4587C238.644 66.078 238.713 66.7431 238.828 67.3853C240.313 66.7272 241.847 66.1828 243.414 65.7569C248.55 64.4781 253.928 64.5413 259.032 65.9403V51.1468L199.107 2.88989Z" fill="#948F53"></path> <path d="M226.168 37.5461L208.189 38.4406L206.859 41.6058C236.236 49.3122 237.887 69.1287 239.447 60.3443L226.168 37.5461Z" fill="#EDE104"></path> <path d="M206.904 41.6056L205.689 41.3992L206.446 42.6836L206.904 41.6056Z" fill="#948F53"></path> <path d="M230.939 37.3164L224.815 37.6146L226.283 38.2797L236.557 56.0779C237.939 57.6406 239.075 59.4038 239.929 61.3072L241.557 56.7201L230.939 37.3164Z" fill="#948F53"></path> <path d="M162.322 26.7891L140.031 41.2386L138.471 47.8441C141.866 45.7799 140.49 44.656 143.815 43.5092L165.051 29.4955L162.322 26.7891Z" fill="#948F53"></path> <path d="M171.977 39.9085L165.097 29.5186L145.03 42.6837C153.91 40.9462 162.929 40.0174 171.977 39.9085V39.9085Z" fill="#EDE104"></path> <path d="M130.399 193.463C123.817 193.463 118.451 199.427 118.451 206.743C118.695 209.054 119.603 211.244 121.065 213.049C122.528 214.854 124.483 216.196 126.692 216.913C128.902 217.63 131.272 217.692 133.516 217.089C135.759 216.487 137.78 215.248 139.334 213.521C140.888 211.794 141.908 209.653 142.271 207.358C142.634 205.064 142.324 202.713 141.378 200.591C140.433 198.468 138.893 196.666 136.944 195.401C134.995 194.136 132.722 193.463 130.399 193.463V193.463ZM130.835 212.936C129.563 213.061 128.283 212.798 127.163 212.182C126.044 211.565 125.137 210.625 124.562 209.483C123.987 208.341 123.772 207.053 123.943 205.786C124.115 204.519 124.666 203.335 125.523 202.387C126.381 201.44 127.506 200.774 128.749 200.478C129.992 200.182 131.296 200.269 132.489 200.728C133.681 201.187 134.707 201.996 135.431 203.049C136.155 204.103 136.544 205.35 136.545 206.629C136.588 207.421 136.475 208.214 136.211 208.963C135.947 209.711 135.539 210.4 135.008 210.99C134.478 211.58 133.836 212.06 133.12 212.402C132.404 212.744 131.627 212.941 130.835 212.982V212.936Z" fill="#612F26"></path> <path d="M290.68 236.812C282.034 239.679 275.842 241.147 271.026 241.147C264.605 241.147 260.683 238.532 256.784 233.303C257.612 237.195 257.413 241.236 256.207 245.028C255.001 248.82 252.829 252.233 249.904 254.931C252.496 264.105 254.491 269.908 254.721 270.757C259.54 276.219 263.897 282.072 267.747 288.257C277.136 289.968 286.828 288.474 295.267 284.014C295.267 283.624 295.267 283.28 295.267 282.89H296.413C296.402 283.058 296.402 283.226 296.413 283.394C304.738 279.037 313.911 271.468 322.534 258.486C327.642 250.905 331.042 242.304 332.499 233.279C333.956 224.254 333.436 215.02 330.974 206.216C321.065 220.37 306.975 231.069 290.68 236.812V236.812Z" fill="#BD4C4C"></path> <path d="M92.7653 185.963C92.2352 185.699 91.7818 185.302 91.4486 184.813C91.1153 184.323 90.9133 183.755 90.8619 183.165C90.4354 180.711 90.6623 178.187 91.5197 175.848C92.3772 173.509 93.835 171.437 95.7467 169.839C95.4426 168.846 95.3569 167.799 95.4954 166.77C95.634 165.741 95.9935 164.753 96.5494 163.876C99.9664 158.509 110.034 156.583 112.603 156.17C112.449 154.527 112.925 152.888 113.933 151.583C114.574 150.812 115.351 150.167 116.226 149.679C113.27 147.179 110.918 144.043 109.346 140.505C101.159 122.477 100.173 85.6881 123.588 60.367C126.017 57.7244 128.622 55.2493 131.385 52.9587C126.409 50.5275 97.6272 38.3486 65.4747 61.6055C54.6123 69.494 45.9641 80.0468 40.3627 92.2477L40.5003 92.6376C40.3676 92.7093 40.2295 92.7706 40.0874 92.8211C28.1392 119.151 30.6618 150.505 44.3989 171.307C64.1445 201.124 89.6923 192.936 92.3296 191.95C92.9071 189.867 93.7715 187.876 94.8982 186.032H94.2331C93.7447 186.117 93.2437 186.093 92.7653 185.963V185.963Z" fill="#BD4C4C"></path> <path d="M56.4619 231.445C52.1208 231.481 47.8115 230.703 43.7568 229.151C29.6682 223.474 17.9875 213.081 10.7098 199.748C10.7098 210.344 12.7509 257.087 46.5546 263.257C51.8374 257.308 57.5976 251.8 63.7776 246.789C69.0083 242.718 73.749 238.054 77.9045 232.89C78.5467 231.927 79.1659 230.94 79.7392 229.931C79.1407 228.705 78.6049 227.45 78.1339 226.17C71.3803 229.486 63.9838 231.286 56.4619 231.445V231.445Z" fill="#BD4C4C"></path> <path d="M237.956 69.266C237.947 69.2129 237.947 69.1586 237.956 69.1055C225.916 75.1835 215.459 90 203.877 110.023C195.048 125.298 191.379 137.546 192.617 147.294C193.489 154.174 195.644 163.349 195.553 164.312C198.098 164.702 211.606 161.605 215.046 166.972C216.27 169.402 216.657 172.167 216.147 174.839C217.477 175.986 223.6 184.954 222.591 185.367C222.176 185.537 221.732 185.622 221.284 185.619H221.123C223.21 187.706 225.343 189.679 227.453 191.514C230.526 194.151 235.846 195.206 242.084 194.427C256.509 192.569 271.737 181.995 282.791 166.101C295.473 147.752 301 123.784 296.849 104.771C295.611 98.4647 293.054 92.4916 289.347 87.2426C285.64 81.9936 280.866 77.5872 275.338 74.3119C262.747 66.9036 252.679 64.5413 243.644 66.9036C242.07 67.341 240.536 67.9087 239.057 68.6009C239.057 68.8073 239.057 68.9908 239.057 69.1972L237.956 69.266Z" fill="#BD4C4C"></path> <path d="M158.286 156.949C163.583 157.179 168.606 157.248 173.215 157.156C173.33 156.812 189.452 157.156 193.328 155.573C195.896 154.449 191.195 147.225 191.447 147.225C190.232 137.225 193.947 124.862 202.914 109.449C214.702 89.1283 225.32 74.0137 237.635 67.8898C235.158 50.4586 213.991 41.4907 193.374 41.4907H192.181C188.145 41.4907 184.109 41.4907 180.21 41.2843C177.917 41.2843 175.417 41.1008 173.055 41.055L172.849 41.2155V41.055C164.762 40.6575 156.67 41.7061 148.952 44.1513V44.1513C139.439 47.6567 130.966 53.5109 124.322 61.1696C101.228 86.1008 102.214 122.293 110.286 140.046C111.803 143.616 114.164 146.764 117.166 149.22C119.541 148.258 122.081 147.768 124.643 147.775C127.922 147.524 131.209 148.174 134.147 149.653C137.085 151.132 139.563 153.385 141.315 156.17C144.939 156.422 148.814 156.582 152.942 156.743L158.286 156.949Z" fill="#F5C75E"></path> <path d="M43.2982 171.972C29.5382 151.193 26.9008 120.046 38.3904 93.6008C31.5104 97.0641 8.37064 111.238 3.25651 147.821C-2.63736 190.046 19.5622 218.555 44.1696 228.096C57.9296 233.417 72.0794 227.867 77.721 225.115C75.9362 220.191 75.8635 214.809 77.5147 209.839C80.1321 203.415 85.0334 198.187 91.2747 195.16C91.4352 194.564 91.6187 193.968 91.7792 193.394C88.2809 194.432 84.6493 194.949 81.0006 194.931C70.8182 194.908 55.8656 191.009 43.2982 171.972Z" fill="#F5C75E"></path> <path d="M237.635 201.376C242.687 207.999 247.284 214.957 251.395 222.202C253.001 225.069 254.445 227.592 255.821 229.771C262.701 240.619 268.435 242.959 290.405 235.619C315.861 227.156 347.738 198.142 339.344 160.229C337.302 150.039 332.494 140.608 325.447 132.97C318.4 125.332 309.387 119.781 299.395 116.927C299.342 134.69 293.905 152.02 283.8 166.628C272.563 182.683 257.037 193.555 242.291 195.436C240.953 195.615 239.604 195.707 238.254 195.711C236.355 195.72 234.461 195.504 232.613 195.069C233.576 196.17 235.342 198.28 237.635 201.284V201.376Z" fill="#F5C75E"></path> <path d="M237.956 252.867C238.196 253.069 238.426 253.284 238.644 253.509C241.362 256.144 243.756 259.093 245.776 262.294C243.301 259.485 240.675 256.813 237.91 254.289C235.479 251.995 232.98 249.954 230.365 247.959C230.365 252.546 230.365 257.179 230.365 261.858C232.112 262.384 233.82 263.027 235.479 263.784C238.853 265.328 241.951 267.412 244.653 269.954C247.332 272.539 249.428 275.667 250.799 279.129C248.856 276.081 246.545 273.285 243.919 270.803C241.268 268.388 238.258 266.4 234.998 264.908C231.719 263.426 228.255 262.393 224.701 261.835C221.745 261.355 218.749 261.17 215.757 261.284C217.185 262.25 218.494 263.382 219.655 264.656C221.24 266.352 222.583 268.258 223.646 270.321C224.716 272.365 225.562 274.518 226.168 276.743C226.797 278.987 227.166 281.296 227.269 283.624V286.262L225.939 283.968C225.028 282.266 223.936 280.666 222.683 279.197C221.441 277.719 220.041 276.38 218.509 275.207C215.964 273.178 213.136 271.532 210.115 270.321C211.75 273.539 212.99 276.943 213.807 280.459C214.794 284.527 215.249 288.705 215.161 292.89C215.1 297.063 214.624 301.22 213.739 305.298C212.929 309.1 211.762 312.817 210.253 316.399C212.9 316.761 215.51 317.36 218.05 318.188C221.127 319.247 224.056 320.696 226.765 322.5C223.715 321.399 220.779 320.207 217.591 319.289C214.564 318.351 211.441 317.758 208.281 317.523C205.147 317.331 202.003 317.688 198.993 318.578C196.277 319.415 193.779 320.84 191.677 322.752C192.935 323.493 194.125 324.345 195.231 325.298C197.013 326.808 198.648 328.482 200.116 330.298C201.547 332.122 202.879 334.02 204.107 335.986C202.416 334.419 200.816 332.757 199.314 331.009C197.799 329.355 196.159 327.821 194.406 326.422C192.685 324.995 190.78 323.807 188.741 322.89C187.73 322.488 186.676 322.203 185.599 322.041C184.783 321.946 183.957 322.017 183.168 322.248C184.499 324.892 185.596 327.647 186.448 330.482C187.205 333.349 187.939 336.239 188.42 339.151C187.274 336.399 186.333 333.624 185.416 330.826C184.483 328.056 183.333 325.364 181.976 322.775C180.67 320.192 179.027 317.794 177.091 315.642C176.105 314.61 176.495 314.771 175.325 313.968C174.156 313.165 161.336 318.83 160.694 319.656C160.052 320.482 151.52 319.289 151.062 320.367C150.603 321.445 142.347 319.633 142.714 318.486C143.081 317.34 129.848 313.211 131.431 311.606C132.6 310.436 128.977 309.312 128.977 309.312C125.491 308.486 125.95 309.748 122.556 310.895C119.084 312.147 115.946 314.179 113.382 316.835C110.834 319.513 108.68 322.541 106.984 325.826C105.284 329.149 103.754 332.555 102.397 336.032C103.155 332.322 104.38 328.723 106.044 325.321C107.635 322.127 109.631 319.152 111.983 316.468C109.451 314.759 106.581 313.617 103.567 313.119C100.223 312.591 96.8095 312.684 93.4991 313.395C86.8239 315.057 80.5115 317.934 74.8773 321.881C77.466 319.542 80.3219 317.517 83.3855 315.849C86.4742 314.154 89.7862 312.903 93.2239 312.133C93.7514 311.995 94.3018 311.927 94.8522 311.835C93.4496 311.236 91.9783 310.812 90.4719 310.573C88.5139 310.282 86.5331 310.175 84.5551 310.252C82.5498 310.345 80.5514 310.552 78.5696 310.872C76.5973 311.193 74.6021 311.56 72.5839 311.95C76.3451 310.267 80.3751 309.265 84.4863 308.991C85.8226 308.899 87.1635 308.899 88.4997 308.991C86.326 304.682 84.9287 300.024 84.3717 295.229C83.8648 290.096 84.19 284.915 85.3349 279.885C86.5201 274.887 88.2505 270.034 90.4949 265.413C92.5298 261.199 94.9399 257.176 97.696 253.395C92.8249 254.077 88.2374 256.093 84.4405 259.22C80.1898 262.571 76.2241 266.269 72.5839 270.275C74.0692 267.973 75.7578 265.808 77.6293 263.807C79.515 261.8 81.563 259.951 83.7525 258.28C85.8862 256.628 88.193 255.213 90.6325 254.06L90.4031 253.922C92.6965 250.252 94.9898 246.606 97.2831 242.959L87.0778 246.743C83.0416 248.211 79.0053 249.656 74.8314 250.78C78.7072 248.876 82.6746 247.271 86.665 245.665L91.2517 243.876C101.572 220.39 100.425 189.541 100.219 183.899C99.0246 184.614 97.7652 185.213 96.4576 185.688C94.0037 188.257 92.4213 194.679 90.6096 202.133C88.2016 211.995 85.2202 224.289 78.776 233.532C74.5705 238.789 69.7595 243.531 64.4426 247.661C49.857 260.115 31.7626 275.596 34.4229 303.463L53.641 285.115L51.6688 288.555C51.4853 288.853 35.2943 317.89 58.0901 345.39C57.2507 341.202 56.7522 336.952 56.5994 332.684C56.3726 327.292 56.8584 321.893 58.0442 316.629C57.4578 321.959 57.3043 327.328 57.5855 332.684C57.8094 338.031 58.5779 343.341 59.8789 348.532C61.2244 353.703 63.2041 358.687 65.7727 363.372C68.0816 367.506 70.8679 371.355 74.0746 374.84L73.249 359.794C72.9738 354.174 72.7216 348.578 72.8821 342.936C73.6848 348.509 74.0746 354.129 74.4186 359.725L74.8773 367.431C77.6854 375.265 82.7335 382.1 89.394 387.087L90.1279 387.638C92.1949 389.096 94.3903 390.362 96.6869 391.422C93.9628 387.905 91.7042 384.05 89.9674 379.954C87.8081 375.017 86.6543 369.7 86.5733 364.312C87.3901 369.549 88.8538 374.665 90.9306 379.541C92.8848 384.172 95.5292 388.479 98.7738 392.317L99.0719 392.454V392.615L99.2784 392.913C102.747 396.887 106.818 400.292 111.341 403.005C115.506 405.497 119.957 407.476 124.597 408.899L118.542 397.431L117.464 395.757L117.831 396.055L116.41 393.326L114.988 390.619L117.281 392.684L133.334 407.362C132.094 405.344 131.006 403.235 130.078 401.055C128.053 396.381 126.65 391.461 125.904 386.422C125.129 381.416 124.822 376.348 124.987 371.284C125.101 368.762 125.331 366.239 125.491 363.716L126.523 356.193L125.629 363.739C125.514 366.239 125.331 368.762 125.285 371.284C125.213 376.325 125.605 381.361 126.454 386.33C127.292 391.287 128.772 396.114 130.858 400.688C132.837 405.116 135.674 409.107 139.205 412.431L166.725 392.454L168.491 391.17L167.551 393.142L160.075 408.807C165.393 407.163 170.539 405.004 175.44 402.362C180.72 399.547 185.705 396.213 190.324 392.408C194.963 388.625 199.122 384.289 202.708 379.496C206.331 374.712 209.494 369.598 212.156 364.22C210.233 370.013 207.349 375.44 203.625 380.275C200.221 384.788 196.32 388.904 191.998 392.546C197.487 393.018 203.016 392.386 208.258 390.688C213.901 388.867 219.001 385.666 223.095 381.376C227.167 377.045 230.291 371.913 232.269 366.307C234.383 360.714 235.958 354.931 236.97 349.037C236.753 355.092 235.529 361.068 233.347 366.72C231.344 372.497 228.148 377.787 223.967 382.248C223.531 382.729 223.05 383.165 222.591 383.624C228.439 382.271 245.524 377.179 255.042 362.362C262.724 350.505 264.054 335.138 258.963 316.697L257.679 312.11L271.852 337.798C274.833 333.899 288.754 311.629 253.734 271.514V271.33C246.405 248.63 240.666 225.447 236.557 201.95C235.801 200.94 235.067 200.023 234.447 199.243C233.759 200.895 232.796 209.564 237.956 252.867Z" fill="#C5C3C0"></path> <path d="M95.976 184.656C99.6993 183.027 103.23 180.988 106.502 178.578C110.081 176.106 113.811 173.862 117.671 171.858C125.032 168.326 129.986 166.284 133.724 164.817C137.852 163.119 139.939 162.271 141.086 160.918C141.659 160.252 141.544 158.762 140.765 157.156C138.77 152.982 133.265 148.853 125.376 148.853H124.734C119.849 148.991 116.524 150.161 114.85 152.317C114.39 152.912 114.059 153.597 113.877 154.327C113.696 155.058 113.668 155.818 113.795 156.56L113.933 157.179H113.314C113.199 157.179 101.09 158.853 97.5584 164.45C97.0472 165.236 96.727 166.13 96.6235 167.062C96.5199 167.994 96.6359 168.937 96.9621 169.817L97.0997 170.206L96.7786 170.459C94.9504 171.915 93.5443 173.832 92.7057 176.014C91.867 178.195 91.6264 180.561 92.0085 182.867C92.0402 183.265 92.1754 183.648 92.4007 183.978C92.6259 184.308 92.9334 184.573 93.2927 184.748C94.1827 184.986 95.1267 184.922 95.976 184.564V184.564V184.656Z" fill="#C5C3C0"></path> <path d="M173.422 176.284L203.648 182.798L217.087 188.142C217.087 188.142 220.986 188.83 221.674 185.504C222.119 183.289 221.837 180.988 220.871 178.945C220.642 178.601 216.743 174.128 216.743 174.128C216.743 174.128 216.972 166.995 213.624 165.16C210.792 163.882 207.771 163.069 204.68 162.752L196.539 162.867C196.208 160.923 195.218 159.153 193.735 157.854C192.252 156.555 190.367 155.806 188.397 155.734C180.898 154.839 176.426 158.165 172.344 163.096C168.262 168.027 166.68 176.124 173.422 176.284Z" fill="#C5C3C0"></path> <path d="M99.8517 206.239L111.479 195.757C111.479 195.757 112.626 191.583 120.446 188.12C128.266 184.656 135.215 188.922 138.265 191.055C141.437 193.762 143.662 197.409 144.618 201.468C145.512 205.115 142.003 192.684 149.204 189.06C156.405 185.436 161.336 199.106 162.964 203.991C162.964 203.991 164.776 193.945 178.467 188.211C211.308 192.798 216.697 197.386 233.507 212.775V198.257L229.677 193.67C229.677 193.67 220.619 187.982 219.059 187.409C217.5 186.835 171.358 174.84 169.5 173.991C167.643 173.142 173.903 160.757 173.903 160.757L173.215 157.156L141.109 156.72C141.109 156.72 144.709 161.652 139.182 163.257C131.427 166.048 123.865 169.35 116.547 173.142C110.871 176.3 105.449 179.897 100.333 183.899L99.8517 206.239Z" fill="#E7A08B"></path> <path d="M91.183 197.684L85.8165 217.569L76.8955 222.156C76.8955 222.156 75.0837 211.858 80.5419 205.23C83.6431 201.371 87.4389 198.127 91.7333 195.666L91.183 197.684Z" fill="#E7A08B"></path> <path d="M237.406 203.807C236.901 204.266 241.993 224.45 241.993 224.45L255.753 229.862L237.406 203.807Z" fill="#E7A08B"></path> <path d="M118.107 236.996C117.51 237.569 119.804 243.716 129.092 241.583C129.092 241.583 129.78 248.12 148.126 247.638C166.473 247.156 171.473 236.973 171.473 236.973C171.473 236.973 177.229 248.097 184.453 241.56C184.453 241.56 188.214 246.904 191.172 247.867C191.172 247.867 176.77 263.601 157.116 265.161C149.509 265.959 141.824 264.832 134.767 261.882C127.709 258.932 121.507 254.255 116.731 248.28C115.274 248.64 113.743 248.557 112.334 248.042C110.925 247.527 109.701 246.604 108.819 245.39C115.034 243.854 118.221 241.078 118.107 236.996Z" fill="#E7A08B"></path> <path d="M140.092 231.116C141.955 229.253 142.623 226.9 141.584 225.861C140.545 224.822 138.193 225.49 136.33 227.353C134.467 229.216 133.799 231.569 134.838 232.608C135.877 233.647 138.23 232.979 140.092 231.116Z" fill="#FCE0CF"></path> <path d="M150.167 195.184C150.167 195.184 152.461 208.486 147.163 218.486C149.928 215.344 151.692 211.446 152.227 207.294C152.762 203.142 152.045 198.925 150.167 195.184V195.184Z" fill="#FCE0CF"></path> <path d="M249.216 253.073L247.313 247.225C247.313 247.225 252.45 248.991 256.762 239.954C255.102 244.766 252.541 249.219 249.216 253.073V253.073Z" fill="#FCE0CF"></path> <path d="M64.5114 247.661C62.6768 249.243 51.233 267.936 51.233 267.936L76.8954 257.798C76.8954 257.798 64.993 274.381 64.993 294.495L72.6298 279.84C72.6298 279.84 63.961 299.587 66.0021 319.908C68.4692 317.717 71.3235 316.006 74.4186 314.862C74.4186 314.862 69.5796 317.294 69.1898 332.202C75.7721 327.652 83.2317 324.528 91.0911 323.028C91.0911 323.028 83.4543 338.372 96.3887 362.018C95.2879 359.885 96.3887 337.569 96.3887 337.569L105.562 352.087C105.562 352.087 107.351 342.34 117.923 328.67C116.719 341.992 119.211 355.388 125.124 367.385L132.004 332.202L140.329 371.193L147.576 341.009L153.745 364.358C153.745 364.358 165.212 344.496 167.299 332.248C167.299 332.248 174.431 353.67 165.968 367.431L184.636 344.862L183.788 367.431C183.788 367.431 197.25 354.817 201.63 342.569C201.63 342.569 206.423 351.743 199.91 367.431C199.91 367.431 219.587 348.693 220.55 332.248L226.581 349.083L229.608 328.716L239.195 339.129L243.391 294.541L252.932 312.11L245.685 284.587L263.275 301.307L258.871 275.918C258.871 275.918 270.04 290.482 273.021 298.44C276.003 306.399 277.103 323.073 277.103 323.073L260.202 316.629L262.495 337.569L250.661 328.762C250.661 328.762 260.683 356.285 229.746 374.473C222.866 378.509 234.929 364.656 233.278 366.812L217.683 380.275L217.981 361.927C217.981 361.927 200.575 387.661 176.701 395.184L189.361 373.28C189.361 373.28 164.248 387.844 146.567 398.991L147.53 370.161L137.99 398.257L132.256 367.385L127.991 392.982C120.207 384.296 115.06 373.571 113.153 362.064L111.502 379.037L100.884 361.835C100.884 361.835 99.4618 377.89 104.897 388.784C104.897 388.784 85.977 375.321 79.3951 341.193C79.3951 341.193 70.0842 343.349 66.0709 349.037L63.9151 328.67L60.1082 339.129C60.1082 339.129 47.5407 320.092 53.7098 285.138L55.5215 275.482L34.5834 288.234C36.0473 280.792 39.1842 273.78 43.7567 267.729C50.0021 260.377 56.9536 253.655 64.5114 247.661V247.661Z" fill="#A69D97"></path> <path d="M234.356 199.22L241.878 257.064L237.291 253.142C237.291 253.142 233.484 213.716 233.438 212.844C233.392 211.973 234.356 199.22 234.356 199.22Z" fill="#A69D97"></path> <path d="M229.723 249.312L236.993 265.207L229.723 262.294V249.312Z" fill="#A69D97"></path> <path d="M79.1887 262.294C82.8122 259.06 99.0031 241.651 99.0031 241.651L90.9764 254.266L79.1887 262.294Z" fill="#A69D97"></path> <path d="M84.7615 220.573L99.8516 206.239L100.287 183.899C100.287 183.899 116.547 173.349 125.078 169.106C133.61 164.862 140.994 163.486 141.43 161.33C141.865 159.174 136.224 157.798 125.124 161.33C114.024 164.862 91.481 178.968 91.7332 181.789C91.8461 182.637 92.1936 183.436 92.7366 184.097C93.2796 184.757 93.9965 185.253 94.8063 185.528L84.7615 220.573Z" fill="#A69D97"></path> <path d="M7.72851 151.055V155.092C7.72851 156.399 7.7285 157.684 7.8661 158.968C8.0037 160.252 8.02665 161.537 8.16425 162.844C8.30185 164.151 8.43943 165.482 8.43943 166.904C6.70336 164.662 5.70216 161.938 5.57277 159.106C5.49915 157.696 5.62266 156.284 5.93971 154.908C6.24035 153.506 6.85162 152.19 7.72851 151.055V151.055Z" fill="#C8981C"></path> <path d="M13.6683 144.518C13.9205 146.812 13.8976 148.601 13.9435 150.55V153.486C13.9313 154.522 13.8547 155.556 13.7141 156.583C12.3578 154.869 11.6438 152.735 11.696 150.55C11.6839 149.476 11.8466 148.407 12.1776 147.385C12.4487 146.328 12.9586 145.347 13.6683 144.518V144.518Z" fill="#C8981C"></path> <path d="M130.399 72.2708C128.977 74.7708 127.693 77.0185 126.615 79.4038C126.064 80.5735 125.56 81.6974 125.101 83.0276C124.643 84.3579 124.207 85.5506 123.634 86.9038C122.944 84.062 123.268 81.0684 124.551 78.4405C125.128 77.1304 125.901 75.9161 126.844 74.8396C127.814 73.7195 129.031 72.8401 130.399 72.2708V72.2708Z" fill="#C8981C"></path> <path d="M145.168 70.7798C144.136 73.6926 142.875 76.2614 141.843 78.8991C141.269 80.2064 140.742 81.5367 140.191 82.8669C139.641 84.1972 139.137 85.5504 138.471 86.9724C138.023 83.924 138.461 80.8109 139.733 78.0046C140.356 76.6124 141.125 75.29 142.026 74.0596C142.893 72.807 143.954 71.7 145.168 70.7798V70.7798Z" fill="#C8981C"></path> <path d="M162.162 67.4082C160.602 70.5275 158.767 73.2798 157.024 76.0779C155.282 78.8761 153.539 81.6055 151.75 84.61C151.959 81.1203 153.108 77.7521 155.075 74.8623C156.02 73.4193 157.078 72.054 158.24 70.7798C159.399 69.4943 160.717 68.3614 162.162 67.4082V67.4082Z" fill="#C8981C"></path> <path d="M140.283 61.3074C139.811 63.2596 139.158 65.1638 138.334 66.9954C137.944 67.867 137.554 68.7386 137.095 69.6101C136.64 70.5379 136.111 71.4277 135.513 72.2707C135.069 70.1819 135.327 68.0052 136.247 66.078C136.659 65.1105 137.207 64.2068 137.875 63.3945C138.521 62.5363 139.342 61.8249 140.283 61.3074V61.3074Z" fill="#C8981C"></path> <path d="M155.671 62.5459C155.121 64.1514 154.823 65.3211 154.41 66.6285C154.181 67.2707 154.02 67.9358 153.745 68.6009C153.508 69.3616 153.185 70.0926 152.782 70.7798C152.368 70.0644 152.111 69.2689 152.028 68.4464C151.944 67.6238 152.037 66.793 152.3 66.0092C152.554 65.215 152.968 64.4813 153.516 63.8532C154.045 63.162 154.814 62.6953 155.671 62.5459V62.5459Z" fill="#C8981C"></path> <path d="M306.435 196.927C307.261 196.468 307.949 196.124 308.545 195.757C309.141 195.39 309.714 194.977 310.265 194.541L312.031 193.211C312.7 192.698 313.414 192.245 314.164 191.858C314.097 192.759 313.838 193.635 313.403 194.427C312.967 195.218 312.366 195.907 311.641 196.445C310.894 197.004 310.019 197.367 309.095 197.5C308.168 197.639 307.223 197.435 306.435 196.927V196.927Z" fill="#C8981C"></path> <path d="M298.798 187.041C300.304 185.608 301.889 184.261 303.546 183.005C304.348 182.431 305.082 181.789 305.839 181.17C306.596 180.55 307.375 179.885 308.316 179.197C308.156 180.314 307.774 181.387 307.191 182.352C306.607 183.318 305.836 184.156 304.922 184.817C304.038 185.491 303.066 186.039 302.032 186.445C301.008 186.867 299.906 187.071 298.798 187.041V187.041Z" fill="#C8981C"></path> <path d="M291.574 176.629C293.398 174.498 295.392 172.519 297.537 170.711L300.61 168.028C301.671 167.128 302.667 166.155 303.591 165.115C303.437 166.607 302.874 168.028 301.963 169.22C301.134 170.411 300.155 171.49 299.051 172.431C297.975 173.378 296.807 174.216 295.565 174.931C294.319 175.677 292.976 176.248 291.574 176.629V176.629Z" fill="#C8981C"></path> <path d="M303.591 174.472C304.697 172.149 306.058 169.957 307.651 167.936C309.187 165.917 310.724 164.105 312.375 162.018C312.401 163.376 312.102 164.721 311.503 165.94C310.958 167.136 310.281 168.266 309.485 169.312C307.923 171.444 305.911 173.206 303.591 174.472V174.472Z" fill="#C8981C"></path> <path d="M192.067 147.821C192.067 147.821 194.36 154.197 192.846 155.573C191.333 156.949 186.608 153.05 183.673 155.023C177.458 159.128 173.238 157.156 173.238 157.156C173.238 157.156 150.993 157.156 149.434 157.156C147.874 157.156 141.957 157.156 141.957 157.156C141.957 157.156 137.187 148.716 130.353 148.234C126.334 147.925 122.294 148.464 118.496 149.816C118.496 149.816 106.25 143.601 105.264 118.647C104.278 93.6926 117.556 74.7706 158.492 77.0642C199.428 79.3577 204.611 91.9724 203.464 96.8348C202.318 101.697 196.355 123.027 196.355 123.027C196.355 123.027 191.769 133.578 191.769 137.179C191.769 140.78 192.067 147.821 192.067 147.821Z" fill="#C8981C"></path> <path d="M28.4372 156.72C30.9599 163.372 46.1418 183.486 64.993 191.927C83.8442 200.367 92.513 192.477 92.513 192.477L91.0682 197.684C91.0682 197.684 83.7295 197.684 79.9914 206.629C77.7808 212.476 76.9946 218.766 77.6981 224.977C77.6981 224.977 57.0581 238.463 36.4181 224.977C15.7781 211.491 4.31139 188.463 8.39353 166.858C12.4757 145.252 24.3551 145.711 28.4372 156.72Z" fill="#C8981C"></path> <path d="M261.669 187.523C261.669 187.523 277.723 180.94 286.575 174.335C295.427 167.729 308.935 189.335 312.375 201.468L315.815 213.624C315.815 213.624 300.105 234.725 280.291 238.647C260.477 242.569 258.55 234.908 254.629 228.073C250.707 221.239 240.318 205.138 240.318 205.138L231.26 194.633C231.26 194.633 232.636 196.927 245.272 193.876C257.908 190.826 261.669 187.523 261.669 187.523Z" fill="#C8981C"></path> <path d="M21.8324 212.982C21.8324 212.982 13.0489 231.56 23.9193 248.876C34.7897 266.193 46.5545 263.303 46.5545 263.303C46.5545 263.303 54.9481 255.183 61.6905 249.381C66.742 245.383 71.4942 241.021 75.9092 236.33C78.3631 233.257 80.4959 230.046 80.4959 230.046L78.2026 225.459C78.2026 225.459 41.7385 241.995 21.8324 212.982Z" fill="#A23E3D"></path> <path d="M46.7609 175.826C34.8356 159.977 23.5753 136.307 49.4441 103.532C75.3129 70.7569 99.003 101.697 99.003 101.697L110.837 79.5872C106.951 92.2681 105.063 105.477 105.241 118.739C105.883 139.174 117.029 149.908 117.029 149.908C116.156 150.35 115.405 151 114.841 151.799C114.277 152.599 113.918 153.525 113.795 154.495V157.362C113.795 157.362 100.723 157.89 97.5124 164.702C94.3017 171.514 96.7327 170.711 96.7327 170.711C96.7327 170.711 90.77 177.752 91.7791 181.904C92.7881 186.055 94.8521 185.642 94.8521 185.642L92.2148 192.156C92.2148 192.156 67.1487 202.936 46.7609 175.826Z" fill="#A23E3D"></path> <path d="M203.35 109.771C211.514 97.4084 244.263 96.0093 265.66 117.798C287.056 139.587 289.579 156.789 284.282 164.908C278.984 173.028 264.926 189.312 247.313 193.509C229.7 197.707 224.242 189.931 224.242 189.931L221.284 186.766C221.284 186.766 221.077 189.335 222.568 184.954C224.059 180.574 217.247 173.876 217.247 173.876C217.518 172.586 217.465 171.249 217.093 169.984C216.721 168.719 216.041 167.567 215.115 166.629C213.387 164.937 211.217 163.768 208.854 163.257C208.854 163.257 200.873 164.633 197.112 162.385C193.351 160.138 192.067 147.867 192.067 147.867C192.108 140.885 193.095 133.941 195.002 127.225C196.788 120.98 199.609 115.08 203.35 109.771V109.771Z" fill="#A23E3D"></path> <path d="M306.435 228.693C306.435 228.693 334.483 266.078 284.19 288.601L268.618 289.61L259.215 277.019L253.688 271.422L249.102 254.748C251.453 252.647 253.349 250.086 254.675 247.225C256.784 242.638 256.647 231.95 256.647 231.95C256.647 231.95 263.527 241.33 270.132 242.386C276.736 243.441 306.435 228.693 306.435 228.693Z" fill="#A23E3D"></path> <path d="M286.231 89.4726C286.601 91.2019 286.554 92.9946 286.093 94.702C285.705 96.3918 284.918 97.9644 283.8 99.2891C283.468 97.5573 283.522 95.7735 283.958 94.0649C284.394 92.3563 285.201 90.7648 286.322 89.4038L286.231 89.4726Z" fill="#EC7456"></path> <path d="M291.574 96.6514C292.34 97.6419 292.887 98.7831 293.18 100C293.512 101.195 293.674 102.43 293.661 103.67C293.709 106.169 292.98 108.621 291.574 110.688C291.447 109.492 291.386 108.29 291.391 107.087V103.67C291.414 101.376 291.368 99.1514 291.574 96.6514Z" fill="#EC7456"></path> <path d="M288.089 100.826C288.574 102.081 288.86 103.404 288.937 104.748C289.04 106.079 288.994 107.418 288.799 108.739C288.619 110.082 288.232 111.389 287.653 112.615C287.124 113.911 286.212 115.015 285.038 115.78C285.387 114.563 285.64 113.321 285.795 112.064C286.002 110.849 286.208 109.633 286.369 108.394C286.753 105.832 287.328 103.303 288.089 100.826V100.826Z" fill="#EC7456"></path> <path d="M292.515 125.321C292.294 123.253 292.402 121.163 292.836 119.128C293.202 117.08 293.899 115.105 294.9 113.28C295.497 115.324 295.56 117.488 295.083 119.564C294.717 121.666 293.834 123.644 292.515 125.321V125.321Z" fill="#EC7456"></path> <path d="M62.9749 66.6284C62.6579 69.0089 61.9854 71.3284 60.9797 73.5091C60.0417 75.7162 58.7819 77.7721 57.2416 79.6101C57.2887 77.1801 57.8515 74.7878 58.8928 72.5917C59.8196 70.3393 61.2105 68.3074 62.9749 66.6284V66.6284Z" fill="#EC7456"></path> <path d="M75.3818 59.9541C74.6594 64.2237 72.3898 68.0776 69.0063 70.7798C69.3568 68.6566 70.1372 66.6274 71.2997 64.8165C72.3262 62.9422 73.7136 61.2896 75.3818 59.9541V59.9541Z" fill="#EC7456"></path> <path d="M64.993 74.2891C65.4077 75.7767 65.4401 77.345 65.0873 78.8485C64.7345 80.352 64.0079 81.7421 62.9749 82.89C62.5491 81.3906 62.5491 79.8022 62.9749 78.3028C63.2781 76.809 63.9748 75.4233 64.993 74.2891V74.2891Z" fill="#EC7456"></path> <path d="M47.0133 92.1561C47.1218 89.278 47.6629 86.4326 48.6186 83.7157C49.4679 80.9685 50.7366 78.369 52.3797 76.0093C52.2789 78.8862 51.7455 81.7316 50.7973 84.4496C49.9254 87.192 48.6501 89.7893 47.0133 92.1561V92.1561Z" fill="#EC7456"></path> <path d="M222.774 103.532C222.09 102.932 221.616 102.128 221.421 101.239C221.205 100.264 221.261 99.2485 221.582 98.303C221.905 97.3795 222.506 96.5784 223.302 96.0094C224.055 95.4315 224.992 95.1462 225.939 95.2067C225.435 96.0324 224.93 96.6058 224.586 97.248C224.231 97.8206 223.954 98.4376 223.76 99.0828C223.319 100.539 222.989 102.026 222.774 103.532V103.532Z" fill="#A23E3D"></path> <path d="M238.53 95.1836C237.524 96.6768 236.671 98.2673 235.984 99.9313C235.594 100.711 235.319 101.537 234.906 102.362C234.518 103.258 234.066 104.124 233.553 104.954C232.908 102.995 233.031 100.863 233.897 98.9909C234.316 98.0374 234.925 97.179 235.686 96.468C236.455 95.7206 237.461 95.2662 238.53 95.1836V95.1836Z" fill="#A23E3D"></path> <path d="M233.553 89.4727C233.543 90.5169 233.373 91.5534 233.049 92.5461C232.877 93.0013 232.662 93.4391 232.406 93.8534C232.1 94.3573 231.713 94.8068 231.26 95.1837C230.937 94.682 230.735 94.1118 230.672 93.5184C230.608 92.9251 230.684 92.3251 230.893 91.7662C231.103 91.2113 231.423 90.7043 231.833 90.2754C232.284 89.7999 232.899 89.5131 233.553 89.4727Z" fill="#A23E3D"></path> <path d="M249.882 103.532C250.307 105.218 250.307 106.984 249.882 108.67C249.514 110.367 248.726 111.945 247.588 113.257C247.174 111.569 247.174 109.807 247.588 108.119C247.955 106.422 248.744 104.844 249.882 103.532V103.532Z" fill="#A23E3D"></path> <path d="M243.3 100.069C243.25 98.315 243.628 96.5755 244.401 95.0001C245.11 93.3969 246.205 91.9943 247.588 90.9175C247.646 92.6721 247.268 94.4137 246.487 95.9863C245.772 97.586 244.678 98.9873 243.3 100.069Z" fill="#A23E3D"></path> <path d="M307.995 238.211C308.628 236.92 309.49 235.754 310.54 234.771C311.04 234.3 311.577 233.87 312.146 233.486C312.767 233.055 313.446 232.715 314.164 232.477C313.992 234.005 313.265 235.417 312.123 236.445C311.021 237.537 309.545 238.169 307.995 238.211V238.211Z" fill="#A23E3D"></path> <path d="M307.995 246.514C309.307 245.164 310.778 243.978 312.375 242.982C313.911 241.972 315.287 241.147 316.962 239.954C316.906 241.002 316.521 242.005 315.861 242.821C315.222 243.637 314.446 244.335 313.567 244.885C312.729 245.416 311.828 245.84 310.884 246.147C309.951 246.444 308.972 246.569 307.995 246.514V246.514Z" fill="#A23E3D"></path> <path d="M314.164 236.996C315.099 235.398 316.215 233.913 317.489 232.569C318.704 231.262 319.782 230.115 321.273 228.693C321.325 229.695 321.167 230.696 320.807 231.633C320.448 232.569 319.895 233.419 319.186 234.129C317.874 235.613 316.108 236.621 314.164 236.996Z" fill="#A23E3D"></path> <path d="M86.4816 84.5413C86.7109 86.8348 86.7109 88.9679 86.7568 91.1238V94.3348C86.7476 95.4707 86.6634 96.6046 86.5045 97.7293C85.1538 95.7946 84.4476 93.4832 84.4864 91.1238C84.4792 89.9613 84.6335 88.8035 84.9451 87.6835C85.227 86.5383 85.7509 85.4669 86.4816 84.5413V84.5413Z" fill="#A23E3D"></path> <path d="M78.1797 80.5964C78.4264 83.4719 78.48 86.3606 78.3403 89.2432C78.2256 92.0873 78.1338 94.7937 78.1797 97.7983C77.3026 96.5812 76.7002 95.1883 76.4139 93.7157C76.1088 92.2533 75.9856 90.7588 76.0469 89.2662C76.088 87.7826 76.2801 86.3071 76.6202 84.8625C76.9329 83.3731 77.4581 81.9363 78.1797 80.5964V80.5964Z" fill="#A23E3D"></path> <path d="M83.3397 82.89C82.7413 82.1224 82.411 81.1797 82.3994 80.2065C82.3526 79.2632 82.4929 78.32 82.8122 77.4312C83.1191 76.548 83.6027 75.7365 84.2336 75.0464C84.8645 74.3563 85.6293 73.8021 86.4816 73.4175C86.322 74.2933 86.0841 75.153 85.7706 75.9863L84.968 78.2799C84.4176 79.7019 83.9818 81.078 83.3397 82.89Z" fill="#A23E3D"></path> <path d="M97.7419 91.1926C98.8535 96.3667 98.4066 101.754 96.4576 106.674C95.8708 104.111 95.7004 101.47 95.9531 98.8532C96.1217 96.2183 96.7262 93.6297 97.7419 91.1926V91.1926Z" fill="#A23E3D"></path> <path d="M105.195 76.9497C105.093 78.6365 104.879 80.3145 104.553 81.9726C104.393 82.7754 104.232 83.5552 104.003 84.2662C103.793 85.136 103.493 85.9815 103.108 86.7891C102.238 85.1932 101.962 83.3403 102.329 81.5598C102.508 80.657 102.833 79.7893 103.292 78.991C103.726 78.1479 104.384 77.4414 105.195 76.9497V76.9497Z" fill="#A23E3D"></path> <path d="M13.9434 214.885C14.257 215.734 14.6405 216.555 15.09 217.34C15.5028 218.097 15.8927 218.83 16.3514 219.633C16.8101 220.436 17.2458 221.124 17.6357 221.927C18.1084 222.756 18.4927 223.632 18.7823 224.541C16.9155 223.861 15.3537 222.535 14.3791 220.803C13.8675 219.927 13.5252 218.962 13.37 217.959C13.1677 216.899 13.3724 215.801 13.9434 214.885V214.885Z" fill="#A23E3D"></path> <path d="M35.8218 102.638C26.6072 109.726 18.9039 118.587 13.1654 128.699C7.42692 138.81 3.7693 149.967 2.4079 161.514C0.930725 145.321 5.0951 129.116 14.1957 115.642C29.2629 94.2662 40.0415 92.7065 40.0415 92.7065L35.8218 102.638Z" fill="#FCEC81"></path> <path d="M119.483 66.0092C119.483 66.0092 138.494 49.0138 178.513 47.6606C218.532 46.3074 235.09 70.5964 235.09 70.5964L238.53 69.1056C238.53 69.1056 238.117 54.6102 220.779 46.9038C203.442 39.1973 185.095 41.3304 181.953 40.6423C178.811 39.9542 157.025 38.3487 144.985 44.9771C132.945 51.6056 119.483 66.0092 119.483 66.0092Z" fill="#FCEC81"></path> <path d="M298.798 123.532C298.798 123.532 342.624 144.748 333.909 200.138C333.909 200.138 348.105 180.734 337.12 151.124C334.09 142.625 329.07 134.975 322.479 128.814C315.888 122.653 307.917 118.16 299.234 115.711L298.798 123.532Z" fill="#FCEC81"></path> <path d="M203.602 47.0183C202.524 48.6009 201.767 49.8624 200.919 51.2614C200.483 51.9036 200.093 52.6146 199.589 53.3027C199.095 54.0549 198.535 54.7612 197.915 55.4128C197.571 53.5547 197.949 51.6356 198.97 50.0458C199.481 49.2402 200.134 48.5332 200.896 47.9587C201.666 47.3491 202.62 47.0178 203.602 47.0183V47.0183Z" fill="#FCEC81"></path> <path d="M215.482 51.2153C214.607 52.6372 213.525 53.9205 212.271 55.0227C211.078 56.1236 209.978 56.9722 208.602 58.2337C208.454 57.2956 208.623 56.3351 209.083 55.5043C209.485 54.6897 210.038 53.9582 210.711 53.3484C211.396 52.744 212.169 52.2489 213.005 51.8805C213.777 51.4933 214.62 51.267 215.482 51.2153V51.2153Z" fill="#FCEC81"></path> <path d="M228.966 58.2341C228.431 58.6928 227.947 59.2081 227.522 59.7708C227.109 60.2983 226.673 60.78 226.214 61.2846C225.746 61.7871 225.248 62.2619 224.724 62.7066C224.141 63.2229 223.484 63.6481 222.774 63.9681C222.811 62.3824 223.441 60.8681 224.54 59.725C225.086 59.1388 225.74 58.6637 226.467 58.3259C226.848 58.1194 227.272 58.0036 227.706 57.9877C228.139 57.9718 228.571 58.0561 228.966 58.2341Z" fill="#FCEC81"></path> <path d="M215.481 59.312C215.298 60.0918 215.206 60.734 215.023 61.3533C214.873 61.9796 214.673 62.5932 214.427 63.1882C213.95 64.4961 213.163 65.6688 212.133 66.6056C211.7 65.1901 211.797 63.665 212.408 62.3166C212.682 61.6384 213.079 61.0164 213.578 60.4817C214.053 59.878 214.728 59.4634 215.481 59.312V59.312Z" fill="#FCEC81"></path> <path d="M203.602 55.4128C203.776 56.6631 203.69 57.9358 203.35 59.1514C203.007 60.3199 202.562 61.4558 202.02 62.5459C201.458 62.0495 201.099 61.3636 201.011 60.6193C200.921 59.9376 200.96 59.2453 201.125 58.578C201.291 57.9055 201.598 57.2758 202.025 56.7302C202.452 56.1847 202.989 55.7357 203.602 55.4128V55.4128Z" fill="#FCEC81"></path> <path d="M330.446 156.583C330.928 159.406 330.928 162.291 330.446 165.115C330.213 166.521 329.876 167.909 329.437 169.266C329.028 170.686 328.316 172.001 327.35 173.119C327.534 171.674 327.534 170.298 327.671 168.899C327.809 167.5 327.97 166.124 328.176 164.748C328.582 161.94 329.345 159.197 330.446 156.583V156.583Z" fill="#FCEC81"></path> <path d="M335.033 166.399C335.392 169.256 335.182 172.156 334.414 174.931C334.072 176.326 333.58 177.68 332.946 178.968C332.358 180.315 331.509 181.531 330.446 182.546C330.974 179.679 331.524 177.064 332.212 174.358C332.857 171.609 333.803 168.94 335.033 166.399V166.399Z" fill="#FCEC81"></path> <path d="M328.864 174.473C329.071 175.41 329.071 176.38 328.864 177.317C328.662 178.207 328.354 179.069 327.947 179.886C327.126 181.572 325.815 182.971 324.186 183.9C324.298 182.981 324.522 182.08 324.851 181.216C325.154 180.43 325.506 179.664 325.906 178.922C326.676 177.307 327.672 175.808 328.864 174.473V174.473Z" fill="#FCEC81"></path> <path d="M336.753 182.546C336.597 184.883 335.94 187.159 334.827 189.22C333.789 191.335 332.292 193.192 330.446 194.656C330.895 192.393 331.667 190.207 332.74 188.165C333.779 186.096 335.133 184.2 336.753 182.546V182.546Z" fill="#FCEC81"></path> <path d="M23.713 109.541C23.6794 111.86 23.3871 114.168 22.8415 116.422C22.3703 118.673 21.7419 120.888 20.961 123.05C20.1333 120.77 20.0055 118.294 20.594 115.94C21.0686 113.575 22.1426 111.372 23.713 109.541Z" fill="#FCEC81"></path> <path d="M28.4372 103.532C28.616 105.977 28.4305 108.435 27.8869 110.826C27.3449 113.188 26.5769 115.492 25.5935 117.707C25.1886 116.504 25.0174 115.235 25.089 113.968C25.1308 112.735 25.2766 111.507 25.5247 110.298C26.0384 107.872 27.0283 105.573 28.4372 103.532V103.532Z" fill="#FCEC81"></path> <path d="M18.553 125.596C19.1129 127.272 19.3388 129.041 19.218 130.803C19.1806 131.64 19.0963 132.475 18.9657 133.303C18.9657 134.129 18.6218 134.908 18.553 135.872C17.8225 135.229 17.3364 134.354 17.1769 133.395C16.9816 132.514 16.8969 131.613 16.9247 130.711C16.9866 128.889 17.55 127.119 18.553 125.596V125.596Z" fill="#FCEC81"></path> <path d="M23.7129 125.596C23.9512 127.805 23.9972 130.031 23.8505 132.248C23.8505 134.404 23.69 136.399 23.7129 138.785C22.9042 137.912 22.3353 136.846 22.0617 135.688C21.7553 134.545 21.6162 133.363 21.649 132.179C21.7095 131.012 21.9096 129.857 22.2452 128.739C22.5394 127.611 23.0368 126.546 23.7129 125.596V125.596Z" fill="#FCEC81"></path> <path d="M91.7563 184.243L101.044 171.468C101.15 169.929 101.622 168.438 102.419 167.117C103.217 165.797 104.318 164.686 105.631 163.876C109.801 161.651 114.299 160.103 118.955 159.289C118.679 158.632 118.543 157.926 118.555 157.214C118.567 156.501 118.727 155.8 119.024 155.153C119.322 154.506 119.751 153.928 120.284 153.455C120.817 152.983 121.442 152.626 122.12 152.408C127.119 150.551 140.214 155.413 140.214 155.413C136.574 152.008 131.997 149.771 127.074 148.991C122.676 148.64 118.294 149.841 114.69 152.385L113.795 157.248C113.795 157.248 104.622 157.729 99.1637 161.835C93.7055 165.94 95.7237 169.817 95.7237 169.817C94.0972 171.929 92.7484 174.242 91.7103 176.697C91.039 179.17 91.0549 181.779 91.7563 184.243V184.243Z" fill="#E3E0DD"></path> <path d="M241.029 222.294L249.216 270.367L260.11 278.234L252.519 267.684L241.029 222.294Z" fill="#E3E0DD"></path> <path d="M74.946 250.78L96.3429 245.826L101.067 240.092L74.946 250.78Z" fill="#E3E0DD"></path> <path d="M34.7668 105.894C34.7668 105.894 50.8202 69.1972 84.4405 59.8394C114.69 51.4449 124.757 59.8394 124.757 59.8394L132.279 52.9587C132.279 52.9587 115.951 42.3394 86.7567 50.6651C57.5625 58.9908 43.1833 85.4587 43.1833 85.4587L34.7668 105.894Z" fill="#EC7456"></path> <path d="M228.966 75.3671C228.966 75.3671 251.51 68.7845 271.966 82.2478C292.423 95.7111 298.615 113.326 298.615 113.326C298.615 113.326 299.922 98.3717 286.231 83.3258C272.54 68.28 256.418 64.6332 247.611 66.0552C238.805 67.4772 228.966 75.3671 228.966 75.3671Z" fill="#EC7456"></path> <path d="M324.14 213.12C324.14 213.12 332.74 249.588 315.815 268.739C325.18 258.903 331.145 246.322 332.831 232.844C335.79 210.069 331.111 204.84 331.111 204.84L324.14 213.12Z" fill="#EC7456"></path> <path d="M127.555 210.321C127.96 210.849 128.481 211.277 129.077 211.571C129.674 211.866 130.33 212.019 130.995 212.019C131.66 212.019 132.317 211.866 132.913 211.571C133.51 211.277 134.031 210.849 134.435 210.321C136.201 208.463 143.609 207.362 141.315 213.257C139.022 219.151 130.903 220.39 127.555 220.138C124.207 219.885 118.841 215.413 118.382 211.95C117.923 208.486 124.161 206.743 127.555 210.321Z" fill="#AD6642"></path> <path d="M118.382 204.335C118.382 204.335 126.019 201.009 131.156 201.422C135.227 202.052 139.178 203.298 142.875 205.115C142.875 205.115 141.82 195.253 133.908 193.464C125.996 191.675 119.873 196.468 118.382 204.335Z" fill="#3C1D16"></path> <path d="M172.826 40.9633L167 32.0871L195.392 12.0642L254.766 54.7248V65.1605C252.358 65.1897 249.959 65.4742 247.611 66.0092C244.324 66.8383 241.091 67.8725 237.933 69.1055L238.53 64.1055L237.153 63.0275L239.447 60.9633L226.168 37.5459L206.859 38.2798L205.643 41.3991L172.826 40.9633Z" fill="#7A742E"></path> <path d="M130.307 38.2569L145.168 24.1056L197.777 6.88079L255.638 52.2019L257.862 65.7111L260.637 66.9267L259.559 50.8716L198.901 2.17896L142.301 21.9037L130.307 38.2569Z" fill="#B7AF59"></path> <path d="M169.569 170.642C169.569 170.642 175.578 170.046 190.049 173.119C204.519 176.193 216.835 182.775 218.348 184.243C219.862 185.711 220.642 187.156 219.862 187.34C219.158 187.464 218.444 187.525 217.729 187.523L199.681 181.193L180.416 177.087L172.39 175.78C172.39 175.78 167.161 176.651 169.569 170.642Z" fill="#A69D97"></path> <path d="M171.266 165.23C171.266 165.23 180.715 158.716 186.746 160.023C192.778 161.331 192.067 168.441 192.067 168.441C197.065 167.576 202.158 167.406 207.203 167.936C212.821 169.037 211.514 176.468 211.514 176.468C214.142 177.761 216.482 179.571 218.394 181.789C220.687 184.909 219.38 186.56 219.38 186.56C219.38 186.56 221.995 185.276 221.995 184.266C221.617 182.491 221.095 180.75 220.435 179.06L217.293 173.831C217.684 172.008 217.442 170.106 216.609 168.439C215.775 166.772 214.399 165.438 212.707 164.656C206.629 161.331 196.195 163.028 196.195 163.028C196.195 163.028 195.186 158.12 187.962 156.147C180.738 154.175 171.266 165.23 171.266 165.23Z" fill="#E3E0DD"></path> <path d="M211.17 263.44C211.17 263.44 196.241 254.266 193.099 247.982L188.512 246.261L186.494 250.275C187.711 252.196 189.265 253.882 191.081 255.252C179.028 265.209 163.826 270.551 148.195 270.321C121.432 270.092 112.74 259.243 112.74 259.243C113.71 256.916 113.863 254.329 113.176 251.904C108.12 257.893 102.541 263.42 96.5034 268.417C98.8711 268.762 101.282 268.66 103.613 268.119C108.372 275.841 114.03 282.97 120.469 289.358C116.495 284.05 112.923 278.454 109.782 272.615C108.676 270.262 107.763 267.822 107.053 265.321C107.053 265.321 106.663 259.495 111.066 262.248C115.469 265 122.762 270.895 143.677 273.28C157.021 274.434 170.411 271.668 182.205 265.321L193.053 257.844C193.053 257.844 193.58 256.239 197.02 257.844C200.46 259.45 197.571 267.775 197.571 267.775L193.144 278.188L188.443 285.184C195.305 279.509 200.134 271.757 202.203 263.096C205.101 264.046 208.208 264.165 211.17 263.44V263.44Z" fill="#E7A08B"></path> <path d="M130.399 221.72C122.877 221.72 116.639 215 116.639 206.743C116.639 198.486 122.785 191.743 130.399 191.743C134.147 192.071 137.637 193.793 140.179 196.567C142.721 199.342 144.131 202.968 144.131 206.732C144.131 210.495 142.721 214.122 140.179 216.896C137.637 219.671 134.147 221.392 130.399 221.72V221.72ZM130.399 194.037C127.83 193.772 125.242 194.293 122.975 195.53C120.708 196.766 118.869 198.661 117.7 200.964C116.532 203.267 116.089 205.871 116.43 208.431C116.77 210.991 117.879 213.387 119.609 215.304C121.339 217.222 123.61 218.569 126.121 219.17C128.633 219.77 131.267 219.596 133.677 218.669C136.087 217.742 138.16 216.106 139.622 213.977C141.084 211.848 141.866 209.326 141.866 206.743C142.028 203.538 140.911 200.399 138.761 198.017C136.611 195.634 133.604 194.203 130.399 194.037V194.037Z" fill="#3C1D16"></path> <path d="M130.835 200.321C129.563 200.196 128.283 200.459 127.163 201.075C126.044 201.691 125.137 202.632 124.562 203.774C123.987 204.915 123.772 206.204 123.943 207.471C124.115 208.737 124.666 209.922 125.523 210.87C126.381 211.817 127.506 212.483 128.749 212.779C129.992 213.075 131.296 212.988 132.489 212.529C133.681 212.07 134.707 211.26 135.431 210.207C136.155 209.154 136.544 207.906 136.545 206.628C136.62 205.036 136.061 203.478 134.991 202.296C133.921 201.114 132.427 200.404 130.835 200.321V200.321Z" fill="#1A171B"></path> <path d="M143.952 213.67C144.771 210.806 144.989 207.805 144.595 204.853C144.2 201.901 143.201 199.062 141.659 196.514C140.123 194.06 138.063 191.977 135.628 190.413C133.23 188.805 130.438 187.885 127.555 187.752C124.693 187.636 121.847 188.243 119.282 189.518C116.717 190.793 114.514 192.694 112.878 195.046C111.198 197.495 110.106 200.297 109.684 203.237C109.262 206.176 109.523 209.173 110.447 211.995C109.061 209.209 108.414 206.113 108.566 203.005C108.78 199.841 109.747 196.774 111.387 194.06C113.086 191.304 115.493 189.054 118.357 187.546C121.221 186.037 124.437 185.324 127.67 185.482C130.965 185.652 134.144 186.749 136.843 188.647C139.484 190.446 141.655 192.853 143.173 195.665C144.655 198.412 145.496 201.459 145.631 204.578C145.766 207.696 145.192 210.805 143.952 213.67V213.67Z" fill="#0D0B0A"></path> <path d="M261.279 66.6743H257.839V51.6973L198.488 3.87615L143.035 22.867L124.161 50.2294L121.317 48.2798L140.834 19.9771L199.176 0L261.279 50.0459V66.6743Z" fill="#5E591D"></path> <path d="M197.779 1.56924L184.706 40.5107L186.88 41.2408L199.953 2.29929L197.779 1.56924Z" fill="#5E591D"></path> <path d="M238.919 65.9175L236.856 64.9313L240.869 56.6285L230.618 37.89L208.533 38.9909L206.561 41.5826L204.749 40.1836L207.363 36.7432L231.925 35.5505L243.46 56.5597L238.919 65.9175Z" fill="#5E591D"></path> <path d="M226.515 36.4031L224.54 37.5686L238.886 61.8858L240.861 60.7203L226.515 36.4031Z" fill="#5E591D"></path> <path d="M138.724 49.3348L136.476 48.8073L138.517 40.1605L162.758 24.4724L174.339 40.2064L172.482 41.5596L162.185 27.5687L140.535 41.5825L138.724 49.3348Z" fill="#5E591D"></path> <path d="M164.463 28.6437L137.886 46.123L139.146 48.0394L165.723 30.56L164.463 28.6437Z" fill="#5E591D"></path> <path d="M46.4858 265.596C6.19195 258.716 8.41649 198.096 8.43942 197.477L11.8794 197.638C11.8794 198.211 9.76955 255.757 47.0591 262.202L46.4858 265.596Z" fill="#671516"></path> <path d="M274.695 291.239C272.089 291.279 269.487 291.01 266.944 290.436L267.884 287.133C269.077 287.454 297.033 294.794 321.548 257.867C326.692 250.275 330.075 241.63 331.452 232.563C332.828 223.496 332.164 214.236 329.506 205.459L332.717 204.243C335.641 213.521 336.414 223.344 334.975 232.965C333.537 242.587 329.925 251.754 324.415 259.771C306.298 287.064 285.635 291.239 274.695 291.239Z" fill="#671516"></path> <path d="M56.4619 232.592C51.9848 232.649 47.5361 231.871 43.344 230.298C17.888 220.436 -5.09119 191.032 0.986147 147.592C7.17815 103.28 39.216 90.7341 39.5371 90.6194L40.7525 93.8304C40.4544 93.8304 10.2741 105.872 4.40319 148.051C-1.42188 189.656 20.4566 217.729 44.5824 227.087C58.0443 232.294 72.1025 226.697 77.423 224.037L78.9365 227.133C71.9384 230.586 64.264 232.45 56.4619 232.592Z" fill="#7D6123"></path> <path d="M80.9776 196.055C70.52 196.055 55.1776 192.041 42.3349 172.615C21.6949 141.514 25.6165 87.5458 63.984 59.7935C100.379 33.4632 132.784 51.2155 133.128 51.399L131.454 54.4036C131.133 54.2201 100.563 37.5688 66.0021 62.5917C29.3088 89.1972 25.5248 140.917 45.2016 170.711C65.36 201.193 90.9077 191.353 91.9855 190.894L93.2698 194.06C89.3234 195.45 85.161 196.125 80.9776 196.055V196.055Z" fill="#671516"></path> <path d="M78.8677 230.78C74.9691 223.119 74.1435 215.94 76.4368 209.449C79.1973 202.648 84.4109 197.131 91.0453 193.991L92.4443 197.11C92.4443 197.11 82.8581 201.514 79.6704 210.619C77.7211 216.17 78.4779 222.431 81.9637 229.22L78.8677 230.78Z" fill="#A35A48"></path> <path d="M92.7883 244.839L90.6785 243.922C102.145 218.188 99.6912 183.372 99.6683 183.027L101.962 182.867C101.985 183.165 104.415 218.601 92.7883 244.839Z" fill="#A35A48"></path> <path d="M236.259 253.211C229.861 199.518 232.705 197.867 233.622 197.316H235.067L233.737 199.174L234.402 198.234V199.335C234.499 199.325 234.594 199.293 234.677 199.242C234.761 199.19 234.831 199.12 234.883 199.037C234.493 199.725 232.773 205.459 238.415 252.89L236.259 253.211Z" fill="#A35A48"></path> <path d="M250.294 256.078L248.116 253.44C251.305 250.696 253.557 247.022 254.556 242.935C255.555 238.847 255.252 234.549 253.688 230.642L256.876 229.381C263.114 245.321 250.432 255.986 250.294 256.078Z" fill="#A35A48"></path> <path d="M57.9067 348.601C51.32 341.567 46.7726 332.872 44.7525 323.449C42.7324 314.026 43.3157 304.231 46.44 295.115L32.68 308.326L32.2672 304.885C28.8731 275.069 47.7701 259.014 62.9749 245.917C68.1362 241.882 72.815 237.264 76.9184 232.156C83.1104 223.257 86.0918 211.193 88.3851 201.514C90.4032 193.188 92.0085 186.605 95.0816 183.716L97.3749 186.239C95.0816 188.417 93.4763 194.862 91.6645 202.294C89.2336 212.248 86.2064 224.656 79.6474 234.083C75.3816 239.409 70.5099 244.219 65.1307 248.417C51.1643 260.344 33.9413 275.046 35.3173 300.849L58.48 278.716L52.5861 288.991C47.7734 298.149 45.9338 308.579 47.323 318.83C48.7123 329.082 53.2613 338.646 60.3376 346.193L57.9067 348.601Z" fill="#766F6B"></path> <path d="M220.894 386.307L220.389 382.913C220.596 382.913 242.749 379.289 254.124 361.72C261.601 350.252 262.885 335.115 257.885 316.995L254.01 302.959L272.035 335.505C275.911 329.22 284.259 307.982 252.955 272.179L252.748 271.927V271.605C245.327 248.759 239.511 225.423 235.342 201.766L238.736 201.193C242.81 224.555 248.496 247.607 255.753 270.183C295.404 315.78 274.099 338.991 273.067 339.908L271.439 341.583L263.642 327.454C265.66 341.605 263.435 353.738 257.037 363.624C244.768 382.477 221.88 386.17 220.894 386.307Z" fill="#766F6B"></path> <path d="M74.9232 250.78C78.6397 248.581 82.5281 246.686 86.5504 245.115L92.5361 242.821C94.5313 242.041 96.5035 241.193 98.5216 240.528L102.329 239.128L100.173 242.523C97.4896 246.743 94.8064 250.94 91.9398 255.023L90.0134 253.807C92.5131 249.472 95.1733 245.275 97.8565 241.055L99.4849 243.073C97.4897 243.853 95.4715 244.541 93.4534 245.367L87.3761 247.661C83.3208 249.051 79.1549 250.094 74.9232 250.78V250.78Z" fill="#766F6B"></path> <path d="M228.462 262.294C228.462 259.679 228.301 257.064 228.278 254.45C228.255 251.835 228.278 249.197 228.278 246.583V243.876L230.365 245.505C231.902 246.697 233.324 247.798 234.769 249.174C236.213 250.551 237.589 251.72 238.897 253.119C241.593 255.82 243.866 258.913 245.639 262.294L241.534 258.418L237.635 254.702C234.86 252.225 231.994 249.817 229.035 247.661L231.168 246.583C231.168 249.197 231.168 251.812 231.168 254.45C231.168 257.087 231.168 259.679 230.962 262.294H228.462Z" fill="#766F6B"></path> <path d="M270.957 242.271C260.591 242.271 256.372 235.917 249.262 223.349C243.799 213.539 237.344 204.317 229.998 195.826L232.521 193.532C240.074 202.22 246.685 211.685 252.244 221.766C261.83 238.716 264.398 243.257 289.969 234.748C314.989 226.399 346.477 197.913 338.129 160.688C336.103 150.565 331.293 141.209 324.239 133.672C317.185 126.135 308.168 120.717 298.202 118.028L298.867 114.656C309.488 117.472 319.108 123.205 326.638 131.207C334.169 139.208 339.309 149.159 341.477 159.931C350.307 199.243 317.306 229.266 291.024 237.913C284.598 240.387 277.83 241.857 270.957 242.271V242.271Z" fill="#7D6123"></path> <path d="M169.707 159.495C166.06 159.495 162.208 159.495 158.24 159.243L153.011 159.037C148.769 158.853 144.755 158.716 141.017 158.44L141.246 155.023C144.939 155.275 148.929 155.436 153.149 155.596L158.401 155.803C164.111 156.032 172.161 156.674 177.114 156.56L174.454 159.45L169.707 159.495Z" fill="#7D6123"></path> <path d="M116.089 151.261C112.674 148.553 109.987 145.038 108.268 141.032C99.9205 122.683 98.9115 85.3211 122.716 59.633C143.104 37.6146 162.093 38.3027 180.485 38.9908C184.361 39.1284 188.374 39.266 192.365 39.1972C215.046 38.8073 238.667 48.9678 240.341 69.0137L236.924 69.2889C235.411 51.2844 213.395 42.2247 192.411 42.5688C188.352 42.5688 184.292 42.5688 180.371 42.3623C162.024 41.6743 144.549 41.055 125.331 61.9036C102.581 86.4449 103.544 122.064 111.571 139.541C113.094 143.043 115.457 146.115 118.451 148.486L116.089 151.261Z" fill="#7D6123"></path> <path d="M238.186 196.927C233.795 197.154 229.463 195.84 225.939 193.211C223.44 191.055 222.201 189.977 219.747 187.5L221.605 183.899C223.898 186.33 225.756 188.486 228.187 190.596C231.008 193.028 236.007 193.991 241.947 193.234C256.074 191.445 271.003 181.032 281.874 165.39C294.395 147.385 299.83 123.67 295.748 104.977C294.552 98.808 292.063 92.9619 288.447 87.8231C284.83 82.6842 280.167 78.3689 274.764 75.1606C262.472 67.9129 252.68 65.5964 243.965 67.89C229.815 71.6056 218.119 87.5918 204.978 110.482C196.149 125.757 192.525 137.867 193.901 147.477L195.667 158.257L192.479 156.399L190.507 147.959C188.994 137.569 192.801 124.748 201.974 108.762C215.734 85.1377 227.866 68.578 243.254 64.5643C252.909 62.0184 263.55 64.4496 276.668 72.2019C282.476 75.632 287.493 80.2518 291.39 85.7581C295.287 91.2644 297.976 97.5326 299.28 104.151C303.614 124.037 298.088 148.234 284.855 167.271C273.388 183.693 257.633 194.633 242.543 196.56C241.1 196.779 239.645 196.902 238.186 196.927V196.927Z" fill="#671516"></path> <path d="M94.0725 187.339C93.4757 187.353 92.8825 187.244 92.3297 187.018C91.6288 186.698 91.0198 186.207 90.5589 185.59C90.098 184.972 89.7999 184.249 89.6923 183.486C89.2004 180.954 89.3751 178.337 90.1993 175.892C91.0235 173.447 92.4689 171.259 94.3936 169.541C93.936 167.41 94.34 165.183 95.5173 163.349C98.8197 158.142 107.718 155.986 111.364 155.298C111.435 153.743 111.979 152.246 112.924 151.009C115.034 148.257 118.955 146.789 124.574 146.628C133.747 146.353 140.375 151.216 142.737 156.216C143.342 157.143 143.664 158.227 143.664 159.335C143.664 160.442 143.342 161.526 142.737 162.454C141.223 164.243 138.976 165.16 134.481 167.041C130.881 168.509 125.95 170.504 118.68 173.922C114.905 175.882 111.259 178.08 107.764 180.504C102.122 184.266 97.4896 187.339 94.0725 187.339ZM125.262 150.046H124.62C120.194 150.16 117.098 151.193 115.653 153.027C115.287 153.492 115.021 154.028 114.871 154.6C114.721 155.172 114.691 155.769 114.781 156.353L115.171 158.165L113.337 158.44C110.08 158.876 101.067 160.917 98.384 165.16C97.9693 165.812 97.712 166.551 97.6324 167.32C97.5528 168.088 97.6531 168.864 97.9253 169.587L98.2923 170.757L97.3291 171.491C95.6612 172.805 94.3782 174.544 93.6155 176.526C92.8527 178.508 92.6382 180.659 92.9947 182.752C92.9947 183.165 93.2699 183.693 93.568 183.807C95.4027 184.564 101.182 180.734 105.837 177.66C109.455 175.128 113.232 172.83 117.143 170.78C124.505 167.225 129.505 165.183 133.197 163.715C136.889 162.248 139.137 161.284 140.077 160.138C140.214 159.954 140.306 158.899 139.412 157.248C137.911 154.893 135.807 152.984 133.319 151.718C130.83 150.451 128.048 149.874 125.262 150.046V150.046Z" fill="#766F6B"></path> <path d="M118.107 236.995C118.046 238.798 118.356 240.593 119.019 242.27C119.682 243.947 120.683 245.47 121.959 246.743C123.371 247.792 124.965 248.57 126.661 249.037L129.413 249.61C130.353 249.725 131.293 249.862 132.279 250.069C131.331 250.35 130.366 250.572 129.39 250.734C128.382 250.803 127.371 250.803 126.363 250.734C124.235 250.542 122.206 249.746 120.515 248.44C118.836 247.04 117.727 245.074 117.396 242.913C117.073 240.913 117.32 238.862 118.107 236.995V236.995Z" fill="#A35A48"></path> <path d="M141.934 191.927C144.437 195.938 145.939 200.493 146.315 205.206C146.433 207.63 146.147 210.056 145.466 212.385C144.675 214.672 143.521 216.818 142.049 218.738C139.389 222.66 135.811 225.917 133.197 229.449C131.934 231.186 131.08 233.185 130.697 235.298C130.338 237.466 130.276 239.673 130.514 241.858C130.681 243.976 131.349 246.024 132.461 247.834C133.573 249.644 135.098 251.164 136.912 252.271C138.792 253.4 140.823 254.258 142.943 254.816C145.037 255.419 147.209 255.705 149.388 255.665C156.091 255.434 162.457 252.672 167.207 247.936C168.847 246.397 170.212 244.59 171.243 242.592C171.263 245.063 170.373 247.454 168.744 249.312C167.174 251.143 165.305 252.694 163.217 253.899C159.057 256.446 154.327 257.912 149.457 258.165C147 258.283 144.541 257.98 142.187 257.271C139.815 256.661 137.544 255.71 135.444 254.449C133.268 253.14 131.442 251.322 130.124 249.151C128.843 246.972 128.06 244.536 127.83 242.018C127.612 239.583 127.728 237.129 128.174 234.725C128.626 232.228 129.655 229.872 131.179 227.844C134.183 223.968 137.6 220.963 140.237 217.271C141.618 215.53 142.738 213.599 143.563 211.537C144.28 209.44 144.645 207.239 144.641 205.023C144.594 200.523 143.675 196.076 141.934 191.927V191.927Z" fill="#A35A48"></path> <path d="M165.969 250.596C168.371 251.383 170.896 251.733 173.422 251.629C174.606 251.561 175.77 251.289 176.862 250.826C177.944 250.425 178.929 249.8 179.751 248.991C181.496 247.37 182.589 245.168 182.824 242.798C183.152 240.275 183.113 237.718 182.71 235.207C184.011 237.58 184.667 240.253 184.613 242.959C184.576 244.365 184.297 245.753 183.788 247.064C183.227 248.407 182.382 249.612 181.311 250.596C180.249 251.56 179.002 252.297 177.645 252.762C176.289 253.228 174.852 253.412 173.422 253.303C170.723 253.164 168.128 252.221 165.969 250.596V250.596Z" fill="#A35A48"></path> <path d="M130.743 182.959C131.659 182.775 132.602 182.775 133.518 182.959C134.438 183.134 135.332 183.427 136.178 183.83C137.856 184.655 139.276 185.924 140.283 187.5C138.701 186.56 137.233 185.619 135.696 184.862C134.103 184.087 132.445 183.45 130.743 182.959V182.959Z" fill="#A35A48"></path> <path d="M184.178 240.207C184.903 241.244 185.733 242.205 186.654 243.074C187.545 243.935 188.521 244.704 189.567 245.367C190.632 246.061 191.752 246.667 192.915 247.179C194.085 247.729 195.208 248.142 196.607 248.647H194.566C193.901 248.647 193.213 248.509 192.525 248.349C191.16 248.042 189.842 247.556 188.604 246.904C187.362 246.207 186.233 245.325 185.255 244.289C184.215 243.226 183.43 241.94 182.962 240.528L184.178 240.207Z" fill="#A35A48"></path> <path d="M118.382 239.381C118.142 240.587 117.551 241.696 116.685 242.569C115.828 243.405 114.845 244.102 113.772 244.633C112.734 245.197 111.623 245.614 110.47 245.872C109.339 246.162 108.174 246.294 107.007 246.262C108.062 245.826 109.094 245.321 110.103 244.84C111.097 244.354 112.048 243.787 112.947 243.142C113.807 242.506 114.634 241.824 115.423 241.101C116.18 240.39 116.983 239.61 117.579 238.808L118.382 239.381Z" fill="#A35A48"></path> <path d="M203.717 216.537C202.111 213.267 199.928 210.314 197.273 207.821C196.012 206.7 194.608 205.752 193.099 205C191.581 204.311 189.976 203.833 188.329 203.578C186.713 203.375 185.075 203.46 183.49 203.83C181.897 204.291 180.414 205.072 179.132 206.124C176.367 208.441 174.315 211.495 173.215 214.931C173.144 212.951 173.466 210.977 174.163 209.123C174.86 207.269 175.917 205.571 177.275 204.128C178.704 202.57 180.491 201.381 182.481 200.665C184.504 199.997 186.648 199.778 188.764 200.023C190.83 200.291 192.833 200.92 194.681 201.881C196.486 202.883 198.094 204.204 199.428 205.78C201.981 208.808 203.486 212.582 203.717 216.537V216.537Z" fill="#0D0B0A"></path> <path d="M179.407 196.055C178.121 197.121 176.96 198.329 175.944 199.656C175.466 200.308 175.03 200.99 174.637 201.697C174.202 202.408 173.926 203.165 173.491 203.991C173.344 203.088 173.397 202.164 173.646 201.284C173.896 200.404 174.336 199.59 174.935 198.899C176.051 197.461 177.632 196.456 179.407 196.055V196.055Z" fill="#A35A48"></path> <path d="M218.532 190.046C217.748 190.056 216.97 189.916 216.238 189.633C215.619 189.381 214.817 188.991 213.83 188.509C207.682 185.348 201.108 183.092 194.314 181.812C186.998 180.321 181.861 179.518 178.123 178.991C172.619 178.165 170.12 177.798 168.468 176.147C167.832 175.447 167.347 174.624 167.043 173.728C166.739 172.832 166.623 171.883 166.702 170.94C166.88 168.735 167.512 166.59 168.558 164.64C169.603 162.691 171.041 160.978 172.78 159.61C174.948 157.366 177.653 155.713 180.639 154.806C183.625 153.899 186.792 153.768 189.842 154.427C191.619 154.845 193.246 155.745 194.545 157.027C195.843 158.31 196.763 159.926 197.204 161.697C200.437 161.216 207.661 160.551 212.684 163.073C214.591 164.007 216.145 165.532 217.116 167.421C218.087 169.309 218.423 171.461 218.073 173.555C219.839 175.092 223.646 178.784 224.127 182.729C224.317 183.858 224.205 185.017 223.802 186.089C223.399 187.16 222.72 188.106 221.834 188.83C220.891 189.577 219.734 190.003 218.532 190.046V190.046ZM185.944 157.294C181.882 157.438 178.032 159.138 175.188 162.041C173.798 163.102 172.641 164.438 171.788 165.964C170.936 167.491 170.407 169.177 170.234 170.918C170.129 171.876 170.4 172.839 170.991 173.601C171.84 174.45 174.293 174.817 178.719 175.482C182.503 176.032 187.709 176.812 195.094 178.349C202.185 179.652 209.051 181.969 215.482 185.229C216.33 185.642 217.018 186.009 217.592 186.216C217.964 186.377 218.372 186.436 218.775 186.388C219.178 186.34 219.561 186.185 219.885 185.94C220.28 185.569 220.571 185.1 220.728 184.581C220.885 184.061 220.902 183.51 220.779 182.982C220.435 180 216.628 176.491 215.206 175.39L214.266 174.702L214.587 173.578C215.004 172.112 214.895 170.546 214.28 169.151C213.664 167.756 212.58 166.621 211.216 165.94C205.758 163.211 196.401 165.115 196.309 165.138L194.452 165.528L194.245 163.647C194.089 162.248 193.522 160.926 192.616 159.849C191.71 158.771 190.506 157.986 189.154 157.592C188.098 157.376 187.021 157.276 185.944 157.294V157.294Z" fill="#766F6B"></path> <path d="M127.555 196.927C126.834 196.95 126.134 197.178 125.537 197.584C124.94 197.99 124.471 198.558 124.184 199.22C123.728 200.066 123.627 201.058 123.902 201.978C124.177 202.899 124.807 203.672 125.652 204.129C126.075 204.327 126.537 204.429 127.005 204.427C127.729 204.402 128.432 204.174 129.032 203.768C129.632 203.363 130.106 202.796 130.399 202.133C130.848 201.28 130.943 200.285 130.664 199.362C130.385 198.439 129.755 197.663 128.908 197.202C128.483 197.011 128.021 196.917 127.555 196.927V196.927Z" fill="white"></path> </g> <defs> <clipPath id="clip0_133_1203"> <rect width="344" height="250" fill="white"></rect> </clipPath> </defs> </svg> 