<?xml version="1.0" encoding="UTF-8"?> <svg xmlns="http://www.w3.org/2000/svg" width="140" height="163" viewBox="0 0 214 163" fill="none"> <path d="M62.13 80.17C79.13 102.17 80.68 145.56 80.68 145.56L67 153.48C55.33 159.62 37.9 152.48 24 134.54C7 112.54 1.69001 82.45 12.23 67.44C14.18 64.65 17.23 61.18 19.93 59.79C21.11 59.18 35.49 52.79 35.49 52.79C45.3334 60.927 54.2656 70.1074 62.13 80.17Z" stroke="white" stroke-width="8.79" stroke-linecap="round" stroke-linejoin="round"></path> <path d="M19.92 59.79C17.26 61.18 14.17 64.65 12.22 67.44C4.02 79.13 5.43001 99.91 14.48 118.94L15.57 116.25C7.41001 84.57 19.64 71.8 23.05 73.14L27.48 56.37C24 57.94 20.47 59.51 19.92 59.79Z" stroke="white" stroke-width="8.79" stroke-linecap="round" stroke-linejoin="round"></path> <path d="M81.6486 145.16C97.0135 137.874 99.5037 110.952 87.2106 85.0279C74.9175 59.1037 52.4963 43.9944 37.1314 51.2803C21.7665 58.5662 19.2763 85.4884 31.5694 111.413C43.8625 137.337 66.2837 152.446 81.6486 145.16Z" stroke="white" stroke-width="8.79" stroke-linecap="round" stroke-linejoin="round"></path> <path d="M69.41 85.82C73.41 91.43 76.29 98.82 75.41 105.82C75.1 108.21 74.21 110.82 72.24 112.38C70.27 113.94 67.71 113.78 65.47 112.99C62.2 111.83 59.47 109.28 57.34 106.66C54.9365 103.68 53.0872 100.293 51.88 96.66C50.18 91.58 48.83 83.72 53.11 79.45C55.11 77.45 57.91 77.45 60.42 78.35C64.13 79.66 67.17 82.74 69.42 85.85C69.6766 86.2579 70.0794 86.5524 70.546 86.6732C71.0125 86.7941 71.5076 86.7321 71.93 86.5C72.3467 86.2538 72.6496 85.8534 72.7731 85.3855C72.8967 84.9175 72.8309 84.4197 72.59 84C68.45 78.35 60.78 71.57 53.23 75C46.29 78.12 45.99 87.5 47.3 93.86C49 102.17 54.06 110.97 61.59 115.24C64.5 116.89 68.05 117.87 71.35 116.9C72.9215 116.368 74.3481 115.479 75.5176 114.303C76.6872 113.126 77.5677 111.695 78.09 110.12C79.61 106.12 79.38 101.62 78.55 97.55C77.5074 92.6766 75.4642 88.0728 72.55 84.03C71.22 82.06 68 83.89 69.41 85.82Z" stroke="white" stroke-width="8.79" stroke-linecap="round" stroke-linejoin="round"></path> <path d="M77.75 72.57C83.5352 80.5845 87.8646 89.5547 90.54 99.07C92.83 107.27 94.01 116.12 92.67 124.59C91.61 131.22 88.89 138.3 83.1 142.21C77.31 146.12 70.53 145.65 64.37 143.36C55.95 140.22 48.93 133.76 43.37 126.87C37.0995 119.047 32.3109 110.144 29.24 100.6C26.3464 92.1999 25.1764 83.3026 25.8 74.44C26.42 67.55 28.68 60.26 33.98 55.51C38.86 51.13 45.58 50.51 51.72 52.15C60.06 54.43 67.17 60.15 72.86 66.5C74.6027 68.4326 76.2385 70.4589 77.76 72.57C79.14 74.46 82.32 72.63 80.93 70.72C75 62.6 67.61 55 58.4 50.76C51.49 47.54 43.52 46.29 36.4 49.56C29.47 52.75 25.26 59.8 23.4 66.94C21.1 75.72 21.7 85.13 23.62 93.94C25.8872 104.049 29.9517 113.668 35.62 122.34C41.24 130.98 48.5 139.03 57.54 144.15C64.18 147.92 72.34 150.21 79.85 147.84C87.17 145.54 92.08 139.3 94.58 132.27C97.58 123.94 97.35 114.69 95.91 106.08C94.1483 95.999 90.5775 86.3198 85.37 77.51C84.01 75.18 82.54 72.93 80.97 70.74C79.55 68.82 76.37 70.65 77.75 72.57Z" stroke="white" stroke-width="8.79" stroke-linecap="round" stroke-linejoin="round"></path> <path d="M81.28 70.5C75.83 63 69.18 56.09 60.98 51.59C54.74 48.17 47.4 46.14 40.32 47.76C38.7488 48.1308 37.2255 48.6811 35.78 49.4C35.1185 49.7241 34.4773 50.0881 33.86 50.49C33.12 50.97 32.46 51.68 31.7 52.1C30.43 52.8 28.4 53.5 26.89 54.17L21.79 56.46C20.79 56.9 19.79 57.32 18.79 57.82C16.8234 58.9369 15.0642 60.3848 13.59 62.1C10.9196 64.9344 8.7821 68.2271 7.28 71.82C4.45 78.71 4.05001 86.51 4.82001 93.82C5.82802 102.62 8.2668 111.196 12.04 119.21C16.0737 128.021 21.5981 136.069 28.37 143C34.37 149.09 41.71 154.42 50.03 156.77C56.03 158.46 62.79 158.42 68.33 155.3C72.45 152.99 76.51 150.58 80.6 148.22L81.82 147.51C82.162 147.313 82.4457 147.028 82.6424 146.686C82.8391 146.343 82.9418 145.955 82.94 145.56V145.56L81.28 147.74C91.6 143.43 96.04 132.74 97.05 122.26C98.12 111.1 95.66 99.57 91.51 89.26C88.8646 82.619 85.43 76.3205 81.28 70.5C80.9669 69.9974 80.4736 69.6336 79.9009 69.483C79.3283 69.3324 78.7198 69.4065 78.2 69.69C77.6851 69.9944 77.3112 70.4898 77.1595 71.0684C77.0078 71.647 77.0907 72.2621 77.39 72.78C84.117 82.0903 88.8522 92.6876 91.3 103.91C93.25 113.05 93.7 123.11 90.3 131.97C88.46 136.75 84.99 141.34 80.09 143.38C79.6227 143.524 79.2123 143.811 78.9164 144.2C78.6204 144.589 78.4538 145.061 78.44 145.55V145.55L79.56 143.6L68.63 149.91C67.3748 150.705 66.0724 151.423 64.73 152.06C62.0501 153.159 59.1437 153.591 56.26 153.32C49.26 152.85 42.36 149.05 36.91 144.65C29.8732 138.82 23.9771 131.737 19.52 123.76C15.2801 116.432 12.213 108.486 10.43 100.21C8.93999 93.21 8.43001 85.69 9.95001 78.63C10.5565 75.6443 11.644 72.7769 13.17 70.14C15.04 66.97 17.8 63.42 21.12 61.7C23.53 60.46 26.12 59.44 28.56 58.33L33.51 56.13C34.9 55.51 35.88 54.47 37.26 53.7C42.35 50.88 48.45 51.3 54.01 53.32C61.49 56.03 67.86 61.45 73.01 67.32C74.55 69.06 76.01 70.87 77.36 72.75C77.6731 73.2525 78.1665 73.6163 78.7391 73.7669C79.3117 73.9175 79.9202 73.8435 80.44 73.56C80.952 73.2607 81.3265 72.773 81.4835 72.2011C81.6405 71.6293 81.5674 71.0187 81.28 70.5V70.5Z" stroke="white" stroke-width="8.79" stroke-linecap="round" stroke-linejoin="round"></path> <path d="M61.75 89C95.27 70.46 139.44 79 171.59 96.65C177.26 100.12 172.95 108.65 166.8 106.11C150.824 99.2014 133.872 94.8158 116.55 93.11C108.088 92.3194 99.5642 92.4502 91.13 93.5C82.781 94.5606 74.581 96.5738 66.69 99.5C59.96 101.96 55.57 92.68 61.75 89.05V89Z" stroke="white" stroke-width="8.79" stroke-linecap="round" stroke-linejoin="round"></path> <path d="M92.63 71.28L56.26 30.41L89.51 41.84L95.05 6.52001L116.87 34.57L140.69 6.32001L141.82 34.17L183.26 14.17L131.07 71.28C131.07 71.28 114.45 66.78 92.63 71.28Z" stroke="white" stroke-width="8.79" stroke-linecap="round" stroke-linejoin="round"></path> <path d="M93.92 70L81.62 56.17L62.08 34.17L57.56 29.09L55.78 32.15L84.89 42.15L89 43.61C89.4693 43.7363 89.9695 43.6728 90.3924 43.4333C90.8153 43.1937 91.127 42.7974 91.26 42.33L96.12 11.33L96.8 6.99997L93.74 7.80997L112.88 32.4L115.58 35.86C115.75 36.0302 115.952 36.1653 116.174 36.2574C116.396 36.3495 116.634 36.397 116.875 36.397C117.116 36.397 117.354 36.3495 117.576 36.2574C117.798 36.1653 118 36.0302 118.17 35.86L139 11.14L142 7.61998L138.87 6.31997L139.87 30.71L140.01 34.17C140.018 34.4895 140.109 34.8015 140.272 35.0759C140.436 35.3504 140.668 35.578 140.945 35.7368C141.223 35.8956 141.536 35.9802 141.856 35.9825C142.176 35.9848 142.49 35.9047 142.77 35.75L156.77 29L179 18.23L184.14 15.75L182 12.88L164.24 32.27L136.24 62.94L129.81 69.94L131.59 69.47C129.178 68.8735 126.729 68.4359 124.26 68.16C118.204 67.4016 112.089 67.2309 106 67.65C101.36 67.9539 96.7455 68.5754 92.19 69.51C89.88 69.98 90.86 73.51 93.19 73.04C104.768 70.5767 116.716 70.4034 128.36 72.53C129.13 72.69 129.9 72.84 130.65 73.04C130.963 73.1278 131.294 73.1305 131.609 73.0479C131.923 72.9653 132.21 72.8003 132.44 72.57L150.16 53.18L178.16 22.5L184.59 15.5C184.892 15.1817 185.071 14.7658 185.094 14.3274C185.116 13.889 184.981 13.4569 184.713 13.1092C184.445 12.7615 184.062 12.5211 183.632 12.4314C183.202 12.3417 182.755 12.4086 182.37 12.62L168.37 19.37L146 30.1L140.86 32.58L143.62 34.17L142.62 9.77998L142.48 6.31997C142.42 4.85997 140.48 3.73998 139.35 5.01998L118.54 29.75L115.54 33.27H118.13L99 8.68998L96.31 5.21997C96.0822 4.9961 95.8001 4.83535 95.4914 4.75355C95.1827 4.67175 94.858 4.67171 94.5493 4.75343C94.2406 4.83516 93.9584 4.99583 93.7306 5.21965C93.5028 5.44347 93.3372 5.72274 93.25 6.02998L88.38 37.03L87.71 41.35L90 40.07L60.88 30.07L56.75 28.65C54.91 28.01 53.84 30.44 54.97 31.71L67.28 45.54L86.81 67.49L91.33 72.57C92.9 74.34 95.49 71.74 93.92 70Z" stroke="white" stroke-width="8.79" stroke-linecap="round" stroke-linejoin="round"></path> <path d="M184.47 86.28C182.58 114.91 154.82 152.11 154.82 152.11L138.21 146.17C125.01 142.95 116.4 125.57 117.95 102.17C119.84 73.54 136.27 46.76 154.64 42.36C157.805 41.5658 161.115 41.5452 164.29 42.3C165.62 42.63 180.29 48.3 180.29 48.3C183.863 60.6243 185.277 73.4737 184.47 86.28V86.28Z" stroke="white" stroke-width="8.79" stroke-linecap="round" stroke-linejoin="round"></path> <path d="M154.64 42.4C142.04 45.4 130.36 58.96 123.64 76.4L124.81 81.11C132.03 54.62 156.15 52.62 156.15 52.62L173.86 45.86C169.73 44.3 165.01 42.52 164.28 42.34C161.108 41.5869 157.802 41.6074 154.64 42.4V42.4Z" stroke="white" stroke-width="8.79" stroke-linecap="round" stroke-linejoin="round"></path> <path d="M154.64 42.4C142.04 45.4 130.36 58.96 123.64 76.4L124.81 81.11C132.03 54.62 156.15 52.62 156.15 52.62L173.86 45.86C169.73 44.3 165.01 42.52 164.28 42.34C161.108 41.5869 157.802 41.6074 154.64 42.4V42.4Z" stroke="white" stroke-width="8.79" stroke-linecap="round" stroke-linejoin="round"></path> <path d="M199.916 108.392C207.186 79.7473 199.314 53.0328 182.334 48.7236C165.353 44.4143 145.695 64.1421 138.426 92.7868C131.156 121.432 139.028 148.146 156.008 152.455C172.989 156.765 192.647 137.037 199.916 108.392Z" stroke="white" stroke-width="8.79" stroke-linecap="round" stroke-linejoin="round"></path> <path d="M200.57 92.61C199.857 103.181 197.192 113.529 192.71 123.13C188.85 131.34 183.61 139.2 176.47 144.91C171.19 149.13 164.15 152.29 157.28 150.91C150.64 149.54 145.82 144.44 142.78 138.62C138.62 130.68 137.38 121.36 137.54 112.49C137.768 101.86 139.958 91.364 144 81.53C147.53 72.9 152.6 64.53 159.49 58.23C164.73 53.4 171.57 49.5 178.91 49.99C185.38 50.42 190.66 54.73 194.04 59.99C198.7 67.33 200.43 76.27 200.7 84.85C200.78 87.42 200.7 90 200.56 92.57C200.41 94.92 204.08 94.91 204.22 92.57C204.86 82.57 203.84 72.11 199.71 62.84C196.71 56.03 191.53 49.84 184.31 47.34C177.09 44.84 169 47 162.72 51.09C154.66 56.31 148.58 64.32 144.12 72.72C138.949 82.576 135.659 93.3091 134.42 104.37C133.25 114.51 133.71 125.24 137.2 134.92C139.81 142.14 144.36 149.32 151.5 152.75C158.5 156.09 166.29 155.1 172.99 151.57C181.13 147.27 187.42 139.82 192.11 132.04C197.776 122.513 201.567 111.991 203.28 101.04C203.72 98.26 204.04 95.46 204.28 92.66C204.4 90.25 200.73 90.26 200.57 92.61Z" stroke="white" stroke-width="8.79" stroke-linecap="round" stroke-linejoin="round"></path> <path d="M185.25 97.64C184.72 104.92 181.87 113.04 176.09 117.82C174.2 119.39 171.65 120.66 169.09 120.2C166.53 119.74 164.93 117.82 163.83 115.71C160.39 109.15 161.68 100.39 164.3 93.79C166.3 88.69 170.91 81.22 177.3 81.46C180.08 81.56 182.1 83.71 183.3 86.03C185.14 89.56 185.43 93.74 185.2 97.64C185.06 100 188.72 99.99 188.86 97.64C189.28 90.64 187.63 80.98 180.06 78.3C172.49 75.62 165.76 82.96 162.59 88.85C158.43 96.55 156.49 106.9 159.66 115.3C160.83 118.4 162.77 121.41 165.83 122.93C167.354 123.631 169.023 123.963 170.699 123.899C172.376 123.835 174.014 123.376 175.48 122.56C179.4 120.56 182.37 116.84 184.48 113.06C187.038 108.295 188.545 103.037 188.9 97.64C189.08 95.29 185.42 95.3 185.25 97.64Z" stroke="white" stroke-width="8.79" stroke-linecap="round" stroke-linejoin="round"></path> <path d="M181.7 95.88L191.65 102.32C192.551 102.906 193.224 103.785 193.553 104.808C193.883 105.831 193.851 106.937 193.461 107.939C193.071 108.942 192.349 109.779 191.414 110.311C190.48 110.843 189.391 111.037 188.33 110.86L176.64 108.86C175.592 108.688 174.596 108.285 173.724 107.679C172.852 107.073 172.126 106.28 171.6 105.358C171.073 104.436 170.76 103.408 170.682 102.349C170.603 101.29 170.763 100.227 171.148 99.2375C171.533 98.248 172.134 97.357 172.908 96.6296C173.681 95.9022 174.607 95.3568 175.619 95.0331C176.63 94.7094 177.701 94.6157 178.753 94.7587C179.805 94.9018 180.812 95.2781 181.7 95.86V95.88Z" stroke="white" stroke-width="8.79" stroke-linecap="round" stroke-linejoin="round"></path> <path d="M180.88 46.14C177.507 44.84 174.127 43.5534 170.74 42.28C168.96 41.61 167.19 40.91 165.39 40.28C162.005 39.3197 158.432 39.2234 155 40C142.1 42.54 132.42 54.2 126.41 65.14C118.651 79.2824 114.929 95.2853 115.65 111.4C116.3 123.74 120.07 138.14 130.99 145.4C134.07 147.45 137.72 148.4 141.18 149.59L152.78 153.75L154.26 154.28C154.838 154.426 155.45 154.343 155.968 154.049C156.486 153.754 156.87 153.271 157.04 152.7L154.26 154.28C163.87 157.28 173.54 152.94 180.75 146.67C187.96 140.4 193.42 131.83 197.25 123.05C201.707 112.877 204.263 101.974 204.79 90.88C205.25 80.95 203.98 70.61 199.62 61.58C195.98 54.06 189.51 47.38 180.92 46.13C180.345 45.9915 179.739 46.0766 179.225 46.3681C178.711 46.6596 178.326 47.1357 178.15 47.7C177.996 48.2767 178.074 48.8909 178.367 49.4107C178.661 49.9305 179.146 50.3144 179.72 50.48C186.3 51.48 191.2 55.79 194.51 61.57C198.88 69.17 200.32 78.24 200.36 86.9C200.362 97.2793 198.468 107.572 194.77 117.27C191.53 125.86 186.84 134.17 180.41 140.77C173.98 147.37 164.89 152.86 155.46 149.93C154.885 149.781 154.274 149.862 153.758 150.155C153.241 150.448 152.858 150.93 152.69 151.5L155.47 149.93C149.3 147.71 143.08 145.62 136.92 143.4C132.62 141.84 128.92 138.21 126.44 134.11C123.309 128.734 121.333 122.763 120.64 116.58C118.64 101.74 121.55 85.96 127.81 72.42C130.595 66.1667 134.325 60.379 138.87 55.26C142.61 51.16 147.14 47.4 152.35 45.47C155.566 44.173 159.067 43.7486 162.5 44.24C164.039 44.5876 165.545 45.0694 167 45.68C170.95 47.14 174.89 48.68 178.82 50.16L179.68 50.49C180.258 50.6467 180.875 50.5685 181.395 50.2726C181.916 49.9766 182.299 49.4869 182.46 48.91C182.606 48.3336 182.523 47.7232 182.228 47.2067C181.933 46.6903 181.45 46.308 180.88 46.14V46.14Z" stroke="white" stroke-width="8.79" stroke-linecap="round" stroke-linejoin="round"></path> <path d="M62.13 80.17C79.13 102.17 80.68 145.56 80.68 145.56L67 153.48C55.33 159.62 37.9 152.48 24 134.54C7 112.54 1.69001 82.45 12.23 67.44C14.18 64.65 17.23 61.18 19.93 59.79C21.11 59.18 35.49 52.79 35.49 52.79C45.3334 60.927 54.2656 70.1074 62.13 80.17Z" fill="#00A682"></path> <path d="M19.92 59.79C17.26 61.18 14.17 64.65 12.22 67.44C4.02 79.13 5.43001 99.91 14.48 118.94L15.57 116.25C7.41001 84.57 19.64 71.8 23.05 73.14L27.48 56.37C24 57.94 20.47 59.51 19.92 59.79Z" fill="white"></path> <path d="M81.6486 145.16C97.0135 137.874 99.5037 110.952 87.2106 85.0279C74.9175 59.1037 52.4963 43.9944 37.1314 51.2803C21.7665 58.5662 19.2763 85.4884 31.5694 111.413C43.8625 137.337 66.2837 152.446 81.6486 145.16Z" fill="#800594"></path> <path d="M73.32 147.27H73.11C61.89 147.16 49.21 138.81 39.18 124.93C22.83 102.27 18.53 71.85 29.61 57.1C31.4307 54.557 33.8462 52.4984 36.6457 51.1039C39.4452 49.7094 42.5435 49.0214 45.67 49.1C56.89 49.21 69.57 57.56 79.59 71.44C95.95 94.1 100.24 124.52 89.17 139.27C87.3678 141.781 84.9855 143.82 82.2258 145.213C79.4662 146.606 76.411 147.312 73.32 147.27ZM45.45 49.75C42.4604 49.7107 39.5055 50.3939 36.8366 51.7414C34.1676 53.089 31.8634 55.061 30.12 57.49C19.2 72 23.5 102.11 39.7 124.55C49.61 138.27 62.1 146.55 73.12 146.63H73.32C76.3113 146.671 79.2682 145.988 81.939 144.641C84.6099 143.293 86.9156 141.32 88.66 138.89C99.58 124.36 95.28 94.27 79.08 71.83C69.17 58.11 56.68 49.83 45.66 49.75H45.45Z" fill="#581D70"></path> <path d="M69.41 85.82C73.41 91.43 76.29 98.82 75.41 105.82C75.1 108.21 74.21 110.82 72.24 112.38C70.27 113.94 67.71 113.78 65.47 112.99C62.2 111.83 59.47 109.28 57.34 106.66C54.9365 103.68 53.0872 100.293 51.88 96.66C50.18 91.58 48.83 83.72 53.11 79.45C55.11 77.45 57.91 77.45 60.42 78.35C64.13 79.66 67.17 82.74 69.42 85.85C69.6766 86.2579 70.0794 86.5524 70.546 86.6732C71.0125 86.7941 71.5076 86.7321 71.93 86.5C72.3467 86.2538 72.6496 85.8534 72.7731 85.3855C72.8967 84.9175 72.8309 84.4197 72.59 84C68.45 78.35 60.78 71.57 53.23 75C46.29 78.12 45.99 87.5 47.3 93.86C49 102.17 54.06 110.97 61.59 115.24C64.5 116.89 68.05 117.87 71.35 116.9C72.9215 116.368 74.3481 115.479 75.5176 114.303C76.6872 113.126 77.5677 111.695 78.09 110.12C79.61 106.12 79.38 101.62 78.55 97.55C77.5074 92.6766 75.4642 88.0728 72.55 84.03C71.22 82.06 68 83.89 69.41 85.82Z" fill="#540580"></path> <path d="M77.75 72.57C83.5352 80.5845 87.8646 89.5547 90.54 99.07C92.83 107.27 94.01 116.12 92.67 124.59C91.61 131.22 88.89 138.3 83.1 142.21C77.31 146.12 70.53 145.65 64.37 143.36C55.95 140.22 48.93 133.76 43.37 126.87C37.0995 119.047 32.3109 110.144 29.24 100.6C26.3464 92.1999 25.1764 83.3026 25.8 74.44C26.42 67.55 28.68 60.26 33.98 55.51C38.86 51.13 45.58 50.51 51.72 52.15C60.06 54.43 67.17 60.15 72.86 66.5C74.6027 68.4326 76.2385 70.4589 77.76 72.57C79.14 74.46 82.32 72.63 80.93 70.72C75 62.6 67.61 55 58.4 50.76C51.49 47.54 43.52 46.29 36.4 49.56C29.47 52.75 25.26 59.8 23.4 66.94C21.1 75.72 21.7 85.13 23.62 93.94C25.8872 104.049 29.9517 113.668 35.62 122.34C41.24 130.98 48.5 139.03 57.54 144.15C64.18 147.92 72.34 150.21 79.85 147.84C87.17 145.54 92.08 139.3 94.58 132.27C97.58 123.94 97.35 114.69 95.91 106.08C94.1483 95.999 90.5775 86.3198 85.37 77.51C84.01 75.18 82.54 72.93 80.97 70.74C79.55 68.82 76.37 70.65 77.75 72.57Z" fill="#540580"></path> <path d="M81.28 70.5C75.83 63 69.18 56.09 60.98 51.59C54.74 48.17 47.4 46.14 40.32 47.76C38.7488 48.1308 37.2255 48.6811 35.78 49.4C35.1185 49.7241 34.4773 50.0881 33.86 50.49C33.12 50.97 32.46 51.68 31.7 52.1C30.43 52.8 28.4 53.5 26.89 54.17L21.79 56.46C20.79 56.9 19.79 57.32 18.79 57.82C16.8234 58.9369 15.0642 60.3848 13.59 62.1C10.9196 64.9344 8.7821 68.2271 7.28 71.82C4.45 78.71 4.05001 86.51 4.82001 93.82C5.82802 102.62 8.2668 111.196 12.04 119.21C16.0737 128.021 21.5981 136.069 28.37 143C34.37 149.09 41.71 154.42 50.03 156.77C56.03 158.46 62.79 158.42 68.33 155.3C72.45 152.99 76.51 150.58 80.6 148.22L81.82 147.51C82.162 147.313 82.4457 147.028 82.6424 146.686C82.8391 146.343 82.9418 145.955 82.94 145.56L81.28 147.74C91.6 143.43 96.04 132.74 97.05 122.26C98.12 111.1 95.66 99.57 91.51 89.26C88.8646 82.619 85.43 76.3205 81.28 70.5C80.9669 69.9974 80.4736 69.6336 79.9009 69.483C79.3283 69.3324 78.7198 69.4065 78.2 69.69C77.6851 69.9944 77.3112 70.4898 77.1595 71.0684C77.0078 71.647 77.0907 72.2621 77.39 72.78C84.117 82.0903 88.8522 92.6876 91.3 103.91C93.25 113.05 93.7 123.11 90.3 131.97C88.46 136.75 84.99 141.34 80.09 143.38C79.6227 143.524 79.2123 143.811 78.9164 144.2C78.6204 144.589 78.4538 145.061 78.44 145.55L79.56 143.6L68.63 149.91C67.3748 150.705 66.0724 151.423 64.73 152.06C62.0501 153.159 59.1437 153.591 56.26 153.32C49.26 152.85 42.36 149.05 36.91 144.65C29.8732 138.82 23.9771 131.737 19.52 123.76C15.2801 116.432 12.213 108.486 10.43 100.21C8.93999 93.21 8.43001 85.69 9.95001 78.63C10.5565 75.6443 11.644 72.7769 13.17 70.14C15.04 66.97 17.8 63.42 21.12 61.7C23.53 60.46 26.12 59.44 28.56 58.33L33.51 56.13C34.9 55.51 35.88 54.47 37.26 53.7C42.35 50.88 48.45 51.3 54.01 53.32C61.49 56.03 67.86 61.45 73.01 67.32C74.55 69.06 76.01 70.87 77.36 72.75C77.6731 73.2525 78.1665 73.6163 78.7391 73.7669C79.3117 73.9175 79.9202 73.8435 80.44 73.56C80.952 73.2607 81.3265 72.773 81.4835 72.2011C81.6405 71.6293 81.5674 71.0187 81.28 70.5Z" fill="black"></path> <path d="M61.75 89C95.27 70.46 139.44 79 171.59 96.65C177.26 100.12 172.95 108.65 166.8 106.11C150.824 99.2014 133.872 94.8158 116.55 93.11C108.088 92.3194 99.5642 92.4502 91.13 93.5C82.781 94.5606 74.581 96.5738 66.69 99.5C59.96 101.96 55.57 92.68 61.75 89.05V89Z" fill="black"></path> <path d="M92.63 71.28L56.26 30.41L89.51 41.84L95.05 6.52001L116.87 34.57L140.69 6.32001L141.82 34.17L183.26 14.17L131.07 71.28C131.07 71.28 114.45 66.78 92.63 71.28Z" fill="#00A682"></path> <path d="M93.92 70L81.62 56.17L62.08 34.17L57.56 29.09L55.78 32.15L84.89 42.15L89 43.61C89.4693 43.7363 89.9695 43.6728 90.3924 43.4333C90.8153 43.1937 91.127 42.7974 91.26 42.33L96.12 11.33L96.8 6.99997L93.74 7.80997L112.88 32.4L115.58 35.86C115.75 36.0302 115.952 36.1653 116.174 36.2574C116.396 36.3495 116.634 36.397 116.875 36.397C117.116 36.397 117.354 36.3495 117.576 36.2574C117.798 36.1653 118 36.0302 118.17 35.86L139 11.14L142 7.61998L138.87 6.31997L139.87 30.71L140.01 34.17C140.018 34.4895 140.109 34.8015 140.272 35.0759C140.436 35.3504 140.668 35.578 140.945 35.7368C141.223 35.8956 141.536 35.9802 141.856 35.9825C142.176 35.9848 142.49 35.9047 142.77 35.75L156.77 29L179 18.23L184.14 15.75L182 12.88L164.24 32.27L136.24 62.94L129.81 69.94L131.59 69.47C129.178 68.8735 126.729 68.4359 124.26 68.16C118.204 67.4016 112.089 67.2309 106 67.65C101.36 67.9539 96.7455 68.5754 92.19 69.51C89.88 69.98 90.86 73.51 93.19 73.04C104.768 70.5767 116.716 70.4034 128.36 72.53C129.13 72.69 129.9 72.84 130.65 73.04C130.963 73.1278 131.294 73.1305 131.609 73.0479C131.923 72.9653 132.21 72.8003 132.44 72.57L150.16 53.18L178.16 22.5L184.59 15.5C184.892 15.1817 185.071 14.7658 185.094 14.3274C185.116 13.889 184.981 13.4569 184.713 13.1092C184.445 12.7615 184.062 12.5211 183.632 12.4314C183.202 12.3417 182.755 12.4086 182.37 12.62L168.37 19.37L146 30.1L140.86 32.58L143.62 34.17L142.62 9.77998L142.48 6.31997C142.42 4.85997 140.48 3.73998 139.35 5.01998L118.54 29.75L115.54 33.27H118.13L99 8.68998L96.31 5.21997C96.0822 4.9961 95.8001 4.83535 95.4914 4.75355C95.1827 4.67175 94.858 4.67171 94.5493 4.75343C94.2406 4.83516 93.9584 4.99583 93.7306 5.21965C93.5028 5.44347 93.3372 5.72274 93.25 6.02998L88.38 37.03L87.71 41.35L90 40.07L60.88 30.07L56.75 28.65C54.91 28.01 53.84 30.44 54.97 31.71L67.28 45.54L86.81 67.49L91.33 72.57C92.9 74.34 95.49 71.74 93.92 70Z" fill="#800594"></path> <path d="M184.47 86.28C182.58 114.91 154.82 152.11 154.82 152.11L138.21 146.17C125.01 142.95 116.4 125.57 117.95 102.17C119.84 73.54 136.27 46.76 154.64 42.36C157.805 41.5658 161.115 41.5452 164.29 42.3C165.62 42.63 180.29 48.3 180.29 48.3C183.863 60.6243 185.277 73.4737 184.47 86.28Z" fill="#00A682"></path> <path d="M154.64 42.4C142.04 45.4 130.36 58.96 123.64 76.4L124.81 81.11C132.03 54.62 156.15 52.62 156.15 52.62L173.86 45.86C169.73 44.3 165.01 42.52 164.28 42.34C161.108 41.5869 157.802 41.6074 154.64 42.4Z" fill="white"></path> <path d="M199.916 108.392C207.186 79.7473 199.314 53.0328 182.334 48.7236C165.353 44.4143 145.695 64.1421 138.426 92.7868C131.156 121.432 139.028 148.146 156.008 152.455C172.989 156.765 192.647 137.037 199.916 108.392Z" fill="#800594"></path> <path d="M160.66 153.35C155.933 153.344 151.366 151.633 147.8 148.53C138.97 141.08 134.39 126.12 135.56 108.53C137.46 79.82 154.02 52.86 172.49 48.43C175.606 47.6141 178.873 47.5702 182.01 48.302C185.146 49.0339 188.057 50.5194 190.49 52.63C199.32 60.08 203.89 75.04 202.73 92.63C200.83 121.34 184.26 148.3 165.8 152.73C164.116 153.134 162.391 153.342 160.66 153.35ZM177.61 48.44C175.926 48.444 174.247 48.6454 172.61 49.04C154.39 53.41 138.04 80.11 136.16 108.57C135.01 125.96 139.51 140.72 148.16 148.04C150.515 150.084 153.334 151.524 156.371 152.233C159.408 152.942 162.573 152.9 165.59 152.11C183.8 147.74 200.15 121.04 202.04 92.58H202.35H202.04C203.18 75.19 198.69 60.43 190.04 53.11C186.593 50.1091 182.18 48.4511 177.61 48.44Z" fill="#581D70"></path> <path d="M200.57 92.61C199.857 103.181 197.192 113.529 192.71 123.13C188.85 131.34 183.61 139.2 176.47 144.91C171.19 149.13 164.15 152.29 157.28 150.91C150.64 149.54 145.82 144.44 142.78 138.62C138.62 130.68 137.38 121.36 137.54 112.49C137.768 101.86 139.958 91.364 144 81.53C147.53 72.9 152.6 64.53 159.49 58.23C164.73 53.4 171.57 49.5 178.91 49.99C185.38 50.42 190.66 54.73 194.04 59.99C198.7 67.33 200.43 76.27 200.7 84.85C200.78 87.42 200.7 90 200.56 92.57C200.41 94.92 204.08 94.91 204.22 92.57C204.86 82.57 203.84 72.11 199.71 62.84C196.71 56.03 191.53 49.84 184.31 47.34C177.09 44.84 169 47 162.72 51.09C154.66 56.31 148.58 64.32 144.12 72.72C138.949 82.576 135.659 93.3091 134.42 104.37C133.25 114.51 133.71 125.24 137.2 134.92C139.81 142.14 144.36 149.32 151.5 152.75C158.5 156.09 166.29 155.1 172.99 151.57C181.13 147.27 187.42 139.82 192.11 132.04C197.776 122.513 201.567 111.991 203.28 101.04C203.72 98.26 204.04 95.46 204.28 92.66C204.4 90.25 200.73 90.26 200.57 92.61Z" fill="#540580"></path> <path d="M185.25 97.64C184.72 104.92 181.87 113.04 176.09 117.82C174.2 119.39 171.65 120.66 169.09 120.2C166.53 119.74 164.93 117.82 163.83 115.71C160.39 109.15 161.68 100.39 164.3 93.79C166.3 88.69 170.91 81.22 177.3 81.46C180.08 81.56 182.1 83.71 183.3 86.03C185.14 89.56 185.43 93.74 185.2 97.64C185.06 100 188.72 99.99 188.86 97.64C189.28 90.64 187.63 80.98 180.06 78.3C172.49 75.62 165.76 82.96 162.59 88.85C158.43 96.55 156.49 106.9 159.66 115.3C160.83 118.4 162.77 121.41 165.83 122.93C167.354 123.631 169.023 123.963 170.699 123.899C172.376 123.835 174.014 123.376 175.48 122.56C179.4 120.56 182.37 116.84 184.48 113.06C187.038 108.295 188.545 103.037 188.9 97.64C189.08 95.29 185.42 95.3 185.25 97.64Z" fill="#540580"></path> <path d="M181.7 95.88L191.65 102.32C192.551 102.906 193.224 103.785 193.553 104.808C193.883 105.831 193.851 106.937 193.461 107.939C193.071 108.942 192.349 109.779 191.414 110.311C190.48 110.843 189.391 111.037 188.33 110.86L176.64 108.86C175.592 108.688 174.596 108.285 173.724 107.679C172.852 107.073 172.126 106.28 171.6 105.358C171.073 104.436 170.76 103.408 170.682 102.349C170.603 101.29 170.763 100.227 171.148 99.2375C171.533 98.248 172.134 97.357 172.908 96.6296C173.681 95.9022 174.607 95.3568 175.619 95.0331C176.63 94.7094 177.701 94.6157 178.753 94.7587C179.805 94.9018 180.812 95.2781 181.7 95.86V95.88Z" fill="black"></path> <path d="M180.88 46.14C177.507 44.84 174.127 43.5534 170.74 42.28C168.96 41.61 167.19 40.91 165.39 40.28C162.005 39.3197 158.432 39.2234 155 40C142.1 42.54 132.42 54.2 126.41 65.14C118.651 79.2824 114.929 95.2853 115.65 111.4C116.3 123.74 120.07 138.14 130.99 145.4C134.07 147.45 137.72 148.4 141.18 149.59L152.78 153.75L154.26 154.28C154.838 154.426 155.45 154.343 155.968 154.049C156.486 153.754 156.87 153.271 157.04 152.7L154.26 154.28C163.87 157.28 173.54 152.94 180.75 146.67C187.96 140.4 193.42 131.83 197.25 123.05C201.707 112.877 204.263 101.974 204.79 90.88C205.25 80.95 203.98 70.61 199.62 61.58C195.98 54.06 189.51 47.38 180.92 46.13C180.345 45.9915 179.739 46.0766 179.225 46.3681C178.711 46.6596 178.326 47.1357 178.15 47.7C177.996 48.2767 178.074 48.8909 178.367 49.4107C178.661 49.9305 179.146 50.3144 179.72 50.48C186.3 51.48 191.2 55.79 194.51 61.57C198.88 69.17 200.32 78.24 200.36 86.9C200.362 97.2793 198.468 107.572 194.77 117.27C191.53 125.86 186.84 134.17 180.41 140.77C173.98 147.37 164.89 152.86 155.46 149.93C154.885 149.781 154.274 149.862 153.758 150.155C153.241 150.448 152.858 150.93 152.69 151.5L155.47 149.93C149.3 147.71 143.08 145.62 136.92 143.4C132.62 141.84 128.92 138.21 126.44 134.11C123.309 128.734 121.333 122.763 120.64 116.58C118.64 101.74 121.55 85.96 127.81 72.42C130.595 66.1667 134.325 60.379 138.87 55.26C142.61 51.16 147.14 47.4 152.35 45.47C155.566 44.173 159.067 43.7486 162.5 44.24C164.039 44.5876 165.545 45.0694 167 45.68C170.95 47.14 174.89 48.68 178.82 50.16L179.68 50.49C180.258 50.6467 180.875 50.5685 181.395 50.2726C181.916 49.9766 182.299 49.4869 182.46 48.91C182.606 48.3336 182.523 47.7232 182.228 47.2067C181.933 46.6903 181.45 46.308 180.88 46.14Z" fill="black"></path> </svg> 