<?xml version="1.0" encoding="UTF-8"?> <svg xmlns="http://www.w3.org/2000/svg" width="100" height="154" viewBox="0 0 131 154" fill="none"> <path d="M109.16 90.41C121.04 87.12 126.28 67.73 106.97 60.41C115.26 55.21 115.97 37.41 91.43 31.49C81.66 29.14 61.49 21.42 62.84 10.78C51.84 13.05 46.19 27.33 53.75 38.15C46.28 32.81 32.49 31.15 21.52 39.49C10.55 47.83 8.42999 60.68 16.52 69.3C24.54 81.3 90.85 102.51 109.16 90.41Z" stroke="white" stroke-width="16" stroke-linecap="round" stroke-linejoin="round"></path> <path d="M109.16 90.41C121.04 87.12 126.28 67.73 106.97 60.41C115.26 55.21 115.97 37.41 91.43 31.49C81.66 29.14 61.49 21.42 62.84 10.78C51.84 13.05 46.19 27.33 53.75 38.15C46.28 32.81 32.49 31.15 21.52 39.49C10.55 47.83 8.42999 60.68 16.52 69.3C24.54 81.3 90.85 102.51 109.16 90.41Z" stroke="white" stroke-width="16" stroke-linecap="round" stroke-linejoin="round"></path> <path d="M92.57 66.59C82.78 66.59 73.35 62.59 68.62 60.2C68.1214 59.9493 67.7428 59.5109 67.5674 58.9811C67.3921 58.4513 67.4344 57.8736 67.685 57.375C67.9356 56.8764 68.3741 56.4977 68.9039 56.3224C69.4337 56.147 70.0114 56.1893 70.51 56.44C77.15 59.78 93.9 66.68 105.8 58.65C106.263 58.3383 106.83 58.2233 107.378 58.3302C107.926 58.4371 108.408 58.7572 108.72 59.22C109.032 59.6828 109.147 60.2504 109.04 60.798C108.933 61.3456 108.613 61.8283 108.15 62.14C103.525 65.1618 98.0934 66.7131 92.57 66.59V66.59Z" stroke="white" stroke-width="16" stroke-linecap="round" stroke-linejoin="round"></path> <path d="M61.38 86.15C34.24 80 16.47 69.28 16.47 69.28L12.59 124.66C12.59 124.66 26.92 134.34 49.23 139.42C71.54 144.5 88.65 142 88.65 142L109.16 90.4C109.16 90.4 88.52 92.33 61.38 86.15Z" stroke="white" stroke-width="16" stroke-linecap="round" stroke-linejoin="round"></path> <path d="M77.44 144.74C67.7887 144.72 58.1695 143.627 48.76 141.48C26.33 136.36 12.01 126.81 11.41 126.41C11.1048 126.203 10.8593 125.919 10.6979 125.588C10.5365 125.256 10.4648 124.888 10.49 124.52L14.37 69.13C14.3955 68.7702 14.5129 68.423 14.7108 68.1214C14.9088 67.8199 15.1807 67.5742 15.5007 67.4077C15.8206 67.2412 16.1779 67.1595 16.5384 67.1704C16.899 67.1813 17.2507 67.2844 17.56 67.47C17.73 67.58 35.39 78.06 61.85 84.09C88.3 90.09 108.76 88.34 108.96 88.32C109.318 88.2857 109.68 88.3441 110.009 88.4897C110.338 88.6353 110.625 88.8631 110.841 89.1513C111.057 89.4396 111.195 89.7784 111.242 90.1354C111.289 90.4924 111.244 90.8556 111.11 91.19L90.6 142.78C90.4656 143.125 90.242 143.428 89.9521 143.658C89.6622 143.888 89.3164 144.037 88.95 144.09C85.132 144.562 81.2868 144.779 77.44 144.74V144.74ZM14.78 123.56C25.6304 129.952 37.4123 134.612 49.7 137.37C61.9673 140.21 74.6027 141.117 87.15 140.06L106 92.71C90.8454 93.1457 75.6977 91.6299 60.93 88.2V88.2C46.1362 84.8871 31.8291 79.6879 18.36 72.73L14.78 123.56Z" stroke="white" stroke-width="16" stroke-linecap="round" stroke-linejoin="round"></path> <path d="M26.48 133.35H26.31C25.7534 133.304 25.2376 133.039 24.8759 132.614C24.5141 132.188 24.3358 131.637 24.38 131.08L28.88 76.38C28.8893 76.094 28.9566 75.813 29.0779 75.5538C29.1991 75.2947 29.3719 75.0629 29.5855 74.8726C29.7992 74.6823 30.0493 74.5375 30.3207 74.4469C30.592 74.3563 30.879 74.3218 31.1641 74.3455C31.4493 74.3693 31.7266 74.4508 31.9792 74.5851C32.2318 74.7194 32.4545 74.9036 32.6337 75.1267C32.8129 75.3497 32.9449 75.6068 33.0216 75.8825C33.0984 76.1581 33.1182 76.4465 33.08 76.73L28.58 131.42C28.535 131.946 28.2943 132.436 27.9055 132.794C27.5167 133.151 27.0081 133.349 26.48 133.35Z" stroke="white" stroke-width="16" stroke-linecap="round" stroke-linejoin="round"></path> <path d="M42.61 139.84H42.27C41.7186 139.749 41.2258 139.443 40.8996 138.99C40.5734 138.536 40.4405 137.972 40.53 137.42L49.3 83.21C49.3438 82.9374 49.4408 82.6761 49.5857 82.4411C49.7306 82.206 49.9204 82.0019 50.1442 81.8403C50.3681 81.6786 50.6216 81.5628 50.8902 81.4992C51.1589 81.4357 51.4375 81.4258 51.71 81.47C52.262 81.5609 52.7556 81.8663 53.0834 82.3196C53.4112 82.7729 53.5466 83.3374 53.46 83.89L44.69 138.09C44.6052 138.58 44.3499 139.024 43.9694 139.345C43.5888 139.665 43.1073 139.84 42.61 139.84Z" stroke="white" stroke-width="16" stroke-linecap="round" stroke-linejoin="round"></path> <path d="M73.28 144C73.0238 143.997 72.77 143.95 72.53 143.86C72.2715 143.761 72.0351 143.613 71.8343 143.423C71.6335 143.232 71.4722 143.004 71.3597 142.751C71.2473 142.499 71.1859 142.226 71.1791 141.95C71.1723 141.673 71.2202 141.398 71.32 141.14L91 89.92C91.1989 89.3989 91.5967 88.9781 92.1059 88.7502C92.615 88.5224 93.1938 88.5061 93.715 88.705C94.2361 88.904 94.6569 89.3017 94.8848 89.8109C95.1127 90.3201 95.1289 90.8989 94.93 91.42L75.28 142.67C75.1203 143.068 74.8436 143.408 74.4865 143.646C74.1294 143.883 73.7088 144.007 73.28 144V144Z" stroke="white" stroke-width="16" stroke-linecap="round" stroke-linejoin="round"></path> <path d="M55.93 142.88C55.7308 142.878 55.5326 142.851 55.34 142.8C55.074 142.722 54.826 142.592 54.6102 142.418C54.3944 142.244 54.2149 142.03 54.0821 141.786C53.9493 141.543 53.8658 141.276 53.8363 141C53.8067 140.725 53.8318 140.446 53.91 140.18L69.51 87.53C69.5524 87.2294 69.6592 86.9415 69.823 86.686C69.9869 86.4304 70.2039 86.2133 70.4594 86.0493C70.7148 85.8853 71.0027 85.7783 71.3032 85.7357C71.6038 85.6931 71.91 85.7159 72.201 85.8024C72.4919 85.889 72.7608 86.0373 72.9892 86.2373C73.2176 86.4372 73.4001 86.6841 73.5244 86.9611C73.6487 87.2381 73.7117 87.5386 73.7092 87.8421C73.7067 88.1457 73.6388 88.4451 73.51 88.72L58 141.37C57.8699 141.815 57.5964 142.204 57.222 142.477C56.8476 142.75 56.3933 142.892 55.93 142.88V142.88Z" stroke="white" stroke-width="16" stroke-linecap="round" stroke-linejoin="round"></path> <path d="M109.16 93.18C108.496 93.1722 107.856 92.9261 107.358 92.4863C106.861 92.0465 106.537 91.4424 106.448 90.7842C106.358 90.126 106.508 89.4574 106.87 88.9004C107.232 88.3435 107.782 87.9352 108.42 87.75C110.823 86.987 112.935 85.5049 114.469 83.5039C116.004 81.5028 116.887 79.079 117 76.56C117.27 70.69 113.25 65.74 106 62.97C105.522 62.786 105.105 62.4728 104.795 62.0654C104.486 61.658 104.295 61.1725 104.245 60.663C104.196 60.1536 104.288 59.6404 104.513 59.1807C104.739 58.721 105.087 58.333 105.52 58.06C108.39 56.25 109.91 52.46 109.28 48.62C108.19 41.99 101.45 36.72 90.79 34.15C89.58 33.86 63.64 27.47 60.36 14.55C57.5144 16.0591 55.3092 18.5448 54.15 21.55C53.1884 24.0088 52.8568 26.669 53.1851 29.2887C53.5134 31.9084 54.4914 34.4045 56.03 36.55C56.4001 37.0839 56.5699 37.7314 56.5097 38.3783C56.4494 39.0251 56.1628 39.63 55.7005 40.0864C55.2381 40.5428 54.6295 40.8215 53.9819 40.8734C53.3343 40.9252 52.6891 40.747 52.16 40.37C45.34 35.5 32.87 34.29 23.16 41.66C17.96 45.66 14.84 50.72 14.4 56C14.2217 58.08 14.4919 60.1741 15.1923 62.1408C15.8927 64.1074 17.007 65.9009 18.46 67.4C18.7529 67.6526 18.9895 67.9639 19.1543 68.3138C19.3192 68.6637 19.4086 69.0443 19.4169 69.431C19.4252 69.8177 19.3521 70.2018 19.2024 70.5584C19.0527 70.9151 18.8297 71.2362 18.5479 71.5012C18.2661 71.7661 17.9317 71.9688 17.5665 72.0962C17.2013 72.2235 16.8134 72.2727 16.428 72.2406C16.0426 72.2084 15.6682 72.0956 15.3292 71.9094C14.9901 71.7233 14.694 71.4679 14.46 71.16C12.4836 69.0972 10.9685 66.6377 10.0151 63.9447C9.0617 61.2517 8.69181 58.3868 8.92999 55.54C9.49999 48.68 13.38 42.2 19.84 37.27C23.8056 34.2226 28.4479 32.1768 33.3728 31.3064C38.2978 30.436 43.3601 30.7665 48.13 32.27C47.0986 28.0386 47.4025 23.5917 49 19.54C50.0843 16.6731 51.8666 14.1218 54.1854 12.1173C56.5042 10.1128 59.2864 8.71827 62.28 8.05997C62.7054 7.97196 63.1456 7.98596 63.5645 8.10084C63.9834 8.21572 64.3691 8.42821 64.6901 8.72089C65.0111 9.01358 65.2582 9.37814 65.4111 9.78471C65.564 10.1913 65.6185 10.6283 65.57 11.06C64.62 18.62 80.49 25.95 92.07 28.73C110.43 33.2 114 43.51 114.72 47.73C115.072 49.8013 114.999 51.9225 114.505 53.9648C114.012 56.007 113.109 57.9277 111.85 59.61C118.93 63.52 122.85 69.74 122.53 76.82C122.378 80.5063 121.08 84.0535 118.816 86.9665C116.552 89.8796 113.435 92.0133 109.9 93.07C109.659 93.1401 109.411 93.1771 109.16 93.18V93.18Z" stroke="white" stroke-width="16" stroke-linecap="round" stroke-linejoin="round"></path> <path d="M75.6296 29.1193L75.6217 29.1255C74.2251 30.2084 73.9708 32.2185 75.0537 33.6151L80.0539 40.0637C81.1369 41.4603 83.147 41.7146 84.5436 40.6317L84.5515 40.6255C85.9482 39.5426 86.2025 37.5325 85.1195 36.1358L80.1193 29.6873C79.0364 28.2906 77.0262 28.0364 75.6296 29.1193Z" stroke="white" stroke-width="16" stroke-linecap="round" stroke-linejoin="round"></path> <path d="M82.58 42.55C81.9008 42.5517 81.2303 42.3975 80.62 42.0993C80.0098 41.8011 79.4761 41.3669 79.06 40.83L74.06 34.39C73.651 33.9361 73.3399 33.4029 73.146 32.8235C72.952 32.2441 72.8795 31.631 72.9329 31.0224C72.9863 30.4137 73.1644 29.8226 73.4562 29.2858C73.748 28.7491 74.1472 28.2781 74.629 27.9023C75.1107 27.5266 75.6647 27.254 76.2564 27.1017C76.8481 26.9494 77.4648 26.9205 78.0681 27.0169C78.6714 27.1133 79.2484 27.333 79.7631 27.6621C80.2779 27.9912 80.7193 28.4228 81.06 28.93L86.06 35.37C86.5712 36.0281 86.8874 36.8165 86.9725 37.6455C87.0576 38.4745 86.9083 39.3107 86.5415 40.0589C86.1746 40.8072 85.6051 41.4374 84.8976 41.8778C84.1902 42.3182 83.3733 42.5511 82.54 42.55H82.58ZM77.58 29.71C77.211 29.7018 76.8472 29.7985 76.531 29.9888C76.2148 30.1792 75.9591 30.4554 75.7936 30.7853C75.6282 31.1152 75.5597 31.4853 75.5962 31.8525C75.6328 32.2198 75.7728 32.5692 76 32.86L81 39.3C81.1279 39.5705 81.3148 39.8088 81.547 39.9975C81.7791 40.1861 82.0507 40.3203 82.3416 40.39C82.6325 40.4598 82.9354 40.4634 83.2279 40.4007C83.5204 40.3379 83.7951 40.2102 84.0317 40.0272C84.2684 39.8442 84.4609 39.6104 84.5952 39.3431C84.7295 39.0757 84.8022 38.7817 84.8078 38.4826C84.8133 38.1835 84.7518 37.8869 84.6276 37.6148C84.5033 37.3426 84.3196 37.1018 84.09 36.91L79.09 30.46C78.9081 30.2326 78.6787 30.0477 78.4179 29.9181C78.1571 29.7886 77.8711 29.7176 77.58 29.71V29.71Z" stroke="white" stroke-width="16" stroke-linecap="round" stroke-linejoin="round"></path> <path d="M75.6296 29.1193L75.6217 29.1255C74.2251 30.2084 73.9708 32.2185 75.0537 33.6151L80.0539 40.0637C81.1369 41.4603 83.147 41.7146 84.5436 40.6317L84.5515 40.6255C85.9482 39.5426 86.2025 37.5325 85.1195 36.1358L80.1193 29.6873C79.0364 28.2906 77.0262 28.0364 75.6296 29.1193Z" stroke="white" stroke-width="16" stroke-linecap="round" stroke-linejoin="round"></path> <path d="M82.58 42.55C81.9008 42.5517 81.2303 42.3975 80.62 42.0993C80.0098 41.8011 79.4761 41.3669 79.06 40.83L74.06 34.39C73.651 33.9361 73.3399 33.4029 73.146 32.8235C72.952 32.2441 72.8795 31.631 72.9329 31.0224C72.9863 30.4137 73.1644 29.8226 73.4562 29.2858C73.748 28.7491 74.1472 28.2781 74.629 27.9023C75.1107 27.5266 75.6647 27.254 76.2564 27.1017C76.8481 26.9494 77.4648 26.9205 78.0681 27.0169C78.6714 27.1133 79.2484 27.333 79.7631 27.6621C80.2779 27.9912 80.7193 28.4228 81.06 28.93L86.06 35.37C86.5712 36.0281 86.8874 36.8165 86.9725 37.6455C87.0576 38.4745 86.9083 39.3107 86.5415 40.0589C86.1746 40.8072 85.6051 41.4374 84.8976 41.8778C84.1902 42.3182 83.3733 42.5511 82.54 42.55H82.58ZM77.58 29.71C77.211 29.7018 76.8472 29.7985 76.531 29.9888C76.2148 30.1792 75.9591 30.4554 75.7936 30.7853C75.6282 31.1152 75.5597 31.4853 75.5962 31.8525C75.6328 32.2198 75.7728 32.5692 76 32.86L81 39.3C81.1279 39.5705 81.3148 39.8088 81.547 39.9975C81.7791 40.1861 82.0507 40.3203 82.3416 40.39C82.6325 40.4598 82.9354 40.4634 83.2279 40.4007C83.5204 40.3379 83.7951 40.2102 84.0317 40.0272C84.2684 39.8442 84.4609 39.6104 84.5952 39.3431C84.7295 39.0757 84.8022 38.7817 84.8078 38.4826C84.8133 38.1835 84.7518 37.8869 84.6276 37.6148C84.5033 37.3426 84.3196 37.1018 84.09 36.91L79.09 30.46C78.9081 30.2326 78.6787 30.0477 78.4179 29.9181C78.1571 29.7886 77.8711 29.7176 77.58 29.71V29.71Z" stroke="white" stroke-width="16" stroke-linecap="round" stroke-linejoin="round"></path> <path d="M75.6296 29.1193L75.6217 29.1255C74.2251 30.2084 73.9708 32.2185 75.0537 33.6151L80.0539 40.0637C81.1369 41.4603 83.147 41.7146 84.5436 40.6317L84.5515 40.6255C85.9482 39.5426 86.2025 37.5325 85.1195 36.1358L80.1193 29.6873C79.0364 28.2906 77.0262 28.0364 75.6296 29.1193Z" stroke="white" stroke-width="16" stroke-linecap="round" stroke-linejoin="round"></path> <path d="M82.58 42.55C81.9008 42.5517 81.2303 42.3975 80.62 42.0993C80.0098 41.8011 79.4761 41.3669 79.06 40.83L74.06 34.39C73.651 33.9361 73.3399 33.4029 73.146 32.8235C72.952 32.2441 72.8795 31.631 72.9329 31.0224C72.9863 30.4137 73.1644 29.8226 73.4562 29.2858C73.748 28.7491 74.1472 28.2781 74.629 27.9023C75.1107 27.5266 75.6647 27.254 76.2564 27.1017C76.8481 26.9494 77.4648 26.9205 78.0681 27.0169C78.6714 27.1133 79.2484 27.333 79.7631 27.6621C80.2779 27.9912 80.7193 28.4228 81.06 28.93L86.06 35.37C86.5712 36.0281 86.8874 36.8165 86.9725 37.6455C87.0576 38.4745 86.9083 39.3107 86.5415 40.0589C86.1746 40.8072 85.6051 41.4374 84.8976 41.8778C84.1902 42.3182 83.3733 42.5511 82.54 42.55H82.58ZM77.58 29.71C77.211 29.7018 76.8472 29.7985 76.531 29.9888C76.2148 30.1792 75.9591 30.4554 75.7936 30.7853C75.6282 31.1152 75.5597 31.4853 75.5962 31.8525C75.6328 32.2198 75.7728 32.5692 76 32.86L81 39.3C81.1279 39.5705 81.3148 39.8088 81.547 39.9975C81.7791 40.1861 82.0507 40.3203 82.3416 40.39C82.6325 40.4598 82.9354 40.4634 83.2279 40.4007C83.5204 40.3379 83.7951 40.2102 84.0317 40.0272C84.2684 39.8442 84.4609 39.6104 84.5952 39.3431C84.7295 39.0757 84.8022 38.7817 84.8078 38.4826C84.8133 38.1835 84.7518 37.8869 84.6276 37.6148C84.5033 37.3426 84.3196 37.1018 84.09 36.91L79.09 30.46C78.9081 30.2326 78.6787 30.0477 78.4179 29.9181C78.1571 29.7886 77.8711 29.7176 77.58 29.71V29.71Z" stroke="white" stroke-width="16" stroke-linecap="round" stroke-linejoin="round"></path> <path d="M24.1248 46.2983L16.5336 49.2916C14.8895 49.9399 14.0823 51.7983 14.7306 53.4424L14.7342 53.4517C15.3825 55.0958 17.2409 55.9031 18.885 55.2548L26.4762 52.2615C28.1203 51.6132 28.9276 49.7548 28.2793 48.1107L28.2756 48.1014C27.6273 46.4573 25.7689 45.65 24.1248 46.2983Z" stroke="white" stroke-width="16" stroke-linecap="round" stroke-linejoin="round"></path> <path d="M17.72 56.73C16.8255 56.7291 15.9518 56.4599 15.212 55.9572C14.4722 55.4545 13.9002 54.7413 13.57 53.91V53.91C13.1379 52.812 13.1595 51.5873 13.6302 50.5053C14.1009 49.4232 14.9821 48.5725 16.08 48.14L23.67 45.14C24.216 44.914 24.8015 44.799 25.3924 44.8017C25.9832 44.8044 26.5677 44.9247 27.1116 45.1557C27.6555 45.3867 28.1479 45.7237 28.5602 46.147C28.9724 46.5704 29.2962 47.0716 29.5127 47.6214C29.7292 48.1712 29.834 48.7586 29.821 49.3494C29.808 49.9402 29.6775 50.5224 29.4371 51.0622C29.1967 51.602 28.8512 52.0885 28.4207 52.4933C27.9903 52.8981 27.4835 53.2131 26.93 53.42L19.35 56.42C18.8309 56.6246 18.278 56.7298 17.72 56.73V56.73ZM15.9 53C16.086 53.4703 16.4434 53.8526 16.9 54.07C17.1359 54.1688 17.3892 54.2196 17.645 54.2196C17.9008 54.2196 18.154 54.1688 18.39 54.07L25.98 51.07C26.363 50.817 26.6472 50.4399 26.7851 50.0021C26.923 49.5643 26.9061 49.0924 26.7373 48.6656C26.5684 48.2388 26.2579 47.883 25.8578 47.6581C25.4577 47.4331 24.9924 47.3526 24.54 47.43L16.96 50.43C16.486 50.6139 16.0998 50.9715 15.88 51.43C15.6854 51.9111 15.6854 52.4489 15.88 52.93L15.9 53Z" stroke="white" stroke-width="16" stroke-linecap="round" stroke-linejoin="round"></path> <path d="M41.4647 59.256L41.4558 59.2607C39.8916 60.0833 39.2905 62.0182 40.1131 63.5823L43.9113 70.8045C44.7339 72.3687 46.6687 72.9699 48.2329 72.1473L48.2418 72.1426C49.806 71.32 50.4072 69.3851 49.5845 67.8209L45.7864 60.5987C44.9638 59.0346 43.0289 58.4334 41.4647 59.256Z" stroke="white" stroke-width="16" stroke-linecap="round" stroke-linejoin="round"></path> <path d="M46.74 73.73C46.2894 73.7273 45.8415 73.6599 45.41 73.53C44.2841 73.1759 43.3429 72.3928 42.79 71.35L39 64.13C38.7283 63.6133 38.5612 63.0482 38.5081 62.4669C38.455 61.8856 38.5171 61.2995 38.6908 60.7422C38.8645 60.1849 39.1464 59.6673 39.5203 59.2191C39.8942 58.7709 40.3529 58.4008 40.87 58.13C41.9139 57.584 43.1318 57.4742 44.2565 57.8247C45.3813 58.1753 46.3211 58.9575 46.87 60L50.67 67.21C51.2107 68.2549 51.3175 69.4709 50.9674 70.5941C50.6174 71.7173 49.8386 72.6572 48.8 73.21V73.21C48.1652 73.5467 47.4585 73.7251 46.74 73.73ZM42.94 60.11C42.6223 60.1102 42.3096 60.1892 42.03 60.34C41.5798 60.5898 41.2432 61.0037 41.0905 61.4955C40.9377 61.9873 40.9805 62.519 41.21 62.98L45.01 70.19C45.127 70.4182 45.2884 70.6208 45.4846 70.786C45.6809 70.9512 45.9081 71.0755 46.1529 71.1519C46.3978 71.2282 46.6554 71.255 46.9107 71.2306C47.1661 71.2063 47.414 71.1313 47.64 71.01C47.8673 70.8919 48.0689 70.73 48.2333 70.5337C48.3977 70.3373 48.5216 70.1103 48.5979 69.8658C48.6741 69.6213 48.7012 69.3641 48.6775 69.1091C48.6539 68.8541 48.5799 68.6063 48.46 68.38L44.67 61.16C44.4337 60.6879 44.0203 60.3285 43.52 60.16C43.3306 60.1117 43.1352 60.0915 42.94 60.1V60.11Z" stroke="white" stroke-width="16" stroke-linecap="round" stroke-linejoin="round"></path> <path d="M77.0745 75.5775L70.4855 80.3911C69.0584 81.4337 68.7467 83.4357 69.7893 84.8627L69.7952 84.8708C70.8377 86.2979 72.8397 86.6096 74.2668 85.567L80.8558 80.7535C82.2828 79.7109 82.5945 77.7089 81.552 76.2818L81.5461 76.2738C80.5036 74.8467 78.5015 74.535 77.0745 75.5775Z" stroke="white" stroke-width="16" stroke-linecap="round" stroke-linejoin="round"></path> <path d="M72.39 87.4201C71.4641 87.4051 70.5658 87.1022 69.8198 86.5536C69.0737 86.005 68.517 85.2377 68.2268 84.3583C67.9366 83.4789 67.9273 82.531 68.2003 81.6461C68.4732 80.7612 69.0149 79.9832 69.75 79.4201L76.34 74.6101C77.2979 73.9192 78.4907 73.6366 79.6568 73.824C80.8228 74.0115 81.8669 74.6538 82.56 75.6101V75.6101C83.2508 76.568 83.5335 77.7608 83.346 78.9268C83.1586 80.0929 82.5163 81.137 81.56 81.8301L75 86.5601C74.2435 87.1168 73.3293 87.418 72.39 87.4201ZM79 76.2101C78.5877 76.2119 78.186 76.3411 77.85 76.5801L71.27 81.3901C70.8539 81.6995 70.5742 82.1584 70.49 82.6701C70.4492 82.9229 70.4592 83.1813 70.5193 83.4302C70.5793 83.6792 70.6884 83.9137 70.84 84.1201C71.1523 84.5293 71.6103 84.8023 72.1188 84.8824C72.6273 84.9625 73.1471 84.8435 73.57 84.5501L80.16 79.7401C80.5723 79.4288 80.8483 78.9702 80.93 78.4601C80.9713 78.2072 80.9617 77.9487 80.9016 77.6997C80.8415 77.4507 80.7321 77.2162 80.58 77.0101C80.3996 76.7603 80.1621 76.5573 79.8872 76.4181C79.6123 76.279 79.3081 76.2076 79 76.2101V76.2101Z" stroke="white" stroke-width="16" stroke-linecap="round" stroke-linejoin="round"></path> <path d="M105.268 74.5334L105.261 74.5405C104.009 75.7875 104.005 77.8136 105.252 79.0659L111.01 84.848C112.257 86.1003 114.283 86.1045 115.535 84.8575L115.542 84.8504C116.795 83.6034 116.799 81.5772 115.552 80.3249L109.794 74.5429C108.547 73.2906 106.521 73.2864 105.268 74.5334Z" stroke="white" stroke-width="16" stroke-linecap="round" stroke-linejoin="round"></path> <path d="M113.3 87.07C112.715 87.0738 112.136 86.9598 111.597 86.7347C111.057 86.5096 110.569 86.1781 110.16 85.76L104.39 80C103.556 79.1655 103.088 78.0344 103.088 76.855C103.088 75.6755 103.556 74.5444 104.39 73.71C105.224 72.8764 106.356 72.4082 107.535 72.4082C108.714 72.4082 109.846 72.8764 110.68 73.71L116.44 79.49C117.061 80.1134 117.483 80.907 117.653 81.7703C117.823 82.6337 117.733 83.528 117.395 84.3403C117.057 85.1527 116.485 85.8465 115.753 86.3341C115.02 86.8217 114.16 87.0813 113.28 87.08L113.3 87.07ZM107.55 74.89C107.173 74.9091 106.809 75.0345 106.501 75.2516C106.192 75.4687 105.951 75.7687 105.806 76.117C105.66 76.4652 105.616 76.8475 105.679 77.2196C105.742 77.5917 105.909 77.9386 106.16 78.22L111.92 84C112.101 84.1814 112.316 84.3252 112.553 84.423C112.79 84.5209 113.044 84.5708 113.3 84.57V84.57C113.556 84.5708 113.81 84.5209 114.047 84.423C114.284 84.3252 114.499 84.1814 114.68 84V84C115.035 83.628 115.232 83.1338 115.232 82.62C115.232 82.1061 115.035 81.6119 114.68 81.24L108.92 75.46C108.553 75.1013 108.063 74.8973 107.55 74.89V74.89Z" stroke="white" stroke-width="16" stroke-linecap="round" stroke-linejoin="round"></path> <path d="M24.1248 46.2983L16.5336 49.2916C14.8895 49.9399 14.0823 51.7983 14.7306 53.4424L14.7342 53.4517C15.3825 55.0958 17.2409 55.9031 18.885 55.2548L26.4762 52.2615C28.1203 51.6132 28.9276 49.7548 28.2793 48.1107L28.2756 48.1014C27.6273 46.4573 25.7689 45.65 24.1248 46.2983Z" stroke="white" stroke-width="16" stroke-linecap="round" stroke-linejoin="round"></path> <path d="M17.72 56.73C16.8255 56.7291 15.9518 56.4599 15.212 55.9572C14.4722 55.4545 13.9002 54.7413 13.57 53.91V53.91C13.1379 52.812 13.1595 51.5873 13.6302 50.5053C14.1009 49.4232 14.9821 48.5725 16.08 48.14L23.67 45.14C24.216 44.914 24.8015 44.799 25.3924 44.8017C25.9832 44.8044 26.5677 44.9247 27.1116 45.1557C27.6555 45.3867 28.1479 45.7237 28.5602 46.147C28.9724 46.5704 29.2962 47.0716 29.5127 47.6214C29.7292 48.1712 29.834 48.7586 29.821 49.3494C29.808 49.9402 29.6775 50.5224 29.4371 51.0622C29.1967 51.602 28.8512 52.0885 28.4207 52.4933C27.9903 52.8981 27.4835 53.2131 26.93 53.42L19.35 56.42C18.8309 56.6246 18.278 56.7298 17.72 56.73V56.73ZM15.9 53C16.086 53.4703 16.4434 53.8526 16.9 54.07C17.1359 54.1688 17.3892 54.2196 17.645 54.2196C17.9008 54.2196 18.154 54.1688 18.39 54.07L25.98 51.07C26.363 50.817 26.6472 50.4399 26.7851 50.0021C26.923 49.5643 26.9061 49.0924 26.7373 48.6656C26.5684 48.2388 26.2579 47.883 25.8578 47.6581C25.4577 47.4331 24.9924 47.3526 24.54 47.43L16.96 50.43C16.486 50.6139 16.0998 50.9715 15.88 51.43C15.6854 51.9111 15.6854 52.4489 15.88 52.93L15.9 53Z" stroke="white" stroke-width="16" stroke-linecap="round" stroke-linejoin="round"></path> <path d="M41.4647 59.256L41.4558 59.2607C39.8916 60.0833 39.2905 62.0182 40.1131 63.5823L43.9113 70.8045C44.7339 72.3687 46.6687 72.9699 48.2329 72.1473L48.2418 72.1426C49.806 71.32 50.4072 69.3851 49.5845 67.8209L45.7864 60.5987C44.9638 59.0346 43.0289 58.4334 41.4647 59.256Z" stroke="white" stroke-width="16" stroke-linecap="round" stroke-linejoin="round"></path> <path d="M46.74 73.73C46.2894 73.7273 45.8415 73.6599 45.41 73.53C44.2841 73.1759 43.3429 72.3928 42.79 71.35L39 64.13C38.7283 63.6133 38.5612 63.0482 38.5081 62.4669C38.455 61.8856 38.5171 61.2995 38.6908 60.7422C38.8645 60.1849 39.1464 59.6673 39.5203 59.2191C39.8942 58.7709 40.3529 58.4008 40.87 58.13C41.9139 57.584 43.1318 57.4742 44.2565 57.8247C45.3813 58.1753 46.3211 58.9575 46.87 60L50.67 67.21C51.2107 68.2549 51.3175 69.4709 50.9674 70.5941C50.6174 71.7173 49.8386 72.6572 48.8 73.21V73.21C48.1652 73.5467 47.4585 73.7251 46.74 73.73ZM42.94 60.11C42.6223 60.1102 42.3096 60.1892 42.03 60.34C41.5798 60.5898 41.2432 61.0037 41.0905 61.4955C40.9377 61.9873 40.9805 62.519 41.21 62.98L45.01 70.19C45.127 70.4182 45.2884 70.6208 45.4846 70.786C45.6809 70.9512 45.9081 71.0755 46.1529 71.1519C46.3978 71.2282 46.6554 71.255 46.9107 71.2306C47.1661 71.2063 47.414 71.1313 47.64 71.01C47.8673 70.8919 48.0689 70.73 48.2333 70.5337C48.3977 70.3373 48.5216 70.1103 48.5979 69.8658C48.6741 69.6213 48.7012 69.3641 48.6775 69.1091C48.6539 68.8541 48.5799 68.6063 48.46 68.38L44.67 61.16C44.4337 60.6879 44.0203 60.3285 43.52 60.16C43.3306 60.1117 43.1352 60.0915 42.94 60.1V60.11Z" stroke="white" stroke-width="16" stroke-linecap="round" stroke-linejoin="round"></path> <path d="M77.0745 75.5775L70.4855 80.3911C69.0584 81.4337 68.7467 83.4357 69.7893 84.8627L69.7952 84.8708C70.8377 86.2979 72.8397 86.6096 74.2668 85.567L80.8558 80.7535C82.2828 79.7109 82.5945 77.7089 81.552 76.2818L81.5461 76.2738C80.5036 74.8467 78.5015 74.535 77.0745 75.5775Z" stroke="white" stroke-width="16" stroke-linecap="round" stroke-linejoin="round"></path> <path d="M72.39 87.4201C71.4641 87.4051 70.5658 87.1022 69.8198 86.5536C69.0737 86.005 68.517 85.2377 68.2268 84.3583C67.9366 83.4789 67.9273 82.531 68.2003 81.6461C68.4732 80.7612 69.0149 79.9832 69.75 79.4201L76.34 74.6101C77.2979 73.9192 78.4907 73.6366 79.6568 73.824C80.8228 74.0115 81.8669 74.6538 82.56 75.6101V75.6101C83.2508 76.568 83.5335 77.7608 83.346 78.9268C83.1586 80.0929 82.5163 81.137 81.56 81.8301L75 86.5601C74.2435 87.1168 73.3293 87.418 72.39 87.4201ZM79 76.2101C78.5877 76.2119 78.186 76.3411 77.85 76.5801L71.27 81.3901C70.8539 81.6995 70.5742 82.1584 70.49 82.6701C70.4492 82.9229 70.4592 83.1813 70.5193 83.4302C70.5793 83.6792 70.6884 83.9137 70.84 84.1201C71.1523 84.5293 71.6103 84.8023 72.1188 84.8824C72.6273 84.9625 73.1471 84.8435 73.57 84.5501L80.16 79.7401C80.5723 79.4288 80.8483 78.9702 80.93 78.4601C80.9713 78.2072 80.9617 77.9487 80.9016 77.6997C80.8415 77.4507 80.7321 77.2162 80.58 77.0101C80.3996 76.7603 80.1621 76.5573 79.8872 76.4181C79.6123 76.279 79.3081 76.2076 79 76.2101V76.2101Z" stroke="white" stroke-width="16" stroke-linecap="round" stroke-linejoin="round"></path> <path d="M105.268 74.5334L105.261 74.5405C104.009 75.7875 104.005 77.8136 105.252 79.0659L111.01 84.848C112.257 86.1003 114.283 86.1045 115.535 84.8575L115.542 84.8504C116.795 83.6034 116.799 81.5772 115.552 80.3249L109.794 74.5429C108.547 73.2906 106.521 73.2864 105.268 74.5334Z" stroke="white" stroke-width="16" stroke-linecap="round" stroke-linejoin="round"></path> <path d="M113.3 87.07C112.715 87.0738 112.136 86.9598 111.597 86.7347C111.057 86.5096 110.569 86.1781 110.16 85.76L104.39 80C103.556 79.1655 103.088 78.0344 103.088 76.855C103.088 75.6755 103.556 74.5444 104.39 73.71C105.224 72.8764 106.356 72.4082 107.535 72.4082C108.714 72.4082 109.846 72.8764 110.68 73.71L116.44 79.49C117.061 80.1134 117.483 80.907 117.653 81.7703C117.823 82.6337 117.733 83.528 117.395 84.3403C117.057 85.1527 116.485 85.8465 115.753 86.3341C115.02 86.8217 114.16 87.0813 113.28 87.08L113.3 87.07ZM107.55 74.89C107.173 74.9091 106.809 75.0345 106.501 75.2516C106.192 75.4687 105.951 75.7687 105.806 76.117C105.66 76.4652 105.616 76.8475 105.679 77.2196C105.742 77.5917 105.909 77.9386 106.16 78.22L111.92 84C112.101 84.1814 112.316 84.3252 112.553 84.423C112.79 84.5209 113.044 84.5708 113.3 84.57V84.57C113.556 84.5708 113.81 84.5209 114.047 84.423C114.284 84.3252 114.499 84.1814 114.68 84V84C115.035 83.628 115.232 83.1338 115.232 82.62C115.232 82.1061 115.035 81.6119 114.68 81.24L108.92 75.46C108.553 75.1013 108.063 74.8973 107.55 74.89V74.89Z" stroke="white" stroke-width="16" stroke-linecap="round" stroke-linejoin="round"></path> <path d="M24.1248 46.2983L16.5336 49.2916C14.8895 49.9399 14.0823 51.7983 14.7306 53.4424L14.7342 53.4517C15.3825 55.0958 17.2409 55.9031 18.885 55.2548L26.4762 52.2615C28.1203 51.6132 28.9276 49.7548 28.2793 48.1107L28.2756 48.1014C27.6273 46.4573 25.7689 45.65 24.1248 46.2983Z" stroke="white" stroke-width="16" stroke-linecap="round" stroke-linejoin="round"></path> <path d="M17.72 56.73C16.8255 56.7291 15.9518 56.4599 15.212 55.9572C14.4722 55.4545 13.9002 54.7413 13.57 53.91V53.91C13.1379 52.812 13.1595 51.5873 13.6302 50.5053C14.1009 49.4232 14.9821 48.5725 16.08 48.14L23.67 45.14C24.216 44.914 24.8015 44.799 25.3924 44.8017C25.9832 44.8044 26.5677 44.9247 27.1116 45.1557C27.6555 45.3867 28.1479 45.7237 28.5602 46.147C28.9724 46.5704 29.2962 47.0716 29.5127 47.6214C29.7292 48.1712 29.834 48.7586 29.821 49.3494C29.808 49.9402 29.6775 50.5224 29.4371 51.0622C29.1967 51.602 28.8512 52.0885 28.4207 52.4933C27.9903 52.8981 27.4835 53.2131 26.93 53.42L19.35 56.42C18.8309 56.6246 18.278 56.7298 17.72 56.73V56.73ZM15.9 53C16.086 53.4703 16.4434 53.8526 16.9 54.07C17.1359 54.1688 17.3892 54.2196 17.645 54.2196C17.9008 54.2196 18.154 54.1688 18.39 54.07L25.98 51.07C26.363 50.817 26.6472 50.4399 26.7851 50.0021C26.923 49.5643 26.9061 49.0924 26.7373 48.6656C26.5684 48.2388 26.2579 47.883 25.8578 47.6581C25.4577 47.4331 24.9924 47.3526 24.54 47.43L16.96 50.43C16.486 50.6139 16.0998 50.9715 15.88 51.43C15.6854 51.9111 15.6854 52.4489 15.88 52.93L15.9 53Z" stroke="white" stroke-width="16" stroke-linecap="round" stroke-linejoin="round"></path> <path d="M41.4647 59.256L41.4558 59.2607C39.8916 60.0833 39.2905 62.0182 40.1131 63.5823L43.9113 70.8045C44.7339 72.3687 46.6687 72.9699 48.2329 72.1473L48.2418 72.1426C49.806 71.32 50.4072 69.3851 49.5845 67.8209L45.7864 60.5987C44.9638 59.0346 43.0289 58.4334 41.4647 59.256Z" stroke="white" stroke-width="16" stroke-linecap="round" stroke-linejoin="round"></path> <path d="M46.74 73.73C46.2894 73.7273 45.8415 73.6599 45.41 73.53C44.2841 73.1759 43.3429 72.3928 42.79 71.35L39 64.13C38.7283 63.6133 38.5612 63.0482 38.5081 62.4669C38.455 61.8856 38.5171 61.2995 38.6908 60.7422C38.8645 60.1849 39.1464 59.6673 39.5203 59.2191C39.8942 58.7709 40.3529 58.4008 40.87 58.13C41.9139 57.584 43.1318 57.4742 44.2565 57.8247C45.3813 58.1753 46.3211 58.9575 46.87 60L50.67 67.21C51.2107 68.2549 51.3175 69.4709 50.9674 70.5941C50.6174 71.7173 49.8386 72.6572 48.8 73.21V73.21C48.1652 73.5467 47.4585 73.7251 46.74 73.73ZM42.94 60.11C42.6223 60.1102 42.3096 60.1892 42.03 60.34C41.5798 60.5898 41.2432 61.0037 41.0905 61.4955C40.9377 61.9873 40.9805 62.519 41.21 62.98L45.01 70.19C45.127 70.4182 45.2884 70.6208 45.4846 70.786C45.6809 70.9512 45.9081 71.0755 46.1529 71.1519C46.3978 71.2282 46.6554 71.255 46.9107 71.2306C47.1661 71.2063 47.414 71.1313 47.64 71.01C47.8673 70.8919 48.0689 70.73 48.2333 70.5337C48.3977 70.3373 48.5216 70.1103 48.5979 69.8658C48.6741 69.6213 48.7012 69.3641 48.6775 69.1091C48.6539 68.8541 48.5799 68.6063 48.46 68.38L44.67 61.16C44.4337 60.6879 44.0203 60.3285 43.52 60.16C43.3306 60.1117 43.1352 60.0915 42.94 60.1V60.11Z" stroke="white" stroke-width="16" stroke-linecap="round" stroke-linejoin="round"></path> <path d="M77.0745 75.5775L70.4855 80.3911C69.0584 81.4337 68.7467 83.4357 69.7893 84.8627L69.7952 84.8708C70.8377 86.2979 72.8397 86.6096 74.2668 85.567L80.8558 80.7535C82.2828 79.7109 82.5945 77.7089 81.552 76.2818L81.5461 76.2738C80.5036 74.8467 78.5015 74.535 77.0745 75.5775Z" stroke="white" stroke-width="16" stroke-linecap="round" stroke-linejoin="round"></path> <path d="M72.39 87.4201C71.4641 87.4051 70.5658 87.1022 69.8198 86.5536C69.0737 86.005 68.517 85.2377 68.2268 84.3583C67.9366 83.4789 67.9273 82.531 68.2003 81.6461C68.4732 80.7612 69.0149 79.9832 69.75 79.4201L76.34 74.6101C77.2979 73.9192 78.4907 73.6366 79.6568 73.824C80.8228 74.0115 81.8669 74.6538 82.56 75.6101V75.6101C83.2508 76.568 83.5335 77.7608 83.346 78.9268C83.1586 80.0929 82.5163 81.137 81.56 81.8301L75 86.5601C74.2435 87.1168 73.3293 87.418 72.39 87.4201ZM79 76.2101C78.5877 76.2119 78.186 76.3411 77.85 76.5801L71.27 81.3901C70.8539 81.6995 70.5742 82.1584 70.49 82.6701C70.4492 82.9229 70.4592 83.1813 70.5193 83.4302C70.5793 83.6792 70.6884 83.9137 70.84 84.1201C71.1523 84.5293 71.6103 84.8023 72.1188 84.8824C72.6273 84.9625 73.1471 84.8435 73.57 84.5501L80.16 79.7401C80.5723 79.4288 80.8483 78.9702 80.93 78.4601C80.9713 78.2072 80.9617 77.9487 80.9016 77.6997C80.8415 77.4507 80.7321 77.2162 80.58 77.0101C80.3996 76.7603 80.1621 76.5573 79.8872 76.4181C79.6123 76.279 79.3081 76.2076 79 76.2101V76.2101Z" stroke="white" stroke-width="16" stroke-linecap="round" stroke-linejoin="round"></path> <path d="M105.268 74.5334L105.261 74.5405C104.009 75.7875 104.005 77.8136 105.252 79.0659L111.01 84.848C112.257 86.1003 114.283 86.1045 115.535 84.8575L115.542 84.8504C116.795 83.6034 116.799 81.5772 115.552 80.3249L109.794 74.5429C108.547 73.2906 106.521 73.2864 105.268 74.5334Z" stroke="white" stroke-width="16" stroke-linecap="round" stroke-linejoin="round"></path> <path d="M113.3 87.07C112.715 87.0738 112.136 86.9598 111.597 86.7347C111.057 86.5096 110.569 86.1781 110.16 85.76L104.39 80C103.556 79.1655 103.088 78.0344 103.088 76.855C103.088 75.6755 103.556 74.5444 104.39 73.71C105.224 72.8764 106.356 72.4082 107.535 72.4082C108.714 72.4082 109.846 72.8764 110.68 73.71L116.44 79.49C117.061 80.1134 117.483 80.907 117.653 81.7703C117.823 82.6337 117.733 83.528 117.395 84.3403C117.057 85.1527 116.485 85.8465 115.753 86.3341C115.02 86.8217 114.16 87.0813 113.28 87.08L113.3 87.07ZM107.55 74.89C107.173 74.9091 106.809 75.0345 106.501 75.2516C106.192 75.4687 105.951 75.7687 105.806 76.117C105.66 76.4652 105.616 76.8475 105.679 77.2196C105.742 77.5917 105.909 77.9386 106.16 78.22L111.92 84C112.101 84.1814 112.316 84.3252 112.553 84.423C112.79 84.5209 113.044 84.5708 113.3 84.57V84.57C113.556 84.5708 113.81 84.5209 114.047 84.423C114.284 84.3252 114.499 84.1814 114.68 84V84C115.035 83.628 115.232 83.1338 115.232 82.62C115.232 82.1061 115.035 81.6119 114.68 81.24L108.92 75.46C108.553 75.1013 108.063 74.8973 107.55 74.89V74.89Z" stroke="white" stroke-width="16" stroke-linecap="round" stroke-linejoin="round"></path> <path d="M57.2951 38.8447L49.1614 39.4991C47.3997 39.6408 46.0865 41.1838 46.2283 42.9454L46.2291 42.9554C46.3708 44.717 47.9138 46.0302 49.6754 45.8885L57.8091 45.234C59.5708 45.0923 60.8839 43.5493 60.7422 41.7877L60.7414 41.7777C60.5996 40.0161 59.0567 38.7029 57.2951 38.8447Z" stroke="white" stroke-width="16" stroke-linecap="round" stroke-linejoin="round"></path> <path d="M49.42 47.1299C48.2603 47.1449 47.1405 46.7065 46.2992 45.9081C45.458 45.1096 44.9617 44.0143 44.916 42.8554C44.8704 41.6964 45.2791 40.5655 46.055 39.7034C46.8309 38.8413 47.9127 38.3162 49.07 38.2399L57.2 37.5899C57.7835 37.5407 58.3709 37.6074 58.9285 37.7861C59.4861 37.9648 60.0028 38.252 60.4489 38.6312C60.895 39.0104 61.2618 39.4741 61.528 39.9957C61.7942 40.5172 61.9546 41.0862 62 41.6699C62.0492 42.2529 61.9825 42.8398 61.8036 43.3967C61.6248 43.9537 61.3375 44.4698 60.9581 44.9151C60.5788 45.3605 60.115 45.7263 59.5936 45.9914C59.0721 46.2566 58.5033 46.4158 57.92 46.4599L49.8 47.1199L49.42 47.1299ZM57.56 40.0699H57.4L49.27 40.7199C48.8309 40.8505 48.45 41.1279 48.1909 41.5057C47.9317 41.8835 47.8102 42.3388 47.8465 42.7954C47.8828 43.2521 48.0748 43.6824 48.3903 44.0145C48.7058 44.3466 49.1258 44.5603 49.58 44.6199L57.71 43.9599C58.221 43.9068 58.6919 43.6591 59.0251 43.2681C59.3584 42.8771 59.5284 42.3729 59.5 41.8599C59.4491 41.3769 59.2242 40.9288 58.8672 40.5994C58.5103 40.2701 58.0456 40.0818 57.56 40.0699V40.0699Z" stroke="white" stroke-width="16" stroke-linecap="round" stroke-linejoin="round"></path> <path d="M77.44 145.4C67.7415 145.378 58.0754 144.278 48.62 142.12C26.06 136.97 11.62 127.36 11.05 126.95C10.6477 126.68 10.3239 126.308 10.1114 125.873C9.89894 125.437 9.80531 124.953 9.84001 124.47L13.72 69.09C13.7704 68.3593 14.109 67.6786 14.6613 67.1976C15.2136 66.7165 15.9343 66.4746 16.665 66.525C17.3957 66.5754 18.0764 66.914 18.5574 67.4663C19.0385 68.0185 19.2804 68.7393 19.23 69.47L15.46 123.21C37.0166 135.697 61.8511 141.359 86.69 139.45L106.59 89.39C106.889 88.7592 107.416 88.2652 108.065 88.0075C108.714 87.7498 109.436 87.7474 110.086 88.001C110.737 88.2546 111.267 88.7452 111.57 89.374C111.873 90.0029 111.927 90.7232 111.72 91.39L91.21 143C91.0318 143.451 90.7386 143.846 90.3596 144.148C89.9806 144.45 89.529 144.647 89.05 144.72C85.1989 145.198 81.3207 145.426 77.44 145.4V145.4Z" stroke="white" stroke-width="16" stroke-linecap="round" stroke-linejoin="round"></path> <path d="M109.16 90.41C121.04 87.12 126.28 67.73 106.97 60.41C115.26 55.21 115.97 37.41 91.43 31.49C81.66 29.14 61.49 21.42 62.84 10.78C51.84 13.05 46.19 27.33 53.75 38.15C46.28 32.81 32.49 31.15 21.52 39.49C10.55 47.83 8.42999 60.68 16.52 69.3C24.54 81.3 90.85 102.51 109.16 90.41Z" fill="#FF4FA6"></path> <path d="M92.57 66.59C82.78 66.59 73.35 62.59 68.62 60.2C68.1214 59.9493 67.7428 59.5109 67.5674 58.9811C67.3921 58.4513 67.4344 57.8736 67.685 57.375C67.9356 56.8764 68.3741 56.4977 68.9039 56.3224C69.4337 56.147 70.0114 56.1893 70.51 56.44C77.15 59.78 93.9 66.68 105.8 58.65C106.263 58.3383 106.83 58.2233 107.378 58.3302C107.926 58.4371 108.408 58.7572 108.72 59.22C109.032 59.6828 109.147 60.2504 109.04 60.798C108.933 61.3456 108.613 61.8283 108.15 62.14C103.525 65.1618 98.0934 66.7131 92.57 66.59V66.59Z" fill="#FF138E"></path> <path d="M61.38 86.15C34.24 80 16.47 69.28 16.47 69.28L12.59 124.66C12.59 124.66 26.92 134.34 49.23 139.42C71.54 144.5 88.65 142 88.65 142L109.16 90.4C109.16 90.4 88.52 92.33 61.38 86.15Z" fill="white"></path> <path d="M77.44 144.74C67.7887 144.72 58.1695 143.627 48.76 141.48C26.33 136.36 12.01 126.81 11.41 126.41C11.1048 126.203 10.8593 125.919 10.6979 125.588C10.5365 125.256 10.4648 124.888 10.49 124.52L14.37 69.13C14.3955 68.7702 14.5129 68.423 14.7108 68.1214C14.9088 67.8199 15.1807 67.5742 15.5007 67.4077C15.8206 67.2412 16.1779 67.1595 16.5384 67.1704C16.899 67.1813 17.2507 67.2844 17.56 67.47C17.73 67.58 35.39 78.06 61.85 84.09C88.3 90.09 108.76 88.34 108.96 88.32C109.318 88.2857 109.68 88.3441 110.009 88.4897C110.338 88.6353 110.625 88.8631 110.841 89.1513C111.057 89.4396 111.195 89.7784 111.242 90.1354C111.289 90.4924 111.244 90.8556 111.11 91.19L90.6 142.78C90.4656 143.125 90.242 143.428 89.9521 143.658C89.6622 143.888 89.3164 144.037 88.95 144.09C85.132 144.562 81.2868 144.779 77.44 144.74V144.74ZM14.78 123.56C25.6304 129.952 37.4123 134.612 49.7 137.37C61.9673 140.21 74.6027 141.117 87.15 140.06L106 92.71C90.8454 93.1457 75.6977 91.6299 60.93 88.2V88.2C46.1362 84.8871 31.8291 79.6879 18.36 72.73L14.78 123.56Z" fill="#00A480"></path> <path d="M26.48 133.35H26.31C25.7534 133.304 25.2376 133.039 24.8759 132.614C24.5141 132.188 24.3358 131.637 24.38 131.08L28.88 76.38C28.8893 76.094 28.9566 75.813 29.0779 75.5538C29.1991 75.2947 29.3719 75.0629 29.5855 74.8726C29.7992 74.6823 30.0493 74.5375 30.3207 74.4469C30.592 74.3563 30.879 74.3218 31.1641 74.3455C31.4493 74.3693 31.7266 74.4508 31.9792 74.5851C32.2318 74.7194 32.4545 74.9036 32.6337 75.1267C32.8129 75.3497 32.9449 75.6068 33.0216 75.8825C33.0984 76.1581 33.1182 76.4465 33.08 76.73L28.58 131.42C28.535 131.946 28.2943 132.436 27.9055 132.794C27.5167 133.151 27.0081 133.349 26.48 133.35Z" fill="#00A480"></path> <path d="M42.61 139.84H42.27C41.7186 139.749 41.2258 139.443 40.8996 138.99C40.5734 138.536 40.4405 137.972 40.53 137.42L49.3 83.21C49.3438 82.9374 49.4408 82.6761 49.5857 82.4411C49.7306 82.206 49.9204 82.0019 50.1442 81.8403C50.3681 81.6786 50.6216 81.5628 50.8902 81.4992C51.1589 81.4357 51.4375 81.4258 51.71 81.47C52.262 81.5609 52.7556 81.8663 53.0834 82.3196C53.4112 82.7729 53.5466 83.3374 53.46 83.89L44.69 138.09C44.6052 138.58 44.3499 139.024 43.9694 139.345C43.5888 139.665 43.1073 139.84 42.61 139.84Z" fill="#00A480"></path> <path d="M73.28 144C73.0238 143.997 72.77 143.95 72.53 143.86C72.2715 143.761 72.0351 143.613 71.8343 143.423C71.6335 143.232 71.4722 143.004 71.3597 142.751C71.2473 142.499 71.1859 142.226 71.1791 141.95C71.1723 141.673 71.2202 141.398 71.32 141.14L91 89.92C91.1989 89.3989 91.5967 88.9781 92.1059 88.7502C92.615 88.5224 93.1938 88.5061 93.715 88.705C94.2361 88.904 94.6569 89.3017 94.8848 89.8109C95.1127 90.3201 95.1289 90.8989 94.93 91.42L75.28 142.67C75.1203 143.068 74.8436 143.408 74.4865 143.646C74.1294 143.883 73.7088 144.007 73.28 144V144Z" fill="#00A480"></path> <path d="M55.93 142.88C55.7308 142.878 55.5326 142.851 55.34 142.8C55.074 142.722 54.826 142.592 54.6102 142.418C54.3944 142.244 54.2149 142.03 54.0821 141.786C53.9493 141.543 53.8658 141.276 53.8363 141C53.8067 140.725 53.8318 140.446 53.91 140.18L69.51 87.53C69.5524 87.2294 69.6592 86.9415 69.823 86.686C69.9869 86.4304 70.2039 86.2133 70.4594 86.0493C70.7148 85.8853 71.0027 85.7783 71.3032 85.7357C71.6038 85.6931 71.91 85.7159 72.201 85.8024C72.4919 85.889 72.7608 86.0373 72.9892 86.2373C73.2176 86.4372 73.4001 86.6841 73.5244 86.9611C73.6487 87.2381 73.7117 87.5386 73.7092 87.8421C73.7067 88.1457 73.6388 88.4451 73.51 88.72L58 141.37C57.8699 141.815 57.5964 142.204 57.222 142.477C56.8476 142.75 56.3933 142.892 55.93 142.88V142.88Z" fill="#00A480"></path> <path d="M109.16 93.18C108.496 93.1722 107.856 92.9261 107.358 92.4863C106.861 92.0465 106.537 91.4424 106.448 90.7842C106.358 90.126 106.508 89.4574 106.87 88.9004C107.232 88.3435 107.782 87.9352 108.42 87.75C110.823 86.987 112.935 85.5049 114.469 83.5039C116.004 81.5028 116.887 79.079 117 76.56C117.27 70.69 113.25 65.74 106 62.97C105.522 62.786 105.105 62.4728 104.795 62.0654C104.486 61.658 104.295 61.1725 104.245 60.663C104.196 60.1536 104.288 59.6404 104.513 59.1807C104.739 58.721 105.087 58.333 105.52 58.06C108.39 56.25 109.91 52.46 109.28 48.62C108.19 41.99 101.45 36.72 90.79 34.15C89.58 33.86 63.64 27.47 60.36 14.55C57.5144 16.0591 55.3092 18.5448 54.15 21.55C53.1884 24.0088 52.8568 26.669 53.1851 29.2887C53.5134 31.9084 54.4914 34.4045 56.03 36.55C56.4001 37.0839 56.5699 37.7314 56.5097 38.3783C56.4494 39.0251 56.1628 39.63 55.7005 40.0864C55.2381 40.5428 54.6295 40.8215 53.9819 40.8734C53.3343 40.9252 52.6891 40.747 52.16 40.37C45.34 35.5 32.87 34.29 23.16 41.66C17.96 45.66 14.84 50.72 14.4 56C14.2217 58.08 14.4919 60.1741 15.1923 62.1408C15.8927 64.1074 17.007 65.9009 18.46 67.4C18.7529 67.6526 18.9895 67.9639 19.1543 68.3138C19.3192 68.6637 19.4086 69.0443 19.4169 69.431C19.4252 69.8177 19.3521 70.2018 19.2024 70.5584C19.0527 70.9151 18.8297 71.2362 18.5479 71.5012C18.2661 71.7661 17.9317 71.9688 17.5665 72.0962C17.2013 72.2235 16.8134 72.2727 16.428 72.2406C16.0426 72.2084 15.6682 72.0956 15.3292 71.9094C14.9901 71.7233 14.694 71.4679 14.46 71.16C12.4836 69.0972 10.9685 66.6377 10.0151 63.9447C9.0617 61.2517 8.69181 58.3868 8.92999 55.54C9.49999 48.68 13.38 42.2 19.84 37.27C23.8056 34.2226 28.4479 32.1768 33.3728 31.3064C38.2978 30.436 43.3601 30.7665 48.13 32.27C47.0986 28.0386 47.4025 23.5917 49 19.54C50.0843 16.6731 51.8666 14.1218 54.1854 12.1173C56.5042 10.1128 59.2864 8.71827 62.28 8.05997C62.7054 7.97196 63.1456 7.98596 63.5645 8.10084C63.9834 8.21572 64.3691 8.42821 64.6901 8.72089C65.0111 9.01358 65.2582 9.37814 65.4111 9.78471C65.564 10.1913 65.6185 10.6283 65.57 11.06C64.62 18.62 80.49 25.95 92.07 28.73C110.43 33.2 114 43.51 114.72 47.73C115.072 49.8013 114.999 51.9225 114.505 53.9648C114.012 56.007 113.109 57.9277 111.85 59.61C118.93 63.52 122.85 69.74 122.53 76.82C122.378 80.5063 121.08 84.0535 118.816 86.9665C116.552 89.8796 113.435 92.0133 109.9 93.07C109.659 93.1401 109.411 93.1771 109.16 93.18V93.18Z" fill="black"></path> <path d="M75.6296 29.1193L75.6217 29.1255C74.2251 30.2084 73.9708 32.2185 75.0537 33.6151L80.0539 40.0637C81.1369 41.4603 83.147 41.7146 84.5436 40.6317L84.5515 40.6255C85.9482 39.5426 86.2025 37.5325 85.1195 36.1358L80.1193 29.6873C79.0364 28.2906 77.0262 28.0364 75.6296 29.1193Z" fill="#FFB200"></path> <path d="M82.58 42.55C81.9008 42.5517 81.2303 42.3975 80.62 42.0993C80.0098 41.8011 79.4761 41.3669 79.06 40.83L74.06 34.39C73.651 33.9361 73.3399 33.4029 73.146 32.8235C72.952 32.2441 72.8795 31.631 72.9329 31.0224C72.9863 30.4137 73.1644 29.8226 73.4562 29.2858C73.748 28.7491 74.1472 28.2781 74.629 27.9023C75.1107 27.5266 75.6647 27.254 76.2564 27.1017C76.8481 26.9494 77.4648 26.9205 78.0681 27.0169C78.6714 27.1133 79.2484 27.333 79.7631 27.6621C80.2779 27.9912 80.7193 28.4228 81.06 28.93L86.06 35.37C86.5712 36.0281 86.8874 36.8165 86.9725 37.6455C87.0576 38.4745 86.9083 39.3107 86.5415 40.0589C86.1746 40.8072 85.6051 41.4374 84.8976 41.8778C84.1902 42.3182 83.3733 42.5511 82.54 42.55H82.58ZM77.58 29.71C77.211 29.7018 76.8472 29.7985 76.531 29.9888C76.2148 30.1792 75.9591 30.4554 75.7936 30.7853C75.6282 31.1152 75.5597 31.4853 75.5962 31.8525C75.6328 32.2198 75.7728 32.5692 76 32.86L81 39.3C81.1279 39.5705 81.3148 39.8088 81.547 39.9975C81.7791 40.1861 82.0507 40.3203 82.3416 40.39C82.6325 40.4598 82.9354 40.4634 83.2279 40.4007C83.5204 40.3379 83.7951 40.2102 84.0317 40.0272C84.2684 39.8442 84.4609 39.6104 84.5952 39.3431C84.7295 39.0757 84.8022 38.7817 84.8078 38.4826C84.8133 38.1835 84.7518 37.8869 84.6276 37.6148C84.5033 37.3426 84.3196 37.1018 84.09 36.91L79.09 30.46C78.9081 30.2326 78.6787 30.0477 78.4179 29.9181C78.1571 29.7886 77.8711 29.7176 77.58 29.71V29.71Z" fill="#FF138E"></path> <path d="M24.1248 46.2983L16.5336 49.2916C14.8895 49.9399 14.0823 51.7983 14.7306 53.4424L14.7342 53.4517C15.3825 55.0958 17.2409 55.9031 18.885 55.2548L26.4762 52.2615C28.1203 51.6132 28.9276 49.7548 28.2793 48.1107L28.2756 48.1014C27.6273 46.4573 25.7689 45.65 24.1248 46.2983Z" fill="#FFB200"></path> <path d="M17.72 56.73C16.8255 56.7291 15.9518 56.4599 15.212 55.9572C14.4722 55.4545 13.9002 54.7413 13.57 53.91V53.91C13.1379 52.812 13.1595 51.5873 13.6302 50.5053C14.1009 49.4232 14.9821 48.5725 16.08 48.14L23.67 45.14C24.216 44.914 24.8015 44.799 25.3924 44.8017C25.9832 44.8044 26.5677 44.9247 27.1116 45.1557C27.6555 45.3867 28.1479 45.7237 28.5602 46.147C28.9724 46.5704 29.2962 47.0716 29.5127 47.6214C29.7292 48.1712 29.834 48.7586 29.821 49.3494C29.808 49.9402 29.6775 50.5224 29.4371 51.0622C29.1967 51.602 28.8512 52.0885 28.4207 52.4933C27.9903 52.8981 27.4835 53.2131 26.93 53.42L19.35 56.42C18.8309 56.6246 18.278 56.7298 17.72 56.73V56.73ZM15.9 53C16.086 53.4703 16.4434 53.8526 16.9 54.07C17.1359 54.1688 17.3892 54.2196 17.645 54.2196C17.9008 54.2196 18.154 54.1688 18.39 54.07L25.98 51.07C26.363 50.817 26.6472 50.4399 26.7851 50.0021C26.923 49.5643 26.9061 49.0924 26.7373 48.6656C26.5684 48.2388 26.2579 47.883 25.8578 47.6581C25.4577 47.4331 24.9924 47.3526 24.54 47.43L16.96 50.43C16.486 50.6139 16.0998 50.9715 15.88 51.43C15.6854 51.9111 15.6854 52.4489 15.88 52.93L15.9 53Z" fill="#FF138E"></path> <path d="M41.4647 59.256L41.4558 59.2607C39.8916 60.0833 39.2905 62.0182 40.1131 63.5823L43.9113 70.8045C44.7339 72.3687 46.6687 72.9699 48.2329 72.1473L48.2418 72.1426C49.806 71.32 50.4072 69.3851 49.5845 67.8209L45.7864 60.5987C44.9638 59.0346 43.0289 58.4334 41.4647 59.256Z" fill="#FFB200"></path> <path d="M46.74 73.73C46.2894 73.7273 45.8415 73.6599 45.41 73.53C44.2841 73.1759 43.3429 72.3928 42.79 71.35L39 64.13C38.7283 63.6133 38.5612 63.0482 38.5081 62.4669C38.455 61.8856 38.5171 61.2995 38.6908 60.7422C38.8645 60.1849 39.1464 59.6673 39.5203 59.2191C39.8942 58.7709 40.3529 58.4008 40.87 58.13C41.9139 57.584 43.1318 57.4742 44.2565 57.8247C45.3813 58.1753 46.3211 58.9575 46.87 60L50.67 67.21C51.2107 68.2549 51.3175 69.4709 50.9674 70.5941C50.6174 71.7173 49.8386 72.6572 48.8 73.21V73.21C48.1652 73.5467 47.4585 73.7251 46.74 73.73ZM42.94 60.11C42.6223 60.1102 42.3096 60.1892 42.03 60.34C41.5798 60.5898 41.2432 61.0037 41.0905 61.4955C40.9377 61.9873 40.9805 62.519 41.21 62.98L45.01 70.19C45.127 70.4182 45.2884 70.6208 45.4846 70.786C45.6809 70.9512 45.9081 71.0755 46.1529 71.1519C46.3978 71.2282 46.6554 71.255 46.9107 71.2306C47.1661 71.2063 47.414 71.1313 47.64 71.01C47.8673 70.8919 48.0689 70.73 48.2333 70.5337C48.3977 70.3373 48.5216 70.1103 48.5979 69.8658C48.6741 69.6213 48.7012 69.3641 48.6775 69.1091C48.6539 68.8541 48.5799 68.6063 48.46 68.38L44.67 61.16C44.4337 60.6879 44.0203 60.3285 43.52 60.16C43.3306 60.1117 43.1352 60.0915 42.94 60.1V60.11Z" fill="#FF138E"></path> <path d="M77.0745 75.5775L70.4855 80.3911C69.0584 81.4337 68.7467 83.4357 69.7893 84.8627L69.7952 84.8708C70.8377 86.2979 72.8397 86.6096 74.2668 85.567L80.8558 80.7535C82.2828 79.7109 82.5945 77.7089 81.552 76.2818L81.5461 76.2738C80.5036 74.8467 78.5015 74.535 77.0745 75.5775Z" fill="#FFB200"></path> <path d="M72.39 87.4201C71.4641 87.4051 70.5658 87.1022 69.8198 86.5536C69.0737 86.005 68.517 85.2377 68.2268 84.3583C67.9366 83.4789 67.9273 82.531 68.2003 81.6461C68.4732 80.7612 69.0149 79.9832 69.75 79.4201L76.34 74.6101C77.2979 73.9192 78.4907 73.6366 79.6568 73.824C80.8228 74.0115 81.8669 74.6538 82.56 75.6101V75.6101C83.2508 76.568 83.5335 77.7608 83.346 78.9268C83.1586 80.0929 82.5163 81.137 81.56 81.8301L75 86.5601C74.2435 87.1168 73.3293 87.418 72.39 87.4201ZM79 76.2101C78.5877 76.2119 78.186 76.3411 77.85 76.5801L71.27 81.3901C70.8539 81.6995 70.5742 82.1584 70.49 82.6701C70.4492 82.9229 70.4592 83.1813 70.5193 83.4302C70.5793 83.6792 70.6884 83.9137 70.84 84.1201C71.1523 84.5293 71.6103 84.8023 72.1188 84.8824C72.6273 84.9625 73.1471 84.8435 73.57 84.5501L80.16 79.7401C80.5723 79.4288 80.8483 78.9702 80.93 78.4601C80.9713 78.2072 80.9617 77.9487 80.9016 77.6997C80.8415 77.4507 80.7321 77.2162 80.58 77.0101C80.3996 76.7603 80.1621 76.5573 79.8872 76.4181C79.6123 76.279 79.3081 76.2076 79 76.2101V76.2101Z" fill="#FF138E"></path> <path d="M105.268 74.5334L105.261 74.5405C104.009 75.7875 104.005 77.8136 105.252 79.0659L111.01 84.848C112.257 86.1003 114.283 86.1045 115.535 84.8575L115.542 84.8504C116.795 83.6034 116.799 81.5772 115.552 80.3249L109.794 74.5429C108.547 73.2906 106.521 73.2864 105.268 74.5334Z" fill="#FFB200"></path> <path d="M113.3 87.07C112.715 87.0738 112.136 86.9598 111.597 86.7347C111.057 86.5096 110.569 86.1781 110.16 85.76L104.39 80C103.556 79.1655 103.088 78.0344 103.088 76.855C103.088 75.6755 103.556 74.5444 104.39 73.71C105.224 72.8764 106.356 72.4082 107.535 72.4082C108.714 72.4082 109.846 72.8764 110.68 73.71L116.44 79.49C117.061 80.1134 117.483 80.907 117.653 81.7703C117.823 82.6337 117.733 83.528 117.395 84.3403C117.057 85.1527 116.485 85.8465 115.753 86.3341C115.02 86.8217 114.16 87.0813 113.28 87.08L113.3 87.07ZM107.55 74.89C107.173 74.9091 106.809 75.0345 106.501 75.2516C106.192 75.4687 105.951 75.7687 105.806 76.117C105.66 76.4652 105.616 76.8475 105.679 77.2196C105.742 77.5917 105.909 77.9386 106.16 78.22L111.92 84C112.101 84.1814 112.316 84.3252 112.553 84.423C112.79 84.5209 113.044 84.5708 113.3 84.57V84.57C113.556 84.5708 113.81 84.5209 114.047 84.423C114.284 84.3252 114.499 84.1814 114.68 84V84C115.035 83.628 115.232 83.1338 115.232 82.62C115.232 82.1061 115.035 81.6119 114.68 81.24L108.92 75.46C108.553 75.1013 108.063 74.8973 107.55 74.89V74.89Z" fill="#FF138E"></path> <path d="M57.2951 38.8447L49.1614 39.4991C47.3997 39.6408 46.0865 41.1838 46.2283 42.9454L46.2291 42.9554C46.3708 44.717 47.9138 46.0302 49.6754 45.8885L57.8091 45.234C59.5708 45.0923 60.8839 43.5493 60.7422 41.7877L60.7414 41.7777C60.5996 40.0161 59.0567 38.7029 57.2951 38.8447Z" fill="#FFB200"></path> <path d="M49.42 47.1299C48.2603 47.1449 47.1405 46.7065 46.2992 45.9081C45.458 45.1096 44.9617 44.0143 44.916 42.8554C44.8704 41.6964 45.2791 40.5655 46.055 39.7034C46.8309 38.8413 47.9127 38.3162 49.07 38.2399L57.2 37.5899C57.7835 37.5407 58.3709 37.6074 58.9285 37.7861C59.4861 37.9648 60.0028 38.252 60.4489 38.6312C60.895 39.0104 61.2618 39.4741 61.528 39.9957C61.7942 40.5172 61.9546 41.0862 62 41.6699C62.0492 42.2529 61.9825 42.8398 61.8036 43.3967C61.6248 43.9537 61.3375 44.4698 60.9581 44.9151C60.5788 45.3605 60.115 45.7263 59.5936 45.9914C59.0721 46.2566 58.5033 46.4158 57.92 46.4599L49.8 47.1199L49.42 47.1299ZM57.56 40.0699H57.4L49.27 40.7199C48.8309 40.8505 48.45 41.1279 48.1909 41.5057C47.9317 41.8835 47.8102 42.3388 47.8465 42.7954C47.8828 43.2521 48.0748 43.6824 48.3903 44.0145C48.7058 44.3466 49.1258 44.5603 49.58 44.6199L57.71 43.9599C58.221 43.9068 58.6919 43.6591 59.0251 43.2681C59.3584 42.8771 59.5284 42.3729 59.5 41.8599C59.4491 41.3769 59.2242 40.9288 58.8672 40.5994C58.5103 40.2701 58.0456 40.0818 57.56 40.0699V40.0699Z" fill="#FF138E"></path> <path d="M77.44 145.4C67.7415 145.378 58.0754 144.278 48.62 142.12C26.06 136.97 11.62 127.36 11.05 126.95C10.6477 126.68 10.3239 126.308 10.1114 125.873C9.89894 125.437 9.80531 124.953 9.84001 124.47L13.72 69.09C13.7704 68.3593 14.109 67.6786 14.6613 67.1976C15.2136 66.7165 15.9343 66.4746 16.665 66.525C17.3957 66.5754 18.0764 66.914 18.5574 67.4663C19.0385 68.0185 19.2804 68.7393 19.23 69.47L15.46 123.21C37.0166 135.697 61.8511 141.359 86.69 139.45L106.59 89.39C106.889 88.7592 107.416 88.2652 108.065 88.0075C108.714 87.7498 109.436 87.7474 110.086 88.001C110.737 88.2546 111.267 88.7452 111.57 89.374C111.873 90.0029 111.927 90.7232 111.72 91.39L91.21 143C91.0318 143.451 90.7386 143.846 90.3596 144.148C89.9806 144.45 89.529 144.647 89.05 144.72C85.1989 145.198 81.3207 145.426 77.44 145.4V145.4Z" fill="black"></path> </svg> 