<?xml version="1.0" encoding="UTF-8"?> <svg xmlns="http://www.w3.org/2000/svg" width="288" height="208" viewBox="0 0 288 208" fill="none"> <g clip-path="url(#clip0_154_708)"> <path d="M69.3966 114.268C65.3331 114.639 61.4376 116.068 58.0973 118.412C54.7571 120.756 52.0884 123.933 50.3566 127.628C44.5166 140.388 49.6166 153.628 52.6366 157.408C54.9698 159.853 57.9891 161.533 61.2966 162.228C61.2966 162.228 54.0166 165.668 47.7766 164.528C45.5095 164.103 43.4407 162.956 41.8797 161.258C40.3187 159.56 39.3493 157.402 39.1166 155.108C38.7766 152.268 41.7566 147.848 41.7566 147.848C41.7566 147.848 38.3166 147.108 32.1766 153.308C26.0366 159.508 25.7966 171.128 25.7966 171.128L25.9366 177.548L18.5766 182.188C18.5766 182.188 13.4166 176.708 13.0966 171.368C12.8147 168.375 13.6797 165.387 15.5166 163.008C11.9349 164.112 8.75438 166.24 6.36644 169.129C3.9785 172.018 2.48737 175.542 2.0766 179.268C-0.103402 192.888 5.1566 198.448 7.8166 200.348C10.3101 201.916 12.9409 203.255 15.6766 204.348C17.4537 206.619 19.3566 208.789 21.3766 210.848C22.5166 211.668 25.7366 213.548 25.7366 213.548C25.7366 213.548 12.3966 224.148 10.5766 236.788C8.7566 249.428 19.4166 263.348 19.4166 263.348L23.7766 268.788C24.8544 277.728 28.8467 286.064 35.1366 292.508C42.1837 299.485 50.8064 304.664 60.2766 307.608C59.6751 304.686 59.3801 301.71 59.3966 298.728C59.6989 295.917 60.1597 293.126 60.7766 290.368C62.6667 298.616 66.8228 306.174 72.7766 312.188C82.2566 321.228 86.3766 323.108 86.3766 323.108C85.5294 317.776 85.1081 312.386 85.1166 306.988C85.3752 302.668 85.8894 298.367 86.6566 294.108C86.6566 294.108 91.3366 310.008 97.3766 318.628C99.9552 322.69 103.01 326.43 106.477 329.768C111.084 324.483 116.239 319.703 121.857 315.508C131.117 308.608 146.357 297.828 146.357 297.828C145.15 302.214 143.347 306.413 140.997 310.308C138.102 314.159 134.962 317.82 131.597 321.268C132.237 320.888 140.637 323.588 149.997 320.368C156.021 318.245 161.856 315.615 167.437 312.508C173.436 312.095 179.185 309.941 183.977 306.308C187.581 303.662 191.009 300.782 194.237 297.688C194.237 297.688 197.857 298.208 205.357 292.668C209.854 289.336 213.767 285.281 216.937 280.668C223.726 277.874 229.522 273.109 233.577 266.988C237.082 261.36 238.278 254.596 236.917 248.108L234.337 238.628L239.017 236.968C239.017 236.968 244.917 245.428 260.317 242.668C275.717 239.908 285.557 223.428 285.397 213.308C285.237 203.188 279.597 191.928 279.597 191.928C279.597 191.928 278.237 202.128 269.237 204.228C266.923 204.932 264.427 204.724 262.262 203.645C260.097 202.566 258.428 200.699 257.597 198.428C259.452 199.398 261.59 199.683 263.635 199.234C265.679 198.784 267.5 197.627 268.777 195.968C271.317 192.929 273.141 189.358 274.114 185.518C275.087 181.679 275.184 177.669 274.397 173.788C272.877 166.448 272.677 164.288 272.677 164.288C272.677 164.288 275.677 157.548 271.517 147.608C268.772 141.42 264.3 136.156 258.637 132.448L253.497 130.188C253.087 121.104 252.125 112.054 250.617 103.088C248.617 93.3876 244.617 81.4676 244.617 81.4676C246.353 80.2798 247.84 78.7648 248.997 77.0076C250.657 74.2676 250.997 59.3876 250.997 59.3876C250.997 59.3876 254.097 59.6276 254.057 57.8476C254.017 56.0676 254.517 56.0476 254.057 55.3676C252.78 54.2253 251.445 53.1505 250.057 52.1476L248.997 48.3676C250.627 46.0413 251.301 43.1767 250.877 40.3676C250.157 35.7276 248.997 34.8276 248.997 34.8276C248.997 34.8276 222.877 14.1076 216.717 13.6676C210.557 13.2276 208.957 12.4876 207.117 15.2476L200.617 16.8676L195.297 18.9876C194.093 18.4878 192.749 18.4451 191.517 18.8676C190.449 19.4998 189.673 20.5273 189.357 21.7276C186.486 22.6717 183.718 23.9047 181.097 25.4076C179.778 26.5883 178.615 27.9324 177.637 29.4076L162.277 27.2476C162.277 27.2476 161.517 18.8076 159.777 17.4876C158.037 16.1676 154.417 13.9876 154.417 13.9876C154.417 13.9876 155.837 11.4276 154.937 10.2476C154.719 9.81212 154.414 9.42602 154.041 9.11314C153.667 8.80026 153.234 8.56725 152.767 8.42853C152.301 8.28981 151.81 8.24833 151.327 8.30665C150.843 8.36496 150.377 8.52184 149.957 8.76758C147.577 10.2276 148.277 10.6076 148.277 10.6076C148.277 10.6076 141.077 6.60757 139.557 6.60757C138.338 6.63013 137.128 6.81166 135.957 7.14757C135.957 7.14757 134.517 1.14757 122.637 1.52757C110.757 1.90757 97.8366 5.30758 93.1166 8.30758C90.5058 9.88166 88.1178 11.7987 86.0166 14.0076L84.7766 16.8876C82.7551 17.582 81.0004 18.8893 79.7566 20.6276C78.1166 23.2676 70.1966 41.3876 69.7566 42.5076C68.9651 44.1535 68.8085 46.0334 69.3166 47.7876C69.9966 49.6276 69.8766 58.8876 71.9966 59.5076C72.8501 59.8429 73.7596 60.0126 74.6766 60.0076L71.9966 80.0076C71.9966 80.0076 63.2966 92.1476 59.9966 95.5876C56.6966 99.0276 54.2966 99.9476 53.4366 101.728C52.8934 102.804 52.6104 103.992 52.6104 105.198C52.6104 106.403 52.8934 107.592 53.4366 108.668C54.7566 111.648 57.4366 111.168 60.3766 109.908C63.4293 108.384 65.9217 105.934 67.4966 102.908C68.4814 101.146 69.9629 99.7129 71.7566 98.7876L69.3966 114.268Z" fill="#6A3B38"></path> <path d="M213.717 113.608C211.937 112.968 208.257 111.188 198.517 105.268C196.697 104.148 194.657 102.628 192.317 100.868L194.197 107.508C190.291 104.951 186.222 102.652 182.017 100.628C176.281 98.4809 170.373 96.8282 164.357 95.6876C169.437 91.3676 178.837 91.6876 178.837 91.6876L192.317 100.828C182.157 93.1876 166.157 80.8276 136.317 77.1276C99.6966 72.5076 79.3566 90.5076 79.3566 90.5076L78.8766 98.1476C78.8766 98.1476 76.8766 118.348 78.5166 130.148C80.1566 141.948 75.7366 148.148 72.3166 155.928C68.8966 163.708 62.8365 175.348 62.8365 175.348C62.8365 175.348 80.6966 163.348 98.0166 169.728C115.337 176.108 129.517 189.488 129.517 189.488C129.517 189.488 153.197 176.148 172.357 174.488C191.517 172.828 209.137 184.808 209.137 184.808C209.137 184.808 210.597 176.468 211.977 171.468C213.357 166.468 213.477 156.648 213.517 154.108C213.557 151.568 214.057 141.148 215.017 134.308C215.977 127.468 221.017 115.708 221.017 115.708C221.017 115.708 215.497 114.248 213.717 113.608ZM108.397 90.6276C98.1565 95.5076 95.1965 102.388 95.1965 102.388C95.1965 102.388 95.1966 96.6276 96.6566 94.3876C98.1166 92.1476 101.197 85.2476 105.497 83.5076C119.497 77.8676 126.157 87.6276 126.157 87.6276C126.157 87.6276 118.657 85.7476 108.397 90.6276Z" fill="#FCDBBD"></path> <path d="M176.497 157.908C187.852 157.908 197.057 148.703 197.057 137.348C197.057 125.993 187.852 116.788 176.497 116.788C165.142 116.788 155.937 125.993 155.937 137.348C155.937 148.703 165.142 157.908 176.497 157.908Z" fill="white"></path> <path d="M110.857 152.647C122.212 152.647 131.417 143.442 131.417 132.087C131.417 120.732 122.212 111.527 110.857 111.527C99.5017 111.527 90.2966 120.732 90.2966 132.087C90.2966 143.442 99.5017 152.647 110.857 152.647Z" fill="white"></path> <path d="M115.357 150.068C122.724 150.068 128.697 143.012 128.697 134.308C128.697 125.604 122.724 118.548 115.357 118.548C107.989 118.548 102.017 125.604 102.017 134.308C102.017 143.012 107.989 150.068 115.357 150.068Z" fill="#624329"></path> <path d="M177.477 154.108C184.7 154.108 190.557 147.016 190.557 138.268C190.557 129.519 184.7 122.428 177.477 122.428C170.253 122.428 164.397 129.519 164.397 138.268C164.397 147.016 170.253 154.108 177.477 154.108Z" fill="#624329"></path> <path d="M126.517 76.3876C105.277 76.1276 88.8166 83.1476 79.2766 91.8476C69.7366 100.548 64.5366 107.048 63.4766 107.968C62.4166 108.888 57.1366 113.428 54.1366 109.788C51.1366 106.148 51.3566 103.268 54.4366 100.808C57.5166 98.3476 62.4366 93.0676 69.3966 83.5276C76.3566 73.9876 80.5166 68.2676 80.5166 68.2676L82.7766 60.5076C82.7766 60.5076 100.517 55.6676 105.157 53.8676C109.797 52.0676 122.977 50.2076 128.757 50.1276C134.537 50.0476 137.777 50.8676 141.657 50.1276C145.537 49.3876 147.357 48.9676 149.017 47.5476C150.677 46.1276 151.777 45.0676 151.777 45.0676L171.277 46.8076C171.277 46.8076 172.917 53.9876 178.017 56.6676C183.117 59.3476 210.997 75.6476 215.777 78.7676C220.557 81.8876 230.637 89.2076 230.637 89.2076L233.637 100.028L235.197 110.148C235.197 110.148 237.417 114.848 231.777 115.528C226.137 116.208 220.757 116.688 214.337 113.848C207.917 111.008 207.397 110.688 180.017 92.5076C152.637 74.3276 126.517 76.3876 126.517 76.3876Z" fill="#453A34"></path> <path d="M227.517 116.608C227.517 116.608 231.277 115.608 231.777 115.528C232.277 115.448 236.277 113.388 236.277 113.388L238.997 134.328C238.997 134.328 234.997 137.508 234.157 146.928C233.779 154.094 234.087 161.28 235.077 168.388C232.918 165.718 230.915 162.927 229.077 160.028C228.297 158.268 228.717 157.508 228.717 157.508C229.63 150.829 230.171 144.106 230.337 137.368C230.499 130.342 229.547 123.335 227.517 116.608V116.608Z" fill="#453A34"></path> <path d="M70.8366 99.2875L79.9166 91.2875C79.9166 91.2875 79.0166 96.3075 78.7766 99.2875C78.5366 102.268 78.1166 110.268 78.1166 110.268L77.9966 124.148C77.9966 124.148 75.2766 141.628 70.3366 149.668C68.0482 153.632 65.3681 157.357 62.3366 160.788L59.5966 162.648C59.5966 162.648 53.1166 161.748 49.5966 151.508C48.0456 147.142 47.4483 142.494 47.845 137.878C48.2418 133.262 49.6233 128.785 51.8966 124.748C55.8966 117.888 65.3566 115.008 65.3566 115.008L69.7366 114.388L70.8366 99.2875Z" fill="#A5A29C"></path> <path d="M82.0166 60.0076L79.9166 69.0276L71.5766 80.5076C71.5766 80.5076 73.1966 68.7276 73.7166 66.5076C74.2366 64.2876 75.5166 59.9676 75.5166 59.9676C74.3538 60.1065 73.1824 59.7908 72.2469 59.0864C71.3114 58.382 70.6843 57.3434 70.4966 56.1875C69.7166 51.9475 68.4966 44.1876 69.0566 42.4676C71.9631 35.5425 75.2413 28.7794 78.8766 22.2076C79.7453 20.6647 80.7999 19.234 82.0166 17.9476C82.9133 17.1342 83.9593 16.5025 85.0966 16.0876C85.0966 16.0876 84.8966 11.2676 96.0166 6.48756C107.137 1.70756 124.017 0.767556 127.837 1.74756C131.657 2.72756 135.217 5.06756 135.717 6.48756C137.372 6.34058 139.04 6.46215 140.657 6.84755C143.387 7.66115 145.963 8.92522 148.277 10.5876C148.646 9.82492 149.242 9.19484 149.983 8.78325C150.724 8.37165 151.574 8.19855 152.417 8.28756C155.517 8.46756 155.277 13.3476 155.277 13.3476C155.877 14.419 156.711 15.3417 157.717 16.0476C159.197 16.9676 161.417 19.3476 161.397 20.3476C161.377 21.3476 162.317 26.8476 162.317 26.8476C162.317 26.8476 171.417 28.1476 173.517 28.5476L177.637 29.3876C178.574 27.5415 180.026 26.0063 181.817 24.9676C184.677 23.4076 188.557 21.4676 188.557 21.4676C188.966 20.4246 189.658 19.5171 190.557 18.8476C191.834 18.3404 193.185 18.0432 194.557 17.9676C194.557 17.9676 199.957 17.0276 200.557 16.8476C201.157 16.6676 207.057 16.1076 207.057 16.1076C207.057 16.1076 208.097 12.1076 214.217 12.9076C220.337 13.7076 234.397 23.7876 238.957 27.2076C243.517 30.6276 249.457 35.2076 250.037 36.9676C250.625 38.486 250.93 40.0993 250.937 41.7276C250.811 43.4318 250.44 45.109 249.837 46.7076C249.513 47.4961 249.291 48.3228 249.177 49.1676L249.997 52.1076C251.317 52.6128 252.492 53.4374 253.417 54.5076C254.177 55.8076 254.657 56.7276 253.997 57.8676C253.337 59.0076 250.497 59.8676 250.497 59.8676C250.497 59.8676 251.237 71.0876 249.197 75.7076C248.366 78.1075 246.735 80.1485 244.577 81.4876C244.577 81.4876 247.977 91.6876 249.477 98.5876C250.977 105.488 252.997 122.508 252.997 122.508L253.497 130.268C253.497 130.268 260.957 131.208 267.717 140.928C274.477 150.648 273.717 158.008 273.717 158.008L272.337 164.708C272.337 164.708 268.737 155.948 263.717 151.328C263.717 151.328 265.717 163.328 256.357 170.628C246.997 177.928 237.237 173.528 230.777 162.968L228.777 158.508C228.777 158.508 235.277 172.688 234.377 164.008C233.914 157.01 234.028 149.986 234.717 143.008C234.717 143.008 236.077 136.308 237.957 134.428C239.837 132.548 235.957 110.628 234.377 103.588C232.617 95.5876 231.297 89.0076 231.297 89.0076C225.717 85.6676 211.937 75.7076 209.297 74.1676C201.957 70.1676 179.797 59.3476 173.717 53.0476C172.925 51.0055 172.316 48.8973 171.897 46.7476C170.977 46.8676 152.177 44.7476 151.637 45.1676C149.637 47.1676 145.097 51.0476 139.397 50.5076C118.397 48.5076 94.0566 56.9276 94.0566 56.9276L82.0166 60.0076Z" fill="#A5A29C"></path> <path d="M75.5166 60.5078H79.9166L82.0166 60.0677L80.5166 68.3278L71.8966 80.1078C71.8966 80.1078 73.0766 72.6677 73.7166 68.2677C74.0911 65.6339 74.6934 63.0375 75.5166 60.5078V60.5078Z" fill="#7E6B7A"></path> <path d="M78.1766 106.848C78.2715 101.383 78.6655 95.9286 79.3566 90.5076L70.8366 99.2876L70.0766 108.088L73.7166 106.348V118.508C72.5688 122.115 71.2336 125.66 69.7166 129.128L69.2966 114.208C69.2966 114.208 65.4566 120.788 66.2366 136.208C64.0766 139.988 61.5366 143.228 58.8366 144.488C50.5566 148.328 47.6766 142.488 47.6766 142.488C47.5366 158.708 58.9966 162.508 58.9966 162.508C58.9966 162.508 59.6566 162.668 63.4566 159.868C67.2566 157.068 71.5766 147.028 71.5766 147.028L78.3766 127.028C78.3766 127.028 78.0766 115.508 78.1766 106.848Z" fill="#7E6B7A"></path> <path d="M247.457 89.7473C246.765 93.7753 245.348 97.6445 243.277 101.167L246.617 129.667C245.449 129.688 244.303 129.99 243.277 130.547C241.497 131.487 238.517 137.047 238.197 150.547C237.877 164.047 260.517 165.607 260.517 165.607C258.416 168.725 255.57 171.269 252.237 173.007C247.197 175.367 242.557 174.827 240.237 173.007C237.917 171.187 233.857 167.347 233.857 167.347C233.857 167.347 232.277 149.347 234.697 143.027C237.117 136.707 239.017 132.167 239.017 132.167L236.097 111.887L230.377 88.2873C230.377 88.2873 230.937 89.2673 234.697 88.2873C238.457 87.3073 244.097 82.1273 244.097 82.1273L247.457 89.7473Z" fill="#7E6B7A"></path> <path d="M179.097 27.2676C176.697 33.8476 178.577 39.9276 181.397 39.8876C181.397 39.8876 235.497 70.6076 236.277 71.1276C237.057 71.6476 243.517 74.7276 246.277 71.1276C249.037 67.5276 250.437 56.5076 250.437 56.5076C250.437 56.5076 250.817 72.6876 249.197 75.8476C246.757 80.2945 243.252 84.067 238.997 86.8276C234.417 89.5076 235.137 92.2076 223.797 84.2676C212.457 76.3276 196.417 67.5276 191.337 64.6676C186.257 61.8076 174.617 56.2876 173.577 53.8476C172.537 51.4076 171.297 47.5076 171.297 47.5076C171.297 47.5076 148.637 45.1276 148.077 44.7476C147.613 44.596 147.215 44.2921 146.946 43.8854C146.678 43.4788 146.554 42.9932 146.597 42.5076C146.894 40.7956 147.461 39.1417 148.277 37.6076L173.517 39.3476L179.097 27.2676Z" fill="#7E6B7A"></path> <path d="M68.9966 42.5076C68.9966 47.0076 77.7566 47.5076 103.517 44.0076C129.277 40.5076 136.457 31.5076 136.457 31.5076L162.217 27.2676C162.217 27.2676 151.017 32.1476 148.957 35.2676C146.897 38.3876 145.457 39.2676 146.537 42.4476C146.821 43.3442 147.343 44.147 148.047 44.7704C148.752 45.3938 149.612 45.8145 150.537 45.9876C150.537 45.9876 149.597 49.9876 142.077 49.9876C134.557 49.9876 124.777 48.9276 112.437 51.9876C100.097 55.0476 86.9966 60.0476 79.9166 60.5076C72.8366 60.9676 72.3966 59.1676 70.1366 55.0276C67.8766 50.8876 68.9966 42.5076 68.9966 42.5076Z" fill="#7E6B7A"></path> <path d="M103.577 4.50757C95.2367 7.26757 95.2567 11.4276 109.957 9.00757C118.755 7.54867 127.739 7.60955 136.517 9.18757L85.5167 18.9276C85.5167 18.9276 84.5567 14.1076 87.8167 11.7276C91.0767 9.34757 103.577 4.50757 103.577 4.50757Z" fill="#7E6B7A"></path> <path d="M210.377 20.3876L206.117 24.0076C206.117 24.0076 244.517 47.0076 246.017 48.0076C246.449 48.2989 246.945 48.4834 247.463 48.546C247.981 48.6086 248.507 48.5474 248.997 48.3676L250.437 45.4876L210.377 20.3876Z" fill="#7E6B7A"></path> <path d="M132.997 129.988C132.997 129.988 135.677 149.388 114.237 157.528C114.237 157.528 119.177 157.988 122.237 157.908C123.086 157.881 123.93 158.046 124.706 158.393C125.482 158.739 126.17 159.257 126.717 159.908C126.717 159.908 131.897 155.528 134.057 145.468C136.217 135.408 132.997 129.988 132.997 129.988Z" fill="#F9C8A7"></path> <path d="M115.777 178.928C115.777 178.928 120.097 166.348 127.397 163.508C134.697 160.668 143.517 171.008 148.197 178.928L134.497 186.928L128.697 188.768L115.777 178.928Z" fill="#F9C8A7"></path> <path d="M155.937 152.228C155.937 152.228 168.997 169.008 190.997 157.908C190.997 157.908 180.317 166.688 169.097 163.908C157.877 161.128 155.937 152.228 155.937 152.228Z" fill="#F9C8A7"></path> <path d="M220.997 116.228C220.997 116.228 203.537 110.748 192.237 100.868L194.117 107.748C194.117 107.748 185.857 99.6075 164.277 95.7475C164.277 95.7475 172.557 91.4875 178.757 91.7475C178.757 91.7475 158.877 77.7475 134.757 77.0275C110.637 76.3075 93.9566 79.5875 78.6166 91.3075L78.3766 126.508C78.3766 126.508 88.1966 131.028 90.0966 130.008C90.0966 130.008 90.2966 116.248 106.297 111.888C122.297 107.528 131.917 126.508 131.917 126.508C131.777 124.368 127.777 113.268 127.397 107.528C127.017 101.788 150.017 102.528 151.777 109.288C153.537 116.048 150.097 125.728 155.937 137.388C155.937 137.388 154.357 120.388 174.197 116.828C178.06 116.433 181.957 117.131 185.443 118.842C188.93 120.554 191.866 123.21 193.917 126.508C195.948 129.843 197.023 133.672 197.023 137.578C197.023 141.483 195.948 145.312 193.917 148.648C193.917 148.648 201.617 138.648 204.957 133.668C208.297 128.688 204.957 138.288 204.957 138.288C204.957 138.288 212.377 137.028 213.957 142.288C213.936 138.112 214.612 133.961 215.957 130.008C218.257 122.908 220.997 116.228 220.997 116.228ZM95.1966 101.268C95.1966 101.268 95.1966 87.8275 106.017 83.0075C119.257 77.1275 126.157 87.6275 126.157 87.6275C108.777 83.7275 95.1966 101.268 95.1966 101.268Z" fill="#F9C8A7"></path> <path d="M81.5166 60.5078L80.6966 67.3477C80.6966 67.3477 89.3966 61.1677 115.217 57.8477C141.037 54.5277 163.477 57.0478 183.337 65.0278C203.197 73.0078 205.557 89.1478 197.037 87.8278C188.517 86.5078 162.357 69.8278 124.697 72.1678C87.0366 74.5078 71.5566 92.8478 66.5366 97.0078C61.5166 101.168 54.0766 108.348 52.5366 105.008C52.3332 106.413 52.6851 107.842 53.5177 108.992C54.3503 110.142 55.5982 110.922 56.9966 111.168C62.3366 112.848 70.0766 97.1678 78.5766 91.2878C87.0766 85.4078 101.177 74.6678 133.177 77.0078C165.177 79.3478 181.857 93.7078 185.777 96.3078C189.697 98.9078 201.777 107.808 211.157 112.508C216.178 115.201 221.799 116.577 227.497 116.508C227.497 116.508 229.497 126.128 229.597 127.748C229.697 129.368 230.157 140.788 230.157 140.788L229.017 159.928L233.217 165.928C233.217 165.928 232.657 148.248 234.597 142.868C235.743 139.646 237.189 136.539 238.917 133.588C238.917 133.588 235.737 109.588 235.597 109.588C235.457 109.588 232.177 90.9077 231.177 88.9077C230.177 86.9077 196.337 66.7278 196.337 66.7278C196.337 66.7278 174.817 55.3278 173.497 52.9478C172.521 50.9363 171.77 48.8236 171.257 46.6478L151.417 45.0677C151.417 45.0677 150.537 50.1478 135.937 49.7878C121.337 49.4278 96.1766 56.1277 96.1766 56.1277L81.5166 60.5078Z" fill="#3D2B31"></path> <path d="M209.637 19.0075C209.637 19.0075 209.517 15.7475 215.777 18.0075C222.037 20.2675 250.877 40.3875 250.877 40.3875C250.877 40.3875 252.977 37.9275 248.997 34.8475C245.017 31.7675 220.197 14.5075 216.717 13.6875C213.237 12.8675 209.537 11.8475 209.637 19.0075Z" fill="#EAEAEA"></path> <path d="M178.017 29.5075C178.017 29.5075 180.017 27.5075 182.277 31.5075C184.011 28.1187 186.897 25.4595 190.417 24.0075C190.417 24.0075 190.817 21.1675 192.857 20.3875C193.485 20.2006 194.155 20.2075 194.779 20.4073C195.404 20.6071 195.953 20.9905 196.357 21.5075L206.357 19.0075L207.397 15.6675L198.537 18.0075L195.297 19.0075C195.297 19.0075 192.597 17.4475 191.297 18.3875C190.441 19.0971 189.826 20.0543 189.537 21.1275C186.649 22.3958 183.837 23.8315 181.117 25.4275C179.864 26.6061 178.816 27.9849 178.017 29.5075V29.5075Z" fill="#EAEAEA"></path> <path d="M150.517 35.8476C150.517 35.8476 157.477 31.8476 162.317 31.5076C167.062 31.5344 171.792 32.0369 176.437 33.0076L178.017 29.5076C178.017 29.5076 163.737 26.9676 161.397 27.3876C159.057 27.8076 153.997 31.2676 152.957 32.0676C151.959 33.1988 151.137 34.4729 150.517 35.8476V35.8476Z" fill="#EAEAEA"></path> <path d="M160.277 26.8877C160.277 26.8877 159.657 20.0277 155.277 20.3877C155.277 20.3877 156.377 17.8878 151.137 15.1878L153.837 14.5677L159.357 17.1278L161.357 22.1278L162.277 26.8877H160.277Z" fill="#EAEAEA"></path> <path d="M136.517 10.2676C136.517 10.2676 141.377 9.52756 148.697 13.3876L148.277 10.6276C148.277 10.6276 141.957 6.74756 139.557 6.62756C138.33 6.49532 137.09 6.6813 135.957 7.16756L136.517 10.2676Z" fill="#EAEAEA"></path> <path d="M148.997 11.0275C148.997 11.0275 148.597 10.2675 151.757 10.2675C152.152 10.2454 152.547 10.3154 152.911 10.472C153.275 10.6286 153.598 10.8675 153.854 11.1699C154.11 11.4724 154.292 11.83 154.386 12.2149C154.48 12.5997 154.484 13.0011 154.397 13.3875C154.651 13.0337 154.831 12.6325 154.927 12.2078C155.024 11.783 155.034 11.3432 154.958 10.9144C154.881 10.4856 154.72 10.0765 154.482 9.71118C154.245 9.34587 153.937 9.0318 153.577 8.78752C150.997 6.88752 149.517 9.72752 148.997 11.0275Z" fill="#EAEAEA"></path> <path d="M88.9966 10.7675C98.7511 8.09752 108.655 6.0072 118.657 4.50754C131.237 2.96754 127.517 5.88753 127.517 5.88753C128.292 5.67465 129.102 5.61984 129.9 5.72635C130.697 5.83286 131.464 6.09852 132.157 6.50754C132.651 6.88028 133.047 7.36888 133.308 7.93036C133.57 8.49184 133.69 9.109 133.657 9.72754L135.277 9.40754C135.277 9.40754 137.017 7.40753 133.657 3.88753C130.297 0.367535 118.537 2.10753 109.957 2.88753C101.377 3.66753 88.9966 10.7675 88.9966 10.7675Z" fill="#EAEAEA"></path> <path d="M85.3966 19.8875C85.3966 19.8875 82.5566 20.3875 79.3966 28.3875C76.2366 36.3875 72.2566 41.1875 76.4766 41.7275C74.5432 42.608 72.8938 44.0104 71.7137 45.777C70.5336 47.5436 69.8697 49.6043 69.7966 51.7275C69.7966 51.7275 66.6966 47.5275 71.2366 37.5475C75.7766 27.5675 79.2366 19.5475 81.3366 18.4875C83.4366 17.4275 84.8166 16.8275 84.8166 16.8275L85.3966 19.8875Z" fill="#EAEAEA"></path> <path d="M240.637 132.108C240.637 132.108 249.157 129.828 258.637 137.748C268.117 145.668 269.937 159.748 269.937 159.748L272.937 163.528C272.937 163.528 275.217 160.648 271.997 148.868C268.777 137.088 252.597 123.868 240.637 132.108Z" fill="#EAEAEA"></path> <path d="M249.497 130.248L248.997 96.5475L253.597 130.108L249.497 130.248Z" fill="#EAEAEA"></path> <path d="M70.0966 108.068L71.8966 118.548L69.7366 126.488L69.3966 114.268L70.0966 108.068Z" fill="#EAEAEA"></path> <path d="M68.0166 116.067C63.253 118.556 59.251 122.286 56.4343 126.863C53.6176 131.44 52.0912 136.694 52.0166 142.067L48.2566 144.507C48.2566 144.507 46.5766 131.607 52.6366 123.647C56.4484 118.816 61.939 115.596 68.0166 114.627V116.067Z" fill="#EAEAEA"></path> <path d="M142.337 17.2276C143.154 17.2276 143.817 16.565 143.817 15.7476C143.817 14.9302 143.154 14.2676 142.337 14.2676C141.519 14.2676 140.857 14.9302 140.857 15.7476C140.857 16.565 141.519 17.2276 142.337 17.2276Z" fill="#EAEAEA"></path> <path d="M152.437 12.5075C153.254 12.5075 153.917 11.8449 153.917 11.0275C153.917 10.2101 153.254 9.54749 152.437 9.54749C151.619 9.54749 150.957 10.2101 150.957 11.0275C150.957 11.8449 151.619 12.5075 152.437 12.5075Z" fill="#EAEAEA"></path> <path d="M192.717 22.2076C193.534 22.2076 194.197 21.5449 194.197 20.7276C194.197 19.9102 193.534 19.2476 192.717 19.2476C191.899 19.2476 191.237 19.9102 191.237 20.7276C191.237 21.5449 191.899 22.2076 192.717 22.2076Z" fill="#EAEAEA"></path> <path d="M202.857 35.9475C203.674 35.9475 204.337 35.2849 204.337 34.4675C204.337 33.6502 203.674 32.9875 202.857 32.9875C202.039 32.9875 201.377 33.6502 201.377 34.4675C201.377 35.2849 202.039 35.9475 202.857 35.9475Z" fill="#EAEAEA"></path> <path d="M221.197 47.3675C222.014 47.3675 222.677 46.7049 222.677 45.8875C222.677 45.0701 222.014 44.4075 221.197 44.4075C220.379 44.4075 219.717 45.0701 219.717 45.8875C219.717 46.7049 220.379 47.3675 221.197 47.3675Z" fill="#EAEAEA"></path> <path d="M239.777 57.3876C240.594 57.3876 241.257 56.7249 241.257 55.9076C241.257 55.0902 240.594 54.4276 239.777 54.4276C238.959 54.4276 238.297 55.0902 238.297 55.9076C238.297 56.7249 238.959 57.3876 239.777 57.3876Z" fill="#EAEAEA"></path> <path d="M124.857 20.4876C125.674 20.4876 126.337 19.825 126.337 19.0076C126.337 18.1902 125.674 17.5276 124.857 17.5276C124.039 17.5276 123.377 18.1902 123.377 19.0076C123.377 19.825 124.039 20.4876 124.857 20.4876Z" fill="#EAEAEA"></path> <path d="M106.197 23.3875C107.014 23.3875 107.677 22.7249 107.677 21.9075C107.677 21.0901 107.014 20.4275 106.197 20.4275C105.379 20.4275 104.717 21.0901 104.717 21.9075C104.717 22.7249 105.379 23.3875 106.197 23.3875Z" fill="#EAEAEA"></path> <path d="M86.7766 26.3875C87.594 26.3875 88.2566 25.7249 88.2566 24.9075C88.2566 24.0901 87.594 23.4275 86.7766 23.4275C85.9593 23.4275 85.2966 24.0901 85.2966 24.9075C85.2966 25.7249 85.9593 26.3875 86.7766 26.3875Z" fill="#EAEAEA"></path> <path d="M76.9966 74.1675C76.7366 73.3875 91.5366 62.8475 128.337 60.0075C150.953 58.447 173.616 62.2859 194.457 71.2075C194.457 71.2075 175.177 56.3275 135.217 56.4275C95.2567 56.5275 80.6366 67.3475 80.6366 67.3475L76.9966 74.1675Z" fill="#68584F"></path> <path d="M90.0966 129.988C90.0966 129.988 97.7366 118.508 115.217 118.508C124.377 118.508 131.417 132.128 131.417 132.128C131.417 132.128 132.577 122.728 122.037 114.308C111.497 105.888 91.3366 113.128 90.0966 129.988Z" fill="#E2ECF1"></path> <path d="M155.937 137.368C155.937 137.368 163.137 123.368 176.477 122.488C189.817 121.608 196.057 139.728 195.037 146.488C195.037 146.488 198.897 140.628 195.537 129.628C192.177 118.628 181.537 116.288 173.197 116.788C168.248 117.394 163.714 119.855 160.51 123.675C157.306 127.495 155.672 132.389 155.937 137.368Z" fill="#E2ECF1"></path> <path d="M102.017 136.348C103.712 134.016 105.869 132.059 108.353 130.596C110.837 129.134 113.595 128.199 116.457 127.848C126.597 126.348 128.697 132.668 128.697 132.668C128.697 132.668 126.997 117.768 114.137 118.668C101.277 119.568 102.017 136.348 102.017 136.348Z" fill="#583225"></path> <path d="M164.277 140.068C165.963 137.732 168.115 135.771 170.597 134.308C173.078 132.845 175.836 131.912 178.697 131.568C188.837 130.068 190.937 136.368 190.937 136.368C190.937 136.368 189.237 121.468 176.377 122.368C163.517 123.268 164.277 140.068 164.277 140.068Z" fill="#583225"></path> <path d="M107.897 148.108C107.123 147.539 106.495 146.796 106.062 145.94C105.629 145.084 105.403 144.137 105.403 143.178C105.403 142.218 105.629 141.272 106.062 140.415C106.495 139.559 107.123 138.816 107.897 138.248C111.017 136.248 112.797 140.248 116.457 140.248C120.117 140.248 121.737 136.728 124.457 136.068C127.177 135.408 127.457 138.628 126.597 142.508C126.036 144.34 124.982 145.984 123.55 147.257C122.118 148.531 120.362 149.385 118.477 149.728C114.87 150.498 111.107 149.921 107.897 148.108V148.108Z" fill="#8C663F"></path> <path d="M170.077 151.868C169.28 151.315 168.63 150.578 168.18 149.72C167.731 148.861 167.496 147.907 167.496 146.938C167.496 145.969 167.731 145.014 168.18 144.155C168.63 143.297 169.28 142.56 170.077 142.008C173.197 140.008 174.957 144.008 178.617 144.008C182.277 144.008 183.897 140.488 186.617 139.828C189.337 139.168 189.617 142.388 188.777 146.268C188.211 148.101 187.152 149.744 185.717 151.017C184.282 152.29 182.524 153.145 180.637 153.488C177.037 154.26 173.279 153.683 170.077 151.868V151.868Z" fill="#8C663F"></path> <path d="M97.6566 92.0675C96.4566 95.3675 98.1966 91.6475 106.017 87.8275C111.293 85.4595 117.013 84.2392 122.797 84.2475L126.157 87.6275C121.014 86.619 115.683 87.3214 110.977 89.6275C105.849 92.4424 101.035 95.7945 96.6166 99.6275C96.6166 99.6275 95.4366 99.9075 95.4766 99.6275C95.5166 99.3475 97.6566 92.0675 97.6566 92.0675Z" fill="#5E2C34"></path> <path d="M168.357 93.6676C168.357 93.6676 177.517 96.5076 180.017 97.0076C182.517 97.5076 181.237 93.0076 181.237 93.0076L192.317 100.868L193.997 106.868C189.19 104.051 184.175 101.603 178.997 99.5476C173.817 97.8876 163.837 96.0076 163.837 96.0076L168.357 93.6676Z" fill="#5E2C34"></path> <path d="M37.2766 198.928C41.6823 200.521 46.4364 200.894 51.0366 200.008C51.0366 200.008 37.7967 207.048 25.7367 203.008C13.6767 198.968 20.2766 187.508 20.2766 187.508C20.2766 187.508 9.77666 206.748 32.0167 211.008C54.2567 215.268 82.7767 194.268 102.017 194.008C121.257 193.748 128.397 201.088 128.397 201.088C128.397 201.088 144.277 191.268 162.017 196.508C179.757 201.748 184.517 216.508 202.777 225.748C221.037 234.988 242.917 233.168 248.277 212.748C245.042 216.195 240.912 218.675 236.349 219.911C231.786 221.147 226.969 221.091 222.437 219.748C226.632 218.509 230.472 216.288 233.637 213.268C233.637 213.268 224.437 217.748 211.977 207.268C199.517 196.788 175.697 170.008 129.977 196.008C129.977 196.008 107.657 176.488 85.5767 181.868C63.4967 187.248 51.2766 200.368 37.2766 198.928Z" fill="#5E2C34"></path> <path d="M32.5166 159.848C32.5166 159.848 33.2766 172.088 45.0166 172.988C56.0966 173.828 67.9166 164.428 67.9166 164.428L62.3366 175.628C62.3366 175.628 53.4566 181.308 48.3366 184.748C43.2166 188.188 39.8166 191.948 35.8966 191.208C31.9766 190.468 30.6766 189.708 28.7566 187.348C26.8366 184.988 32.7566 177.548 32.7566 177.548H25.9366L32.5166 159.848Z" fill="#5E2C34"></path> <path d="M6.9966 177.548C6.9966 177.548 4.2966 181.008 14.1566 189.548C13.2332 192.108 12.9853 194.863 13.4366 197.548C13.9799 199.874 14.7226 202.149 15.6566 204.348C15.6566 204.348 -1.22341 195.588 6.9966 177.548Z" fill="#5E2C34"></path> <path d="M228.237 120.268C229.334 125.194 229.917 130.221 229.977 135.268C229.783 142.869 228.96 150.442 227.517 157.908C227.517 157.908 223.517 144.268 224.517 135.268C224.934 132.917 224.482 130.495 223.245 128.453C222.009 126.411 220.073 124.888 217.797 124.168L221.077 116.168L227.517 116.548L228.237 120.268Z" fill="#5E2C34"></path> <path d="M214.377 140.008C215.777 155.748 228.677 178.268 228.677 178.268L217.797 169.748L227.517 189.928L216.857 181.928L230.297 200.448L209.137 184.888C209.625 181.096 210.394 177.346 211.437 173.668C213.017 168.328 212.697 161.368 213.437 156.348C214.027 150.92 214.341 145.467 214.377 140.008Z" fill="#5E2C34"></path> <path d="M248.277 181.868C248.277 181.868 259.097 189.368 266.777 184.828C274.457 180.288 269.857 159.848 269.857 159.848C269.857 159.848 278.977 179.008 272.377 190.388C265.777 201.768 257.517 198.508 257.517 198.508L248.277 181.868Z" fill="#5E2C34"></path> <path d="M255.817 215.688C255.817 215.688 268.777 226.268 280.017 206.008C280.017 206.008 284.497 223.428 267.637 231.088C250.777 238.748 243.377 234.788 243.377 234.788C245.573 234.045 247.594 232.86 249.315 231.305C251.035 229.75 252.417 227.859 253.377 225.748C254.824 222.581 255.652 219.166 255.817 215.688Z" fill="#5E2C34"></path> <path d="M175.857 214.168C175.857 214.168 162.237 222.008 134.497 220.748C106.757 219.488 96.0166 211.268 92.9966 210.508C89.9766 209.748 91.5966 220.868 112.177 225.568C132.757 230.268 160.757 225.748 160.757 225.748L156.757 241.128L153.257 235.268C149.118 243.377 143.525 250.658 136.757 256.748L137.757 245.268L125.757 267.888C125.757 267.888 115.997 250.508 113.257 241.128L110.837 248.008L104.837 231.088L102.077 237.268C102.077 237.268 89.2166 226.008 85.6366 213.508C85.6366 213.508 69.8366 225.008 50.0766 225.748C30.3166 226.488 17.8566 221.868 17.8566 221.868L25.8566 213.508C25.8566 213.508 34.5966 218.708 52.0566 213.508C69.5166 208.308 89.7566 200.928 89.7566 200.928C89.7566 200.928 98.2766 213.808 125.637 216.928C141.73 218.934 158.07 217.098 173.317 211.568L175.857 214.168Z" fill="#5E2C34"></path> <path d="M135.777 124.168C135.777 124.168 140.697 139.488 134.737 152.868C137.872 148.785 139.656 143.827 139.843 138.684C140.029 133.54 138.608 128.466 135.777 124.168V124.168Z" fill="#FFF4E3"></path> <path d="M204.037 181.868C205.564 177.457 206.813 172.955 207.777 168.388C209.777 159.508 211.977 147.688 211.977 147.688C211.977 147.688 213.657 161.048 212.537 167.328C211.417 173.608 209.917 179.328 209.917 179.328L209.137 184.768L204.037 181.868Z" fill="#FFF4E3"></path> <path d="M171.177 180.948C172.651 180.307 174.231 179.941 175.837 179.868C177.446 179.718 179.067 179.718 180.677 179.868C183.901 180.292 187.047 181.181 190.017 182.508C195.922 185.139 201.365 188.705 206.137 193.068C210.637 197.326 215.681 200.971 221.137 203.908C223.863 205.315 226.791 206.294 229.817 206.808C232.875 207.423 236.047 207.124 238.937 205.948C237.618 206.893 236.11 207.541 234.517 207.848C232.927 208.187 231.301 208.328 229.677 208.268C226.401 208.098 223.183 207.339 220.177 206.028C214.281 203.374 208.873 199.751 204.177 195.308C199.612 191.113 194.531 187.517 189.057 184.608C186.325 183.168 183.431 182.06 180.437 181.308C177.416 180.495 174.251 180.372 171.177 180.948V180.948Z" fill="#8D5A58"></path> <path d="M43.5166 193.988C48.8303 191.589 53.9175 188.718 58.7166 185.408C63.7147 182.159 69.087 179.527 74.7166 177.568C77.5524 176.6 80.4619 175.864 83.4166 175.368C86.4013 174.922 89.425 174.794 92.4366 174.988C98.4158 175.295 104.221 177.104 109.317 180.248C103.895 178.225 98.1426 177.235 92.3566 177.328C86.6464 177.462 80.9975 178.536 75.6366 180.508C70.1909 182.398 64.9181 184.753 59.8766 187.548C54.7837 190.516 49.2665 192.688 43.5166 193.988V193.988Z" fill="#8D5A58"></path> <path d="M248.277 178.868C250.439 179.212 252.632 179.312 254.817 179.168C256.803 179.009 258.719 178.364 260.397 177.288C261.992 176.099 263.349 174.62 264.397 172.928C264.977 172.048 265.457 171.068 266.017 170.128C266.577 169.188 266.957 168.128 267.557 167.068C267.576 168.236 267.536 169.404 267.437 170.568C267.198 171.727 266.884 172.869 266.497 173.988C265.602 176.334 264.02 178.356 261.957 179.788C259.824 181.202 257.256 181.805 254.717 181.488C252.364 181.246 250.13 180.337 248.277 178.868V178.868Z" fill="#8D5A58"></path> <path d="M256.177 206.008C258.716 206.854 261.348 207.391 264.017 207.608C266.475 207.83 268.946 207.366 271.157 206.268C271.69 206 272.199 205.686 272.677 205.328C273.188 204.99 273.658 204.594 274.077 204.148C275 203.283 275.832 202.324 276.557 201.288C277.277 200.248 277.917 199.068 278.557 197.948C279.197 196.828 279.757 195.508 280.557 194.288C280.557 195.668 280.237 197.068 280.017 198.468C279.63 199.835 279.142 201.172 278.557 202.468C277.277 205.187 275.179 207.439 272.557 208.908C269.824 210.265 266.7 210.612 263.737 209.888C260.917 209.286 258.309 207.947 256.177 206.008V206.008Z" fill="#8D5A58"></path> <path d="M196.097 110.508L193.557 108.368C182.737 99.3275 163.937 97.1275 163.737 97.1075L161.097 96.8075L163.277 95.2875C167.944 92.3546 173.345 90.8015 178.857 90.8075V92.8075C174.71 92.863 170.622 93.7897 166.857 95.5275C172.157 96.4275 183.737 98.9675 192.417 104.948L191.277 101.148L193.277 100.588L196.097 110.508Z" fill="#3B2122"></path> <path d="M93.9166 105.507L94.1966 101.747C94.1966 101.107 95.5166 85.7475 105.797 82.3275C120.957 77.3275 127.297 87.0475 127.377 87.1475L128.577 89.1475L126.357 88.7675C107.717 85.5675 96.1366 102.327 96.0166 102.487L93.9166 105.507ZM114.117 82.8675C111.5 82.9015 108.906 83.3609 106.437 84.2275C100.237 86.2275 97.7166 93.7875 96.7566 98.3475C100.957 93.7075 110.557 85.2675 123.997 86.3475C121.248 84.0037 117.727 82.7636 114.117 82.8675V82.8675Z" fill="#3B2122"></path> <path d="M229.997 158.767L227.037 158.247C231.637 132.367 225.697 116.927 225.637 116.767L228.437 115.667C228.697 116.327 234.737 132.067 229.997 158.767Z" fill="#281E20"></path> <path d="M70.5366 147.168C65.5766 115.168 70.7166 98.5275 70.9366 97.8275L72.9366 98.4475C72.9366 98.6075 67.7166 115.348 72.5766 146.848L70.5366 147.168Z" fill="#594857"></path> <path d="M60.0966 163.707C59.9566 163.707 46.2566 161.567 46.2766 140.747C46.2766 114.127 69.7766 112.747 70.0166 112.747L70.1566 115.747C69.2966 115.747 49.2966 117.027 49.2766 140.747C49.2766 158.967 60.3966 160.747 60.4966 160.747L60.0966 163.707Z" fill="#594857"></path> <path d="M62.4166 160.047C56.2766 130.047 65.2966 114.947 65.6966 114.307L67.3966 115.347C67.3966 115.507 58.4166 130.547 64.3766 159.647L62.4166 160.047Z" fill="#594857"></path> <path d="M237.437 133.868C234.417 103.248 228.997 88.9475 228.997 88.8075L231.797 87.7075C232.017 88.3075 237.457 102.468 240.517 133.568L237.437 133.868Z" fill="#594857"></path> <path d="M251.917 130.328C250.457 97.6075 243.297 82.3275 243.217 82.2075L245.937 80.8875C246.237 81.5275 253.417 96.7675 254.917 130.188L251.917 130.328Z" fill="#594857"></path> <path d="M242.997 130.368C239.297 99.1075 235.337 88.7275 235.297 88.6275L237.157 87.8875C237.337 88.3075 241.257 98.6275 244.977 130.148L242.997 130.368Z" fill="#594857"></path> <path d="M233.197 168.628C232.957 167.228 227.517 134.188 243.557 128.828C250.417 126.548 258.837 129.348 265.557 136.148C273.877 144.568 277.097 156.148 273.777 165.648L270.937 164.668C274.517 154.408 269.137 144.028 263.437 138.248C257.737 132.468 250.297 129.767 244.517 131.687C230.897 136.227 236.117 167.808 236.177 168.128L233.197 168.628Z" fill="#594857"></path> <path d="M241.837 174.067C240.022 164.692 239.664 155.092 240.777 145.607C242.777 132.067 249.037 128.547 250.657 128.667L250.537 129.667V130.667C250.537 130.667 244.717 132.667 242.737 145.907C241.692 155.161 242.043 164.518 243.777 173.667L241.837 174.067Z" fill="#594857"></path> <path d="M271.437 149.188C271.084 149.186 270.743 149.058 270.477 148.828C270.377 148.828 264.377 143.888 253.637 145.488C253.258 145.517 252.883 145.401 252.586 145.165C252.289 144.928 252.093 144.588 252.038 144.213C251.982 143.837 252.07 143.455 252.285 143.142C252.5 142.829 252.826 142.61 253.197 142.528C265.357 140.688 272.117 146.308 272.417 146.528C272.65 146.727 272.816 146.993 272.894 147.291C272.971 147.588 272.955 147.902 272.848 148.19C272.741 148.477 272.548 148.726 272.296 148.9C272.044 149.075 271.744 149.169 271.437 149.168V149.188Z" fill="#594857"></path> <path d="M263.537 158.008H263.437C260.265 157.676 257.068 157.676 253.897 158.008C253.524 158.057 253.146 157.964 252.839 157.748C252.531 157.532 252.315 157.209 252.235 156.842C252.154 156.474 252.215 156.09 252.404 155.765C252.593 155.441 252.898 155.199 253.257 155.088C256.704 154.673 260.189 154.673 263.637 155.088C264.033 155.118 264.401 155.303 264.663 155.602C264.925 155.901 265.059 156.291 265.037 156.688C264.992 157.053 264.815 157.39 264.538 157.634C264.262 157.877 263.905 158.01 263.537 158.008Z" fill="#594857"></path> <path d="M273.557 160.007C273.398 160.036 273.235 160.036 273.077 160.007L267.077 158.007C266.714 157.869 266.419 157.596 266.253 157.245C266.088 156.894 266.065 156.493 266.189 156.125C266.313 155.758 266.575 155.453 266.92 155.274C267.264 155.095 267.665 155.057 268.037 155.167L274.037 157.167C274.373 157.282 274.657 157.512 274.84 157.816C275.022 158.121 275.091 158.48 275.033 158.831C274.976 159.181 274.796 159.5 274.525 159.73C274.255 159.96 273.912 160.087 273.557 160.087V160.007Z" fill="#594857"></path> <path d="M48.2567 136.208C47.983 136.206 47.7151 136.129 47.4818 135.986C47.2485 135.843 47.0588 135.639 46.9331 135.396C46.8075 135.153 46.7507 134.881 46.769 134.608C46.7872 134.335 46.8798 134.072 47.0366 133.848C47.2366 133.548 49.2767 130.948 56.4767 128.108C56.848 127.962 57.262 127.969 57.6277 128.129C57.9934 128.288 58.2808 128.586 58.4267 128.958C58.5725 129.329 58.5649 129.743 58.4055 130.109C58.2461 130.474 57.948 130.762 57.5767 130.908C51.2367 133.388 49.4567 135.588 49.4567 135.608C49.3169 135.794 49.1358 135.945 48.9275 136.049C48.7192 136.153 48.4895 136.208 48.2567 136.208V136.208Z" fill="#594857"></path> <path d="M48.2566 146.008C48.0093 146.005 47.766 145.944 47.547 145.829C47.3279 145.715 47.1392 145.55 46.9966 145.348C46.8008 145.023 46.7354 144.636 46.8133 144.265C46.8912 143.894 47.1067 143.566 47.4166 143.348C50.2605 141.401 53.3127 139.777 56.5166 138.508C56.7078 138.431 56.9126 138.395 57.1184 138.4C57.3241 138.406 57.5267 138.453 57.7137 138.539C57.9007 138.625 58.0683 138.748 58.2063 138.901C58.3444 139.054 58.4499 139.233 58.5166 139.428C58.5957 139.618 58.6345 139.824 58.6305 140.03C58.6266 140.237 58.5799 140.441 58.4935 140.629C58.4071 140.816 58.2829 140.984 58.1285 141.122C57.9742 141.259 57.7931 141.363 57.5966 141.428C54.5879 142.566 51.7057 144.013 48.9966 145.748C48.7802 145.904 48.5232 145.994 48.2566 146.008V146.008Z" fill="#594857"></path> <path d="M50.9966 156.608C50.8041 156.61 50.6132 156.573 50.4347 156.501C50.2562 156.429 50.0937 156.323 49.9566 156.188C49.6757 155.906 49.5179 155.525 49.5179 155.128C49.5179 154.73 49.6757 154.349 49.9566 154.068C51.8223 152.187 54.1344 150.811 56.6766 150.068C57.0638 149.978 57.4709 150.045 57.8084 150.255C58.1459 150.465 58.3862 150.8 58.4766 151.188C58.5239 151.379 58.5323 151.579 58.5014 151.774C58.4704 151.969 58.4007 152.156 58.2963 152.324C58.1919 152.491 58.055 152.637 57.8936 152.751C57.7322 152.865 57.5496 152.945 57.3566 152.988C55.3775 153.606 53.579 154.698 52.1166 156.168C51.9684 156.311 51.793 156.424 51.6008 156.5C51.4085 156.575 51.2031 156.612 50.9966 156.608Z" fill="#594857"></path> <path d="M24.4566 177.688C22.0366 149.428 42.0566 145.568 42.2566 145.528L46.9966 144.708L43.6166 148.068C42.0694 149.404 41.053 151.251 40.752 153.273C40.4511 155.295 40.8856 157.358 41.9766 159.088C44.1766 162.408 49.6366 165.088 57.7566 161.868C72.2566 156.008 76.6166 121.868 76.6566 121.588L79.6366 121.948C79.4566 123.428 75.0166 158.148 58.8766 164.648C49.0766 168.648 42.2966 165.008 39.4766 160.748C38.4358 159.183 37.8139 157.378 37.6703 155.505C37.5268 153.631 37.8663 151.752 38.6566 150.048C33.5966 152.748 25.9766 159.768 27.4766 177.428L24.4566 177.688Z" fill="#3B2122"></path> <path d="M63.6966 176.267L60.9966 175.007C63.2966 169.987 65.6366 165.527 67.7166 161.607C73.7166 150.407 77.8766 142.327 77.0366 130.287C76.122 117.349 76.4099 104.353 77.8966 91.4673L80.8566 91.8873C79.4193 104.562 79.1449 117.342 80.0366 130.067C80.9366 142.967 76.2766 151.807 70.3566 163.007C68.1966 167.087 65.9566 171.307 63.6966 176.267Z" fill="#D88A66"></path> <path d="M138.997 218.508C104.257 218.508 88.5766 201.928 88.3766 201.708L89.8366 200.367C90.0966 200.627 115.517 227.368 173.997 211.488L174.517 213.488C162.952 216.728 151.007 218.416 138.997 218.508V218.508Z" fill="#3B2122"></path> <path d="M223.737 241.687C204.237 241.687 186.877 227.307 173.137 213.567C152.277 192.707 129.617 206.827 128.657 207.427L127.737 208.027L126.897 207.327C126.717 207.187 110.077 193.667 82.0766 205.067C56.8166 215.367 36.4166 219.407 27.4766 215.907C14.6166 210.847 10.5166 199.907 12.1366 191.387C13.7566 182.867 21.0966 174.727 33.9966 174.727H37.9966L34.9966 177.327C33.4566 178.747 29.2366 183.467 29.9166 186.547C30.2166 187.847 31.4566 188.867 33.6566 189.587C36.9966 190.647 42.4966 186.847 48.8566 182.447C66.4566 170.267 92.8566 151.927 129.677 187.627C179.477 158.227 208.197 181.247 223.677 193.627C228.697 197.627 233.037 201.127 235.317 200.387C236.293 200.196 237.206 199.765 237.974 199.133C238.742 198.501 239.341 197.688 239.717 196.767C240.597 193.707 237.717 189.487 236.637 188.127L233.897 184.887L238.057 185.687C248.597 187.687 256.057 195.987 257.377 207.407C258.206 213.592 257.039 219.88 254.046 225.355C251.053 230.83 246.39 235.207 240.737 237.847C235.413 240.338 229.614 241.647 223.737 241.687ZM147.737 199.327C156.057 199.327 165.897 202.087 175.277 211.447C200.457 236.627 220.297 243.947 239.597 235.147C244.661 232.761 248.836 228.827 251.518 223.912C254.2 218.998 255.25 213.358 254.517 207.807C254.174 203.872 252.764 200.104 250.438 196.911C248.112 193.718 244.958 191.22 241.317 189.687C242.773 192.083 243.273 194.94 242.717 197.687C242.225 199.097 241.381 200.358 240.264 201.349C239.147 202.339 237.795 203.028 236.337 203.347C232.517 204.587 228.077 201.007 221.897 196.067C205.897 183.187 178.937 161.647 130.317 190.867L129.317 191.467L128.477 190.647C93.1166 155.627 67.5766 173.287 50.6766 184.987C43.3566 190.047 37.5766 194.047 32.8366 192.507C29.5566 191.467 27.6166 189.687 27.0966 187.267C26.3766 184.007 28.4966 180.467 30.4366 178.047C26.7191 178.429 23.2229 179.996 20.4642 182.517C17.7056 185.038 15.8307 188.379 15.1166 192.047C13.8166 198.847 16.5566 208.487 28.5966 213.207C34.9566 215.707 52.0566 214.187 80.9566 202.387C107.417 191.607 124.117 201.687 127.997 204.387C134.067 201.138 140.832 199.403 147.717 199.327H147.737Z" fill="#3B2122"></path> <path d="M15.4166 205.768C15.2566 205.768 -0.583376 202.808 0.0166239 184.208C0.616624 165.608 14.9766 161.608 15.1166 161.568L19.3366 160.388L16.7166 163.908C10.4166 172.388 19.6166 180.268 19.9966 180.608L17.9966 182.908C14.5566 180.028 9.75663 173.428 11.9966 166.288C8.29663 168.688 3.19663 173.868 2.89663 184.288C2.43663 200.288 15.2766 202.707 15.8166 202.807L15.4166 205.768Z" fill="#3B2122"></path> <path d="M224.517 135.268C225.187 141.899 226.527 148.446 228.517 154.808C230.015 159.439 232.491 163.695 235.777 167.288C236.898 168.402 238.094 169.437 239.357 170.388C241.798 172.15 244.801 172.954 247.797 172.648C250.824 172.209 253.63 170.807 255.797 168.648C258.028 166.476 259.732 163.821 260.777 160.888C261.891 158.139 261.991 155.083 261.057 152.268L258.557 145.988L263.837 149.988C266.02 151.698 267.94 153.719 269.537 155.988C271.132 158.19 272.473 160.565 273.537 163.068C275.552 168.084 276.506 173.464 276.337 178.868C276.393 184.361 274.94 189.764 272.137 194.488C270.575 196.942 268.32 198.877 265.657 200.048C264.265 200.65 262.758 200.942 261.242 200.904C259.726 200.866 258.237 200.498 256.877 199.828L258.237 197.148C259.201 197.596 260.253 197.829 261.317 197.829C262.381 197.829 263.432 197.596 264.397 197.148C266.436 196.181 268.147 194.637 269.317 192.708C271.689 188.49 272.864 183.704 272.717 178.868C272.859 173.962 271.987 169.081 270.157 164.528C269.204 162.298 268.01 160.178 266.597 158.208C265.242 156.268 263.611 154.536 261.757 153.068L264.517 150.848C265.81 154.503 265.732 158.505 264.297 162.108C263.026 165.564 260.973 168.678 258.297 171.208C255.575 173.867 252.068 175.578 248.297 176.088C244.481 176.446 240.667 175.393 237.577 173.128C236.163 172.027 234.826 170.831 233.577 169.548C232.39 168.214 231.3 166.797 230.317 165.308C228.361 162.375 226.838 159.175 225.797 155.808C223.586 149.19 223.145 142.109 224.517 135.268Z" fill="#3B2122"></path> <path d="M251.777 187.747C253.997 190.787 255.777 193.748 257.777 196.508C259.633 199.279 262.166 201.53 265.137 203.048C267.697 204.408 270.537 202.588 272.697 200.128C274.853 197.487 276.593 194.533 277.857 191.367L279.197 188.148L280.957 191.068C282.892 194.325 284.41 197.812 285.477 201.448C286.581 205.092 287.14 208.879 287.137 212.688C287.101 216.558 286.306 220.384 284.797 223.948L283.577 226.568C283.077 227.408 282.517 228.188 281.997 229.008L281.197 230.208C280.917 230.588 280.577 230.948 280.277 231.308L278.277 233.448C275.647 236.14 272.707 238.51 269.517 240.508C266.285 242.585 262.699 244.05 258.937 244.828C251.397 246.368 242.737 244.308 237.637 237.968L239.997 236.128C242.211 238.582 245.097 240.335 248.297 241.168C251.56 242.07 254.997 242.146 258.297 241.388C261.624 240.624 264.788 239.269 267.637 237.388C270.554 235.534 273.24 233.338 275.637 230.848L277.337 228.948C277.617 228.608 277.917 228.308 278.157 227.968L278.857 226.908C279.317 226.208 279.797 225.508 280.237 224.788L281.297 222.488C282.591 219.367 283.27 216.026 283.297 212.648C283.227 205.727 281.374 198.942 277.917 192.948L280.997 192.648C279.538 196.158 277.548 199.423 275.097 202.328C273.751 203.872 272.104 205.124 270.257 206.008C269.751 206.216 269.229 206.383 268.697 206.508C268.141 206.604 267.58 206.671 267.017 206.708C266.437 206.708 265.877 206.588 265.317 206.508C264.782 206.363 264.261 206.176 263.757 205.948C260.293 204.161 257.351 201.508 255.217 198.247C253.05 195.168 251.852 191.512 251.777 187.747V187.747Z" fill="#3B2122"></path> <path d="M210.617 184.968L207.637 184.688C207.921 181.086 208.591 177.526 209.637 174.068C210.817 170.068 211.937 166.228 211.937 151.748C211.937 127.748 219.417 115.908 219.737 115.408L222.277 117.028C222.277 117.148 214.937 128.808 214.937 151.748C214.937 166.668 213.757 170.668 212.517 174.908C211.529 178.184 210.892 181.557 210.617 184.968Z" fill="#3B2122"></path> <path d="M212.397 170.508C214.428 171.716 216.273 173.211 217.877 174.948C219.441 176.61 220.879 178.389 222.177 180.268C223.476 182.129 224.665 184.066 225.737 186.068L227.277 189.087L228.677 192.188L227.057 189.208L225.317 186.328C224.089 184.433 222.753 182.61 221.317 180.868C219.928 179.135 218.403 177.517 216.757 176.028C215.183 174.557 213.413 173.312 211.497 172.328L212.397 170.508Z" fill="#3B2122"></path> <path d="M73.3966 80.2273L70.3966 79.9673C70.3966 79.4073 71.5766 65.8273 74.1366 59.4473L76.9966 60.5073C74.5166 66.5073 73.3966 80.0873 73.3966 80.2273Z" fill="#594857"></path> <path d="M80.5765 59.6064L77.9093 69.6586L80.809 70.4279L83.4761 60.3758L80.5765 59.6064Z" fill="#594857"></path> <path d="M226.137 117.728C219.857 117.728 210.417 115.468 197.657 106.488L193.657 103.708C174.197 89.9277 161.337 80.8077 134.557 78.5077C104.777 75.9277 83.5366 84.5077 67.6766 105.408C62.3966 112.388 58.2166 113.048 55.6766 112.348C54.3861 111.879 53.2514 111.061 52.3992 109.985C51.5471 108.909 51.0111 107.616 50.8513 106.253C50.6915 104.89 50.9142 103.508 51.4944 102.264C52.0746 101.02 52.9894 99.9617 54.1366 99.2077C57.7566 97.2077 67.5766 83.4877 73.4566 75.3077C75.8966 71.9077 77.9966 68.9877 79.2966 67.3077C84.5166 60.7277 123.137 49.5877 162.017 57.3077C200.577 64.8877 228.997 94.8877 232.997 102.268C236.317 108.268 238.617 112.888 235.477 115.428C232.656 117.094 229.408 117.894 226.137 117.728V117.728ZM124.997 75.0677C128.197 75.0677 131.477 75.2277 134.857 75.5077C162.457 77.8877 175.597 87.1877 195.457 101.248L199.457 104.028C219.657 118.268 231.657 114.808 233.757 113.108C234.737 112.288 233.757 109.488 230.537 103.748C226.677 96.8877 198.537 67.5277 161.557 60.2277C124.077 52.8277 85.9966 63.8677 81.7766 69.1877C80.5166 70.7877 78.4366 73.6877 76.0166 77.0477C67.2166 89.3077 59.6166 99.6477 55.7166 101.808C55.0954 102.274 54.6067 102.894 54.299 103.608C53.9912 104.321 53.875 105.102 53.9619 105.874C54.0488 106.645 54.3357 107.381 54.7943 108.008C55.2529 108.635 55.8673 109.131 56.5766 109.448C58.8966 110.068 62.1366 107.948 65.4166 103.608C79.8366 84.5077 99.4166 75.0677 124.997 75.0677Z" fill="#281E20"></path> <path d="M78.4366 61.9475C72.8766 61.9475 70.2166 59.9475 69.4566 58.0875C68.6966 56.2275 66.7166 44.9675 67.9766 41.0475C70.9972 33.1085 74.8521 25.5126 79.4766 18.3875C80.297 17.1717 81.5603 16.3247 82.9966 16.0275C83.2928 15.9804 83.5776 15.8787 83.8366 15.7275L85.6966 18.0675C85.1053 18.5049 84.4208 18.7992 83.6966 18.9275C83.3218 18.9837 82.9634 19.12 82.6459 19.3271C82.3284 19.5341 82.0592 19.8072 81.8566 20.1275C77.4214 27.0068 73.7084 34.3256 70.7766 41.9675C69.7766 45.0275 71.6566 55.7075 72.1766 56.9275C72.8566 58.5675 78.5566 60.7075 90.9566 56.3475C104.957 51.4475 123.997 47.9875 134.537 48.5075C144.537 48.9875 146.537 48.1275 150.657 43.9475L152.777 46.0675C147.957 50.8875 145.297 52.0675 134.397 51.5075C124.197 51.0075 105.557 54.3875 91.9566 59.1675C87.6341 60.8335 83.0658 61.7728 78.4366 61.9475V61.9475Z" fill="#594857"></path> <path d="M171.177 48.2475C167.637 48.0475 149.877 46.9475 147.557 46.2475C146.961 46.0211 146.438 45.6374 146.044 45.1372C145.65 44.6371 145.398 44.0393 145.317 43.4075C145.024 42.0071 145.019 40.562 145.301 39.1594C145.582 37.7569 146.146 36.4261 146.957 35.2475C147.057 35.2475 156.517 26.1275 162.197 25.8275C166.837 25.5675 177.877 28.0075 178.357 28.1075L177.697 31.0275C177.577 31.0275 166.597 28.5475 162.357 28.8075C158.857 29.0075 151.437 35.0275 149.077 37.3875C148.316 38.7439 147.981 40.2981 148.117 41.8475C148.117 42.9075 148.437 43.3475 148.537 43.4075C149.837 43.8475 161.277 44.7275 171.357 45.4075L171.177 48.2475Z" fill="#594857"></path> <path d="M150.517 37.6075C157.856 37.0663 165.232 37.8798 172.277 40.0075C164.938 40.5196 157.567 39.7067 150.517 37.6075V37.6075Z" fill="#594857"></path> <path d="M148.317 12.3475C145.597 10.8092 142.793 9.42701 139.917 8.20752C138.929 7.98485 137.904 7.98485 136.917 8.20752L136.117 5.30753C137.601 4.94388 139.152 4.94388 140.637 5.30753C143.753 6.59651 146.791 8.06565 149.737 9.70752L148.317 12.3475Z" fill="#594857"></path> <path d="M160.777 27.4475C160.543 24.3727 159.821 21.3547 158.637 18.5075C157.085 17.2862 155.417 16.2211 153.657 15.3275L155.157 12.7275C160.037 15.5275 160.677 16.2675 160.917 16.5475C162.577 18.5475 163.517 25.1075 163.757 27.0875L160.777 27.4475Z" fill="#594857"></path> <path d="M84.7766 20.7275L84.2166 19.7475C83.7863 18.8768 83.5625 17.9187 83.5625 16.9475C83.5625 15.9763 83.7863 15.0182 84.2166 14.1475C86.4366 9.12751 93.9766 5.12751 106.657 2.28751C120.297 -0.772494 129.217 -0.752494 133.937 2.28751C135.036 3.04314 135.961 4.02447 136.651 5.16602C137.34 6.30758 137.779 7.58311 137.937 8.90751L138.217 10.3675L136.757 10.6475C136.597 10.6475 122.197 13.5075 111.737 15.4075C91.0766 19.1675 85.8566 20.3675 85.7366 20.3875L84.7766 20.7275ZM123.637 3.00751C118.146 3.16673 112.689 3.91093 107.357 5.22751C92.1766 8.62751 88.1166 12.9675 87.0366 15.2275C86.7408 15.8517 86.5969 16.5371 86.6166 17.2275C89.2366 16.6675 96.0566 15.2275 111.257 12.5275C119.697 10.9875 130.717 8.86751 134.697 8.08751C134.337 6.75818 133.496 5.61025 132.337 4.86751C129.668 3.44572 126.654 2.8013 123.637 3.00751Z" fill="#594857"></path> <path d="M86.0166 14.0075C94.0166 12.0075 102.017 10.4675 110.017 8.86748L134.017 4.16748C126.375 7.12027 118.474 9.35003 110.417 10.8275C102.367 12.4516 94.2138 13.5142 86.0166 14.0075V14.0075Z" fill="#594857"></path> <path d="M130.777 14.0076C133.902 18.4554 135.874 23.6096 136.517 29.0076C134.922 26.8173 133.643 24.4138 132.717 21.8676C131.713 19.3489 131.06 16.7041 130.777 14.0076V14.0076Z" fill="#594857"></path> <path d="M157.777 19.0076C156.617 20.2688 155.307 21.3837 153.877 22.3276C152.497 23.3076 151.037 24.1676 149.577 25.0076C146.644 26.7006 143.523 28.0432 140.277 29.0076C142.841 26.7987 145.637 24.8741 148.617 23.2676C150.077 22.4676 151.557 21.6676 153.097 20.9676C154.637 20.2676 156.197 19.6476 157.777 19.0076Z" fill="#594857"></path> <path d="M138.517 33.0075C141.174 37.108 142.649 41.8627 142.777 46.7475C141.407 44.7389 140.367 42.5243 139.697 40.1875C138.941 37.8681 138.543 35.4469 138.517 33.0075Z" fill="#594857"></path> <path d="M71.8966 42.5075C77.0966 41.1875 82.3566 40.0675 87.6166 39.0075C92.8766 37.9475 98.1366 37.0075 103.417 36.0275C108.697 35.0475 113.977 34.2475 119.297 33.5075L127.297 32.4075C129.977 32.1075 132.637 31.7475 135.297 31.5075C132.697 32.1875 130.057 32.7475 127.457 33.3675L119.577 35.0075C114.337 36.1075 109.057 37.0075 103.777 37.9875C98.4966 38.9675 93.1966 39.7675 87.8966 40.5075C82.5966 41.2475 77.2566 41.9875 71.8966 42.5075Z" fill="#594857"></path> <path d="M151.777 16.2675C150.887 16.2675 150.018 16.004 149.279 15.5104C148.539 15.0169 147.962 14.3152 147.621 13.4941C147.28 12.673 147.19 11.7693 147.362 10.8969C147.534 10.0245 147.96 9.22267 148.588 8.59254C149.215 7.96242 150.015 7.53226 150.886 7.35637C151.758 7.18049 152.662 7.26676 153.485 7.60429C154.307 7.94182 155.012 8.51548 155.508 9.25287C156.005 9.99025 156.273 10.8583 156.277 11.7475C156.277 12.9428 155.803 14.0894 154.96 14.9365C154.116 15.7836 152.972 16.2622 151.777 16.2675ZM151.777 9.26746C151.281 9.26748 150.797 9.41462 150.386 9.69021C149.974 9.96581 149.654 10.3574 149.465 10.8154C149.276 11.2734 149.228 11.7771 149.326 12.2626C149.424 12.7481 149.664 13.1935 150.016 13.5423C150.368 13.8911 150.815 14.1276 151.301 14.2218C151.787 14.316 152.291 14.2637 152.747 14.0714C153.204 13.8791 153.593 13.5555 153.865 13.1418C154.137 12.728 154.281 12.2427 154.277 11.7475C154.271 11.0879 154.006 10.4571 153.537 9.99261C153.069 9.52808 152.436 9.26744 151.777 9.26746V9.26746Z" fill="#594857"></path> <path d="M202.857 40.3475C201.967 40.3475 201.097 40.0836 200.357 39.5891C199.617 39.0947 199.04 38.3919 198.699 37.5696C198.359 36.7473 198.27 35.8425 198.443 34.9696C198.617 34.0967 199.045 33.2949 199.675 32.6656C200.304 32.0362 201.106 31.6076 201.979 31.434C202.852 31.2604 203.756 31.3495 204.579 31.6901C205.401 32.0307 206.104 32.6074 206.598 33.3475C207.093 34.0875 207.357 34.9575 207.357 35.8475C207.357 37.041 206.883 38.1856 206.039 39.0295C205.195 39.8734 204.05 40.3475 202.857 40.3475ZM202.857 33.3475C202.362 33.3475 201.879 33.4942 201.468 33.7689C201.057 34.0436 200.736 34.434 200.547 34.8908C200.358 35.3476 200.308 35.8503 200.405 36.3353C200.501 36.8202 200.739 37.2657 201.089 37.6153C201.439 37.9649 201.884 38.203 202.369 38.2995C202.854 38.396 203.357 38.3465 203.813 38.1572C204.27 37.968 204.661 37.6476 204.935 37.2365C205.21 36.8253 205.357 36.342 205.357 35.8475C205.357 35.1845 205.093 34.5486 204.624 34.0798C204.156 33.6109 203.52 33.3475 202.857 33.3475V33.3475Z" fill="#594857"></path> <path d="M220.997 51.2675C220.107 51.2675 219.238 51.0041 218.499 50.5105C217.759 50.0169 217.182 49.3153 216.841 48.4942C216.5 47.6731 216.41 46.7693 216.582 45.8969C216.754 45.0246 217.18 44.2227 217.808 43.5926C218.435 42.9625 219.235 42.5323 220.106 42.3564C220.978 42.1806 221.882 42.2668 222.705 42.6044C223.527 42.9419 224.232 43.5155 224.728 44.2529C225.225 44.9903 225.493 45.8584 225.497 46.7475C225.497 47.9428 225.023 49.0895 224.18 49.9366C223.336 50.7837 222.192 51.2622 220.997 51.2675ZM220.997 44.2675C220.501 44.2675 220.017 44.4147 219.606 44.6903C219.194 44.9659 218.874 45.3575 218.685 45.8155C218.496 46.2735 218.448 46.7772 218.546 47.2626C218.644 47.7481 218.884 48.1936 219.236 48.5424C219.588 48.8912 220.035 49.1277 220.521 49.2219C221.007 49.3161 221.511 49.2637 221.967 49.0714C222.424 48.8791 222.813 48.5556 223.085 48.1419C223.357 47.7281 223.501 47.2428 223.497 46.7475C223.491 46.088 223.226 45.4572 222.757 44.9927C222.289 44.5281 221.656 44.2675 220.997 44.2675V44.2675Z" fill="#594857"></path> <path d="M192.857 26.0076C191.967 26.0076 191.097 25.7437 190.357 25.2492C189.617 24.7547 189.04 24.0519 188.699 23.2296C188.359 22.4074 188.27 21.5026 188.443 20.6297C188.617 19.7567 189.045 18.9549 189.675 18.3256C190.304 17.6963 191.106 17.2677 191.979 17.094C192.852 16.9204 193.756 17.0095 194.579 17.3501C195.401 17.6907 196.104 18.2675 196.598 19.0075C197.093 19.7475 197.357 20.6176 197.357 21.5076C197.357 22.701 196.883 23.8456 196.039 24.6896C195.195 25.5335 194.05 26.0076 192.857 26.0076V26.0076ZM192.857 19.0076C192.362 19.0076 191.879 19.1542 191.468 19.4289C191.057 19.7036 190.736 20.094 190.547 20.5509C190.358 21.0077 190.308 21.5103 190.405 21.9953C190.501 22.4802 190.739 22.9257 191.089 23.2753C191.439 23.625 191.884 23.8631 192.369 23.9595C192.854 24.056 193.357 24.0065 193.813 23.8173C194.27 23.6281 194.661 23.3076 194.935 22.8965C195.21 22.4854 195.357 22.002 195.357 21.5076C195.357 20.8445 195.093 20.2086 194.624 19.7398C194.156 19.271 193.52 19.0076 192.857 19.0076V19.0076Z" fill="#594857"></path> <path d="M239.777 61.4473C238.887 61.4473 238.017 61.1833 237.277 60.6889C236.537 60.1944 235.96 59.4916 235.619 58.6693C235.279 57.8471 235.189 56.9423 235.363 56.0694C235.537 55.1964 235.965 54.3946 236.595 53.7653C237.224 53.136 238.026 52.7074 238.899 52.5337C239.772 52.3601 240.676 52.4492 241.499 52.7898C242.321 53.1304 243.024 53.7072 243.518 54.4472C244.013 55.1872 244.277 56.0573 244.277 56.9473C244.277 58.1407 243.803 59.2853 242.959 60.1292C242.115 60.9732 240.97 61.4473 239.777 61.4473ZM239.777 54.4473C239.282 54.4473 238.799 54.5939 238.388 54.8686C237.977 55.1433 237.656 55.5337 237.467 55.9906C237.278 56.4474 237.228 56.95 237.325 57.435C237.421 57.9199 237.659 58.3654 238.009 58.715C238.358 59.0647 238.804 59.3028 239.289 59.3992C239.774 59.4957 240.277 59.4462 240.733 59.257C241.19 59.0677 241.581 58.7473 241.855 58.3362C242.13 57.9251 242.277 57.4417 242.277 56.9473C242.261 56.2947 241.991 55.6741 241.524 55.2182C241.056 54.7622 240.429 54.5071 239.777 54.5073V54.4473Z" fill="#594857"></path> <path d="M250.497 60.9277V58.9277C251.16 58.9277 251.796 58.6643 252.264 58.1955C252.733 57.7267 252.997 57.0908 252.997 56.4277C252.997 55.7647 252.733 55.1288 252.264 54.66C251.796 54.1911 251.16 53.9277 250.497 53.9277V51.9277C251.69 51.9277 252.835 52.4018 253.679 53.2458C254.522 54.0897 254.997 55.2343 254.997 56.4277C254.997 57.6212 254.522 58.7658 253.679 59.6097C252.835 60.4536 251.69 60.9277 250.497 60.9277V60.9277Z" fill="#594857"></path> <path d="M141.657 21.3874C140.767 21.3874 139.897 21.1235 139.157 20.6291C138.417 20.1346 137.84 19.4318 137.499 18.6095C137.159 17.7873 137.069 16.8825 137.243 16.0095C137.417 15.1366 137.845 14.3348 138.475 13.7055C139.104 13.0761 139.906 12.6476 140.779 12.4739C141.652 12.3003 142.556 12.3894 143.379 12.73C144.201 13.0706 144.904 13.6474 145.398 14.3874C145.893 15.1274 146.157 15.9974 146.157 16.8874C146.159 17.4791 146.045 18.0655 145.819 18.6127C145.594 19.1598 145.263 19.6569 144.844 20.0753C144.426 20.4937 143.929 20.8251 143.382 21.0503C142.835 21.2755 142.248 21.3901 141.657 21.3874V21.3874ZM141.657 14.3874C141.162 14.3874 140.679 14.5341 140.268 14.8088C139.857 15.0835 139.536 15.4739 139.347 15.9307C139.158 16.3876 139.108 16.8902 139.205 17.3752C139.301 17.8601 139.539 18.3056 139.889 18.6552C140.238 19.0048 140.684 19.243 141.169 19.3394C141.654 19.4359 142.157 19.3864 142.613 19.1971C143.07 19.0079 143.461 18.6875 143.735 18.2764C144.01 17.8653 144.157 17.3819 144.157 16.8874C144.157 16.2244 143.893 15.5885 143.424 15.1197C142.956 14.6508 142.32 14.3874 141.657 14.3874V14.3874Z" fill="#594857"></path> <path d="M124.017 25.1274C123.127 25.1274 122.257 24.8635 121.517 24.3691C120.777 23.8746 120.2 23.1718 119.859 22.3495C119.519 21.5273 119.429 20.6225 119.603 19.7495C119.777 18.8766 120.205 18.0748 120.835 17.4455C121.464 16.8161 122.266 16.3875 123.139 16.2139C124.012 16.0403 124.916 16.1294 125.739 16.47C126.561 16.8106 127.264 17.3874 127.758 18.1274C128.253 18.8674 128.517 19.7374 128.517 20.6274C128.517 21.8209 128.043 22.9655 127.199 23.8094C126.355 24.6533 125.21 25.1274 124.017 25.1274V25.1274ZM124.017 18.1274C123.522 18.1274 123.039 18.2741 122.628 18.5488C122.217 18.8235 121.896 19.2139 121.707 19.6707C121.518 20.1276 121.468 20.6302 121.565 21.1152C121.661 21.6001 121.899 22.0456 122.249 22.3952C122.598 22.7448 123.044 22.9829 123.529 23.0794C124.014 23.1759 124.517 23.1264 124.973 22.9371C125.43 22.7479 125.821 22.4275 126.095 22.0164C126.37 21.6052 126.517 21.1219 126.517 20.6274C126.517 19.9644 126.253 19.3285 125.784 18.8597C125.316 18.3908 124.68 18.1274 124.017 18.1274V18.1274Z" fill="#594857"></path> <path d="M105.157 27.8874C104.267 27.8874 103.397 27.6235 102.657 27.1291C101.917 26.6346 101.34 25.9318 100.999 25.1095C100.659 24.2873 100.569 23.3825 100.743 22.5095C100.917 21.6366 101.345 20.8348 101.975 20.2055C102.604 19.5761 103.406 19.1476 104.279 18.9739C105.152 18.8003 106.056 18.8894 106.879 19.23C107.701 19.5706 108.404 20.1474 108.898 20.8874C109.393 21.6274 109.657 22.4974 109.657 23.3874C109.657 24.5809 109.183 25.7255 108.339 26.5694C107.495 27.4133 106.35 27.8874 105.157 27.8874V27.8874ZM105.157 20.8874C104.662 20.8874 104.179 21.0341 103.768 21.3088C103.357 21.5835 103.036 21.9739 102.847 22.4307C102.658 22.8876 102.608 23.3902 102.705 23.8752C102.801 24.3601 103.039 24.8056 103.389 25.1552C103.738 25.5048 104.184 25.743 104.669 25.8394C105.154 25.9359 105.657 25.8864 106.113 25.6971C106.57 25.5079 106.961 25.1875 107.235 24.7764C107.51 24.3653 107.657 23.8819 107.657 23.3874C107.657 22.7244 107.393 22.0885 106.924 21.6197C106.456 21.1508 105.82 20.8874 105.157 20.8874V20.8874Z" fill="#594857"></path> <path d="M86.0166 30.8874C85.1266 30.8874 84.2566 30.6235 83.5165 30.1291C82.7765 29.6346 82.1997 28.9318 81.8592 28.1095C81.5186 27.2873 81.4294 26.3825 81.6031 25.5095C81.7767 24.6366 82.2053 23.8348 82.8346 23.2055C83.464 22.5761 84.2658 22.1476 85.1387 21.9739C86.0116 21.8003 86.9164 21.8894 87.7387 22.23C88.561 22.5706 89.2638 23.1474 89.7582 23.8874C90.2527 24.6274 90.5166 25.4974 90.5166 26.3874C90.5166 27.5809 90.0425 28.7255 89.1986 29.5694C88.3547 30.4133 87.2101 30.8874 86.0166 30.8874V30.8874ZM86.0166 23.8874C85.5222 23.8874 85.0388 24.0341 84.6277 24.3088C84.2166 24.5835 83.8961 24.9739 83.7069 25.4307C83.5177 25.8876 83.4682 26.3902 83.5646 26.8752C83.6611 27.3601 83.8992 27.8056 84.2488 28.1552C84.5985 28.5048 85.0439 28.743 85.5289 28.8394C86.0138 28.9359 86.5165 28.8864 86.9733 28.6971C87.4301 28.5079 87.8206 28.1875 88.0953 27.7764C88.37 27.3653 88.5166 26.8819 88.5166 26.3874C88.5166 25.7244 88.2532 25.0885 87.7844 24.6197C87.3155 24.1508 86.6797 23.8874 86.0166 23.8874V23.8874Z" fill="#594857"></path> <path d="M195.117 20.2875L194.037 17.4875C199.737 15.2675 204.197 14.3275 207.277 14.6675L206.997 17.6475C202.891 17.6504 198.837 18.5514 195.117 20.2875V20.2875Z" fill="#594857"></path> <path d="M233.137 91.2475C232.316 91.2555 231.513 91.0111 230.837 90.5475C230.617 90.3875 208.237 74.8475 182.837 60.8275C182.017 60.3675 181.177 59.9475 180.337 59.5075C174.637 56.5875 168.157 53.2875 170.857 43.2875C173.337 34.1075 176.857 26.6875 179.357 24.7875C182.449 22.856 185.67 21.1387 188.997 19.6475L190.257 22.3675C187.062 23.7718 183.967 25.3957 180.997 27.2275C179.857 28.0475 176.557 33.2275 173.637 44.0675C171.637 51.7275 175.977 54.0675 181.637 56.8475C182.497 57.2875 183.377 57.7275 184.217 58.1875C209.797 72.1875 232.217 87.9275 232.537 88.1875C234.737 89.7075 242.097 82.0475 244.877 79.1475C245.677 78.3075 246.397 77.5875 246.877 77.0275C249.717 74.2675 249.617 51.5675 247.577 49.1875L249.577 47.0275C251.697 49.0275 251.977 57.6875 251.997 61.3275C252.017 64.9675 251.857 76.2875 248.897 79.1875C248.337 79.7075 247.657 80.4275 246.897 81.1875C242.857 85.5075 237.337 91.2475 233.137 91.2475Z" fill="#594857"></path> <path d="M247.457 49.7875C246.772 49.7878 246.093 49.6589 245.457 49.4075L245.217 49.2875C236.297 43.9075 206.997 26.2675 205.797 25.0675C203.917 23.1875 204.357 16.9475 206.537 14.2875C209.277 10.9475 214.957 8.00752 232.537 21.1275L239.837 26.5075C250.797 34.6275 251.457 35.1075 252.137 38.5075C252.717 41.3275 252.677 46.6275 250.137 48.8075C249.389 49.4446 248.438 49.7923 247.457 49.7875V49.7875ZM246.657 46.6475C247.657 46.9675 248.017 46.6475 248.177 46.5275C249.397 45.4875 249.717 41.6875 249.197 39.1075C248.757 36.9275 248.757 36.8475 238.057 28.9275L230.797 23.5475C219.277 14.9675 211.897 12.4875 208.797 16.1875C208.199 17.2029 207.81 18.3272 207.652 19.4948C207.494 20.6624 207.57 21.8498 207.877 22.9875C209.237 24.0475 231.777 37.6875 246.657 46.6475V46.6475Z" fill="#594857"></path> <path d="M210.017 15.2675C209.711 16.2982 209.629 17.3825 209.777 18.4475C210.047 19.4423 210.655 20.312 211.497 20.9075C213.237 22.197 215.076 23.3473 216.997 24.3475C220.877 26.3475 224.657 28.7675 228.357 31.1275C232.057 33.4875 235.737 35.9275 239.357 38.4275L244.817 42.1275L247.557 43.9675L248.957 44.8275C249.403 45.1401 249.906 45.3642 250.437 45.4875C249.335 45.3258 248.271 44.9667 247.297 44.4275C246.297 43.9675 245.297 43.4675 244.317 42.9675C242.317 41.9075 240.457 40.8275 238.537 39.7275C234.717 37.5275 230.997 35.1475 227.277 32.8075L216.217 25.6475C214.309 24.4752 212.509 23.1367 210.837 21.6475C209.963 20.8313 209.404 19.7341 209.257 18.5475C209.222 17.4068 209.484 16.2767 210.017 15.2675V15.2675Z" fill="#594857"></path> <path d="M173.517 48.2875C174.635 46.0844 176.077 44.0618 177.797 42.2875C179.453 40.45 181.382 38.8783 183.517 37.6275C182.413 39.8346 180.977 41.8584 179.257 43.6275C177.589 45.4609 175.654 47.0319 173.517 48.2875V48.2875Z" fill="#594857"></path> <path d="M186.197 38.6675C191.337 41.5275 196.377 44.5475 201.397 47.6075C206.417 50.6675 211.397 53.8275 216.317 57.0075C221.237 60.1875 226.157 63.4275 230.977 66.7875L238.217 71.8075C240.597 73.5475 243.017 75.2275 245.357 77.0075C242.777 75.6075 240.257 74.0875 237.697 72.6275L230.137 68.0675C225.117 65.0275 220.137 61.8475 215.237 58.6675C210.337 55.4875 205.397 52.2475 200.557 48.8875C195.717 45.5275 190.997 42.2075 186.197 38.6675Z" fill="#594857"></path> <path d="M186.197 34.8476C188.41 32.3217 190.969 30.1201 193.797 28.3076C196.565 26.3954 199.625 24.9433 202.857 24.0076C200.323 26.1786 197.65 28.1828 194.857 30.0076C192.112 31.863 189.215 33.4822 186.197 34.8476V34.8476Z" fill="#594857"></path> <path d="M115.217 151.167C107.377 151.167 101.017 143.607 101.017 134.327C101.017 125.047 107.377 117.467 115.217 117.467C123.057 117.467 129.397 125.027 129.397 134.327C129.397 143.627 122.997 151.167 115.217 151.167ZM115.217 119.467C108.497 119.467 103.017 126.127 103.017 134.327C103.017 142.527 108.497 149.167 115.217 149.167C121.937 149.167 127.397 142.507 127.397 134.327C127.397 126.147 121.937 119.467 115.217 119.467Z" fill="#301D15"></path> <path d="M177.477 155.128C169.717 155.128 163.477 147.568 163.477 138.268C163.477 128.968 169.797 121.428 177.477 121.428C185.157 121.428 191.477 128.988 191.477 138.268C191.477 147.548 185.257 155.128 177.477 155.128ZM177.477 123.428C170.817 123.428 165.477 130.088 165.477 138.268C165.477 146.448 170.897 153.128 177.477 153.128C184.057 153.128 189.477 146.468 189.477 138.268C189.477 130.068 184.157 123.428 177.477 123.428V123.428Z" fill="#301D15"></path> <path d="M115.777 172.747C116.799 168.722 118.79 165.008 121.577 161.927C123.035 160.33 124.832 159.079 126.837 158.267C128.928 157.482 131.208 157.35 133.377 157.887C135.462 158.477 137.403 159.491 139.077 160.867C140.708 162.165 142.202 163.626 143.537 165.227C146.149 168.391 148.329 171.888 150.017 175.627C147.701 172.332 145.148 169.21 142.377 166.287C141.017 164.826 139.532 163.487 137.937 162.287C136.442 161.098 134.72 160.227 132.877 159.727C131.096 159.251 129.213 159.328 127.477 159.947C125.684 160.602 124.043 161.616 122.657 162.927C119.786 165.756 117.455 169.084 115.777 172.747V172.747Z" fill="#D88A66"></path> <path d="M127.397 159.068C129.443 156.121 130.991 152.857 131.977 149.408C132.94 146.009 133.451 142.499 133.497 138.968C133.51 137.196 133.403 135.425 133.177 133.668C133.001 131.9 132.727 130.144 132.357 128.408C132.017 126.648 131.457 124.947 131.037 123.188C130.617 121.428 129.897 119.768 129.397 118.008C130.297 119.588 131.137 121.208 131.957 122.848C132.777 124.488 133.377 126.248 133.957 128.028C135.022 131.584 135.574 135.275 135.597 138.988C135.566 142.716 134.89 146.411 133.597 149.908C132.283 153.408 130.158 156.547 127.397 159.068V159.068Z" fill="#D88A66"></path> <path d="M162.317 116.228C162.743 114.438 163.617 112.787 164.857 111.428C166.076 110.004 167.591 108.865 169.297 108.088C170.985 107.309 172.818 106.893 174.677 106.868C175.593 106.84 176.51 106.894 177.417 107.028C178.297 107.216 179.165 107.456 180.017 107.748C179.117 107.908 178.237 107.908 177.377 108.008C176.517 108.108 175.677 108.188 174.857 108.408L173.617 108.668L172.437 109.028C171.647 109.258 170.878 109.552 170.137 109.908C168.625 110.595 167.212 111.483 165.937 112.548C164.603 113.642 163.389 114.876 162.317 116.228V116.228Z" fill="#D88A66"></path> <path d="M155.937 152.228C158.192 155.721 161.173 158.688 164.677 160.928C166.402 161.996 168.285 162.785 170.257 163.268C172.297 163.78 174.378 164.115 176.477 164.268C174.365 164.899 172.144 165.083 169.957 164.808C167.721 164.556 165.569 163.811 163.657 162.628C161.737 161.465 160.065 159.936 158.737 158.128C157.397 156.381 156.443 154.37 155.937 152.228Z" fill="#D88A66"></path> <path d="M109.277 157.908C113.741 157.18 118.1 155.911 122.257 154.128C124.299 153.235 126.249 152.143 128.077 150.868C129.946 149.559 131.711 148.108 133.357 146.528C132.293 148.639 130.833 150.527 129.057 152.088C127.278 153.689 125.252 154.993 123.057 155.948C120.888 156.91 118.601 157.582 116.257 157.948C113.943 158.312 111.586 158.298 109.277 157.908Z" fill="#D88A66"></path> <path d="M97.2766 111.868C98.3517 109.73 99.8725 107.848 101.737 106.348C105.489 103.261 110.143 101.478 114.997 101.268C116.182 101.188 117.371 101.188 118.557 101.268C119.729 101.416 120.891 101.636 122.037 101.928C120.857 102.088 119.697 102.108 118.557 102.248C117.417 102.388 116.277 102.488 115.177 102.748L113.497 103.048L111.877 103.488C110.789 103.758 109.72 104.099 108.677 104.508C106.576 105.3 104.564 106.312 102.677 107.528C100.733 108.785 98.9231 110.24 97.2766 111.868V111.868Z" fill="#D88A66"></path> <path d="M202.517 130.267C203.676 129.299 205.046 128.614 206.517 128.267C208.008 127.842 209.58 127.787 211.097 128.107C209.909 129.099 208.517 129.816 207.02 130.206C205.522 130.597 203.957 130.652 202.437 130.367L202.517 130.267Z" fill="#D88A66"></path> <path d="M202.517 140.008C203.494 139.34 204.653 138.991 205.837 139.008C207.016 138.974 208.174 139.325 209.137 140.008C208.174 140.69 207.016 141.041 205.837 141.008C204.653 141.024 203.494 140.675 202.517 140.008V140.008Z" fill="#D88A66"></path> <path d="M200.777 145.667C202.432 145.839 204.029 146.372 205.457 147.227C206.917 148.036 208.175 149.164 209.137 150.527C207.478 150.371 205.877 149.838 204.457 148.967C202.997 148.159 201.739 147.031 200.777 145.667V145.667Z" fill="#D88A66"></path> <path d="M83.7766 137.348C83.8165 136.832 83.9887 136.336 84.2766 135.908C84.467 135.613 84.7477 135.389 85.0766 135.268C85.4059 135.147 85.7674 135.147 86.0966 135.268C86.5908 135.398 87.0402 135.661 87.3966 136.028C87.3567 136.543 87.1845 137.039 86.8966 137.468C86.7002 137.756 86.4215 137.979 86.0966 138.108C85.7641 138.208 85.4092 138.208 85.0766 138.108C84.5877 137.964 84.1414 137.703 83.7766 137.348Z" fill="#D88A66"></path> <path d="M81.5166 127.628C82.6374 127.376 83.8095 127.495 84.8566 127.968C85.9166 128.391 86.8088 129.149 87.3966 130.128C86.2846 130.386 85.1189 130.273 84.0766 129.808C83.0137 129.371 82.1173 128.607 81.5166 127.628V127.628Z" fill="#D88A66"></path> <path d="M81.5166 117.388C82.0627 117.56 82.5971 117.767 83.1166 118.008C83.5888 118.268 84.0371 118.569 84.4566 118.908C85.3337 119.659 85.9672 120.655 86.2766 121.768C85.1188 121.709 84.0136 121.266 83.1366 120.508C82.7195 120.133 82.3561 119.702 82.0566 119.228C81.6625 118.698 81.4709 118.046 81.5166 117.388V117.388Z" fill="#D88A66"></path> <path d="M127.397 175.128C126.755 174.211 125.847 173.513 124.797 173.128C123.844 172.816 122.809 172.873 121.897 173.288C121.775 173.339 121.643 173.366 121.511 173.366C121.379 173.367 121.247 173.341 121.125 173.291C121.002 173.241 120.891 173.167 120.797 173.074C120.703 172.981 120.628 172.87 120.577 172.748C120.525 172.626 120.499 172.495 120.498 172.362C120.498 172.23 120.523 172.098 120.573 171.976C120.623 171.853 120.697 171.742 120.79 171.648C120.884 171.554 120.995 171.479 121.117 171.428H121.377C122.737 171.226 124.124 171.548 125.257 172.328C126.234 173.026 126.98 174.001 127.397 175.128V175.128Z" fill="#D88A66"></path> <path d="M132.997 174.508C133.681 173.094 134.823 171.952 136.237 171.268C137.002 170.92 137.836 170.75 138.677 170.768C139.521 170.765 140.36 170.907 141.157 171.188C141.288 171.226 141.41 171.289 141.517 171.375C141.624 171.46 141.713 171.566 141.779 171.685C141.845 171.805 141.886 171.937 141.901 172.073C141.917 172.209 141.905 172.346 141.867 172.478C141.828 172.609 141.765 172.731 141.679 172.838C141.594 172.945 141.488 173.034 141.369 173.1C141.249 173.166 141.117 173.207 140.981 173.222C140.845 173.237 140.708 173.226 140.577 173.188C140.504 173.206 140.429 173.206 140.357 173.188V173.188C139.246 172.446 137.89 172.167 136.577 172.408C135.18 172.683 133.918 173.423 132.997 174.508V174.508Z" fill="#D88A66"></path> <path d="M98.2766 148.628C100.959 150.203 103.919 151.249 106.997 151.708C108.492 151.934 110.007 152.001 111.517 151.908C113.019 151.845 114.508 151.611 115.957 151.208C117.416 150.845 118.826 150.307 120.157 149.608C121.513 148.939 122.793 148.128 123.977 147.188C126.395 145.248 128.43 142.874 129.977 140.188C129.08 143.316 127.352 146.143 124.977 148.368C122.581 150.644 119.651 152.281 116.457 153.128C113.257 153.976 109.896 154.018 106.677 153.248C103.51 152.495 100.607 150.899 98.2766 148.628V148.628Z" fill="#D88A66"></path> <path d="M156.777 144.508C158.302 147.597 160.471 150.324 163.137 152.508C165.727 154.592 168.767 156.044 172.017 156.748C175.317 157.448 178.732 157.399 182.01 156.603C185.288 155.806 188.346 154.284 190.957 152.148C188.713 154.936 185.713 157.019 182.317 158.147C178.858 159.292 175.156 159.485 171.597 158.707C169.825 158.304 168.112 157.679 166.497 156.847C164.898 155.993 163.424 154.923 162.117 153.668C159.484 151.198 157.628 148.015 156.777 144.508V144.508Z" fill="#D88A66"></path> <path d="M131.197 127.928C130.351 124.757 128.782 121.824 126.613 119.361C124.445 116.897 121.735 114.969 118.697 113.728C115.728 112.548 112.522 112.086 109.341 112.382C106.159 112.677 103.093 113.72 100.392 115.427C97.6911 117.133 95.432 119.454 93.7991 122.2C92.1663 124.946 91.206 128.04 90.9967 131.228C90.7806 134.501 91.3337 137.78 92.6117 140.801C93.8897 143.823 95.8572 146.503 98.3567 148.628C95.5377 146.723 93.2466 144.136 91.6967 141.108C90.1293 138.013 89.3594 134.576 89.4567 131.108C89.5251 126.707 90.9639 122.438 93.5727 118.893C96.1815 115.349 99.8305 112.706 104.012 111.333C108.193 109.96 112.698 109.925 116.9 111.232C121.103 112.54 124.793 115.125 127.457 118.628C129.46 121.367 130.745 124.564 131.197 127.928V127.928Z" fill="#231F20"></path> <path d="M190.997 152.047C193.104 149.683 194.654 146.877 195.533 143.834C196.412 140.792 196.598 137.591 196.077 134.467C195.559 131.42 194.353 128.531 192.552 126.02C190.75 123.508 188.4 121.441 185.68 119.973C182.959 118.506 179.94 117.678 176.852 117.552C173.764 117.427 170.687 118.006 167.857 119.247C164.963 120.556 162.397 122.49 160.342 124.911C158.288 127.333 156.797 130.18 155.977 133.247C156.453 130.009 157.709 126.934 159.637 124.287C161.635 121.615 164.222 119.439 167.197 117.927C170.236 116.45 173.581 115.712 176.96 115.775C180.339 115.837 183.654 116.698 186.637 118.287C189.599 119.919 192.145 122.212 194.077 124.987C195.996 127.766 197.204 130.973 197.597 134.327C198 137.637 197.616 140.994 196.477 144.127C195.314 147.17 193.434 149.887 190.997 152.047Z" fill="#231F20"></path> <path d="M116.457 126.667C113.357 126.667 110.857 130.107 110.857 134.327C110.857 138.547 113.357 141.967 116.457 141.967C119.557 141.967 122.037 138.547 122.037 134.327C122.037 130.107 119.537 126.667 116.457 126.667Z" fill="#020201"></path> <path d="M178.257 130.028C175.457 130.028 173.197 133.448 173.197 137.668C173.197 141.888 175.457 145.328 178.257 145.328C181.057 145.328 183.337 141.888 183.337 137.668C183.337 133.448 181.057 130.028 178.257 130.028Z" fill="#020201"></path> <path d="M172.797 127.848C171.934 127.734 171.058 127.885 170.284 128.282C169.51 128.679 168.875 129.302 168.464 130.069C168.054 130.835 167.886 131.709 167.984 132.573C168.082 133.437 168.441 134.251 169.013 134.906C169.585 135.561 170.343 136.026 171.186 136.24C172.029 136.453 172.917 136.405 173.732 136.101C174.547 135.797 175.25 135.252 175.747 134.539C176.245 133.825 176.513 132.977 176.517 132.108C176.588 131.049 176.236 130.006 175.539 129.207C174.841 128.408 173.855 127.919 172.797 127.848V127.848Z" fill="white"></path> <path d="M111.637 124.168C110.774 124.054 109.896 124.206 109.122 124.603C108.347 125.001 107.713 125.625 107.302 126.393C106.892 127.161 106.725 128.035 106.825 128.9C106.924 129.765 107.285 130.579 107.859 131.233C108.434 131.888 109.194 132.352 110.038 132.563C110.883 132.774 111.772 132.723 112.586 132.416C113.401 132.109 114.102 131.56 114.597 130.844C115.092 130.128 115.357 129.278 115.357 128.408C115.422 127.353 115.068 126.315 114.371 125.52C113.674 124.726 112.691 124.239 111.637 124.168Z" fill="white"></path> </g> <defs> <clipPath id="clip0_154_708"> <rect width="288" height="208" fill="white"></rect> </clipPath> </defs> </svg> 