<?xml version="1.0" encoding="UTF-8"?> <svg xmlns="http://www.w3.org/2000/svg" width="24" height="24" viewBox="0 0 80 80" fill="none"> <path d="M40 80C62.0913 80 80 62.0913 80 40C80 17.9087 62.0913 0 40 0C17.9087 0 0 17.9087 0 40C0 62.0913 17.9087 80 40 80Z" fill="#0F1729"></path> <path d="M14.8969 41.9565C19.5728 39.3808 24.7925 37.2311 29.6695 35.0705C38.0599 31.5315 46.4835 28.0538 54.9922 24.8161C56.6477 24.2645 59.6222 23.725 59.9139 26.1783C59.7542 29.651 59.0972 33.1033 58.6465 36.5556C57.5027 44.1476 56.1807 51.7136 54.8915 59.2806C54.4474 61.8011 51.2899 63.1059 49.2695 61.4929C44.4142 58.2133 39.5215 54.9656 34.7282 51.6099C33.158 50.0144 34.614 47.7233 36.0164 46.584C40.0154 42.643 44.2564 39.2946 48.0464 35.15C49.0687 32.6811 46.048 34.7618 45.0517 35.3993C39.577 39.172 34.2364 43.1749 28.4644 46.4906C25.516 48.1136 22.0797 46.7266 19.1327 45.821C16.4903 44.727 12.6183 43.6248 14.8966 41.9566L14.8969 41.9565Z" fill="white"></path> </svg> 